<?xml version="1.0" encoding="UTF-8" standalone="no"?>
<svg
   xmlns:dc="http://purl.org/dc/elements/1.1/"
   xmlns:cc="http://creativecommons.org/ns#"
   xmlns:rdf="http://www.w3.org/1999/02/22-rdf-syntax-ns#"
   xmlns:svg="http://www.w3.org/2000/svg"
   xmlns="http://www.w3.org/2000/svg"
   xmlns:sodipodi="http://sodipodi.sourceforge.net/DTD/sodipodi-0.dtd"
   xmlns:inkscape="http://www.inkscape.org/namespaces/inkscape"
   width="1659.8179"
   height="1740.4281"
   viewBox="0 0 468.43749 491.1875"
   version="1.1"
   style="stroke-linecap:round"
   id="svg4271"
   inkscape:version="0.48.2 r9819"
   sodipodi:docname="site-plan.svg"
   inkscape:export-filename="/home/russ/Documents/emf/site-plan/site-plan.png"
   inkscape:export-xdpi="150"
   inkscape:export-ydpi="150">
  <metadata
     id="metadata5261">
    <rdf:RDF>
      <cc:Work
         rdf:about="">
        <dc:format>image/svg+xml</dc:format>
        <dc:type
           rdf:resource="http://purl.org/dc/dcmitype/StillImage" />
        <dc:title></dc:title>
      </cc:Work>
    </rdf:RDF>
  </metadata>
  <defs
     id="defs5259">
    <inkscape:path-effect
       effect="spiro"
       id="path-effect6237"
       is_visible="true" />
    <inkscape:path-effect
       effect="spiro"
       id="path-effect6175"
       is_visible="true" />
    <inkscape:path-effect
       effect="spiro"
       id="path-effect6171"
       is_visible="true" />
    <inkscape:path-effect
       effect="spiro"
       id="path-effect6166"
       is_visible="true" />
    <inkscape:path-effect
       effect="spiro"
       id="path-effect6162"
       is_visible="true" />
    <inkscape:path-effect
       effect="spiro"
       id="path-effect6158"
       is_visible="true" />
    <inkscape:path-effect
       effect="spiro"
       id="path-effect6151"
       is_visible="true" />
    <inkscape:path-effect
       effect="spiro"
       id="path-effect6147"
       is_visible="true" />
    <inkscape:path-effect
       effect="spiro"
       id="path-effect6122"
       is_visible="true" />
    <inkscape:path-effect
       effect="spiro"
       id="path-effect6106"
       is_visible="true" />
    <inkscape:path-effect
       effect="spiro"
       id="path-effect6064"
       is_visible="true" />
    <inkscape:path-effect
       effect="spiro"
       id="path-effect6033"
       is_visible="true" />
  </defs>
  <sodipodi:namedview
     pagecolor="#ffffff"
     bordercolor="#666666"
     borderopacity="1"
     objecttolerance="10"
     gridtolerance="10"
     guidetolerance="10"
     inkscape:pageopacity="1"
     inkscape:pageshadow="2"
     inkscape:window-width="1280"
     inkscape:window-height="1000"
     id="namedview5257"
     showgrid="false"
     inkscape:zoom="0.44329622"
     inkscape:cx="514.91335"
     inkscape:cy="917.38787"
     inkscape:window-x="0"
     inkscape:window-y="24"
     inkscape:window-maximized="1"
     inkscape:current-layer="layer9"
     showguides="true"
     inkscape:guide-bbox="true"
     fit-margin-top="0"
     fit-margin-left="0"
     fit-margin-right="0"
     fit-margin-bottom="0" />
  <path
     d="m 137.29425,299.61076 23.088,-43.398"
     style="fill:none;stroke:#000000;stroke-width:0.1"
     id="path4315"
     inkscape:connector-curvature="0" />
  <path
     d="m 209.89125,283.30376 -49.509,-27.091"
     style="fill:none;stroke:#000000;stroke-width:0.1"
     id="path4545"
     inkscape:connector-curvature="0" />
  <path
     d="m 457.27825,299.03976 -11.938,3.149"
     style="fill:none;stroke:#7f7f7f;stroke-width:0.1"
     id="path4845"
     inkscape:connector-curvature="0" />
  <path
     d="m 445.34025,302.18876 -192.153,56.771"
     style="fill:none;stroke:#7f7f7f;stroke-width:0.1"
     id="path4847"
     inkscape:connector-curvature="0" />
  <path
     d="m 253.18725,358.95976 -129.975,32.154"
     style="fill:none;stroke:#7f7f7f;stroke-width:0.1"
     id="path4849"
     inkscape:connector-curvature="0" />
  <path
     d="m 123.21225,391.11376 -8.184,29.282"
     style="fill:none;stroke:#7f7f7f;stroke-width:0.1"
     id="path4851"
     inkscape:connector-curvature="0" />
  <path
     d="m 115.02825,420.39576 6.766,73.009"
     style="fill:none;stroke:#7f7f7f;stroke-width:0.1"
     id="path4853"
     inkscape:connector-curvature="0" />
  <path
     d="m 121.79425,493.40476 28.669,110.845"
     style="fill:none;stroke:#7f7f7f;stroke-width:0.1"
     id="path4855"
     inkscape:connector-curvature="0" />
  <path
     d="m 505.21225,323.17976 -47.934,-24.14"
     style="fill:none;stroke:#7f7f7f;stroke-width:0.1"
     id="path4857"
     inkscape:connector-curvature="0" />
  <path
     d="m 501.75225,275.65276 -6.997,-17.855"
     style="fill:none;stroke:#0000ff;stroke-width:0.1"
     id="path4869"
     inkscape:connector-curvature="0" />
  <path
     d="m 494.75525,257.79776 -11.249,-15.954"
     style="fill:none;stroke:#0000ff;stroke-width:0.1"
     id="path4871"
     inkscape:connector-curvature="0" />
  <path
     d="m 483.50625,241.84376 -12.268,-16.959"
     style="fill:none;stroke:#0000ff;stroke-width:0.1"
     id="path4873"
     inkscape:connector-curvature="0" />
  <path
     d="m 471.23825,224.88476 -12.804,-18.575"
     style="fill:none;stroke:#0000ff;stroke-width:0.1"
     id="path4875"
     inkscape:connector-curvature="0" />
  <path
     d="m 458.43425,206.30976 -11.633,-23.301"
     style="fill:none;stroke:#0000ff;stroke-width:0.1"
     id="path4877"
     inkscape:connector-curvature="0" />
  <path
     d="m 446.80125,183.00876 1.951,-12.93"
     style="fill:none;stroke:#0000ff;stroke-width:0.1"
     id="path4879"
     inkscape:connector-curvature="0" />
  <path
     d="m 448.75225,170.07876 3.135,-11.848"
     style="fill:none;stroke:#0000ff;stroke-width:0.1"
     id="path4881"
     inkscape:connector-curvature="0" />
  <path
     d="m 451.88725,158.23076 8.258,-36.572"
     style="fill:none;stroke:#0000ff;stroke-width:0.1"
     id="path4883"
     inkscape:connector-curvature="0" />
  <path
     d="m 460.14525,121.65876 -1.998,-12.103"
     style="fill:none;stroke:#0000ff;stroke-width:0.1"
     id="path4885"
     inkscape:connector-curvature="0" />
  <path
     d="m 458.14725,109.55576 -14.43,-29.816001"
     style="fill:none;stroke:#0000ff;stroke-width:0.1"
     id="path4887"
     inkscape:connector-curvature="0" />
  <path
     d="m 443.71725,79.739759 -21.311,-46.159"
     style="fill:none;stroke:#0000ff;stroke-width:0.1"
     id="path4889"
     inkscape:connector-curvature="0" />
  <path
     d="m 422.40625,33.580759 -26.715,-59.37"
     style="fill:none;stroke:#0000ff;stroke-width:0.1"
     id="path4891"
     inkscape:connector-curvature="0" />
  <path
     d="m 395.69125,-25.789241 -16.408,-37.3569"
     style="fill:none;stroke:#0000ff;stroke-width:0.1"
     id="path4893"
     inkscape:connector-curvature="0" />
  <path
     d="m 379.28325,-63.146141 -7.902,-17.4142"
     style="fill:none;stroke:#0000ff;stroke-width:0.1"
     id="path4895"
     inkscape:connector-curvature="0" />
  <path
     d="m 371.93125,-80.865541 40.433,-26.686599"
     style="fill:none;stroke:#0000ff;stroke-width:0.1"
     id="path4897"
     inkscape:connector-curvature="0" />
  <path
     d="m 367.52425,-87.542341 39.529,-26.089899"
     style="fill:none;stroke:#0000ff;stroke-width:0.1"
     id="path4899"
     inkscape:connector-curvature="0" />
  <path
     d="m 430.18025,-140.09404 8.114,-21.15709"
     style="fill:none;stroke:#0000ff;stroke-width:0.1"
     id="path4901"
     inkscape:connector-curvature="0" />
  <path
     d="m 407.05325,-113.63224 23.127,-26.4618"
     style="fill:none;stroke:#0000ff;stroke-width:0.1"
     id="path4903"
     inkscape:connector-curvature="0" />
  <path
     d="m 437.14025,-135.90084 8.624,-22.48572"
     style="fill:none;stroke:#0000ff;stroke-width:0.1"
     id="path4905"
     inkscape:connector-curvature="0" />
  <path
     d="m 412.36425,-107.55214 24.776,-28.3487"
     style="fill:none;stroke:#0000ff;stroke-width:0.1"
     id="path4907"
     inkscape:connector-curvature="0" />
  <path
     d="m 166.10125,258.77176 44.152,24.161"
     style="fill:none;stroke:#000000;stroke-width:0.1"
     id="path4911"
     inkscape:connector-curvature="0" />
  <path
     d="m 505.21225,287.70976 -3.46,-12.057"
     style="fill:none;stroke:#0000ff;stroke-width:0.1"
     id="path4921"
     inkscape:connector-curvature="0" />
  <path
     d="m 137.29425,299.61076 1.556,31.301"
     style="fill:none;stroke:#000000;stroke-width:0.1"
     id="path4925"
     inkscape:connector-curvature="0" />
  <path
     d="m 138.85025,330.91176 5.34,27.081"
     style="fill:none;stroke:#000000;stroke-width:0.1"
     id="path4927"
     inkscape:connector-curvature="0" />
  <path
     d="m 144.19025,357.99276 24.792,4.004"
     style="fill:none;stroke:#000000;stroke-width:0.1"
     id="path4929"
     inkscape:connector-curvature="0" />
  <path
     d="m 168.98225,361.99676 3.674,14.472"
     style="fill:none;stroke:#000000;stroke-width:0.1"
     id="path4931"
     inkscape:connector-curvature="0" />
  <path
     d="m 111.60225,340.02776 21.969,-34.785"
     style="fill:none;stroke:#7f7f7f;stroke-width:0.1"
     id="path5015"
     inkscape:connector-curvature="0" />
  <path
     d="m 133.57125,305.24276 2.319,25.021"
     style="fill:none;stroke:#7f7f7f;stroke-width:0.1"
     id="path5017"
     inkscape:connector-curvature="0" />
  <path
     d="m 135.89025,330.26376 4.516,27.828"
     style="fill:none;stroke:#7f7f7f;stroke-width:0.1"
     id="path5019"
     inkscape:connector-curvature="0" />
  <path
     d="m 140.40625,358.09176 6.25,7.377"
     style="fill:none;stroke:#7f7f7f;stroke-width:0.1"
     id="path5021"
     inkscape:connector-curvature="0" />
  <path
     d="m 146.65625,365.46876 7.42,14.104"
     style="fill:none;stroke:#7f7f7f;stroke-width:0.1"
     id="path5023"
     inkscape:connector-curvature="0" />
  <path
     d="m 124.17825,386.01676 -12.576,-45.989"
     style="fill:none;stroke:#7f7f7f;stroke-width:0.1"
     id="path5037"
     inkscape:connector-curvature="0" />
  <path
     d="m 154.07625,379.57276 -29.898,6.444"
     style="fill:none;stroke:#7f7f7f;stroke-width:0.1"
     id="path5039"
     inkscape:connector-curvature="0" />
  <path
     d="m 172.65625,376.46876 44.02579,-14.0129"
     style="fill:none;stroke:#000000;stroke-width:0.1"
     id="path5045"
     inkscape:connector-curvature="0"
     sodipodi:nodetypes="cc" />
  <path
     d="m 443.45525,247.85476 -18.243,-13.349"
     style="fill:none;stroke:#7f7f7f;stroke-width:0.1"
     id="path5051"
     inkscape:connector-curvature="0" />
  <g
     inkscape:groupmode="layer"
     id="layer5"
     inkscape:label="Colours"
     style="display:inline"
     transform="translate(-29.343751,-161.53124)">
    <path
       style="fill:#64c36f;fill-opacity:1;stroke:#000000;stroke-width:1px;stroke-linecap:butt;stroke-linejoin:miter;stroke-opacity:1"
       d="m 850.19429,1572.7797 89.32623,-159.5111 149.94048,-185.033 312.6418,35.0925 275.9542,189.0207 -239.2667,240.0642 -566.26445,162.7014 -46.25823,-191.4134 23.92667,-90.9213"
       id="path6145"
       inkscape:path-effect="#path-effect6147"
       inkscape:original-d="m 850.19429,1572.7797 89.32623,-159.5111 149.94048,-185.033 312.6418,35.0925 275.9542,189.0207 -239.2667,240.0642 -566.26445,162.7014 -46.25823,-191.4134 z"
       inkscape:connector-curvature="0"
       transform="matrix(0.28222223,0,0,0.28222223,-1.040706e-5,0)"
       sodipodi:nodetypes="ccccccccc" />
    <path
       style="fill:#64c36f;fill-opacity:1;stroke:#000000;stroke-width:1px;stroke-linecap:butt;stroke-linejoin:miter;stroke-opacity:1;display:inline"
       d="m 558.28893,1649.345 -66.99467,108.4676 -7.178,43.068 c 4.84825,17.0739 9.89991,34.09 15.15356,51.0435 4.62889,14.9374 9.41457,29.8262 14.356,44.6632 l 19.14133,0 11.16578,42.2704 105.27734,-21.534 -43.068,-75.7677 -15.95111,-94.1116 -3.98778,-98.0994 -27.91445,0"
       id="path6235"
       inkscape:path-effect="#path-effect6237"
       inkscape:original-d="m 558.28893,1649.345 -66.99467,108.4676 -7.178,43.068 15.15356,51.0435 14.356,44.6632 19.14133,0 11.16578,42.2704 105.27734,-21.534 -43.068,-75.7677 -15.95111,-94.1116 -3.98778,-98.0994 z"
       inkscape:connector-curvature="0"
       transform="matrix(0.28222223,0,0,0.28222223,-1.040706e-5,0)"
       sodipodi:nodetypes="cccccccccccc" />
  </g>
  <g
     inkscape:groupmode="layer"
     id="layer6"
     inkscape:label="Stages"
     style="display:inline"
     sodipodi:insensitive="true"
     transform="translate(-29.343751,-161.53124)">
    <path
       style="fill:#f65959;fill-opacity:1;stroke:#000000;stroke-width:1px;stroke-linecap:butt;stroke-linejoin:miter;stroke-opacity:1"
       d="m 862.5564,1410.0783 -11.16578,17.5463 32.69978,19.5401 11.56456,-18.3438 -33.09856,-18.7426"
       id="path6156"
       inkscape:path-effect="#path-effect6158"
       inkscape:original-d="m 862.5564,1410.0783 -11.16578,17.5463 32.69978,19.5401 11.56456,-18.3438 z"
       inkscape:connector-curvature="0"
       transform="matrix(0.28222223,0,0,0.28222223,-1.040706e-5,0)" />
    <path
       style="fill:#f65959;fill-opacity:1;stroke:#000000;stroke-width:1px;stroke-linecap:butt;stroke-linejoin:miter;stroke-opacity:1"
       d="m 821.48229,1481.8583 -10.767,19.1414 31.90222,19.5401 11.96334,-17.945 -33.09856,-20.7365"
       id="path6160"
       inkscape:path-effect="#path-effect6162"
       inkscape:original-d="m 821.48229,1481.8583 -10.767,19.1414 31.90222,19.5401 11.96334,-17.945 z"
       inkscape:connector-curvature="0"
       transform="matrix(0.28222223,0,0,0.28222223,-1.040706e-5,0)" />
    <path
       style="fill:#f65959;fill-opacity:1;stroke:#000000;stroke-width:1px;stroke-linecap:butt;stroke-linejoin:miter;stroke-opacity:1"
       d="m 807.52506,1439.1891 -10.36822,18.7426 20.73645,12.3621 12.36211,-19.1414 -22.73034,-11.9633"
       id="path6164"
       inkscape:path-effect="#path-effect6166"
       inkscape:original-d="m 807.52506,1439.1891 -10.36822,18.7426 20.73645,12.3621 12.36211,-19.1414 z"
       inkscape:connector-curvature="0"
       transform="matrix(0.28222223,0,0,0.28222223,-1.040706e-5,0)" />
    <path
       style="fill:#f65959;fill-opacity:1;stroke:#000000;stroke-width:1px;stroke-linecap:butt;stroke-linejoin:miter;stroke-opacity:1"
       d="m 908.81463,1174.7994 33.89611,19.9389 10.36822,-17.945 -33.89611,-21.1352 -10.36822,19.1413"
       id="path6173"
       inkscape:path-effect="#path-effect6175"
       inkscape:original-d="m 908.81463,1174.7994 33.89611,19.9389 10.36822,-17.945 -33.89611,-21.1352 z"
       inkscape:connector-curvature="0"
       transform="matrix(0.28222223,0,0,0.28222223,-1.040706e-5,0)" />
  </g>
  <g
     inkscape:groupmode="layer"
     id="layer7"
     inkscape:label="Fences"
     style="display:inline"
     sodipodi:insensitive="true"
     transform="translate(-29.343751,-161.53124)">
    <path
       style="fill:none;stroke:#000000;stroke-width:1px;stroke-linecap:butt;stroke-linejoin:miter;stroke-opacity:1"
       d="m 692.2572,1487.6039 78.39002,-152.8324 166.08533,83.7476 -86.84937,155.3702"
       id="path6169"
       inkscape:path-effect="#path-effect6171"
       inkscape:original-d="m 692.2572,1487.6039 78.39002,-152.8324 166.08533,83.7476 -86.84937,155.3702"
       inkscape:connector-curvature="0"
       transform="matrix(0.28222223,0,0,0.28222223,-1.040706e-5,0)" />
  </g>
  <g
     inkscape:groupmode="layer"
     id="layer3"
     inkscape:label="River"
     style="display:inline"
     sodipodi:insensitive="true"
     transform="translate(-29.343751,-161.53124)">
    <path
       style="fill:none;stroke:#004db9;stroke-width:22;stroke-linecap:butt;stroke-linejoin:miter;stroke-miterlimit:4;stroke-opacity:1;stroke-dasharray:none"
       d="M 160.71114,2720.7593 C 108.16094,2541.6923 57.609784,2362.0387 9.070267,2181.8432 c -5.4764704,-20.3306 -10.9429449,-40.7464 -13.5550635,-61.639 -2.6121187,-20.8926 -2.2927751,-42.4162 3.66376337,-62.6113 5.83125313,-19.7704 16.86436013,-37.6445 29.45606913,-53.9638 12.591709,-16.3193 26.815858,-31.3011 40.038211,-47.1137 18.639024,-22.2905 35.336923,-46.2879 55.829793,-66.8869 23.40785,-23.5291 51.25646,-42.113 76.26565,-63.9324 33.60921,-29.3225 63.08721,-65.1775 103.76808,-83.4657 26.37118,-11.8552 55.56887,-15.3999 84.06813,-20.2761 28.49927,-4.8763 57.65596,-11.6071 81.06478,-28.578 22.30815,-16.173 37.4222,-40.2076 51.42657,-63.9373 15.65806,-26.5317 30.64974,-53.4809 47.5427,-79.244 21.06483,-32.1255 45.4899,-63.2636 55.56467,-100.3348 7.5917,-27.9344 6.53065,-57.6931 14.44589,-85.5376 9.22033,-32.4356 29.93665,-60.1418 45.83309,-89.8804 21.9345,-41.0344 35.16944,-86.9503 62.82701,-124.367 20.26503,-27.4156 47.2953,-48.9088 72.57757,-71.7801 15.14572,-13.7014 29.84249,-28.0645 46.78393,-39.471 19.79777,-13.3296 42.52348,-22.5308 60.08852,-38.6894 19.42564,-17.87022 31.16363,-43.80011 31.90222,-70.18485 0.70369,-25.13779 -8.05379,-49.49809 -17.40038,-72.84428 -4.38776,-10.95987 -9.00793,-22.22294 -8.91895,-34.02817 0.072,-9.54887 3.2613,-18.85114 7.6554,-27.32923 4.3941,-8.47808 9.98574,-16.26503 15.27461,-24.21574 14.99206,-22.53742 27.63754,-46.53761 41.67199,-69.68349 28.03438,-46.23486 61.51678,-88.91071 95.70668,-130.79912 29.3903,-36.00809 59.397,-71.56487 86.7054,-109.17639 20.1054,-27.69096 38.7174,-56.45433 59.2473,-83.83207 7.0652,-9.42181 14.4037,-18.72849 23.1653,-26.59751 20.6831,-18.57602 47.7589,-27.91541 73.3389,-38.80205 58.6891,-24.97757 112.554,-60.00564 164.2965,-97.30178 51.2215,-36.92059 101.5157,-77.09959 137.1795,-129.204015 18.0683,-26.397593 32.1044,-55.549613 41.4729,-86.1360064358553"
       id="path6104"
       inkscape:path-effect="#path-effect6106"
       inkscape:original-d="M 160.71114,2720.7593 C 138.15286,2668.8753 31.628547,2224.704 9.070267,2181.8432 -13.488012,2138.9825 -9.8443448,2064.3604 -0.82103313,2057.5929 6.0270544,2052.4568 51.861448,1993.7867 68.673247,1956.5154 c 14.796365,-32.8032 42.886953,-50.7207 55.829793,-66.8869 19.03351,-23.7737 25.70775,-40.0513 76.26565,-63.9324 40.71762,-19.233 67.67484,-65.419 103.76808,-83.4657 36.09325,-18.0466 142.57463,-46.5983 165.13291,-48.8541 22.55828,-2.2558 40.14739,-45.8906 51.42657,-63.9373 5.18387,-8.2942 25.95261,-42.6083 47.5427,-79.244 25.38599,-43.0768 51.90751,-89.3632 55.56467,-100.3348 6.76745,-20.3024 -0.067,-44.1554 14.44589,-85.5376 10.74033,-30.625 35.59501,-68.1655 45.83309,-89.8804 26.02014,-55.1887 51.37995,-106.0517 62.82701,-124.367 15.95111,-25.5218 47.05574,-46.2583 72.57757,-71.7801 15.91334,-15.9132 21.27624,-22.6091 46.78393,-39.471 15.40149,-10.1812 55.88483,-32.6841 60.08852,-38.6894 11.16572,-15.95111 31.90222,-51.04352 31.90222,-70.18485 0,-12.14761 -22.37506,-98.42044 -17.40038,-72.84428 261.78693,1345.91563 -8.33614,-27.03445 -8.91895,-34.02817 -0.68686,-8.24222 10.01294,-29.202 22.93001,-51.54497 17.0809,-29.54525 38.03896,-61.50916 41.67199,-69.68349 6.38048,-14.35601 95.70668,-130.79912 95.70668,-130.79912 0,0 46.7113,-56.34942 86.7054,-109.17639 29.7801,-39.33564 49.716,-71.57758 59.2473,-83.83207 11.1295,-14.30933 6.475,-14.25751 23.1653,-26.59751 16.7991,-12.42044 59.7364,-35.60146 73.3389,-38.80205 27.1169,-6.38044 133.9893,-68.58978 164.2965,-97.30178 C 1529.7117,186.62801 1620.633,114.84801 1636.5841,86.136005 1652.5352,57.424003 1678.057,-1.4358553e-6 1678.057,-1.4358553e-6"
       inkscape:connector-curvature="0"
       transform="matrix(0.28222223,0,0,0.28222223,-1.040706e-5,0)"
       sodipodi:nodetypes="cssssssssssssssssssssscssssssc" />
  </g>
  <g
     inkscape:groupmode="layer"
     id="layer4"
     inkscape:label="Boundary"
     style="display:inline"
     sodipodi:insensitive="true"
     transform="translate(-29.343751,-161.53124)">
    <path
       id="path5159"
       style="fill:none;stroke:#ff0000;stroke-width:1.12888896;stroke-linecap:round;stroke-miterlimit:4;stroke-dasharray:none"
       d="m 422,287 44,30 M 305.084,208.003 298.989,204.362 M 324,179 305.084,208.003 M 308.055,168.616 324,179 m -36.393,17.508 20.448,-27.892 m 0,0 L 324,179 m -36.393,17.508 0.347,-0.474 m 11.035,8.328 5.685,4.27 M 289,217 298.989,204.362 M 411,299 289,217 m 33.765,-36.106 -0.322,0.493 M 324,179 l -1.235,1.894 m -17.681,27.109 -0.41,0.629 m -30.936,44.679 c 0,0 -0.89644,-4.83149 -2.59049,-10.17548 -1.4279,-4.50444 -3.74506,-9.32692 -3.32962,-12.38996 0.58995,-4.34978 5.20751,-9.09326 7.79724,-14.26979 C 281.02419,205.66377 287.607,196.508 287.607,196.508 M 233,470 246,524 M 411,299 422,287 M 246,524 280.64713,514.23874 406.59161,477.72671 490.036,393.05338 463.533,349.70574 466,317 M 240,445 195.2,420.4 m 0,0 -7.651,-4.952 M 233,470 l 7,-25 m -55.011,-31.127 -5.42743,-2.88299 c 1.12535,-3.17705 1.43482,-5.85828 1.77828,-8.25499 0.5279,-3.68366 0.75279,-6.6952 1.1545,-9.80177 0.42514,-3.28774 1.109,-6.6719 2.96108,-11.23371 l 11.2504,-20.204 4.81939,-9.9367 5.20976,-12.44077 3.96064,-6.87064 c 0,0 3.71689,-5.85315 5.90503,-8.53158 2.08588,-2.55326 4.42213,-4.90397 6.84662,-7.13822 2.99046,-2.75582 7.8364,-6.86373 11.99251,-10.44243 2.75351,-2.37096 5.1136,-5.05861 7.34263,-6.74641 3.32064,-2.51437 3.36661,-2.25852 12.05111,-7.8185 1.54925,-0.99186 4.26004,-2.37191 5.32496,-3.06583 5.2113,-3.39575 7.26647,-5.53246 8.71103,-7.96629 3.87539,-6.52936 3.40194,-4.03891 5.25609,-10.54627 1.84537,-6.47653 0.78015,-9.30047 -0.3876,-16.6809 M 246,524 233,470 M 466,317 422,287"
       inkscape:connector-curvature="0"
       sodipodi:nodetypes="cccccccccccccccccccccccccccssscccccccccccccccccccsscccccssssssssccccc" />
  </g>
  <g
     inkscape:groupmode="layer"
     id="layer2"
     inkscape:label="Site Roads"
     style="display:inline"
     sodipodi:insensitive="true"
     transform="translate(-29.343751,-161.53124)">
    <path
       style="fill:none;stroke:#898989;stroke-width:10;stroke-linecap:butt;stroke-linejoin:miter;stroke-miterlimit:4.5;stroke-opacity:1;stroke-dasharray:none"
       d="m 328.22297,2259.9429 -77.82606,9.0233 c -18.86828,4.6538 -39.29537,2.7163 -56.95226,-5.4018 -17.6569,-8.1181 -32.4256,-22.3626 -41.17626,-39.7147 -12.44517,-24.6781 -12.40554,-53.6633 -10.15123,-81.2098 2.25576,-27.5642 6.50193,-55.16 15.7908,-81.2098 6.00922,-16.8523 14.13947,-33.014 24.8141,-47.3724 10.01453,-13.4705 22.67501,-25.5758 38.34908,-31.5816 13.59788,-5.2103 28.49494,-5.5135 42.86073,-7.8954 24.90514,-4.1293 48.25212,-14.5294 72.18649,-22.5583 23.96039,-8.0377 48.63541,-13.7292 73.31441,-19.1745 20.46401,-4.5153 41.02485,-8.8874 60.81546,-15.7791 15.33165,-5.3389 30.14115,-12.1761 44.14896,-20.3825 -2.70166,-11.3922 -6.13073,-22.6118 -10.25938,-33.5678 -4.74316,-12.5867 -10.40846,-24.8266 -14.67042,-37.5843 -4.26195,-12.7577 -7.11484,-26.2193 -5.97934,-39.622 0.99862,-11.7871 5.05657,-23.1478 10.41458,-33.6941 5.35802,-10.5463 12.01219,-20.3703 18.55858,-30.2231 20.17648,-30.3672 39.49865,-61.2966 58.26326,-92.556 40.02226,-66.6718 77.5134,-134.8533 112.7914,-204.1524 19.07173,-37.464 37.49797,-75.2566 55.26778,-113.3553 7.04658,-9.9493 14.08834,-19.902 21.12529,-29.8581 9.96546,-14.0995 19.96648,-28.2613 31.84659,-40.79 14.40992,-15.1966 30.86807,-28.2834 46.6295,-42.0733 67.93396,-59.4363 137.01485,-117.5616 207.19127,-174.3327 34.3293,-27.77159 68.9206,-55.21914 103.768,-82.33777"
       inkscape:path-effect="#path-effect6064"
       inkscape:original-d="m 328.22297,2259.9429 c -129.71011,58.6516 -77.82606,9.0233 -77.82606,9.0233 0,0 -91.36104,-20.3024 -98.12852,-45.1165 -6.76749,-24.8141 -14.66289,-69.9307 -10.15123,-81.2098 4.51166,-11.2791 11.27914,-71.0586 15.7908,-81.2098 4.51165,-10.1512 18.04662,-39.477 24.8141,-47.3724 6.76749,-7.8954 30.45368,-30.4537 38.34908,-31.5816 7.8954,-1.1279 28.19785,-5.6396 42.86073,-7.8954 14.66288,-2.2558 47.37239,-18.0466 72.18649,-22.5583 24.81411,-4.5116 45.11656,-13.5349 73.31441,-19.1745 28.19785,-5.6396 41.09369,-8.7319 60.81546,-15.7791 15.26376,-5.4542 44.14896,-20.3825 44.14896,-20.3825 0,0 -8.58532,-25.43 -10.25938,-33.5678 -6.70556,-32.5967 -22.70183,-52.2744 -20.64976,-77.2063 2.05207,-24.9319 14.79236,-37.5665 28.97316,-63.9172 14.1808,-26.3507 32.40139,-46.189 58.26326,-92.556 37.96031,-68.058 113.91931,-192.8732 112.7914,-204.1524 -1.12791,-11.2791 55.26778,-113.3553 55.26778,-113.3553 0,0 9.63187,-13.9796 21.12529,-29.8581 11.26644,-15.565 24.32163,-32.9546 31.84659,-40.79 15.54098,-16.1822 46.6295,-42.0733 46.6295,-42.0733 l 207.19127,-174.3327 103.768,-82.33777"
       inkscape:connector-curvature="0"
       sodipodi:nodetypes="ccssssssssscszzsscssccc"
       transform="matrix(0.28222223,0,0,0.28222223,-1.040706e-5,0)" />
    <path
       id="path6120"
       transform="matrix(0.28222223,0,0,0.28222223,-1.040706e-5,0)"
       style="fill:none;stroke:#898989;stroke-width:10;stroke-linecap:butt;stroke-linejoin:round;stroke-miterlimit:4;stroke-opacity:1;stroke-dasharray:none"
       inkscape:path-effect="#path-effect6122"
       inkscape:original-d="m 1189.9492,1491.8335 197.385,154.5243 m -543.65455,71.0585 625.99225,-407.1769 m -632.2385,-112.3109 411.5387,257.6105"
       d="m 1189.9492,1491.8335 197.385,154.5243 m -543.65455,71.0585 625.99225,-407.1769 m -632.2385,-112.3109 411.5387,257.6105"
       inkscape:connector-curvature="0" />
    <path
       style="fill:none;stroke:#898989;stroke-width:10;stroke-linecap:butt;stroke-linejoin:miter;stroke-miterlimit:4;stroke-opacity:1;stroke-dasharray:none"
       d="m 673.9286,1441.6414 31.01763,-7.3315 87.97729,10.1512"
       id="path6149"
       inkscape:path-effect="#path-effect6151"
       inkscape:original-d="m 673.9286,1441.6414 31.01763,-7.3315 87.97729,10.1512"
       inkscape:connector-curvature="0"
       transform="matrix(0.28222223,0,0,0.28222223,-1.040706e-5,0)" />
  </g>
  <g
     inkscape:groupmode="layer"
     id="layer1"
     inkscape:label="Roads"
     style="display:inline"
     sodipodi:insensitive="true"
     transform="translate(-29.343751,-161.53124)">
    <path
       id="path6031"
       style="fill:#9e9e9e;fill-opacity:1;fill-rule:evenodd;stroke:#000000;stroke-width:0.56444448;stroke-linecap:butt;stroke-linejoin:miter;stroke-miterlimit:4;stroke-opacity:1;stroke-dasharray:none"
       inkscape:path-effect="#path-effect6033"
       inkscape:original-d="M -1.9099448,74.693822 C 54.751441,160.64087 61.754534,112.25586 84.673748,240.22147 c 22.919212,127.96559 10.82296,296.67646 14.006184,306.22613 3.183228,9.54969 29.922308,220.91574 29.922308,220.91574 M -1.9099448,74.693822 -22.118734,87.163007 c 4.334248,6.574422 11.078985,13.263173 14.8614512,18.404623 45.6655038,62.07235 53.2572648,29.84635 74.4232958,148.02338 22.919203,127.96557 10.82296,296.67647 14.00619,306.22613 3.18323,9.54967 29.922307,220.91575 29.922307,220.91575 l 17.50773,-13.36955"
       d="M -1.9099448,74.693822 C 39.318716,122.11654 69.234675,179.30881 84.673748,240.22147 109.85287,339.5621 96.421595,443.99054 98.679932,546.4476 100.32095,620.89774 110.37941,695.15915 128.60224,767.36334 M -1.9099448,74.693822 -22.118734,87.163007 c 5.103928,6.011613 10.059748,12.148969 14.8614512,18.404623 33.8440748,44.09203 60.0344988,94.33454 74.4232958,148.02338 26.540784,99.03148 12.157225,203.71648 14.00619,306.22613 1.34317,74.46751 11.407744,148.77405 29.922307,220.91575 l 17.50773,-13.36955"
       inkscape:connector-curvature="0"
       sodipodi:nodetypes="cssccsssc" />
    <path
       id="path4829"
       style="fill:#9e9e9e;fill-opacity:1;stroke:#000000;stroke-width:0.56444448;stroke-linecap:round;stroke-miterlimit:4;stroke-dasharray:none"
       d="m 72.1964,5.78102 469.08252,327.62012 m 0,0 -4.60447,27.75679 L 5.55795,5.78102 l 66.63845,0"
       inkscape:connector-curvature="0" />
    <path
       style="fill:#000000;fill-opacity:1;fill-rule:evenodd;stroke:#000000;stroke-width:15.95111275;stroke-linejoin:miter;stroke-miterlimit:4.5;stroke-opacity:1;stroke-dasharray:none"
       d=""
       id="path6099"
       inkscape:connector-curvature="0"
       transform="matrix(0.28222223,0,0,0.28222223,-1.040706e-5,0)" />
  </g>
  <g
     inkscape:groupmode="layer"
     id="layer8"
     inkscape:label="Labels"
     transform="translate(-29.343751,-161.53124)">
    <text
       xml:space="preserve"
       style="font-size:11.28888893px;font-style:normal;font-weight:normal;line-height:125%;letter-spacing:0px;word-spacing:0px;fill:#000000;fill-opacity:1;stroke:none;font-family:Bitstream Vera Sans"
       x="306.10507"
       y="454.45245"
       id="text6195"
       sodipodi:linespacing="125%"><tspan
         sodipodi:role="line"
         id="tspan6197"
         x="306.10507"
         y="454.45245"
         style="text-align:start;text-anchor:start">Camping</tspan><tspan
         sodipodi:role="line"
         x="306.10507"
         y="468.56357"
         id="tspan6207">Area</tspan></text>
    <text
       xml:space="preserve"
       style="font-size:11.28888893px;font-style:normal;font-weight:normal;line-height:125%;letter-spacing:0px;word-spacing:0px;fill:#000000;fill-opacity:1;stroke:none;font-family:Bitstream Vera Sans"
       x="263.25262"
       y="326.16852"
       id="text6199"
       sodipodi:linespacing="125%"><tspan
         sodipodi:role="line"
         id="tspan6201"
         x="263.25262"
         y="326.16852"
         style="font-size:6.77333355px">Workshops Tent</tspan></text>
    <text
       xml:space="preserve"
       style="font-size:6.77333355px;font-style:normal;font-weight:normal;line-height:125%;letter-spacing:0px;word-spacing:0px;fill:#000000;fill-opacity:1;stroke:none;font-family:Bitstream Vera Sans"
       x="209.45612"
       y="398.74603"
       id="text6203"
       sodipodi:linespacing="125%"><tspan
         sodipodi:role="line"
         id="tspan6205"
         x="209.45612"
         y="398.74603">Stages</tspan></text>
    <flowRoot
       xml:space="preserve"
       id="flowRoot6209"
       style="font-size:40px;font-style:normal;font-weight:normal;line-height:125%;letter-spacing:0px;word-spacing:0px;fill:#000000;fill-opacity:1;stroke:none;font-family:Bitstream Vera Sans"
       transform="matrix(0.28222223,0,0,0.28222223,-1.040706e-5,0)"><flowRegion
         id="flowRegion6211"><rect
           id="rect6213"
           width="24.814108"
           height="139.86133"
           x="1396.3575"
           y="1328.286" /></flowRegion><flowPara
         id="flowPara6215"></flowPara></flowRoot>    <text
       xml:space="preserve"
       style="font-size:11.28888893px;font-style:normal;font-weight:normal;line-height:125%;letter-spacing:0px;word-spacing:0px;fill:#000000;fill-opacity:1;stroke:none;display:inline;font-family:Bitstream Vera Sans"
       x="284.42105"
       y="206.63846"
       id="text6217"
       sodipodi:linespacing="125%"><tspan
         sodipodi:role="line"
         id="tspan6219"
         x="284.42105"
         y="206.63846"
         style="font-size:6.77333355px">Bar</tspan></text>
    <text
       xml:space="preserve"
       style="font-size:6.77333355px;font-style:normal;font-weight:normal;line-height:125%;letter-spacing:0px;word-spacing:0px;fill:#000000;fill-opacity:1;stroke:none;font-family:Bitstream Vera Sans"
       x="139.77959"
       y="503.97186"
       id="text6243"
       sodipodi:linespacing="125%"><tspan
         sodipodi:role="line"
         id="tspan6245"
         x="139.77959"
         y="503.97186">Camper</tspan><tspan
         sodipodi:role="line"
         x="139.77959"
         y="512.43854"
         id="tspan6247">Vans</tspan></text>
    <text
       xml:space="preserve"
       style="font-size:11.28888893px;font-style:normal;font-weight:normal;line-height:125%;letter-spacing:0px;word-spacing:0px;fill:#000000;fill-opacity:1;stroke:none;font-family:Bitstream Vera Sans"
       x="432.36844"
       y="-23.922697"
       id="text6252"
       sodipodi:linespacing="125%"
       transform="matrix(0.8112939,0.58463853,-0.58463853,0.8112939,0,0)"><tspan
         sodipodi:role="line"
         id="tspan6254"
         x="432.36844"
         y="-23.922697">M1</tspan></text>
    <text
       xml:space="preserve"
       style="font-size:11.28888893px;font-style:normal;font-weight:normal;line-height:125%;letter-spacing:0px;word-spacing:0px;fill:#000000;fill-opacity:1;stroke:none;font-family:Bitstream Vera Sans"
       x="174.89717"
       y="27.18154"
       id="text6256"
       sodipodi:linespacing="125%"
       transform="matrix(0.38451239,0.92311983,-0.92311983,0.38451239,0,0)"><tspan
         sodipodi:role="line"
         id="tspan6258"
         x="174.89717"
         y="27.18154">Tongwell Street</tspan></text>
  </g>
  <g
     inkscape:groupmode="layer"
     id="layer9"
     inkscape:label="Bounding Box"
     transform="translate(-29.343751,-161.53124)"
     style="display:inline">
    <rect
       style="fill:none;stroke:#000000;stroke-width:1.36795437;stroke-linecap:butt;stroke-linejoin:round;stroke-miterlimit:4;stroke-opacity:1;stroke-dasharray:none"
       id="rect6260"
       width="467.05933"
       height="489.79135"
       x="30.033833"
       y="162.22812" />
    <g
       transform="matrix(0.35277779,0,0,-0.35277779,441.34083,649.00423)"
       inkscape:label="emf-logo"
       id="g6270">
      <g
         id="g6272">
        <path
           id="path6274"
           style="fill:#373535;fill-opacity:1;fill-rule:nonzero;stroke:none"
           d="m 20.941,77.028 c -9.472,0 -17.261,-7.957 -17.261,-17.371 0,-9.414 7.789,-17.476 17.261,-17.476 9.36,0 17.098,8.062 17.098,17.476 0,9.414 -7.738,17.371 -17.098,17.371 m 1.786,-77.027 -3.625,0 0,38.769 C 8.387,39.692 0,48.782 0,59.657 0,70.591 8.387,79.517 19.102,80.434 l 0,39.27 3.625,0 0,-39.27 C 33.332,79.571 41.824,70.642 41.824,59.657 41.824,48.782 33.332,39.638 22.727,38.77 l 0,-38.769 z m -5.465,58.254 c -1.301,0 -2.543,-1.031 -4.059,-3.031 l -3.789,2.488 c 2.004,4.328 4.274,6.222 7.035,6.222 2.977,0 5.953,-2.867 8.117,-2.867 1.297,0 2.543,0.649 4.164,3.028 l 3.735,-2.489 c -2.055,-3.949 -4.168,-6.332 -7.469,-6.332 -3.191,0 -5.949,2.981 -7.734,2.981 m 107.148,21.351 23.074,0 0,-4.672 -18.14,0 0,-12.886 15.383,0 0,-4.723 -15.383,0 0,-17.508 -4.934,0 0,39.789 z m -44.156,0 4.984,0 12.68,-22.547 13.105,22.547 4.985,0 0,-39.789 -4.985,0 0,30.45 -11.246,-19.043 -4.246,0 -10.293,18.566 0,-29.973 -4.984,0 0,39.789 z m -31.055,0 23.66,0 0,-4.672 -18.781,0 0,-12.199 16.02,0 0,-4.668 -16.02,0 0,-13.582 19.574,0 0,-4.668 -24.453,0 0,39.789 z"
           inkscape:connector-curvature="0" />
      </g>
    </g>
  </g>
</svg>
