999
dxflib 2.2.0.0
  0
SECTION
  2
HEADER
  9
$ACADVER
  1
AC1015
  9
$HANDSEED
  5
FFFF
  9
$DIMASZ
 40
2.5
  9
$PLIMMIN
 10
0.0
 20
0.0
  9
$DIMEXE
 40
1.25
  9
$DIMGAP
 40
0.625
  9
$PLIMMAX
 10
210.0
 20
297.0
  9
$INSUNITS
 70
4
  9
$DIMEXO
 40
0.625
  9
$DIMTXT
 40
2.5
  9
$CLAYER
  8
Chairs
  0
ENDSEC
  0
SECTION
  2
TABLES
  0
TABLE
  2
VPORT
  5
8
100
AcDbSymbolTable
 70
1
  0
VPORT
  5
30
100
AcDbSymbolTableRecord
100
AcDbViewportTableRecord
  2
*Active
 70
0
 10
0.0
 20
0.0
 11
1.0
 21
1.0
 12
286.3055555555554861
 22
148.5
 13
0.0
 23
0.0
 14
10.0
 24
10.0
 15
10.0
 25
10.0
 16
0.0
 26
0.0
 36
1.0
 17
0.0
 27
0.0
 37
0.0
 40
297.0
 41
1.92798353909465
 42
50.0
 43
0.0
 44
0.0
 50
0.0
 51
0.0
 71
0
 72
100
 73
1
 74
3
 75
1
 76
1
 77
0
 78
0
281
0
 65
1
110
0.0
120
0.0
130
0.0
111
1.0
121
0.0
131
0.0
112
0.0
122
1.0
132
0.0
 79
0
146
0.0
  0
ENDTAB
  0
TABLE
  2
LTYPE
  5
5
100
AcDbSymbolTable
 70
21
  0
LTYPE
  5
14
100
AcDbSymbolTableRecord
100
AcDbLinetypeTableRecord
  2
ByBlock
 70
0
  3

 72
65
 73
0
 40
0.0
  0
LTYPE
  5
15
100
AcDbSymbolTableRecord
100
AcDbLinetypeTableRecord
  2
ByLayer
 70
0
  3

 72
65
 73
0
 40
0.0
  0
LTYPE
  5
16
100
AcDbSymbolTableRecord
100
AcDbLinetypeTableRecord
  2
CONTINUOUS
 70
0
  3
Solid line
 72
65
 73
0
 40
0.0
  0
LTYPE
  5
31
100
AcDbSymbolTableRecord
100
AcDbLinetypeTableRecord
  2
DOT
 70
0
  3
Dot . . . . . . . . . . . . . . . . . . . . . .
 72
65
 73
2
 40
6.3499999999999996
 49
0.0
 74
0
 49
-6.3499999999999996
 74
0
  0
LTYPE
  5
32
100
AcDbSymbolTableRecord
100
AcDbLinetypeTableRecord
  2
DOT2
 70
0
  3
Dot (.5x) .....................................
 72
65
 73
2
 40
3.1749999999999998
 49
0.0
 74
0
 49
-3.1749999999999998
 74
0
  0
LTYPE
  5
33
100
AcDbSymbolTableRecord
100
AcDbLinetypeTableRecord
  2
DOTX2
 70
0
  3
Dot (2x) .  .  .  .  .  .  .  .  .  .  .  .  .
 72
65
 73
2
 40
12.6999999999999993
 49
0.0
 74
0
 49
-12.6999999999999993
 74
0
  0
LTYPE
  5
34
100
AcDbSymbolTableRecord
100
AcDbLinetypeTableRecord
  2
DASHED
 70
0
  3
Dashed __ __ __ __ __ __ __ __ __ __ __ __ __ _
 72
65
 73
2
 40
19.0500000000000007
 49
12.6999999999999993
 74
0
 49
-6.3499999999999996
 74
0
  0
LTYPE
  5
35
100
AcDbSymbolTableRecord
100
AcDbLinetypeTableRecord
  2
DASHED2
 70
0
  3
Dashed (.5x) _ _ _ _ _ _ _ _ _ _ _ _ _ _ _ _ _
 72
65
 73
2
 40
9.5250000000000004
 49
6.3499999999999996
 74
0
 49
-3.1749999999999998
 74
0
  0
LTYPE
  5
36
100
AcDbSymbolTableRecord
100
AcDbLinetypeTableRecord
  2
DASHEDX2
 70
0
  3
Dashed (2x) ____  ____  ____  ____  ____  ___
 72
65
 73
2
 40
38.1000000000000014
 49
25.3999999999999986
 74
0
 49
-12.6999999999999993
 74
0
  0
LTYPE
  5
37
100
AcDbSymbolTableRecord
100
AcDbLinetypeTableRecord
  2
DASHDOT
 70
0
  3
Dash dot __ . __ . __ . __ . __ . __ . __ . __
 72
65
 73
4
 40
25.3999999999999986
 49
12.6999999999999993
 74
0
 49
-6.3499999999999996
 74
0
 49
0.0
 74
0
 49
-6.3499999999999996
 74
0
  0
LTYPE
  5
38
100
AcDbSymbolTableRecord
100
AcDbLinetypeTableRecord
  2
DASHDOT2
 70
0
  3
Dash dot (.5x) _._._._._._._._._._._._._._._.
 72
65
 73
4
 40
12.6999999999999993
 49
6.3499999999999996
 74
0
 49
-3.1749999999999998
 74
0
 49
0.0
 74
0
 49
-3.1749999999999998
 74
0
  0
LTYPE
  5
39
100
AcDbSymbolTableRecord
100
AcDbLinetypeTableRecord
  2
DASHDOTX2
 70
0
  3
Dash dot (2x) ____  .  ____  .  ____  .  ___
 72
65
 73
4
 40
50.7999999999999972
 49
25.3999999999999986
 74
0
 49
-12.6999999999999993
 74
0
 49
0.0
 74
0
 49
-12.6999999999999993
 74
0
  0
LTYPE
  5
3A
100
AcDbSymbolTableRecord
100
AcDbLinetypeTableRecord
  2
DIVIDE
 70
0
  3
Divide ____ . . ____ . . ____ . . ____ . . ____
 72
65
 73
6
 40
31.75
 49
12.6999999999999993
 74
0
 49
-6.3499999999999996
 74
0
 49
0.0
 74
0
 49
-6.3499999999999996
 74
0
 49
0.0
 74
0
 49
-6.3499999999999996
 74
0
  0
LTYPE
  5
3B
100
AcDbSymbolTableRecord
100
AcDbLinetypeTableRecord
  2
DIVIDE2
 70
0
  3
Divide (.5x) __..__..__..__..__..__..__..__.._
 72
65
 73
6
 40
15.875
 49
6.3499999999999996
 74
0
 49
-3.1749999999999998
 74
0
 49
0.0
 74
0
 49
-3.1749999999999998
 74
0
 49
0.0
 74
0
 49
-3.1749999999999998
 74
0
  0
LTYPE
  5
3C
100
AcDbSymbolTableRecord
100
AcDbLinetypeTableRecord
  2
DIVIDEX2
 70
0
  3
Divide (2x) ________  .  .  ________  .  .  _
 72
65
 73
6
 40
63.5
 49
25.3999999999999986
 74
0
 49
-12.6999999999999993
 74
0
 49
0.0
 74
0
 49
-12.6999999999999993
 74
0
 49
0.0
 74
0
 49
-12.6999999999999993
 74
0
  0
LTYPE
  5
3D
100
AcDbSymbolTableRecord
100
AcDbLinetypeTableRecord
  2
CENTER
 70
0
  3
Center ____ _ ____ _ ____ _ ____ _ ____ _ ____
 72
65
 73
4
 40
50.7999999999999972
 49
31.75
 74
0
 49
-6.3499999999999996
 74
0
 49
6.3499999999999996
 74
0
 49
-6.3499999999999996
 74
0
  0
LTYPE
  5
3E
100
AcDbSymbolTableRecord
100
AcDbLinetypeTableRecord
  2
CENTER2
 70
0
  3
Center (.5x) ___ _ ___ _ ___ _ ___ _ ___ _ ___
 72
65
 73
4
 40
28.5749999999999993
 49
19.0500000000000007
 74
0
 49
-3.1749999999999998
 74
0
 49
3.1749999999999998
 74
0
 49
-3.1749999999999998
 74
0
  0
LTYPE
  5
3F
100
AcDbSymbolTableRecord
100
AcDbLinetypeTableRecord
  2
CENTERX2
 70
0
  3
Center (2x) ________  __  ________  __  _____
 72
65
 73
4
 40
101.5999999999999943
 49
63.5
 74
0
 49
-12.6999999999999993
 74
0
 49
12.6999999999999993
 74
0
 49
-12.6999999999999993
 74
0
  0
LTYPE
  5
40
100
AcDbSymbolTableRecord
100
AcDbLinetypeTableRecord
  2
BORDER
 70
0
  3
Border __ __ . __ __ . __ __ . __ __ . __ __ .
 72
65
 73
6
 40
44.4500000000000028
 49
12.6999999999999993
 74
0
 49
-6.3499999999999996
 74
0
 49
12.6999999999999993
 74
0
 49
-6.3499999999999996
 74
0
 49
0.0
 74
0
 49
-6.3499999999999996
 74
0
  0
LTYPE
  5
41
100
AcDbSymbolTableRecord
100
AcDbLinetypeTableRecord
  2
BORDER2
 70
0
  3
Border (.5x) __.__.__.__.__.__.__.__.__.__.__.
 72
65
 73
6
 40
22.2250000000000014
 49
6.3499999999999996
 74
0
 49
-3.1749999999999998
 74
0
 49
6.3499999999999996
 74
0
 49
-3.1749999999999998
 74
0
 49
0.0
 74
0
 49
-3.1749999999999998
 74
0
  0
LTYPE
  5
42
100
AcDbSymbolTableRecord
100
AcDbLinetypeTableRecord
  2
BORDERX2
 70
0
  3
Border (2x) ____  ____  .  ____  ____  .  ___
 72
65
 73
6
 40
88.9000000000000057
 49
25.3999999999999986
 74
0
 49
-12.6999999999999993
 74
0
 49
25.3999999999999986
 74
0
 49
-12.6999999999999993
 74
0
 49
0.0
 74
0
 49
-12.6999999999999993
 74
0
  0
ENDTAB
  0
TABLE
  2
LAYER
  5
2
100
AcDbSymbolTable
 70
4
  0
LAYER
  5
10
100
AcDbSymbolTableRecord
100
AcDbLayerTableRecord
  2
0
 70
0
 62
7
420
0
  6
CONTINUOUS
370
25
390
F
  0
LAYER
  5
43
100
AcDbSymbolTableRecord
100
AcDbLayerTableRecord
  2
Chairs
 70
0
 62
5
420
255
  6
CONTINUOUS
370
0
390
F
  0
LAYER
  5
44
100
AcDbSymbolTableRecord
100
AcDbLayerTableRecord
  2
Marquee
 70
4
 62
3
420
65280
  6
CONTINUOUS
370
0
390
F
  0
LAYER
  5
45
100
AcDbSymbolTableRecord
100
AcDbLayerTableRecord
  2
Stage
 70
4
 62
6
420
16711935
  6
CONTINUOUS
370
0
390
F
  0
ENDTAB
  0
TABLE
  2
STYLE
  5
3
100
AcDbSymbolTable
 70
1
  0
STYLE
  5
11
100
AcDbSymbolTableRecord
100
AcDbTextStyleTableRecord
  2
Standard
 70
0
 40
0.0
 41
0.75
 50
0.0
 71
0
 42
2.5
  3
txt
  4

  0
ENDTAB
  0
TABLE
  2
VIEW
  5
6
100
AcDbSymbolTable
 70
0
  0
ENDTAB
  0
TABLE
  2
UCS
  5
7
100
AcDbSymbolTable
 70
0
  0
ENDTAB
  0
TABLE
  2
APPID
  5
9
100
AcDbSymbolTable
 70
1
  0
APPID
  5
12
100
AcDbSymbolTableRecord
100
AcDbRegAppTableRecord
  2
ACAD
 70
0
  0
ENDTAB
  0
TABLE
  2
DIMSTYLE
  5
A
100
AcDbSymbolTable
 70
1
100
AcDbDimStyleTable
 71
0
  0
DIMSTYLE
105
27
100
AcDbSymbolTableRecord
100
AcDbDimStyleTableRecord
  2
Standard
 41
2.5
 42
0.625
 43
3.75
 44
1.25
 70
0
 73
0
 74
0
 77
1
 78
8
140
2.5
141
2.5
143
0.03937007874016
147
0.625
171
3
172
1
271
2
272
2
274
3
278
44
283
0
284
8
340
11
  0
ENDTAB
  0
TABLE
  2
BLOCK_RECORD
  5
1
100
AcDbSymbolTable
 70
1
  0
BLOCK_RECORD
  5
1F
100
AcDbSymbolTableRecord
100
AcDbBlockTableRecord
  2
*Model_Space
340
22
  0
BLOCK_RECORD
  5
1B
100
AcDbSymbolTableRecord
100
AcDbBlockTableRecord
  2
*Paper_Space
340
1E
  0
BLOCK_RECORD
  5
23
100
AcDbSymbolTableRecord
100
AcDbBlockTableRecord
  2
*Paper_Space0
340
26
  0
ENDTAB
  0
ENDSEC
  0
SECTION
  2
BLOCKS
  0
BLOCK
  5
20
100
AcDbEntity
  8
0
100
AcDbBlockBegin
  2
*Model_Space
 70
0
 10
0.0
 20
0.0
 30
0.0
  3
*Model_Space
  1

  0
ENDBLK
  5
21
100
AcDbEntity
  8
0
100
AcDbBlockEnd
  0
BLOCK
  5
1C
100
AcDbEntity
 67
1
  8
0
100
AcDbBlockBegin
  2
*Paper_Space
 70
0
 10
0.0
 20
0.0
 30
0.0
  3
*Paper_Space
  1

  0
ENDBLK
  5
1D
100
AcDbEntity
 67
1
  8
0
100
AcDbBlockEnd
  0
BLOCK
  5
24
100
AcDbEntity
  8
0
100
AcDbBlockBegin
  2
*Paper_Space0
 70
0
 10
0.0
 20
0.0
 30
0.0
  3
*Paper_Space0
  1

  0
ENDBLK
  5
25
100
AcDbEntity
  8
0
100
AcDbBlockEnd
  0
ENDSEC
  0
SECTION
  2
ENTITIES
  0
LINE
  5
46
100
AcDbEntity
100
AcDbLine
  8
Marquee
 62
256
370
-1
  6
ByLayer
 10
6000.0
 20
0.0
 30
0.0
 11
6000.0
 21
10800.0
 31
0.0
  0
LINE
  5
47
100
AcDbEntity
100
AcDbLine
  8
Marquee
 62
256
370
-1
  6
ByLayer
 10
6000.0
 20
10800.0
 30
0.0
 11
0.0
 21
10800.0
 31
0.0
  0
LINE
  5
48
100
AcDbEntity
100
AcDbLine
  8
Marquee
 62
256
370
-1
  6
ByLayer
 10
0.0
 20
10800.0
 30
0.0
 11
0.0
 21
0.0
 31
0.0
  0
LINE
  5
49
100
AcDbEntity
100
AcDbLine
  8
Chairs
 62
256
370
-1
  6
ByLayer
 10
20.0
 20
330.0
 30
0.0
 11
530.0
 21
330.0
 31
0.0
  0
LINE
  5
4A
100
AcDbEntity
100
AcDbLine
  8
Chairs
 62
256
370
-1
  6
ByLayer
 10
530.0
 20
330.0
 30
0.0
 11
530.0
 21
800.0
 31
0.0
  0
LINE
  5
4B
100
AcDbEntity
100
AcDbLine
  8
Chairs
 62
256
370
-1
  6
ByLayer
 10
530.0
 20
800.0
 30
0.0
 11
20.0
 21
800.0
 31
0.0
  0
LINE
  5
4C
100
AcDbEntity
100
AcDbLine
  8
Chairs
 62
256
370
-1
  6
ByLayer
 10
20.0
 20
800.0
 30
0.0
 11
20.0
 21
330.0
 31
0.0
  0
LINE
  5
4D
100
AcDbEntity
100
AcDbLine
  8
Chairs
 62
256
370
-1
  6
ByLayer
 10
20.0
 20
330.0
 30
0.0
 11
530.0
 21
330.0
 31
0.0
  0
LINE
  5
4E
100
AcDbEntity
100
AcDbLine
  8
Chairs
 62
256
370
-1
  6
ByLayer
 10
530.0
 20
330.0
 30
0.0
 11
530.0
 21
430.0
 31
0.0
  0
LINE
  5
4F
100
AcDbEntity
100
AcDbLine
  8
Chairs
 62
256
370
-1
  6
ByLayer
 10
530.0
 20
430.0
 30
0.0
 11
20.0
 21
430.0
 31
0.0
  0
LINE
  5
50
100
AcDbEntity
100
AcDbLine
  8
Chairs
 62
256
370
-1
  6
ByLayer
 10
20.0
 20
430.0
 30
0.0
 11
20.0
 21
330.0
 31
0.0
  0
LINE
  5
51
100
AcDbEntity
100
AcDbLine
  8
Chairs
 62
256
370
-1
  6
ByLayer
 10
500.0
 20
430.0
 30
0.0
 11
500.0
 21
800.0
 31
0.0
  0
LINE
  5
52
100
AcDbEntity
100
AcDbLine
  8
Chairs
 62
256
370
-1
  6
ByLayer
 10
50.0
 20
430.0
 30
0.0
 11
50.0
 21
800.0
 31
0.0
  0
LINE
  5
53
100
AcDbEntity
100
AcDbLine
  8
Chairs
 62
256
370
-1
  6
ByLayer
 10
540.0
 20
330.0
 30
0.0
 11
1050.0
 21
329.9999999999997726
 31
0.0
  0
LINE
  5
54
100
AcDbEntity
100
AcDbLine
  8
Chairs
 62
256
370
-1
  6
ByLayer
 10
1050.0
 20
329.9999999999997726
 30
0.0
 11
1050.0
 21
799.9999999999998863
 31
0.0
  0
LINE
  5
55
100
AcDbEntity
100
AcDbLine
  8
Chairs
 62
256
370
-1
  6
ByLayer
 10
1050.0
 20
799.9999999999998863
 30
0.0
 11
540.0000000000001137
 21
799.9999999999998863
 31
0.0
  0
LINE
  5
56
100
AcDbEntity
100
AcDbLine
  8
Chairs
 62
256
370
-1
  6
ByLayer
 10
540.0000000000001137
 20
799.9999999999998863
 30
0.0
 11
540.0
 21
330.0
 31
0.0
  0
LINE
  5
57
100
AcDbEntity
100
AcDbLine
  8
Chairs
 62
256
370
-1
  6
ByLayer
 10
540.0
 20
330.0
 30
0.0
 11
1050.0
 21
329.9999999999997726
 31
0.0
  0
LINE
  5
58
100
AcDbEntity
100
AcDbLine
  8
Chairs
 62
256
370
-1
  6
ByLayer
 10
1050.0
 20
329.9999999999997726
 30
0.0
 11
1050.0
 21
429.9999999999998863
 31
0.0
  0
LINE
  5
59
100
AcDbEntity
100
AcDbLine
  8
Chairs
 62
256
370
-1
  6
ByLayer
 10
1050.0
 20
429.9999999999998863
 30
0.0
 11
540.0000000000001137
 21
429.9999999999999432
 31
0.0
  0
LINE
  5
5A
100
AcDbEntity
100
AcDbLine
  8
Chairs
 62
256
370
-1
  6
ByLayer
 10
540.0000000000001137
 20
429.9999999999999432
 30
0.0
 11
540.0
 21
330.0
 31
0.0
  0
LINE
  5
5B
100
AcDbEntity
100
AcDbLine
  8
Chairs
 62
256
370
-1
  6
ByLayer
 10
1020.0000000000001137
 20
429.9999999999998863
 30
0.0
 11
1020.0000000000001137
 21
799.9999999999998863
 31
0.0
  0
LINE
  5
5C
100
AcDbEntity
100
AcDbLine
  8
Chairs
 62
256
370
-1
  6
ByLayer
 10
570.0000000000001137
 20
429.9999999999999432
 30
0.0
 11
570.0000000000001137
 21
799.9999999999998863
 31
0.0
  0
LINE
  5
5D
100
AcDbEntity
100
AcDbLine
  8
Chairs
 62
256
370
-1
  6
ByLayer
 10
1060.0
 20
330.0
 30
0.0
 11
1570.0000000000002274
 21
329.9999999999997726
 31
0.0
  0
LINE
  5
5E
100
AcDbEntity
100
AcDbLine
  8
Chairs
 62
256
370
-1
  6
ByLayer
 10
1570.0000000000002274
 20
329.9999999999997726
 30
0.0
 11
1570.0000000000002274
 21
799.9999999999997726
 31
0.0
  0
LINE
  5
5F
100
AcDbEntity
100
AcDbLine
  8
Chairs
 62
256
370
-1
  6
ByLayer
 10
1570.0000000000002274
 20
799.9999999999997726
 30
0.0
 11
1060.0000000000002274
 21
799.9999999999996589
 31
0.0
  0
LINE
  5
60
100
AcDbEntity
100
AcDbLine
  8
Chairs
 62
256
370
-1
  6
ByLayer
 10
1060.0000000000002274
 20
799.9999999999996589
 30
0.0
 11
1060.0
 21
330.0
 31
0.0
  0
LINE
  5
61
100
AcDbEntity
100
AcDbLine
  8
Chairs
 62
256
370
-1
  6
ByLayer
 10
1060.0
 20
330.0
 30
0.0
 11
1570.0000000000002274
 21
329.9999999999997726
 31
0.0
  0
LINE
  5
62
100
AcDbEntity
100
AcDbLine
  8
Chairs
 62
256
370
-1
  6
ByLayer
 10
1570.0000000000002274
 20
329.9999999999997726
 30
0.0
 11
1570.0000000000002274
 21
429.9999999999997726
 31
0.0
  0
LINE
  5
63
100
AcDbEntity
100
AcDbLine
  8
Chairs
 62
256
370
-1
  6
ByLayer
 10
1570.0000000000002274
 20
429.9999999999997726
 30
0.0
 11
1060.0000000000002274
 21
429.9999999999995453
 31
0.0
  0
LINE
  5
64
100
AcDbEntity
100
AcDbLine
  8
Chairs
 62
256
370
-1
  6
ByLayer
 10
1060.0000000000002274
 20
429.9999999999995453
 30
0.0
 11
1060.0
 21
330.0
 31
0.0
  0
LINE
  5
65
100
AcDbEntity
100
AcDbLine
  8
Chairs
 62
256
370
-1
  6
ByLayer
 10
1540.0000000000002274
 20
429.9999999999997726
 30
0.0
 11
1540.0000000000002274
 21
799.9999999999997726
 31
0.0
  0
LINE
  5
66
100
AcDbEntity
100
AcDbLine
  8
Chairs
 62
256
370
-1
  6
ByLayer
 10
1090.0000000000002274
 20
429.9999999999998295
 30
0.0
 11
1090.0000000000002274
 21
799.9999999999998863
 31
0.0
  0
LINE
  5
67
100
AcDbEntity
100
AcDbLine
  8
Chairs
 62
256
370
-1
  6
ByLayer
 10
1580.0000000000002274
 20
329.9999999999997726
 30
0.0
 11
2090.0
 21
329.9999999999993179
 31
0.0
  0
LINE
  5
68
100
AcDbEntity
100
AcDbLine
  8
Chairs
 62
256
370
-1
  6
ByLayer
 10
2090.0
 20
329.9999999999993179
 30
0.0
 11
2090.0000000000004547
 21
799.9999999999997726
 31
0.0
  0
LINE
  5
69
100
AcDbEntity
100
AcDbLine
  8
Chairs
 62
256
370
-1
  6
ByLayer
 10
2090.0000000000004547
 20
799.9999999999997726
 30
0.0
 11
1580.0000000000004547
 21
799.9999999999996589
 31
0.0
  0
LINE
  5
6A
100
AcDbEntity
100
AcDbLine
  8
Chairs
 62
256
370
-1
  6
ByLayer
 10
1580.0000000000004547
 20
799.9999999999996589
 30
0.0
 11
1580.0000000000002274
 21
329.9999999999997726
 31
0.0
  0
LINE
  5
6B
100
AcDbEntity
100
AcDbLine
  8
Chairs
 62
256
370
-1
  6
ByLayer
 10
1580.0000000000002274
 20
329.9999999999997726
 30
0.0
 11
2090.0
 21
329.9999999999993179
 31
0.0
  0
LINE
  5
6C
100
AcDbEntity
100
AcDbLine
  8
Chairs
 62
256
370
-1
  6
ByLayer
 10
2090.0
 20
329.9999999999993179
 30
0.0
 11
2090.0000000000004547
 21
429.9999999999996589
 31
0.0
  0
LINE
  5
6D
100
AcDbEntity
100
AcDbLine
  8
Chairs
 62
256
370
-1
  6
ByLayer
 10
2090.0000000000004547
 20
429.9999999999996589
 30
0.0
 11
1580.0000000000002274
 21
429.9999999999997158
 31
0.0
  0
LINE
  5
6E
100
AcDbEntity
100
AcDbLine
  8
Chairs
 62
256
370
-1
  6
ByLayer
 10
1580.0000000000002274
 20
429.9999999999997158
 30
0.0
 11
1580.0000000000002274
 21
329.9999999999997726
 31
0.0
  0
LINE
  5
6F
100
AcDbEntity
100
AcDbLine
  8
Chairs
 62
256
370
-1
  6
ByLayer
 10
2060.0000000000004547
 20
429.9999999999994316
 30
0.0
 11
2060.0000000000004547
 21
799.9999999999996589
 31
0.0
  0
LINE
  5
70
100
AcDbEntity
100
AcDbLine
  8
Chairs
 62
256
370
-1
  6
ByLayer
 10
1610.0000000000004547
 20
429.9999999999997158
 30
0.0
 11
1610.0000000000004547
 21
799.9999999999996589
 31
0.0
  0
LINE
  5
71
100
AcDbEntity
100
AcDbLine
  8
Chairs
 62
256
370
-1
  6
ByLayer
 10
2100.0
 20
330.0
 30
0.0
 11
2610.0000000000004547
 21
329.9999999999998863
 31
0.0
  0
LINE
  5
72
100
AcDbEntity
100
AcDbLine
  8
Chairs
 62
256
370
-1
  6
ByLayer
 10
2610.0000000000004547
 20
329.9999999999998863
 30
0.0
 11
2610.0000000000004547
 21
799.9999999999997726
 31
0.0
  0
LINE
  5
73
100
AcDbEntity
100
AcDbLine
  8
Chairs
 62
256
370
-1
  6
ByLayer
 10
2610.0000000000004547
 20
799.9999999999997726
 30
0.0
 11
2100.0000000000004547
 21
799.9999999999993179
 31
0.0
  0
LINE
  5
74
100
AcDbEntity
100
AcDbLine
  8
Chairs
 62
256
370
-1
  6
ByLayer
 10
2100.0000000000004547
 20
799.9999999999993179
 30
0.0
 11
2100.0
 21
330.0
 31
0.0
  0
LINE
  5
75
100
AcDbEntity
100
AcDbLine
  8
Chairs
 62
256
370
-1
  6
ByLayer
 10
2100.0
 20
330.0
 30
0.0
 11
2610.0000000000004547
 21
329.9999999999998863
 31
0.0
  0
LINE
  5
76
100
AcDbEntity
100
AcDbLine
  8
Chairs
 62
256
370
-1
  6
ByLayer
 10
2610.0000000000004547
 20
329.9999999999998863
 30
0.0
 11
2610.0000000000004547
 21
429.9999999999997726
 31
0.0
  0
LINE
  5
77
100
AcDbEntity
100
AcDbLine
  8
Chairs
 62
256
370
-1
  6
ByLayer
 10
2610.0000000000004547
 20
429.9999999999997726
 30
0.0
 11
2100.0000000000004547
 21
429.9999999999990337
 31
0.0
  0
LINE
  5
78
100
AcDbEntity
100
AcDbLine
  8
Chairs
 62
256
370
-1
  6
ByLayer
 10
2100.0000000000004547
 20
429.9999999999990337
 30
0.0
 11
2100.0
 21
330.0
 31
0.0
  0
LINE
  5
79
100
AcDbEntity
100
AcDbLine
  8
Chairs
 62
256
370
-1
  6
ByLayer
 10
2580.0000000000004547
 20
430.0000000000003411
 30
0.0
 11
2580.0000000000004547
 21
800.0
 31
0.0
  0
LINE
  5
7A
100
AcDbEntity
100
AcDbLine
  8
Chairs
 62
256
370
-1
  6
ByLayer
 10
2130.0000000000004547
 20
429.9999999999997726
 30
0.0
 11
2130.0000000000004547
 21
799.9999999999997726
 31
0.0
  0
LINE
  5
7B
100
AcDbEntity
100
AcDbLine
  8
Chairs
 62
256
370
-1
  6
ByLayer
 10
20.0
 20
1130.0
 30
0.0
 11
530.0
 21
1130.000000000003638
 31
0.0
  0
LINE
  5
7C
100
AcDbEntity
100
AcDbLine
  8
Chairs
 62
256
370
-1
  6
ByLayer
 10
530.0
 20
1130.000000000003638
 30
0.0
 11
530.0
 21
1600.0000000000013642
 31
0.0
  0
LINE
  5
7D
100
AcDbEntity
100
AcDbLine
  8
Chairs
 62
256
370
-1
  6
ByLayer
 10
530.0
 20
1600.0000000000013642
 30
0.0
 11
20.0
 21
1600.0000000000052296
 31
0.0
  0
LINE
  5
7E
100
AcDbEntity
100
AcDbLine
  8
Chairs
 62
256
370
-1
  6
ByLayer
 10
20.0
 20
1600.0000000000052296
 30
0.0
 11
20.0
 21
1130.0
 31
0.0
  0
LINE
  5
7F
100
AcDbEntity
100
AcDbLine
  8
Chairs
 62
256
370
-1
  6
ByLayer
 10
20.0
 20
1130.0
 30
0.0
 11
530.0
 21
1130.000000000003638
 31
0.0
  0
LINE
  5
80
100
AcDbEntity
100
AcDbLine
  8
Chairs
 62
256
370
-1
  6
ByLayer
 10
530.0
 20
1130.000000000003638
 30
0.0
 11
530.0
 21
1229.9999999999995453
 31
0.0
  0
LINE
  5
81
100
AcDbEntity
100
AcDbLine
  8
Chairs
 62
256
370
-1
  6
ByLayer
 10
530.0
 20
1229.9999999999995453
 30
0.0
 11
20.0
 21
1230.0000000000029559
 31
0.0
  0
LINE
  5
82
100
AcDbEntity
100
AcDbLine
  8
Chairs
 62
256
370
-1
  6
ByLayer
 10
20.0
 20
1230.0000000000029559
 30
0.0
 11
20.0
 21
1130.0
 31
0.0
  0
LINE
  5
83
100
AcDbEntity
100
AcDbLine
  8
Chairs
 62
256
370
-1
  6
ByLayer
 10
500.0
 20
1230.0000000000047748
 30
0.0
 11
500.0
 21
1600.0000000000038654
 31
0.0
  0
LINE
  5
84
100
AcDbEntity
100
AcDbLine
  8
Chairs
 62
256
370
-1
  6
ByLayer
 10
50.0
 20
1230.000000000005457
 30
0.0
 11
50.0
 21
1600.0000000000020464
 31
0.0
  0
LINE
  5
85
100
AcDbEntity
100
AcDbLine
  8
Chairs
 62
256
370
-1
  6
ByLayer
 10
540.0
 20
1130.0000000000004547
 30
0.0
 11
1050.0
 21
1130.0000000000031832
 31
0.0
  0
LINE
  5
86
100
AcDbEntity
100
AcDbLine
  8
Chairs
 62
256
370
-1
  6
ByLayer
 10
1050.0
 20
1130.0000000000031832
 30
0.0
 11
1050.0
 21
1600.0000000000034106
 31
0.0
  0
LINE
  5
87
100
AcDbEntity
100
AcDbLine
  8
Chairs
 62
256
370
-1
  6
ByLayer
 10
1050.0
 20
1600.0000000000034106
 30
0.0
 11
540.0
 21
1600.0000000000045475
 31
0.0
  0
LINE
  5
88
100
AcDbEntity
100
AcDbLine
  8
Chairs
 62
256
370
-1
  6
ByLayer
 10
540.0
 20
1600.0000000000045475
 30
0.0
 11
540.0
 21
1130.0000000000004547
 31
0.0
  0
LINE
  5
89
100
AcDbEntity
100
AcDbLine
  8
Chairs
 62
256
370
-1
  6
ByLayer
 10
540.0
 20
1130.0000000000004547
 30
0.0
 11
1050.0
 21
1130.0000000000031832
 31
0.0
  0
LINE
  5
8A
100
AcDbEntity
100
AcDbLine
  8
Chairs
 62
256
370
-1
  6
ByLayer
 10
1050.0
 20
1130.0000000000031832
 30
0.0
 11
1050.0
 21
1230.0000000000040927
 31
0.0
  0
LINE
  5
8B
100
AcDbEntity
100
AcDbLine
  8
Chairs
 62
256
370
-1
  6
ByLayer
 10
1050.0
 20
1230.0000000000040927
 30
0.0
 11
540.0
 21
1230.0000000000020464
 31
0.0
  0
LINE
  5
8C
100
AcDbEntity
100
AcDbLine
  8
Chairs
 62
256
370
-1
  6
ByLayer
 10
540.0
 20
1230.0000000000020464
 30
0.0
 11
540.0
 21
1130.0000000000004547
 31
0.0
  0
LINE
  5
8D
100
AcDbEntity
100
AcDbLine
  8
Chairs
 62
256
370
-1
  6
ByLayer
 10
1020.0
 20
1230.0000000000031832
 30
0.0
 11
1020.0
 21
1600.0000000000022737
 31
0.0
  0
LINE
  5
8E
100
AcDbEntity
100
AcDbLine
  8
Chairs
 62
256
370
-1
  6
ByLayer
 10
570.0
 20
1230.000000000003638
 30
0.0
 11
570.0
 21
1600.0000000000029559
 31
0.0
  0
LINE
  5
8F
100
AcDbEntity
100
AcDbLine
  8
Chairs
 62
256
370
-1
  6
ByLayer
 10
1060.0
 20
1130.0000000000025011
 30
0.0
 11
1570.0000000000002274
 21
1130.0000000000027285
 31
0.0
  0
LINE
  5
90
100
AcDbEntity
100
AcDbLine
  8
Chairs
 62
256
370
-1
  6
ByLayer
 10
1570.0000000000002274
 20
1130.0000000000027285
 30
0.0
 11
1570.0000000000002274
 21
1600.0000000000020464
 31
0.0
  0
LINE
  5
91
100
AcDbEntity
100
AcDbLine
  8
Chairs
 62
256
370
-1
  6
ByLayer
 10
1570.0000000000002274
 20
1600.0000000000020464
 30
0.0
 11
1060.0000000000002274
 21
1600.0000000000025011
 31
0.0
  0
LINE
  5
92
100
AcDbEntity
100
AcDbLine
  8
Chairs
 62
256
370
-1
  6
ByLayer
 10
1060.0000000000002274
 20
1600.0000000000025011
 30
0.0
 11
1060.0
 21
1130.0000000000025011
 31
0.0
  0
LINE
  5
93
100
AcDbEntity
100
AcDbLine
  8
Chairs
 62
256
370
-1
  6
ByLayer
 10
1060.0
 20
1130.0000000000025011
 30
0.0
 11
1570.0000000000002274
 21
1130.0000000000027285
 31
0.0
  0
LINE
  5
94
100
AcDbEntity
100
AcDbLine
  8
Chairs
 62
256
370
-1
  6
ByLayer
 10
1570.0000000000002274
 20
1130.0000000000027285
 30
0.0
 11
1570.0000000000002274
 21
1230.0000000000031832
 31
0.0
  0
LINE
  5
95
100
AcDbEntity
100
AcDbLine
  8
Chairs
 62
256
370
-1
  6
ByLayer
 10
1570.0000000000002274
 20
1230.0000000000031832
 30
0.0
 11
1060.0000000000002274
 21
1230.0000000000031832
 31
0.0
  0
LINE
  5
96
100
AcDbEntity
100
AcDbLine
  8
Chairs
 62
256
370
-1
  6
ByLayer
 10
1060.0000000000002274
 20
1230.0000000000031832
 30
0.0
 11
1060.0
 21
1130.0000000000025011
 31
0.0
  0
LINE
  5
97
100
AcDbEntity
100
AcDbLine
  8
Chairs
 62
256
370
-1
  6
ByLayer
 10
1540.0000000000002274
 20
1230.0000000000031832
 30
0.0
 11
1540.0000000000002274
 21
1600.0000000000020464
 31
0.0
  0
LINE
  5
98
100
AcDbEntity
100
AcDbLine
  8
Chairs
 62
256
370
-1
  6
ByLayer
 10
1090.0000000000002274
 20
1230.0000000000015916
 30
0.0
 11
1090.0000000000002274
 21
1600.0000000000031832
 31
0.0
  0
LINE
  5
99
100
AcDbEntity
100
AcDbLine
  8
Chairs
 62
256
370
-1
  6
ByLayer
 10
1580.0000000000002274
 20
1130.0000000000022737
 30
0.0
 11
2090.0
 21
1130.000000000001819
 31
0.0
  0
LINE
  5
9A
100
AcDbEntity
100
AcDbLine
  8
Chairs
 62
256
370
-1
  6
ByLayer
 10
2090.0
 20
1130.000000000001819
 30
0.0
 11
2090.0000000000004547
 21
1600.0000000000022737
 31
0.0
  0
LINE
  5
9B
100
AcDbEntity
100
AcDbLine
  8
Chairs
 62
256
370
-1
  6
ByLayer
 10
2090.0000000000004547
 20
1600.0000000000022737
 30
0.0
 11
1580.0000000000004547
 21
1600.0000000000022737
 31
0.0
  0
LINE
  5
9C
100
AcDbEntity
100
AcDbLine
  8
Chairs
 62
256
370
-1
  6
ByLayer
 10
1580.0000000000004547
 20
1600.0000000000022737
 30
0.0
 11
1580.0000000000002274
 21
1130.0000000000022737
 31
0.0
  0
LINE
  5
9D
100
AcDbEntity
100
AcDbLine
  8
Chairs
 62
256
370
-1
  6
ByLayer
 10
1580.0000000000002274
 20
1130.0000000000022737
 30
0.0
 11
2090.0
 21
1130.000000000001819
 31
0.0
  0
LINE
  5
9E
100
AcDbEntity
100
AcDbLine
  8
Chairs
 62
256
370
-1
  6
ByLayer
 10
2090.0
 20
1130.000000000001819
 30
0.0
 11
2090.0000000000004547
 21
1230.0000000000022737
 31
0.0
  0
LINE
  5
9F
100
AcDbEntity
100
AcDbLine
  8
Chairs
 62
256
370
-1
  6
ByLayer
 10
2090.0000000000004547
 20
1230.0000000000022737
 30
0.0
 11
1580.0000000000002274
 21
1230.000000000001819
 31
0.0
  0
LINE
  5
A0
100
AcDbEntity
100
AcDbLine
  8
Chairs
 62
256
370
-1
  6
ByLayer
 10
1580.0000000000002274
 20
1230.000000000001819
 30
0.0
 11
1580.0000000000002274
 21
1130.0000000000022737
 31
0.0
  0
LINE
  5
A1
100
AcDbEntity
100
AcDbLine
  8
Chairs
 62
256
370
-1
  6
ByLayer
 10
2060.0000000000004547
 20
1230.0000000000022737
 30
0.0
 11
2060.0000000000004547
 21
1600.0000000000022737
 31
0.0
  0
LINE
  5
A2
100
AcDbEntity
100
AcDbLine
  8
Chairs
 62
256
370
-1
  6
ByLayer
 10
1610.0000000000004547
 20
1230.0000000000027285
 30
0.0
 11
1610.0000000000004547
 21
1600.0000000000025011
 31
0.0
  0
LINE
  5
A3
100
AcDbEntity
100
AcDbLine
  8
Chairs
 62
256
370
-1
  6
ByLayer
 10
2100.0
 20
1130.0000000000027285
 30
0.0
 11
2610.0000000000004547
 21
1130.0000000000025011
 31
0.0
  0
LINE
  5
A4
100
AcDbEntity
100
AcDbLine
  8
Chairs
 62
256
370
-1
  6
ByLayer
 10
2610.0000000000004547
 20
1130.0000000000025011
 30
0.0
 11
2610.0000000000004547
 21
1600.0000000000022737
 31
0.0
  0
LINE
  5
A5
100
AcDbEntity
100
AcDbLine
  8
Chairs
 62
256
370
-1
  6
ByLayer
 10
2610.0000000000004547
 20
1600.0000000000022737
 30
0.0
 11
2100.0000000000004547
 21
1600.0000000000020464
 31
0.0
  0
LINE
  5
A6
100
AcDbEntity
100
AcDbLine
  8
Chairs
 62
256
370
-1
  6
ByLayer
 10
2100.0000000000004547
 20
1600.0000000000020464
 30
0.0
 11
2100.0
 21
1130.0000000000027285
 31
0.0
  0
LINE
  5
A7
100
AcDbEntity
100
AcDbLine
  8
Chairs
 62
256
370
-1
  6
ByLayer
 10
2100.0
 20
1130.0000000000027285
 30
0.0
 11
2610.0000000000004547
 21
1130.0000000000025011
 31
0.0
  0
LINE
  5
A8
100
AcDbEntity
100
AcDbLine
  8
Chairs
 62
256
370
-1
  6
ByLayer
 10
2610.0000000000004547
 20
1130.0000000000025011
 30
0.0
 11
2610.0000000000004547
 21
1230.0000000000022737
 31
0.0
  0
LINE
  5
A9
100
AcDbEntity
100
AcDbLine
  8
Chairs
 62
256
370
-1
  6
ByLayer
 10
2610.0000000000004547
 20
1230.0000000000022737
 30
0.0
 11
2100.0000000000004547
 21
1230.000000000001819
 31
0.0
  0
LINE
  5
AA
100
AcDbEntity
100
AcDbLine
  8
Chairs
 62
256
370
-1
  6
ByLayer
 10
2100.0000000000004547
 20
1230.000000000001819
 30
0.0
 11
2100.0
 21
1130.0000000000027285
 31
0.0
  0
LINE
  5
AB
100
AcDbEntity
100
AcDbLine
  8
Chairs
 62
256
370
-1
  6
ByLayer
 10
2580.0000000000004547
 20
1230.0000000000029559
 30
0.0
 11
2580.0000000000004547
 21
1600.0000000000025011
 31
0.0
  0
LINE
  5
AC
100
AcDbEntity
100
AcDbLine
  8
Chairs
 62
256
370
-1
  6
ByLayer
 10
2130.0000000000004547
 20
1230.0000000000022737
 30
0.0
 11
2130.0000000000004547
 21
1600.0000000000025011
 31
0.0
  0
LINE
  5
AD
100
AcDbEntity
100
AcDbLine
  8
Chairs
 62
256
370
-1
  6
ByLayer
 10
20.0
 20
1930.0
 30
0.0
 11
530.0
 21
1929.9999999999995453
 31
0.0
  0
LINE
  5
AE
100
AcDbEntity
100
AcDbLine
  8
Chairs
 62
256
370
-1
  6
ByLayer
 10
530.0
 20
1929.9999999999995453
 30
0.0
 11
530.0
 21
2400.0000000000009095
 31
0.0
  0
LINE
  5
AF
100
AcDbEntity
100
AcDbLine
  8
Chairs
 62
256
370
-1
  6
ByLayer
 10
530.0
 20
2400.0000000000009095
 30
0.0
 11
20.0
 21
2399.999999999998181
 31
0.0
  0
LINE
  5
B0
100
AcDbEntity
100
AcDbLine
  8
Chairs
 62
256
370
-1
  6
ByLayer
 10
20.0
 20
2399.999999999998181
 30
0.0
 11
20.0
 21
1930.0
 31
0.0
  0
LINE
  5
B1
100
AcDbEntity
100
AcDbLine
  8
Chairs
 62
256
370
-1
  6
ByLayer
 10
20.0
 20
1930.0
 30
0.0
 11
530.0
 21
1929.9999999999995453
 31
0.0
  0
LINE
  5
B2
100
AcDbEntity
100
AcDbLine
  8
Chairs
 62
256
370
-1
  6
ByLayer
 10
530.0
 20
1929.9999999999995453
 30
0.0
 11
530.0
 21
2029.9999999999990905
 31
0.0
  0
LINE
  5
B3
100
AcDbEntity
100
AcDbLine
  8
Chairs
 62
256
370
-1
  6
ByLayer
 10
530.0
 20
2029.9999999999990905
 30
0.0
 11
19.9999999999995453
 21
2030.0000000000013642
 31
0.0
  0
LINE
  5
B4
100
AcDbEntity
100
AcDbLine
  8
Chairs
 62
256
370
-1
  6
ByLayer
 10
19.9999999999995453
 20
2030.0000000000013642
 30
0.0
 11
20.0
 21
1930.0
 31
0.0
  0
LINE
  5
B5
100
AcDbEntity
100
AcDbLine
  8
Chairs
 62
256
370
-1
  6
ByLayer
 10
499.9999999999995453
 20
2029.9999999999995453
 30
0.0
 11
500.0
 21
2400.0000000000009095
 31
0.0
  0
LINE
  5
B6
100
AcDbEntity
100
AcDbLine
  8
Chairs
 62
256
370
-1
  6
ByLayer
 10
50.0
 20
2030.0
 30
0.0
 11
50.0
 21
2400.0000000000031832
 31
0.0
  0
LINE
  5
B7
100
AcDbEntity
100
AcDbLine
  8
Chairs
 62
256
370
-1
  6
ByLayer
 10
539.9999999999995453
 20
1930.0
 30
0.0
 11
1049.9999999999997726
 21
1929.9999999999990905
 31
0.0
  0
LINE
  5
B8
100
AcDbEntity
100
AcDbLine
  8
Chairs
 62
256
370
-1
  6
ByLayer
 10
1049.9999999999997726
 20
1929.9999999999990905
 30
0.0
 11
1050.0
 21
2399.9999999999990905
 31
0.0
  0
LINE
  5
B9
100
AcDbEntity
100
AcDbLine
  8
Chairs
 62
256
370
-1
  6
ByLayer
 10
1050.0
 20
2399.9999999999990905
 30
0.0
 11
540.0
 21
2400.000000000001819
 31
0.0
  0
LINE
  5
BA
100
AcDbEntity
100
AcDbLine
  8
Chairs
 62
256
370
-1
  6
ByLayer
 10
540.0
 20
2400.000000000001819
 30
0.0
 11
539.9999999999995453
 21
1930.0
 31
0.0
  0
LINE
  5
BB
100
AcDbEntity
100
AcDbLine
  8
Chairs
 62
256
370
-1
  6
ByLayer
 10
539.9999999999995453
 20
1930.0
 30
0.0
 11
1049.9999999999997726
 21
1929.9999999999990905
 31
0.0
  0
LINE
  5
BC
100
AcDbEntity
100
AcDbLine
  8
Chairs
 62
256
370
-1
  6
ByLayer
 10
1049.9999999999997726
 20
1929.9999999999990905
 30
0.0
 11
1050.0
 21
2029.9999999999990905
 31
0.0
  0
LINE
  5
BD
100
AcDbEntity
100
AcDbLine
  8
Chairs
 62
256
370
-1
  6
ByLayer
 10
1050.0
 20
2029.9999999999990905
 30
0.0
 11
540.0
 21
2029.9999999999995453
 31
0.0
  0
LINE
  5
BE
100
AcDbEntity
100
AcDbLine
  8
Chairs
 62
256
370
-1
  6
ByLayer
 10
540.0
 20
2029.9999999999995453
 30
0.0
 11
539.9999999999995453
 21
1930.0
 31
0.0
  0
LINE
  5
BF
100
AcDbEntity
100
AcDbLine
  8
Chairs
 62
256
370
-1
  6
ByLayer
 10
1020.0
 20
2029.9999999999986358
 30
0.0
 11
1020.0
 21
2399.9999999999990905
 31
0.0
  0
LINE
  5
C0
100
AcDbEntity
100
AcDbLine
  8
Chairs
 62
256
370
-1
  6
ByLayer
 10
569.9999999999997726
 20
2029.9999999999995453
 30
0.0
 11
570.0
 21
2399.9999999999977263
 31
0.0
  0
LINE
  5
C1
100
AcDbEntity
100
AcDbLine
  8
Chairs
 62
256
370
-1
  6
ByLayer
 10
1059.9999999999997726
 20
1929.9999999999990905
 30
0.0
 11
1570.0
 21
1929.9999999999990905
 31
0.0
  0
LINE
  5
C2
100
AcDbEntity
100
AcDbLine
  8
Chairs
 62
256
370
-1
  6
ByLayer
 10
1570.0
 20
1929.9999999999990905
 30
0.0
 11
1570.0
 21
2399.9999999999995453
 31
0.0
  0
LINE
  5
C3
100
AcDbEntity
100
AcDbLine
  8
Chairs
 62
256
370
-1
  6
ByLayer
 10
1570.0
 20
2399.9999999999995453
 30
0.0
 11
1060.0000000000002274
 21
2399.9999999999995453
 31
0.0
  0
LINE
  5
C4
100
AcDbEntity
100
AcDbLine
  8
Chairs
 62
256
370
-1
  6
ByLayer
 10
1060.0000000000002274
 20
2399.9999999999995453
 30
0.0
 11
1059.9999999999997726
 21
1929.9999999999990905
 31
0.0
  0
LINE
  5
C5
100
AcDbEntity
100
AcDbLine
  8
Chairs
 62
256
370
-1
  6
ByLayer
 10
1059.9999999999997726
 20
1929.9999999999990905
 30
0.0
 11
1570.0
 21
1929.9999999999990905
 31
0.0
  0
LINE
  5
C6
100
AcDbEntity
100
AcDbLine
  8
Chairs
 62
256
370
-1
  6
ByLayer
 10
1570.0
 20
1929.9999999999990905
 30
0.0
 11
1570.0000000000002274
 21
2029.9999999999990905
 31
0.0
  0
LINE
  5
C7
100
AcDbEntity
100
AcDbLine
  8
Chairs
 62
256
370
-1
  6
ByLayer
 10
1570.0000000000002274
 20
2029.9999999999990905
 30
0.0
 11
1060.0
 21
2029.9999999999990905
 31
0.0
  0
LINE
  5
C8
100
AcDbEntity
100
AcDbLine
  8
Chairs
 62
256
370
-1
  6
ByLayer
 10
1060.0
 20
2029.9999999999990905
 30
0.0
 11
1059.9999999999997726
 21
1929.9999999999990905
 31
0.0
  0
LINE
  5
C9
100
AcDbEntity
100
AcDbLine
  8
Chairs
 62
256
370
-1
  6
ByLayer
 10
1540.0
 20
2029.9999999999990905
 30
0.0
 11
1540.0000000000002274
 21
2399.9999999999990905
 31
0.0
  0
LINE
  5
CA
100
AcDbEntity
100
AcDbLine
  8
Chairs
 62
256
370
-1
  6
ByLayer
 10
1090.0000000000002274
 20
2029.9999999999986358
 30
0.0
 11
1090.0000000000002274
 21
2399.9999999999990905
 31
0.0
  0
LINE
  5
CB
100
AcDbEntity
100
AcDbLine
  8
Chairs
 62
256
370
-1
  6
ByLayer
 10
1580.0
 20
1929.9999999999995453
 30
0.0
 11
2090.0
 21
1929.9999999999986358
 31
0.0
  0
LINE
  5
CC
100
AcDbEntity
100
AcDbLine
  8
Chairs
 62
256
370
-1
  6
ByLayer
 10
2090.0
 20
1929.9999999999986358
 30
0.0
 11
2090.0000000000004547
 21
2399.9999999999990905
 31
0.0
  0
LINE
  5
CD
100
AcDbEntity
100
AcDbLine
  8
Chairs
 62
256
370
-1
  6
ByLayer
 10
2090.0000000000004547
 20
2399.9999999999990905
 30
0.0
 11
1580.0000000000004547
 21
2399.9999999999990905
 31
0.0
  0
LINE
  5
CE
100
AcDbEntity
100
AcDbLine
  8
Chairs
 62
256
370
-1
  6
ByLayer
 10
1580.0000000000004547
 20
2399.9999999999990905
 30
0.0
 11
1580.0
 21
1929.9999999999995453
 31
0.0
  0
LINE
  5
CF
100
AcDbEntity
100
AcDbLine
  8
Chairs
 62
256
370
-1
  6
ByLayer
 10
1580.0
 20
1929.9999999999995453
 30
0.0
 11
2090.0
 21
1929.9999999999986358
 31
0.0
  0
LINE
  5
D0
100
AcDbEntity
100
AcDbLine
  8
Chairs
 62
256
370
-1
  6
ByLayer
 10
2090.0
 20
1929.9999999999986358
 30
0.0
 11
2090.0
 21
2029.9999999999990905
 31
0.0
  0
LINE
  5
D1
100
AcDbEntity
100
AcDbLine
  8
Chairs
 62
256
370
-1
  6
ByLayer
 10
2090.0
 20
2029.9999999999990905
 30
0.0
 11
1580.0
 21
2029.9999999999995453
 31
0.0
  0
LINE
  5
D2
100
AcDbEntity
100
AcDbLine
  8
Chairs
 62
256
370
-1
  6
ByLayer
 10
1580.0
 20
2029.9999999999995453
 30
0.0
 11
1580.0
 21
1929.9999999999995453
 31
0.0
  0
LINE
  5
D3
100
AcDbEntity
100
AcDbLine
  8
Chairs
 62
256
370
-1
  6
ByLayer
 10
2060.0000000000004547
 20
2029.9999999999986358
 30
0.0
 11
2060.0000000000004547
 21
2399.9999999999990905
 31
0.0
  0
LINE
  5
D4
100
AcDbEntity
100
AcDbLine
  8
Chairs
 62
256
370
-1
  6
ByLayer
 10
1610.0000000000002274
 20
2029.9999999999990905
 30
0.0
 11
1610.0000000000004547
 21
2399.9999999999995453
 31
0.0
  0
LINE
  5
D5
100
AcDbEntity
100
AcDbLine
  8
Chairs
 62
256
370
-1
  6
ByLayer
 10
2100.0
 20
1929.9999999999990905
 30
0.0
 11
2610.0
 21
1929.9999999999990905
 31
0.0
  0
LINE
  5
D6
100
AcDbEntity
100
AcDbLine
  8
Chairs
 62
256
370
-1
  6
ByLayer
 10
2610.0
 20
1929.9999999999990905
 30
0.0
 11
2610.0000000000004547
 21
2399.9999999999986358
 31
0.0
  0
LINE
  5
D7
100
AcDbEntity
100
AcDbLine
  8
Chairs
 62
256
370
-1
  6
ByLayer
 10
2610.0000000000004547
 20
2399.9999999999986358
 30
0.0
 11
2100.0000000000004547
 21
2399.9999999999986358
 31
0.0
  0
LINE
  5
D8
100
AcDbEntity
100
AcDbLine
  8
Chairs
 62
256
370
-1
  6
ByLayer
 10
2100.0000000000004547
 20
2399.9999999999986358
 30
0.0
 11
2100.0
 21
1929.9999999999990905
 31
0.0
  0
LINE
  5
D9
100
AcDbEntity
100
AcDbLine
  8
Chairs
 62
256
370
-1
  6
ByLayer
 10
2100.0
 20
1929.9999999999990905
 30
0.0
 11
2610.0
 21
1929.9999999999990905
 31
0.0
  0
LINE
  5
DA
100
AcDbEntity
100
AcDbLine
  8
Chairs
 62
256
370
-1
  6
ByLayer
 10
2610.0
 20
1929.9999999999990905
 30
0.0
 11
2610.0
 21
2029.9999999999990905
 31
0.0
  0
LINE
  5
DB
100
AcDbEntity
100
AcDbLine
  8
Chairs
 62
256
370
-1
  6
ByLayer
 10
2610.0
 20
2029.9999999999990905
 30
0.0
 11
2100.0000000000004547
 21
2029.999999999998181
 31
0.0
  0
LINE
  5
DC
100
AcDbEntity
100
AcDbLine
  8
Chairs
 62
256
370
-1
  6
ByLayer
 10
2100.0000000000004547
 20
2029.999999999998181
 30
0.0
 11
2100.0
 21
1929.9999999999990905
 31
0.0
  0
LINE
  5
DD
100
AcDbEntity
100
AcDbLine
  8
Chairs
 62
256
370
-1
  6
ByLayer
 10
2580.0000000000004547
 20
2029.9999999999995453
 30
0.0
 11
2580.0000000000004547
 21
2399.9999999999990905
 31
0.0
  0
LINE
  5
DE
100
AcDbEntity
100
AcDbLine
  8
Chairs
 62
256
370
-1
  6
ByLayer
 10
2130.0000000000004547
 20
2029.9999999999990905
 30
0.0
 11
2130.0000000000004547
 21
2399.9999999999990905
 31
0.0
  0
LINE
  5
DF
100
AcDbEntity
100
AcDbLine
  8
Chairs
 62
256
370
-1
  6
ByLayer
 10
20.0
 20
2730.0000000000013642
 30
0.0
 11
530.0
 21
2730.000000000001819
 31
0.0
  0
LINE
  5
E0
100
AcDbEntity
100
AcDbLine
  8
Chairs
 62
256
370
-1
  6
ByLayer
 10
530.0
 20
2730.000000000001819
 30
0.0
 11
530.0
 21
3200.0
 31
0.0
  0
LINE
  5
E1
100
AcDbEntity
100
AcDbLine
  8
Chairs
 62
256
370
-1
  6
ByLayer
 10
530.0
 20
3200.0
 30
0.0
 11
20.0
 21
3200.0000000000040927
 31
0.0
  0
LINE
  5
E2
100
AcDbEntity
100
AcDbLine
  8
Chairs
 62
256
370
-1
  6
ByLayer
 10
20.0
 20
3200.0000000000040927
 30
0.0
 11
20.0
 21
2730.0000000000013642
 31
0.0
  0
LINE
  5
E3
100
AcDbEntity
100
AcDbLine
  8
Chairs
 62
256
370
-1
  6
ByLayer
 10
20.0
 20
2730.0000000000013642
 30
0.0
 11
530.0
 21
2730.000000000001819
 31
0.0
  0
LINE
  5
E4
100
AcDbEntity
100
AcDbLine
  8
Chairs
 62
256
370
-1
  6
ByLayer
 10
530.0
 20
2730.000000000001819
 30
0.0
 11
530.0
 21
2829.9999999999990905
 31
0.0
  0
LINE
  5
E5
100
AcDbEntity
100
AcDbLine
  8
Chairs
 62
256
370
-1
  6
ByLayer
 10
530.0
 20
2829.9999999999990905
 30
0.0
 11
20.0
 21
2830.0000000000027285
 31
0.0
  0
LINE
  5
E6
100
AcDbEntity
100
AcDbLine
  8
Chairs
 62
256
370
-1
  6
ByLayer
 10
20.0
 20
2830.0000000000027285
 30
0.0
 11
20.0
 21
2730.0000000000013642
 31
0.0
  0
LINE
  5
E7
100
AcDbEntity
100
AcDbLine
  8
Chairs
 62
256
370
-1
  6
ByLayer
 10
500.0
 20
2830.000000000003638
 30
0.0
 11
500.0
 21
3200.0000000000022737
 31
0.0
  0
LINE
  5
E8
100
AcDbEntity
100
AcDbLine
  8
Chairs
 62
256
370
-1
  6
ByLayer
 10
50.0
 20
2830.0000000000027285
 30
0.0
 11
50.0
 21
3200.0000000000013642
 31
0.0
  0
LINE
  5
E9
100
AcDbEntity
100
AcDbLine
  8
Chairs
 62
256
370
-1
  6
ByLayer
 10
540.0
 20
2729.9999999999990905
 30
0.0
 11
1050.0
 21
2730.0000000000013642
 31
0.0
  0
LINE
  5
EA
100
AcDbEntity
100
AcDbLine
  8
Chairs
 62
256
370
-1
  6
ByLayer
 10
1050.0
 20
2730.0000000000013642
 30
0.0
 11
1050.0
 21
3200.000000000001819
 31
0.0
  0
LINE
  5
EB
100
AcDbEntity
100
AcDbLine
  8
Chairs
 62
256
370
-1
  6
ByLayer
 10
1050.0
 20
3200.000000000001819
 30
0.0
 11
540.0
 21
3200.0000000000027285
 31
0.0
  0
LINE
  5
EC
100
AcDbEntity
100
AcDbLine
  8
Chairs
 62
256
370
-1
  6
ByLayer
 10
540.0
 20
3200.0000000000027285
 30
0.0
 11
540.0
 21
2729.9999999999990905
 31
0.0
  0
LINE
  5
ED
100
AcDbEntity
100
AcDbLine
  8
Chairs
 62
256
370
-1
  6
ByLayer
 10
540.0
 20
2729.9999999999990905
 30
0.0
 11
1050.0
 21
2730.0000000000013642
 31
0.0
  0
LINE
  5
EE
100
AcDbEntity
100
AcDbLine
  8
Chairs
 62
256
370
-1
  6
ByLayer
 10
1050.0
 20
2730.0000000000013642
 30
0.0
 11
1050.0000000000002274
 21
2830.0000000000031832
 31
0.0
  0
LINE
  5
EF
100
AcDbEntity
100
AcDbLine
  8
Chairs
 62
256
370
-1
  6
ByLayer
 10
1050.0000000000002274
 20
2830.0000000000031832
 30
0.0
 11
540.0
 21
2830.0000000000009095
 31
0.0
  0
LINE
  5
F0
100
AcDbEntity
100
AcDbLine
  8
Chairs
 62
256
370
-1
  6
ByLayer
 10
540.0
 20
2830.0000000000009095
 30
0.0
 11
540.0
 21
2729.9999999999990905
 31
0.0
  0
LINE
  5
F1
100
AcDbEntity
100
AcDbLine
  8
Chairs
 62
256
370
-1
  6
ByLayer
 10
1020.0000000000002274
 20
2830.0000000000022737
 30
0.0
 11
1019.9999999999997726
 21
3200.0000000000009095
 31
0.0
  0
LINE
  5
F2
100
AcDbEntity
100
AcDbLine
  8
Chairs
 62
256
370
-1
  6
ByLayer
 10
570.0
 20
2830.0000000000027285
 30
0.0
 11
570.0
 21
3200.0000000000022737
 31
0.0
  0
LINE
  5
F3
100
AcDbEntity
100
AcDbLine
  8
Chairs
 62
256
370
-1
  6
ByLayer
 10
1060.0
 20
2730.0000000000009095
 30
0.0
 11
1570.0000000000002274
 21
2730.000000000001819
 31
0.0
  0
LINE
  5
F4
100
AcDbEntity
100
AcDbLine
  8
Chairs
 62
256
370
-1
  6
ByLayer
 10
1570.0000000000002274
 20
2730.000000000001819
 30
0.0
 11
1570.0000000000002274
 21
3200.0000000000009095
 31
0.0
  0
LINE
  5
F5
100
AcDbEntity
100
AcDbLine
  8
Chairs
 62
256
370
-1
  6
ByLayer
 10
1570.0000000000002274
 20
3200.0000000000009095
 30
0.0
 11
1060.0000000000002274
 21
3200.0000000000009095
 31
0.0
  0
LINE
  5
F6
100
AcDbEntity
100
AcDbLine
  8
Chairs
 62
256
370
-1
  6
ByLayer
 10
1060.0000000000002274
 20
3200.0000000000009095
 30
0.0
 11
1060.0
 21
2730.0000000000009095
 31
0.0
  0
LINE
  5
F7
100
AcDbEntity
100
AcDbLine
  8
Chairs
 62
256
370
-1
  6
ByLayer
 10
1060.0
 20
2730.0000000000009095
 30
0.0
 11
1570.0000000000002274
 21
2730.000000000001819
 31
0.0
  0
LINE
  5
F8
100
AcDbEntity
100
AcDbLine
  8
Chairs
 62
256
370
-1
  6
ByLayer
 10
1570.0000000000002274
 20
2730.000000000001819
 30
0.0
 11
1570.0
 21
2830.000000000001819
 31
0.0
  0
LINE
  5
F9
100
AcDbEntity
100
AcDbLine
  8
Chairs
 62
256
370
-1
  6
ByLayer
 10
1570.0
 20
2830.000000000001819
 30
0.0
 11
1060.0000000000002274
 21
2830.0000000000013642
 31
0.0
  0
LINE
  5
FA
100
AcDbEntity
100
AcDbLine
  8
Chairs
 62
256
370
-1
  6
ByLayer
 10
1060.0000000000002274
 20
2830.0000000000013642
 30
0.0
 11
1060.0
 21
2730.0000000000009095
 31
0.0
  0
LINE
  5
FB
100
AcDbEntity
100
AcDbLine
  8
Chairs
 62
256
370
-1
  6
ByLayer
 10
1540.0000000000002274
 20
2830.0000000000022737
 30
0.0
 11
1540.0000000000002274
 21
3200.0000000000004547
 31
0.0
  0
LINE
  5
FC
100
AcDbEntity
100
AcDbLine
  8
Chairs
 62
256
370
-1
  6
ByLayer
 10
1090.0000000000002274
 20
2830.0
 30
0.0
 11
1090.0000000000002274
 21
3200.000000000001819
 31
0.0
  0
LINE
  5
FD
100
AcDbEntity
100
AcDbLine
  8
Chairs
 62
256
370
-1
  6
ByLayer
 10
1580.0000000000002274
 20
2730.0000000000009095
 30
0.0
 11
2090.0
 21
2730.0000000000004547
 31
0.0
  0
LINE
  5
FE
100
AcDbEntity
100
AcDbLine
  8
Chairs
 62
256
370
-1
  6
ByLayer
 10
2090.0
 20
2730.0000000000004547
 30
0.0
 11
2090.0000000000004547
 21
3200.0000000000009095
 31
0.0
  0
LINE
  5
FF
100
AcDbEntity
100
AcDbLine
  8
Chairs
 62
256
370
-1
  6
ByLayer
 10
2090.0000000000004547
 20
3200.0000000000009095
 30
0.0
 11
1580.0000000000004547
 21
3200.0000000000009095
 31
0.0
  0
LINE
  5
100
100
AcDbEntity
100
AcDbLine
  8
Chairs
 62
256
370
-1
  6
ByLayer
 10
1580.0000000000004547
 20
3200.0000000000009095
 30
0.0
 11
1580.0000000000002274
 21
2730.0000000000009095
 31
0.0
  0
LINE
  5
101
100
AcDbEntity
100
AcDbLine
  8
Chairs
 62
256
370
-1
  6
ByLayer
 10
1580.0000000000002274
 20
2730.0000000000009095
 30
0.0
 11
2090.0
 21
2730.0000000000004547
 31
0.0
  0
LINE
  5
102
100
AcDbEntity
100
AcDbLine
  8
Chairs
 62
256
370
-1
  6
ByLayer
 10
2090.0
 20
2730.0000000000004547
 30
0.0
 11
2090.0000000000004547
 21
2830.0000000000009095
 31
0.0
  0
LINE
  5
103
100
AcDbEntity
100
AcDbLine
  8
Chairs
 62
256
370
-1
  6
ByLayer
 10
2090.0000000000004547
 20
2830.0000000000009095
 30
0.0
 11
1580.0000000000002274
 21
2830.0
 31
0.0
  0
LINE
  5
104
100
AcDbEntity
100
AcDbLine
  8
Chairs
 62
256
370
-1
  6
ByLayer
 10
1580.0000000000002274
 20
2830.0
 30
0.0
 11
1580.0000000000002274
 21
2730.0000000000009095
 31
0.0
  0
LINE
  5
105
100
AcDbEntity
100
AcDbLine
  8
Chairs
 62
256
370
-1
  6
ByLayer
 10
2060.0000000000004547
 20
2830.0000000000009095
 30
0.0
 11
2060.0000000000004547
 21
3200.0000000000009095
 31
0.0
  0
LINE
  5
106
100
AcDbEntity
100
AcDbLine
  8
Chairs
 62
256
370
-1
  6
ByLayer
 10
1610.0000000000004547
 20
2830.0000000000013642
 30
0.0
 11
1610.0000000000004547
 21
3200.0000000000013642
 31
0.0
  0
LINE
  5
107
100
AcDbEntity
100
AcDbLine
  8
Chairs
 62
256
370
-1
  6
ByLayer
 10
2100.0
 20
2730.0000000000013642
 30
0.0
 11
2610.0000000000004547
 21
2730.0000000000013642
 31
0.0
  0
LINE
  5
108
100
AcDbEntity
100
AcDbLine
  8
Chairs
 62
256
370
-1
  6
ByLayer
 10
2610.0000000000004547
 20
2730.0000000000013642
 30
0.0
 11
2610.0000000000004547
 21
3200.0000000000009095
 31
0.0
  0
LINE
  5
109
100
AcDbEntity
100
AcDbLine
  8
Chairs
 62
256
370
-1
  6
ByLayer
 10
2610.0000000000004547
 20
3200.0000000000009095
 30
0.0
 11
2100.0000000000004547
 21
3200.0000000000004547
 31
0.0
  0
LINE
  5
10A
100
AcDbEntity
100
AcDbLine
  8
Chairs
 62
256
370
-1
  6
ByLayer
 10
2100.0000000000004547
 20
3200.0000000000004547
 30
0.0
 11
2100.0
 21
2730.0000000000013642
 31
0.0
  0
LINE
  5
10B
100
AcDbEntity
100
AcDbLine
  8
Chairs
 62
256
370
-1
  6
ByLayer
 10
2100.0
 20
2730.0000000000013642
 30
0.0
 11
2610.0000000000004547
 21
2730.0000000000013642
 31
0.0
  0
LINE
  5
10C
100
AcDbEntity
100
AcDbLine
  8
Chairs
 62
256
370
-1
  6
ByLayer
 10
2610.0000000000004547
 20
2730.0000000000013642
 30
0.0
 11
2610.0000000000004547
 21
2830.0000000000009095
 31
0.0
  0
LINE
  5
10D
100
AcDbEntity
100
AcDbLine
  8
Chairs
 62
256
370
-1
  6
ByLayer
 10
2610.0000000000004547
 20
2830.0000000000009095
 30
0.0
 11
2100.0000000000004547
 21
2830.0000000000004547
 31
0.0
  0
LINE
  5
10E
100
AcDbEntity
100
AcDbLine
  8
Chairs
 62
256
370
-1
  6
ByLayer
 10
2100.0000000000004547
 20
2830.0000000000004547
 30
0.0
 11
2100.0
 21
2730.0000000000013642
 31
0.0
  0
LINE
  5
10F
100
AcDbEntity
100
AcDbLine
  8
Chairs
 62
256
370
-1
  6
ByLayer
 10
2580.0000000000004547
 20
2830.0000000000013642
 30
0.0
 11
2580.0000000000004547
 21
3200.0000000000013642
 31
0.0
  0
LINE
  5
110
100
AcDbEntity
100
AcDbLine
  8
Chairs
 62
256
370
-1
  6
ByLayer
 10
2130.0000000000004547
 20
2830.0000000000009095
 30
0.0
 11
2130.0000000000004547
 21
3200.0000000000013642
 31
0.0
  0
LINE
  5
111
100
AcDbEntity
100
AcDbLine
  8
Chairs
 62
256
370
-1
  6
ByLayer
 10
20.0
 20
3530.0000000000013642
 30
0.0
 11
530.0
 21
3530.0000000000013642
 31
0.0
  0
LINE
  5
112
100
AcDbEntity
100
AcDbLine
  8
Chairs
 62
256
370
-1
  6
ByLayer
 10
530.0
 20
3530.0000000000013642
 30
0.0
 11
530.0000000000004547
 21
4000.0000000000004547
 31
0.0
  0
LINE
  5
113
100
AcDbEntity
100
AcDbLine
  8
Chairs
 62
256
370
-1
  6
ByLayer
 10
530.0000000000004547
 20
4000.0000000000004547
 30
0.0
 11
20.0
 21
4000.0000000000013642
 31
0.0
  0
LINE
  5
114
100
AcDbEntity
100
AcDbLine
  8
Chairs
 62
256
370
-1
  6
ByLayer
 10
20.0
 20
4000.0000000000013642
 30
0.0
 11
20.0
 21
3530.0000000000013642
 31
0.0
  0
LINE
  5
115
100
AcDbEntity
100
AcDbLine
  8
Chairs
 62
256
370
-1
  6
ByLayer
 10
20.0
 20
3530.0000000000013642
 30
0.0
 11
530.0
 21
3530.0000000000013642
 31
0.0
  0
LINE
  5
116
100
AcDbEntity
100
AcDbLine
  8
Chairs
 62
256
370
-1
  6
ByLayer
 10
530.0
 20
3530.0000000000013642
 30
0.0
 11
530.0
 21
3630.0000000000004547
 31
0.0
  0
LINE
  5
117
100
AcDbEntity
100
AcDbLine
  8
Chairs
 62
256
370
-1
  6
ByLayer
 10
530.0
 20
3630.0000000000004547
 30
0.0
 11
20.0000000000004547
 21
3630.0000000000004547
 31
0.0
  0
LINE
  5
118
100
AcDbEntity
100
AcDbLine
  8
Chairs
 62
256
370
-1
  6
ByLayer
 10
20.0000000000004547
 20
3630.0000000000004547
 30
0.0
 11
20.0
 21
3530.0000000000013642
 31
0.0
  0
LINE
  5
119
100
AcDbEntity
100
AcDbLine
  8
Chairs
 62
256
370
-1
  6
ByLayer
 10
500.0
 20
3630.0000000000013642
 30
0.0
 11
500.0
 21
4000.0000000000004547
 31
0.0
  0
LINE
  5
11A
100
AcDbEntity
100
AcDbLine
  8
Chairs
 62
256
370
-1
  6
ByLayer
 10
50.0
 20
3630.0000000000022737
 30
0.0
 11
50.0000000000004547
 21
4000.0000000000004547
 31
0.0
  0
LINE
  5
11B
100
AcDbEntity
100
AcDbLine
  8
Chairs
 62
256
370
-1
  6
ByLayer
 10
540.0000000000004547
 20
3530.0000000000004547
 30
0.0
 11
1050.0000000000002274
 21
3530.0000000000004547
 31
0.0
  0
LINE
  5
11C
100
AcDbEntity
100
AcDbLine
  8
Chairs
 62
256
370
-1
  6
ByLayer
 10
1050.0000000000002274
 20
3530.0000000000004547
 30
0.0
 11
1050.0000000000002274
 21
4000.0000000000004547
 31
0.0
  0
LINE
  5
11D
100
AcDbEntity
100
AcDbLine
  8
Chairs
 62
256
370
-1
  6
ByLayer
 10
1050.0000000000002274
 20
4000.0000000000004547
 30
0.0
 11
540.0
 21
4000.0000000000013642
 31
0.0
  0
LINE
  5
11E
100
AcDbEntity
100
AcDbLine
  8
Chairs
 62
256
370
-1
  6
ByLayer
 10
540.0
 20
4000.0000000000013642
 30
0.0
 11
540.0000000000004547
 21
3530.0000000000004547
 31
0.0
  0
LINE
  5
11F
100
AcDbEntity
100
AcDbLine
  8
Chairs
 62
256
370
-1
  6
ByLayer
 10
540.0000000000004547
 20
3530.0000000000004547
 30
0.0
 11
1050.0000000000002274
 21
3530.0000000000004547
 31
0.0
  0
LINE
  5
120
100
AcDbEntity
100
AcDbLine
  8
Chairs
 62
256
370
-1
  6
ByLayer
 10
1050.0000000000002274
 20
3530.0000000000004547
 30
0.0
 11
1049.9999999999997726
 21
3630.0000000000013642
 31
0.0
  0
LINE
  5
121
100
AcDbEntity
100
AcDbLine
  8
Chairs
 62
256
370
-1
  6
ByLayer
 10
1049.9999999999997726
 20
3630.0000000000013642
 30
0.0
 11
540.0
 21
3630.0000000000013642
 31
0.0
  0
LINE
  5
122
100
AcDbEntity
100
AcDbLine
  8
Chairs
 62
256
370
-1
  6
ByLayer
 10
540.0
 20
3630.0000000000013642
 30
0.0
 11
540.0000000000004547
 21
3530.0000000000004547
 31
0.0
  0
LINE
  5
123
100
AcDbEntity
100
AcDbLine
  8
Chairs
 62
256
370
-1
  6
ByLayer
 10
1020.0
 20
3630.0000000000013642
 30
0.0
 11
1020.0
 21
4000.0000000000004547
 31
0.0
  0
LINE
  5
124
100
AcDbEntity
100
AcDbLine
  8
Chairs
 62
256
370
-1
  6
ByLayer
 10
570.0000000000004547
 20
3630.0000000000004547
 30
0.0
 11
570.0000000000004547
 21
4000.0000000000004547
 31
0.0
  0
LINE
  5
125
100
AcDbEntity
100
AcDbLine
  8
Chairs
 62
256
370
-1
  6
ByLayer
 10
1060.0
 20
3530.0000000000004547
 30
0.0
 11
1569.9999999999995453
 21
3530.0000000000004547
 31
0.0
  0
LINE
  5
126
100
AcDbEntity
100
AcDbLine
  8
Chairs
 62
256
370
-1
  6
ByLayer
 10
1569.9999999999995453
 20
3530.0000000000004547
 30
0.0
 11
1569.9999999999997726
 21
4000.0000000000004547
 31
0.0
  0
LINE
  5
127
100
AcDbEntity
100
AcDbLine
  8
Chairs
 62
256
370
-1
  6
ByLayer
 10
1569.9999999999997726
 20
4000.0000000000004547
 30
0.0
 11
1060.0000000000004547
 21
4000.0000000000004547
 31
0.0
  0
LINE
  5
128
100
AcDbEntity
100
AcDbLine
  8
Chairs
 62
256
370
-1
  6
ByLayer
 10
1060.0000000000004547
 20
4000.0000000000004547
 30
0.0
 11
1060.0
 21
3530.0000000000004547
 31
0.0
  0
LINE
  5
129
100
AcDbEntity
100
AcDbLine
  8
Chairs
 62
256
370
-1
  6
ByLayer
 10
1060.0
 20
3530.0000000000004547
 30
0.0
 11
1569.9999999999995453
 21
3530.0000000000004547
 31
0.0
  0
LINE
  5
12A
100
AcDbEntity
100
AcDbLine
  8
Chairs
 62
256
370
-1
  6
ByLayer
 10
1569.9999999999995453
 20
3530.0000000000004547
 30
0.0
 11
1569.9999999999995453
 21
3630.0000000000013642
 31
0.0
  0
LINE
  5
12B
100
AcDbEntity
100
AcDbLine
  8
Chairs
 62
256
370
-1
  6
ByLayer
 10
1569.9999999999995453
 20
3630.0000000000013642
 30
0.0
 11
1060.0000000000002274
 21
3630.0000000000004547
 31
0.0
  0
LINE
  5
12C
100
AcDbEntity
100
AcDbLine
  8
Chairs
 62
256
370
-1
  6
ByLayer
 10
1060.0000000000002274
 20
3630.0000000000004547
 30
0.0
 11
1060.0
 21
3530.0000000000004547
 31
0.0
  0
LINE
  5
12D
100
AcDbEntity
100
AcDbLine
  8
Chairs
 62
256
370
-1
  6
ByLayer
 10
1539.9999999999997726
 20
3630.0000000000004547
 30
0.0
 11
1540.0000000000002274
 21
4000.0000000000004547
 31
0.0
  0
LINE
  5
12E
100
AcDbEntity
100
AcDbLine
  8
Chairs
 62
256
370
-1
  6
ByLayer
 10
1090.0000000000006821
 20
3630.0000000000004547
 30
0.0
 11
1090.0000000000004547
 21
4000.0000000000004547
 31
0.0
  0
LINE
  5
12F
100
AcDbEntity
100
AcDbLine
  8
Chairs
 62
256
370
-1
  6
ByLayer
 10
1579.9999999999995453
 20
3530.0000000000004547
 30
0.0
 11
2090.0000000000004547
 21
3529.9999999999995453
 31
0.0
  0
LINE
  5
130
100
AcDbEntity
100
AcDbLine
  8
Chairs
 62
256
370
-1
  6
ByLayer
 10
2090.0000000000004547
 20
3529.9999999999995453
 30
0.0
 11
2090.0
 21
4000.0000000000004547
 31
0.0
  0
LINE
  5
131
100
AcDbEntity
100
AcDbLine
  8
Chairs
 62
256
370
-1
  6
ByLayer
 10
2090.0
 20
4000.0000000000004547
 30
0.0
 11
1580.0000000000002274
 21
4000.0000000000004547
 31
0.0
  0
LINE
  5
132
100
AcDbEntity
100
AcDbLine
  8
Chairs
 62
256
370
-1
  6
ByLayer
 10
1580.0000000000002274
 20
4000.0000000000004547
 30
0.0
 11
1579.9999999999995453
 21
3530.0000000000004547
 31
0.0
  0
LINE
  5
133
100
AcDbEntity
100
AcDbLine
  8
Chairs
 62
256
370
-1
  6
ByLayer
 10
1579.9999999999995453
 20
3530.0000000000004547
 30
0.0
 11
2090.0000000000004547
 21
3529.9999999999995453
 31
0.0
  0
LINE
  5
134
100
AcDbEntity
100
AcDbLine
  8
Chairs
 62
256
370
-1
  6
ByLayer
 10
2090.0000000000004547
 20
3529.9999999999995453
 30
0.0
 11
2090.0000000000009095
 21
3630.0000000000004547
 31
0.0
  0
LINE
  5
135
100
AcDbEntity
100
AcDbLine
  8
Chairs
 62
256
370
-1
  6
ByLayer
 10
2090.0000000000009095
 20
3630.0000000000004547
 30
0.0
 11
1580.0000000000004547
 21
3630.0000000000004547
 31
0.0
  0
LINE
  5
136
100
AcDbEntity
100
AcDbLine
  8
Chairs
 62
256
370
-1
  6
ByLayer
 10
1580.0000000000004547
 20
3630.0000000000004547
 30
0.0
 11
1579.9999999999995453
 21
3530.0000000000004547
 31
0.0
  0
LINE
  5
137
100
AcDbEntity
100
AcDbLine
  8
Chairs
 62
256
370
-1
  6
ByLayer
 10
2060.0000000000009095
 20
3629.9999999999995453
 30
0.0
 11
2060.0
 21
4000.0000000000004547
 31
0.0
  0
LINE
  5
138
100
AcDbEntity
100
AcDbLine
  8
Chairs
 62
256
370
-1
  6
ByLayer
 10
1610.0000000000009095
 20
3630.0000000000004547
 30
0.0
 11
1610.0000000000004547
 21
4000.0000000000004547
 31
0.0
  0
LINE
  5
139
100
AcDbEntity
100
AcDbLine
  8
Chairs
 62
256
370
-1
  6
ByLayer
 10
2099.9999999999995453
 20
3530.0000000000004547
 30
0.0
 11
2610.0000000000004547
 21
3530.0000000000004547
 31
0.0
  0
LINE
  5
13A
100
AcDbEntity
100
AcDbLine
  8
Chairs
 62
256
370
-1
  6
ByLayer
 10
2610.0000000000004547
 20
3530.0000000000004547
 30
0.0
 11
2610.0
 21
4000.0000000000004547
 31
0.0
  0
LINE
  5
13B
100
AcDbEntity
100
AcDbLine
  8
Chairs
 62
256
370
-1
  6
ByLayer
 10
2610.0
 20
4000.0000000000004547
 30
0.0
 11
2100.0000000000009095
 21
3999.9999999999995453
 31
0.0
  0
LINE
  5
13C
100
AcDbEntity
100
AcDbLine
  8
Chairs
 62
256
370
-1
  6
ByLayer
 10
2100.0000000000009095
 20
3999.9999999999995453
 30
0.0
 11
2099.9999999999995453
 21
3530.0000000000004547
 31
0.0
  0
LINE
  5
13D
100
AcDbEntity
100
AcDbLine
  8
Chairs
 62
256
370
-1
  6
ByLayer
 10
2099.9999999999995453
 20
3530.0000000000004547
 30
0.0
 11
2610.0000000000004547
 21
3530.0000000000004547
 31
0.0
  0
LINE
  5
13E
100
AcDbEntity
100
AcDbLine
  8
Chairs
 62
256
370
-1
  6
ByLayer
 10
2610.0000000000004547
 20
3530.0000000000004547
 30
0.0
 11
2610.0
 21
3630.0000000000004547
 31
0.0
  0
LINE
  5
13F
100
AcDbEntity
100
AcDbLine
  8
Chairs
 62
256
370
-1
  6
ByLayer
 10
2610.0
 20
3630.0000000000004547
 30
0.0
 11
2100.0000000000009095
 21
3629.9999999999995453
 31
0.0
  0
LINE
  5
140
100
AcDbEntity
100
AcDbLine
  8
Chairs
 62
256
370
-1
  6
ByLayer
 10
2100.0000000000009095
 20
3629.9999999999995453
 30
0.0
 11
2099.9999999999995453
 21
3530.0000000000004547
 31
0.0
  0
LINE
  5
141
100
AcDbEntity
100
AcDbLine
  8
Chairs
 62
256
370
-1
  6
ByLayer
 10
2580.0
 20
3630.0000000000004547
 30
0.0
 11
2580.0
 21
4000.0000000000004547
 31
0.0
  0
LINE
  5
142
100
AcDbEntity
100
AcDbLine
  8
Chairs
 62
256
370
-1
  6
ByLayer
 10
2130.0
 20
3630.0000000000004547
 30
0.0
 11
2130.0000000000009095
 21
4000.0000000000004547
 31
0.0
  0
LINE
  5
143
100
AcDbEntity
100
AcDbLine
  8
Chairs
 62
256
370
-1
  6
ByLayer
 10
20.0
 20
4330.0
 30
0.0
 11
530.0
 21
4330.000000000005457
 31
0.0
  0
LINE
  5
144
100
AcDbEntity
100
AcDbLine
  8
Chairs
 62
256
370
-1
  6
ByLayer
 10
530.0
 20
4330.000000000005457
 30
0.0
 11
530.0
 21
4800.000000000001819
 31
0.0
  0
LINE
  5
145
100
AcDbEntity
100
AcDbLine
  8
Chairs
 62
256
370
-1
  6
ByLayer
 10
530.0
 20
4800.000000000001819
 30
0.0
 11
20.0
 21
4800.0000000000090949
 31
0.0
  0
LINE
  5
146
100
AcDbEntity
100
AcDbLine
  8
Chairs
 62
256
370
-1
  6
ByLayer
 10
20.0
 20
4800.0000000000090949
 30
0.0
 11
20.0
 21
4330.0
 31
0.0
  0
LINE
  5
147
100
AcDbEntity
100
AcDbLine
  8
Chairs
 62
256
370
-1
  6
ByLayer
 10
20.0
 20
4330.0
 30
0.0
 11
530.0
 21
4330.000000000005457
 31
0.0
  0
LINE
  5
148
100
AcDbEntity
100
AcDbLine
  8
Chairs
 62
256
370
-1
  6
ByLayer
 10
530.0
 20
4330.000000000005457
 30
0.0
 11
530.0
 21
4430.0
 31
0.0
  0
LINE
  5
149
100
AcDbEntity
100
AcDbLine
  8
Chairs
 62
256
370
-1
  6
ByLayer
 10
530.0
 20
4430.0
 30
0.0
 11
19.9999999999995453
 21
4430.000000000003638
 31
0.0
  0
LINE
  5
14A
100
AcDbEntity
100
AcDbLine
  8
Chairs
 62
256
370
-1
  6
ByLayer
 10
19.9999999999995453
 20
4430.000000000003638
 30
0.0
 11
20.0
 21
4330.0
 31
0.0
  0
LINE
  5
14B
100
AcDbEntity
100
AcDbLine
  8
Chairs
 62
256
370
-1
  6
ByLayer
 10
499.9999999999995453
 20
4430.000000000007276
 30
0.0
 11
500.0
 21
4800.000000000005457
 31
0.0
  0
LINE
  5
14C
100
AcDbEntity
100
AcDbLine
  8
Chairs
 62
256
370
-1
  6
ByLayer
 10
49.9999999999995453
 20
4430.000000000007276
 30
0.0
 11
50.0
 21
4800.000000000003638
 31
0.0
  0
LINE
  5
14D
100
AcDbEntity
100
AcDbLine
  8
Chairs
 62
256
370
-1
  6
ByLayer
 10
539.9999999999995453
 20
4330.000000000001819
 30
0.0
 11
1050.0
 21
4330.000000000003638
 31
0.0
  0
LINE
  5
14E
100
AcDbEntity
100
AcDbLine
  8
Chairs
 62
256
370
-1
  6
ByLayer
 10
1050.0
 20
4330.000000000003638
 30
0.0
 11
1050.0
 21
4800.000000000003638
 31
0.0
  0
LINE
  5
14F
100
AcDbEntity
100
AcDbLine
  8
Chairs
 62
256
370
-1
  6
ByLayer
 10
1050.0
 20
4800.000000000003638
 30
0.0
 11
540.0
 21
4800.000000000005457
 31
0.0
  0
LINE
  5
150
100
AcDbEntity
100
AcDbLine
  8
Chairs
 62
256
370
-1
  6
ByLayer
 10
540.0
 20
4800.000000000005457
 30
0.0
 11
539.9999999999995453
 21
4330.000000000001819
 31
0.0
  0
LINE
  5
151
100
AcDbEntity
100
AcDbLine
  8
Chairs
 62
256
370
-1
  6
ByLayer
 10
539.9999999999995453
 20
4330.000000000001819
 30
0.0
 11
1050.0
 21
4330.000000000003638
 31
0.0
  0
LINE
  5
152
100
AcDbEntity
100
AcDbLine
  8
Chairs
 62
256
370
-1
  6
ByLayer
 10
1050.0
 20
4330.000000000003638
 30
0.0
 11
1050.0
 21
4430.000000000005457
 31
0.0
  0
LINE
  5
153
100
AcDbEntity
100
AcDbLine
  8
Chairs
 62
256
370
-1
  6
ByLayer
 10
1050.0
 20
4430.000000000005457
 30
0.0
 11
540.0
 21
4430.000000000001819
 31
0.0
  0
LINE
  5
154
100
AcDbEntity
100
AcDbLine
  8
Chairs
 62
256
370
-1
  6
ByLayer
 10
540.0
 20
4430.000000000001819
 30
0.0
 11
539.9999999999995453
 21
4330.000000000001819
 31
0.0
  0
LINE
  5
155
100
AcDbEntity
100
AcDbLine
  8
Chairs
 62
256
370
-1
  6
ByLayer
 10
1020.0
 20
4430.000000000003638
 30
0.0
 11
1020.0
 21
4800.000000000003638
 31
0.0
  0
LINE
  5
156
100
AcDbEntity
100
AcDbLine
  8
Chairs
 62
256
370
-1
  6
ByLayer
 10
569.9999999999997726
 20
4430.000000000005457
 30
0.0
 11
570.0
 21
4800.000000000001819
 31
0.0
  0
LINE
  5
157
100
AcDbEntity
100
AcDbLine
  8
Chairs
 62
256
370
-1
  6
ByLayer
 10
1059.9999999999997726
 20
4330.000000000003638
 30
0.0
 11
1570.0000000000002274
 21
4330.000000000003638
 31
0.0
  0
LINE
  5
158
100
AcDbEntity
100
AcDbLine
  8
Chairs
 62
256
370
-1
  6
ByLayer
 10
1570.0000000000002274
 20
4330.000000000003638
 30
0.0
 11
1570.0000000000002274
 21
4800.000000000001819
 31
0.0
  0
LINE
  5
159
100
AcDbEntity
100
AcDbLine
  8
Chairs
 62
256
370
-1
  6
ByLayer
 10
1570.0000000000002274
 20
4800.000000000001819
 30
0.0
 11
1060.0000000000002274
 21
4800.000000000003638
 31
0.0
  0
LINE
  5
15A
100
AcDbEntity
100
AcDbLine
  8
Chairs
 62
256
370
-1
  6
ByLayer
 10
1060.0000000000002274
 20
4800.000000000003638
 30
0.0
 11
1059.9999999999997726
 21
4330.000000000003638
 31
0.0
  0
LINE
  5
15B
100
AcDbEntity
100
AcDbLine
  8
Chairs
 62
256
370
-1
  6
ByLayer
 10
1059.9999999999997726
 20
4330.000000000003638
 30
0.0
 11
1570.0000000000002274
 21
4330.000000000003638
 31
0.0
  0
LINE
  5
15C
100
AcDbEntity
100
AcDbLine
  8
Chairs
 62
256
370
-1
  6
ByLayer
 10
1570.0000000000002274
 20
4330.000000000003638
 30
0.0
 11
1570.0000000000002274
 21
4430.000000000003638
 31
0.0
  0
LINE
  5
15D
100
AcDbEntity
100
AcDbLine
  8
Chairs
 62
256
370
-1
  6
ByLayer
 10
1570.0000000000002274
 20
4430.000000000003638
 30
0.0
 11
1060.0000000000002274
 21
4430.000000000003638
 31
0.0
  0
LINE
  5
15E
100
AcDbEntity
100
AcDbLine
  8
Chairs
 62
256
370
-1
  6
ByLayer
 10
1060.0000000000002274
 20
4430.000000000003638
 30
0.0
 11
1059.9999999999997726
 21
4330.000000000003638
 31
0.0
  0
LINE
  5
15F
100
AcDbEntity
100
AcDbLine
  8
Chairs
 62
256
370
-1
  6
ByLayer
 10
1540.0
 20
4430.000000000003638
 30
0.0
 11
1540.0
 21
4800.000000000003638
 31
0.0
  0
LINE
  5
160
100
AcDbEntity
100
AcDbLine
  8
Chairs
 62
256
370
-1
  6
ByLayer
 10
1090.0000000000002274
 20
4430.000000000001819
 30
0.0
 11
1090.0
 21
4800.000000000003638
 31
0.0
  0
LINE
  5
161
100
AcDbEntity
100
AcDbLine
  8
Chairs
 62
256
370
-1
  6
ByLayer
 10
1580.0
 20
4330.000000000003638
 30
0.0
 11
2090.0
 21
4330.000000000001819
 31
0.0
  0
LINE
  5
162
100
AcDbEntity
100
AcDbLine
  8
Chairs
 62
256
370
-1
  6
ByLayer
 10
2090.0
 20
4330.000000000001819
 30
0.0
 11
2090.0000000000004547
 21
4800.000000000003638
 31
0.0
  0
LINE
  5
163
100
AcDbEntity
100
AcDbLine
  8
Chairs
 62
256
370
-1
  6
ByLayer
 10
2090.0000000000004547
 20
4800.000000000003638
 30
0.0
 11
1580.0000000000004547
 21
4800.000000000001819
 31
0.0
  0
LINE
  5
164
100
AcDbEntity
100
AcDbLine
  8
Chairs
 62
256
370
-1
  6
ByLayer
 10
1580.0000000000004547
 20
4800.000000000001819
 30
0.0
 11
1580.0
 21
4330.000000000003638
 31
0.0
  0
LINE
  5
165
100
AcDbEntity
100
AcDbLine
  8
Chairs
 62
256
370
-1
  6
ByLayer
 10
1580.0
 20
4330.000000000003638
 30
0.0
 11
2090.0
 21
4330.000000000001819
 31
0.0
  0
LINE
  5
166
100
AcDbEntity
100
AcDbLine
  8
Chairs
 62
256
370
-1
  6
ByLayer
 10
2090.0
 20
4330.000000000001819
 30
0.0
 11
2090.0000000000004547
 21
4430.000000000001819
 31
0.0
  0
LINE
  5
167
100
AcDbEntity
100
AcDbLine
  8
Chairs
 62
256
370
-1
  6
ByLayer
 10
2090.0000000000004547
 20
4430.000000000001819
 30
0.0
 11
1580.0
 21
4430.000000000001819
 31
0.0
  0
LINE
  5
168
100
AcDbEntity
100
AcDbLine
  8
Chairs
 62
256
370
-1
  6
ByLayer
 10
1580.0
 20
4430.000000000001819
 30
0.0
 11
1580.0
 21
4330.000000000003638
 31
0.0
  0
LINE
  5
169
100
AcDbEntity
100
AcDbLine
  8
Chairs
 62
256
370
-1
  6
ByLayer
 10
2060.0000000000004547
 20
4430.000000000003638
 30
0.0
 11
2060.0000000000004547
 21
4800.000000000003638
 31
0.0
  0
LINE
  5
16A
100
AcDbEntity
100
AcDbLine
  8
Chairs
 62
256
370
-1
  6
ByLayer
 10
1610.0000000000004547
 20
4430.000000000003638
 30
0.0
 11
1610.0000000000004547
 21
4800.000000000003638
 31
0.0
  0
LINE
  5
16B
100
AcDbEntity
100
AcDbLine
  8
Chairs
 62
256
370
-1
  6
ByLayer
 10
2100.0
 20
4330.000000000003638
 30
0.0
 11
2610.0
 21
4330.000000000003638
 31
0.0
  0
LINE
  5
16C
100
AcDbEntity
100
AcDbLine
  8
Chairs
 62
256
370
-1
  6
ByLayer
 10
2610.0
 20
4330.000000000003638
 30
0.0
 11
2610.0000000000004547
 21
4800.000000000001819
 31
0.0
  0
LINE
  5
16D
100
AcDbEntity
100
AcDbLine
  8
Chairs
 62
256
370
-1
  6
ByLayer
 10
2610.0000000000004547
 20
4800.000000000001819
 30
0.0
 11
2100.0000000000004547
 21
4800.000000000001819
 31
0.0
  0
LINE
  5
16E
100
AcDbEntity
100
AcDbLine
  8
Chairs
 62
256
370
-1
  6
ByLayer
 10
2100.0000000000004547
 20
4800.000000000001819
 30
0.0
 11
2100.0
 21
4330.000000000003638
 31
0.0
  0
LINE
  5
16F
100
AcDbEntity
100
AcDbLine
  8
Chairs
 62
256
370
-1
  6
ByLayer
 10
2100.0
 20
4330.000000000003638
 30
0.0
 11
2610.0
 21
4330.000000000003638
 31
0.0
  0
LINE
  5
170
100
AcDbEntity
100
AcDbLine
  8
Chairs
 62
256
370
-1
  6
ByLayer
 10
2610.0
 20
4330.000000000003638
 30
0.0
 11
2610.0
 21
4430.000000000001819
 31
0.0
  0
LINE
  5
171
100
AcDbEntity
100
AcDbLine
  8
Chairs
 62
256
370
-1
  6
ByLayer
 10
2610.0
 20
4430.000000000001819
 30
0.0
 11
2100.0000000000004547
 21
4430.000000000001819
 31
0.0
  0
LINE
  5
172
100
AcDbEntity
100
AcDbLine
  8
Chairs
 62
256
370
-1
  6
ByLayer
 10
2100.0000000000004547
 20
4430.000000000001819
 30
0.0
 11
2100.0
 21
4330.000000000003638
 31
0.0
  0
LINE
  5
173
100
AcDbEntity
100
AcDbLine
  8
Chairs
 62
256
370
-1
  6
ByLayer
 10
2580.0000000000004547
 20
4430.000000000003638
 30
0.0
 11
2580.0000000000004547
 21
4800.000000000003638
 31
0.0
  0
LINE
  5
174
100
AcDbEntity
100
AcDbLine
  8
Chairs
 62
256
370
-1
  6
ByLayer
 10
2130.0
 20
4430.000000000003638
 30
0.0
 11
2130.0000000000004547
 21
4800.000000000003638
 31
0.0
  0
LINE
  5
175
100
AcDbEntity
100
AcDbLine
  8
Chairs
 62
256
370
-1
  6
ByLayer
 10
20.0
 20
5130.0
 30
0.0
 11
530.0
 21
5129.999999999998181
 31
0.0
  0
LINE
  5
176
100
AcDbEntity
100
AcDbLine
  8
Chairs
 62
256
370
-1
  6
ByLayer
 10
530.0
 20
5129.999999999998181
 30
0.0
 11
530.0
 21
5600.0
 31
0.0
  0
LINE
  5
177
100
AcDbEntity
100
AcDbLine
  8
Chairs
 62
256
370
-1
  6
ByLayer
 10
530.0
 20
5600.0
 30
0.0
 11
19.9999999999995453
 21
5599.999999999996362
 31
0.0
  0
LINE
  5
178
100
AcDbEntity
100
AcDbLine
  8
Chairs
 62
256
370
-1
  6
ByLayer
 10
19.9999999999995453
 20
5599.999999999996362
 30
0.0
 11
20.0
 21
5130.0
 31
0.0
  0
LINE
  5
179
100
AcDbEntity
100
AcDbLine
  8
Chairs
 62
256
370
-1
  6
ByLayer
 10
20.0
 20
5130.0
 30
0.0
 11
530.0
 21
5129.999999999998181
 31
0.0
  0
LINE
  5
17A
100
AcDbEntity
100
AcDbLine
  8
Chairs
 62
256
370
-1
  6
ByLayer
 10
530.0
 20
5129.999999999998181
 30
0.0
 11
530.0
 21
5229.999999999998181
 31
0.0
  0
LINE
  5
17B
100
AcDbEntity
100
AcDbLine
  8
Chairs
 62
256
370
-1
  6
ByLayer
 10
530.0
 20
5229.999999999998181
 30
0.0
 11
19.9999999999995453
 21
5230.0
 31
0.0
  0
LINE
  5
17C
100
AcDbEntity
100
AcDbLine
  8
Chairs
 62
256
370
-1
  6
ByLayer
 10
19.9999999999995453
 20
5230.0
 30
0.0
 11
20.0
 21
5130.0
 31
0.0
  0
LINE
  5
17D
100
AcDbEntity
100
AcDbLine
  8
Chairs
 62
256
370
-1
  6
ByLayer
 10
499.9999999999995453
 20
5229.999999999998181
 30
0.0
 11
500.0
 21
5600.0
 31
0.0
  0
LINE
  5
17E
100
AcDbEntity
100
AcDbLine
  8
Chairs
 62
256
370
-1
  6
ByLayer
 10
50.0
 20
5230.0
 30
0.0
 11
50.0000000000004547
 21
5600.000000000003638
 31
0.0
  0
LINE
  5
17F
100
AcDbEntity
100
AcDbLine
  8
Chairs
 62
256
370
-1
  6
ByLayer
 10
539.9999999999995453
 20
5129.999999999996362
 30
0.0
 11
1049.9999999999997726
 21
5129.999999999998181
 31
0.0
  0
LINE
  5
180
100
AcDbEntity
100
AcDbLine
  8
Chairs
 62
256
370
-1
  6
ByLayer
 10
1049.9999999999997726
 20
5129.999999999998181
 30
0.0
 11
1050.0
 21
5599.999999999998181
 31
0.0
  0
LINE
  5
181
100
AcDbEntity
100
AcDbLine
  8
Chairs
 62
256
370
-1
  6
ByLayer
 10
1050.0
 20
5599.999999999998181
 30
0.0
 11
540.0
 21
5600.0
 31
0.0
  0
LINE
  5
182
100
AcDbEntity
100
AcDbLine
  8
Chairs
 62
256
370
-1
  6
ByLayer
 10
540.0
 20
5600.0
 30
0.0
 11
539.9999999999995453
 21
5129.999999999996362
 31
0.0
  0
LINE
  5
183
100
AcDbEntity
100
AcDbLine
  8
Chairs
 62
256
370
-1
  6
ByLayer
 10
539.9999999999995453
 20
5129.999999999996362
 30
0.0
 11
1049.9999999999997726
 21
5129.999999999998181
 31
0.0
  0
LINE
  5
184
100
AcDbEntity
100
AcDbLine
  8
Chairs
 62
256
370
-1
  6
ByLayer
 10
1049.9999999999997726
 20
5129.999999999998181
 30
0.0
 11
1050.0
 21
5229.999999999996362
 31
0.0
  0
LINE
  5
185
100
AcDbEntity
100
AcDbLine
  8
Chairs
 62
256
370
-1
  6
ByLayer
 10
1050.0
 20
5229.999999999996362
 30
0.0
 11
540.0
 21
5229.999999999998181
 31
0.0
  0
LINE
  5
186
100
AcDbEntity
100
AcDbLine
  8
Chairs
 62
256
370
-1
  6
ByLayer
 10
540.0
 20
5229.999999999998181
 30
0.0
 11
539.9999999999995453
 21
5129.999999999996362
 31
0.0
  0
LINE
  5
187
100
AcDbEntity
100
AcDbLine
  8
Chairs
 62
256
370
-1
  6
ByLayer
 10
1020.0
 20
5229.999999999996362
 30
0.0
 11
1020.0
 21
5599.999999999998181
 31
0.0
  0
LINE
  5
188
100
AcDbEntity
100
AcDbLine
  8
Chairs
 62
256
370
-1
  6
ByLayer
 10
569.9999999999997726
 20
5229.999999999998181
 30
0.0
 11
569.9999999999997726
 21
5599.999999999996362
 31
0.0
  0
LINE
  5
189
100
AcDbEntity
100
AcDbLine
  8
Chairs
 62
256
370
-1
  6
ByLayer
 10
1059.9999999999997726
 20
5129.999999999998181
 30
0.0
 11
1570.0
 21
5129.999999999998181
 31
0.0
  0
LINE
  5
18A
100
AcDbEntity
100
AcDbLine
  8
Chairs
 62
256
370
-1
  6
ByLayer
 10
1570.0
 20
5129.999999999998181
 30
0.0
 11
1570.0
 21
5599.999999999998181
 31
0.0
  0
LINE
  5
18B
100
AcDbEntity
100
AcDbLine
  8
Chairs
 62
256
370
-1
  6
ByLayer
 10
1570.0
 20
5599.999999999998181
 30
0.0
 11
1060.0000000000002274
 21
5599.999999999998181
 31
0.0
  0
LINE
  5
18C
100
AcDbEntity
100
AcDbLine
  8
Chairs
 62
256
370
-1
  6
ByLayer
 10
1060.0000000000002274
 20
5599.999999999998181
 30
0.0
 11
1059.9999999999997726
 21
5129.999999999998181
 31
0.0
  0
LINE
  5
18D
100
AcDbEntity
100
AcDbLine
  8
Chairs
 62
256
370
-1
  6
ByLayer
 10
1059.9999999999997726
 20
5129.999999999998181
 30
0.0
 11
1570.0
 21
5129.999999999998181
 31
0.0
  0
LINE
  5
18E
100
AcDbEntity
100
AcDbLine
  8
Chairs
 62
256
370
-1
  6
ByLayer
 10
1570.0
 20
5129.999999999998181
 30
0.0
 11
1570.0000000000002274
 21
5229.999999999998181
 31
0.0
  0
LINE
  5
18F
100
AcDbEntity
100
AcDbLine
  8
Chairs
 62
256
370
-1
  6
ByLayer
 10
1570.0000000000002274
 20
5229.999999999998181
 30
0.0
 11
1060.0
 21
5229.999999999998181
 31
0.0
  0
LINE
  5
190
100
AcDbEntity
100
AcDbLine
  8
Chairs
 62
256
370
-1
  6
ByLayer
 10
1060.0
 20
5229.999999999998181
 30
0.0
 11
1059.9999999999997726
 21
5129.999999999998181
 31
0.0
  0
LINE
  5
191
100
AcDbEntity
100
AcDbLine
  8
Chairs
 62
256
370
-1
  6
ByLayer
 10
1540.0
 20
5229.999999999998181
 30
0.0
 11
1540.0000000000002274
 21
5599.999999999998181
 31
0.0
  0
LINE
  5
192
100
AcDbEntity
100
AcDbLine
  8
Chairs
 62
256
370
-1
  6
ByLayer
 10
1090.0000000000002274
 20
5229.999999999998181
 30
0.0
 11
1090.0000000000004547
 21
5599.999999999998181
 31
0.0
  0
LINE
  5
193
100
AcDbEntity
100
AcDbLine
  8
Chairs
 62
256
370
-1
  6
ByLayer
 10
1580.0
 20
5129.999999999998181
 30
0.0
 11
2090.0
 21
5129.999999999996362
 31
0.0
  0
LINE
  5
194
100
AcDbEntity
100
AcDbLine
  8
Chairs
 62
256
370
-1
  6
ByLayer
 10
2090.0
 20
5129.999999999996362
 30
0.0
 11
2090.0000000000004547
 21
5599.999999999998181
 31
0.0
  0
LINE
  5
195
100
AcDbEntity
100
AcDbLine
  8
Chairs
 62
256
370
-1
  6
ByLayer
 10
2090.0000000000004547
 20
5599.999999999998181
 30
0.0
 11
1580.0000000000004547
 21
5599.999999999998181
 31
0.0
  0
LINE
  5
196
100
AcDbEntity
100
AcDbLine
  8
Chairs
 62
256
370
-1
  6
ByLayer
 10
1580.0000000000004547
 20
5599.999999999998181
 30
0.0
 11
1580.0
 21
5129.999999999998181
 31
0.0
  0
LINE
  5
197
100
AcDbEntity
100
AcDbLine
  8
Chairs
 62
256
370
-1
  6
ByLayer
 10
1580.0
 20
5129.999999999998181
 30
0.0
 11
2090.0
 21
5129.999999999996362
 31
0.0
  0
LINE
  5
198
100
AcDbEntity
100
AcDbLine
  8
Chairs
 62
256
370
-1
  6
ByLayer
 10
2090.0
 20
5129.999999999996362
 30
0.0
 11
2090.0
 21
5229.999999999998181
 31
0.0
  0
LINE
  5
199
100
AcDbEntity
100
AcDbLine
  8
Chairs
 62
256
370
-1
  6
ByLayer
 10
2090.0
 20
5229.999999999998181
 30
0.0
 11
1579.9999999999997726
 21
5229.999999999998181
 31
0.0
  0
LINE
  5
19A
100
AcDbEntity
100
AcDbLine
  8
Chairs
 62
256
370
-1
  6
ByLayer
 10
1579.9999999999997726
 20
5229.999999999998181
 30
0.0
 11
1580.0
 21
5129.999999999998181
 31
0.0
  0
LINE
  5
19B
100
AcDbEntity
100
AcDbLine
  8
Chairs
 62
256
370
-1
  6
ByLayer
 10
2060.0000000000004547
 20
5229.999999999996362
 30
0.0
 11
2060.0
 21
5599.999999999998181
 31
0.0
  0
LINE
  5
19C
100
AcDbEntity
100
AcDbLine
  8
Chairs
 62
256
370
-1
  6
ByLayer
 10
1610.0000000000002274
 20
5229.999999999998181
 30
0.0
 11
1610.0000000000004547
 21
5599.999999999998181
 31
0.0
  0
LINE
  5
19D
100
AcDbEntity
100
AcDbLine
  8
Chairs
 62
256
370
-1
  6
ByLayer
 10
2100.0
 20
5129.999999999998181
 30
0.0
 11
2610.0
 21
5129.999999999998181
 31
0.0
  0
LINE
  5
19E
100
AcDbEntity
100
AcDbLine
  8
Chairs
 62
256
370
-1
  6
ByLayer
 10
2610.0
 20
5129.999999999998181
 30
0.0
 11
2610.0000000000004547
 21
5599.999999999996362
 31
0.0
  0
LINE
  5
19F
100
AcDbEntity
100
AcDbLine
  8
Chairs
 62
256
370
-1
  6
ByLayer
 10
2610.0000000000004547
 20
5599.999999999996362
 30
0.0
 11
2100.0000000000004547
 21
5599.999999999998181
 31
0.0
  0
LINE
  5
1A0
100
AcDbEntity
100
AcDbLine
  8
Chairs
 62
256
370
-1
  6
ByLayer
 10
2100.0000000000004547
 20
5599.999999999998181
 30
0.0
 11
2100.0
 21
5129.999999999998181
 31
0.0
  0
LINE
  5
1A1
100
AcDbEntity
100
AcDbLine
  8
Chairs
 62
256
370
-1
  6
ByLayer
 10
2100.0
 20
5129.999999999998181
 30
0.0
 11
2610.0
 21
5129.999999999998181
 31
0.0
  0
LINE
  5
1A2
100
AcDbEntity
100
AcDbLine
  8
Chairs
 62
256
370
-1
  6
ByLayer
 10
2610.0
 20
5129.999999999998181
 30
0.0
 11
2610.0
 21
5229.999999999998181
 31
0.0
  0
LINE
  5
1A3
100
AcDbEntity
100
AcDbLine
  8
Chairs
 62
256
370
-1
  6
ByLayer
 10
2610.0
 20
5229.999999999998181
 30
0.0
 11
2100.0000000000004547
 21
5229.999999999996362
 31
0.0
  0
LINE
  5
1A4
100
AcDbEntity
100
AcDbLine
  8
Chairs
 62
256
370
-1
  6
ByLayer
 10
2100.0000000000004547
 20
5229.999999999996362
 30
0.0
 11
2100.0
 21
5129.999999999998181
 31
0.0
  0
LINE
  5
1A5
100
AcDbEntity
100
AcDbLine
  8
Chairs
 62
256
370
-1
  6
ByLayer
 10
2580.0000000000004547
 20
5229.999999999998181
 30
0.0
 11
2580.0000000000004547
 21
5599.999999999998181
 31
0.0
  0
LINE
  5
1A6
100
AcDbEntity
100
AcDbLine
  8
Chairs
 62
256
370
-1
  6
ByLayer
 10
2130.0000000000004547
 20
5229.999999999998181
 30
0.0
 11
2130.0000000000004547
 21
5599.999999999998181
 31
0.0
  0
LINE
  5
1A7
100
AcDbEntity
100
AcDbLine
  8
Chairs
 62
256
370
-1
  6
ByLayer
 10
20.0
 20
5930.0
 30
0.0
 11
530.0
 21
5930.000000000001819
 31
0.0
  0
LINE
  5
1A8
100
AcDbEntity
100
AcDbLine
  8
Chairs
 62
256
370
-1
  6
ByLayer
 10
530.0
 20
5930.000000000001819
 30
0.0
 11
530.0
 21
6399.999999999998181
 31
0.0
  0
LINE
  5
1A9
100
AcDbEntity
100
AcDbLine
  8
Chairs
 62
256
370
-1
  6
ByLayer
 10
530.0
 20
6399.999999999998181
 30
0.0
 11
20.0
 21
6400.000000000003638
 31
0.0
  0
LINE
  5
1AA
100
AcDbEntity
100
AcDbLine
  8
Chairs
 62
256
370
-1
  6
ByLayer
 10
20.0
 20
6400.000000000003638
 30
0.0
 11
20.0
 21
5930.0
 31
0.0
  0
LINE
  5
1AB
100
AcDbEntity
100
AcDbLine
  8
Chairs
 62
256
370
-1
  6
ByLayer
 10
20.0
 20
5930.0
 30
0.0
 11
530.0
 21
5930.000000000001819
 31
0.0
  0
LINE
  5
1AC
100
AcDbEntity
100
AcDbLine
  8
Chairs
 62
256
370
-1
  6
ByLayer
 10
530.0
 20
5930.000000000001819
 30
0.0
 11
530.0
 21
6029.999999999998181
 31
0.0
  0
LINE
  5
1AD
100
AcDbEntity
100
AcDbLine
  8
Chairs
 62
256
370
-1
  6
ByLayer
 10
530.0
 20
6029.999999999998181
 30
0.0
 11
20.0000000000004547
 21
6030.000000000001819
 31
0.0
  0
LINE
  5
1AE
100
AcDbEntity
100
AcDbLine
  8
Chairs
 62
256
370
-1
  6
ByLayer
 10
20.0000000000004547
 20
6030.000000000001819
 30
0.0
 11
20.0
 21
5930.0
 31
0.0
  0
LINE
  5
1AF
100
AcDbEntity
100
AcDbLine
  8
Chairs
 62
256
370
-1
  6
ByLayer
 10
500.0
 20
6030.000000000001819
 30
0.0
 11
500.0
 21
6400.000000000001819
 31
0.0
  0
LINE
  5
1B0
100
AcDbEntity
100
AcDbLine
  8
Chairs
 62
256
370
-1
  6
ByLayer
 10
49.9999999999995453
 20
6030.000000000001819
 30
0.0
 11
50.0
 21
6400.0
 31
0.0
  0
LINE
  5
1B1
100
AcDbEntity
100
AcDbLine
  8
Chairs
 62
256
370
-1
  6
ByLayer
 10
540.0
 20
5929.999999999998181
 30
0.0
 11
1050.0
 21
5930.0
 31
0.0
  0
LINE
  5
1B2
100
AcDbEntity
100
AcDbLine
  8
Chairs
 62
256
370
-1
  6
ByLayer
 10
1050.0
 20
5930.0
 30
0.0
 11
1050.0000000000004547
 21
6400.000000000001819
 31
0.0
  0
LINE
  5
1B3
100
AcDbEntity
100
AcDbLine
  8
Chairs
 62
256
370
-1
  6
ByLayer
 10
1050.0000000000004547
 20
6400.000000000001819
 30
0.0
 11
540.0
 21
6400.000000000001819
 31
0.0
  0
LINE
  5
1B4
100
AcDbEntity
100
AcDbLine
  8
Chairs
 62
256
370
-1
  6
ByLayer
 10
540.0
 20
6400.000000000001819
 30
0.0
 11
540.0
 21
5929.999999999998181
 31
0.0
  0
LINE
  5
1B5
100
AcDbEntity
100
AcDbLine
  8
Chairs
 62
256
370
-1
  6
ByLayer
 10
540.0
 20
5929.999999999998181
 30
0.0
 11
1050.0
 21
5930.0
 31
0.0
  0
LINE
  5
1B6
100
AcDbEntity
100
AcDbLine
  8
Chairs
 62
256
370
-1
  6
ByLayer
 10
1050.0
 20
5930.0
 30
0.0
 11
1050.0000000000002274
 21
6030.000000000001819
 31
0.0
  0
LINE
  5
1B7
100
AcDbEntity
100
AcDbLine
  8
Chairs
 62
256
370
-1
  6
ByLayer
 10
1050.0000000000002274
 20
6030.000000000001819
 30
0.0
 11
540.0
 21
6030.0
 31
0.0
  0
LINE
  5
1B8
100
AcDbEntity
100
AcDbLine
  8
Chairs
 62
256
370
-1
  6
ByLayer
 10
540.0
 20
6030.0
 30
0.0
 11
540.0
 21
5929.999999999998181
 31
0.0
  0
LINE
  5
1B9
100
AcDbEntity
100
AcDbLine
  8
Chairs
 62
256
370
-1
  6
ByLayer
 10
1020.0
 20
6030.0
 30
0.0
 11
1020.0
 21
6400.0
 31
0.0
  0
LINE
  5
1BA
100
AcDbEntity
100
AcDbLine
  8
Chairs
 62
256
370
-1
  6
ByLayer
 10
569.9999999999997726
 20
6030.000000000001819
 30
0.0
 11
570.0
 21
6400.000000000001819
 31
0.0
  0
LINE
  5
1BB
100
AcDbEntity
100
AcDbLine
  8
Chairs
 62
256
370
-1
  6
ByLayer
 10
1060.0000000000002274
 20
5930.0
 30
0.0
 11
1570.0000000000004547
 21
5930.000000000001819
 31
0.0
  0
LINE
  5
1BC
100
AcDbEntity
100
AcDbLine
  8
Chairs
 62
256
370
-1
  6
ByLayer
 10
1570.0000000000004547
 20
5930.000000000001819
 30
0.0
 11
1570.0
 21
6400.0
 31
0.0
  0
LINE
  5
1BD
100
AcDbEntity
100
AcDbLine
  8
Chairs
 62
256
370
-1
  6
ByLayer
 10
1570.0
 20
6400.0
 30
0.0
 11
1060.0000000000004547
 21
6400.0
 31
0.0
  0
LINE
  5
1BE
100
AcDbEntity
100
AcDbLine
  8
Chairs
 62
256
370
-1
  6
ByLayer
 10
1060.0000000000004547
 20
6400.0
 30
0.0
 11
1060.0000000000002274
 21
5930.0
 31
0.0
  0
LINE
  5
1BF
100
AcDbEntity
100
AcDbLine
  8
Chairs
 62
256
370
-1
  6
ByLayer
 10
1060.0000000000002274
 20
5930.0
 30
0.0
 11
1570.0000000000004547
 21
5930.000000000001819
 31
0.0
  0
LINE
  5
1C0
100
AcDbEntity
100
AcDbLine
  8
Chairs
 62
256
370
-1
  6
ByLayer
 10
1570.0000000000004547
 20
5930.000000000001819
 30
0.0
 11
1570.0000000000004547
 21
6030.000000000001819
 31
0.0
  0
LINE
  5
1C1
100
AcDbEntity
100
AcDbLine
  8
Chairs
 62
256
370
-1
  6
ByLayer
 10
1570.0000000000004547
 20
6030.000000000001819
 30
0.0
 11
1060.0000000000002274
 21
6030.0
 31
0.0
  0
LINE
  5
1C2
100
AcDbEntity
100
AcDbLine
  8
Chairs
 62
256
370
-1
  6
ByLayer
 10
1060.0000000000002274
 20
6030.0
 30
0.0
 11
1060.0000000000002274
 21
5930.0
 31
0.0
  0
LINE
  5
1C3
100
AcDbEntity
100
AcDbLine
  8
Chairs
 62
256
370
-1
  6
ByLayer
 10
1540.0000000000004547
 20
6030.000000000001819
 30
0.0
 11
1540.0000000000004547
 21
6400.0
 31
0.0
  0
LINE
  5
1C4
100
AcDbEntity
100
AcDbLine
  8
Chairs
 62
256
370
-1
  6
ByLayer
 10
1090.0
 20
6029.999999999998181
 30
0.0
 11
1090.0
 21
6400.0
 31
0.0
  0
LINE
  5
1C5
100
AcDbEntity
100
AcDbLine
  8
Chairs
 62
256
370
-1
  6
ByLayer
 10
1580.0000000000002274
 20
5930.0
 30
0.0
 11
2090.0
 21
5930.0
 31
0.0
  0
LINE
  5
1C6
100
AcDbEntity
100
AcDbLine
  8
Chairs
 62
256
370
-1
  6
ByLayer
 10
2090.0
 20
5930.0
 30
0.0
 11
2090.0000000000004547
 21
6400.0
 31
0.0
  0
LINE
  5
1C7
100
AcDbEntity
100
AcDbLine
  8
Chairs
 62
256
370
-1
  6
ByLayer
 10
2090.0000000000004547
 20
6400.0
 30
0.0
 11
1580.0000000000006821
 21
6400.0
 31
0.0
  0
LINE
  5
1C8
100
AcDbEntity
100
AcDbLine
  8
Chairs
 62
256
370
-1
  6
ByLayer
 10
1580.0000000000006821
 20
6400.0
 30
0.0
 11
1580.0000000000002274
 21
5930.0
 31
0.0
  0
LINE
  5
1C9
100
AcDbEntity
100
AcDbLine
  8
Chairs
 62
256
370
-1
  6
ByLayer
 10
1580.0000000000002274
 20
5930.0
 30
0.0
 11
2090.0
 21
5930.0
 31
0.0
  0
LINE
  5
1CA
100
AcDbEntity
100
AcDbLine
  8
Chairs
 62
256
370
-1
  6
ByLayer
 10
2090.0
 20
5930.0
 30
0.0
 11
2090.0000000000004547
 21
6030.0
 31
0.0
  0
LINE
  5
1CB
100
AcDbEntity
100
AcDbLine
  8
Chairs
 62
256
370
-1
  6
ByLayer
 10
2090.0000000000004547
 20
6030.0
 30
0.0
 11
1580.0000000000002274
 21
6029.999999999998181
 31
0.0
  0
LINE
  5
1CC
100
AcDbEntity
100
AcDbLine
  8
Chairs
 62
256
370
-1
  6
ByLayer
 10
1580.0000000000002274
 20
6029.999999999998181
 30
0.0
 11
1580.0000000000002274
 21
5930.0
 31
0.0
  0
LINE
  5
1CD
100
AcDbEntity
100
AcDbLine
  8
Chairs
 62
256
370
-1
  6
ByLayer
 10
2060.0000000000004547
 20
6030.0
 30
0.0
 11
2060.0
 21
6400.0
 31
0.0
  0
LINE
  5
1CE
100
AcDbEntity
100
AcDbLine
  8
Chairs
 62
256
370
-1
  6
ByLayer
 10
1610.0000000000004547
 20
6030.0
 30
0.0
 11
1610.0000000000002274
 21
6400.0
 31
0.0
  0
LINE
  5
1CF
100
AcDbEntity
100
AcDbLine
  8
Chairs
 62
256
370
-1
  6
ByLayer
 10
2100.0
 20
5930.0
 30
0.0
 11
2610.0000000000004547
 21
5930.0
 31
0.0
  0
LINE
  5
1D0
100
AcDbEntity
100
AcDbLine
  8
Chairs
 62
256
370
-1
  6
ByLayer
 10
2610.0000000000004547
 20
5930.0
 30
0.0
 11
2610.0000000000004547
 21
6400.0
 31
0.0
  0
LINE
  5
1D1
100
AcDbEntity
100
AcDbLine
  8
Chairs
 62
256
370
-1
  6
ByLayer
 10
2610.0000000000004547
 20
6400.0
 30
0.0
 11
2100.0000000000004547
 21
6400.0
 31
0.0
  0
LINE
  5
1D2
100
AcDbEntity
100
AcDbLine
  8
Chairs
 62
256
370
-1
  6
ByLayer
 10
2100.0000000000004547
 20
6400.0
 30
0.0
 11
2100.0
 21
5930.0
 31
0.0
  0
LINE
  5
1D3
100
AcDbEntity
100
AcDbLine
  8
Chairs
 62
256
370
-1
  6
ByLayer
 10
2100.0
 20
5930.0
 30
0.0
 11
2610.0000000000004547
 21
5930.0
 31
0.0
  0
LINE
  5
1D4
100
AcDbEntity
100
AcDbLine
  8
Chairs
 62
256
370
-1
  6
ByLayer
 10
2610.0000000000004547
 20
5930.0
 30
0.0
 11
2610.0000000000004547
 21
6030.0
 31
0.0
  0
LINE
  5
1D5
100
AcDbEntity
100
AcDbLine
  8
Chairs
 62
256
370
-1
  6
ByLayer
 10
2610.0000000000004547
 20
6030.0
 30
0.0
 11
2100.0000000000004547
 21
6030.0
 31
0.0
  0
LINE
  5
1D6
100
AcDbEntity
100
AcDbLine
  8
Chairs
 62
256
370
-1
  6
ByLayer
 10
2100.0000000000004547
 20
6030.0
 30
0.0
 11
2100.0
 21
5930.0
 31
0.0
  0
LINE
  5
1D7
100
AcDbEntity
100
AcDbLine
  8
Chairs
 62
256
370
-1
  6
ByLayer
 10
2580.0000000000004547
 20
6030.0
 30
0.0
 11
2580.0000000000004547
 21
6400.0
 31
0.0
  0
LINE
  5
1D8
100
AcDbEntity
100
AcDbLine
  8
Chairs
 62
256
370
-1
  6
ByLayer
 10
2130.0000000000004547
 20
6030.0
 30
0.0
 11
2130.0000000000004547
 21
6400.0
 31
0.0
  0
LINE
  5
1D9
100
AcDbEntity
100
AcDbLine
  8
Chairs
 62
256
370
-1
  6
ByLayer
 10
20.0
 20
6730.0
 30
0.0
 11
530.0000000000004547
 21
6729.999999999996362
 31
0.0
  0
LINE
  5
1DA
100
AcDbEntity
100
AcDbLine
  8
Chairs
 62
256
370
-1
  6
ByLayer
 10
530.0000000000004547
 20
6729.999999999996362
 30
0.0
 11
530.0000000000004547
 21
7199.999999999998181
 31
0.0
  0
LINE
  5
1DB
100
AcDbEntity
100
AcDbLine
  8
Chairs
 62
256
370
-1
  6
ByLayer
 10
530.0000000000004547
 20
7199.999999999998181
 30
0.0
 11
20.0
 21
7199.999999999994543
 31
0.0
  0
LINE
  5
1DC
100
AcDbEntity
100
AcDbLine
  8
Chairs
 62
256
370
-1
  6
ByLayer
 10
20.0
 20
7199.999999999994543
 30
0.0
 11
20.0
 21
6730.0
 31
0.0
  0
LINE
  5
1DD
100
AcDbEntity
100
AcDbLine
  8
Chairs
 62
256
370
-1
  6
ByLayer
 10
20.0
 20
6730.0
 30
0.0
 11
530.0000000000004547
 21
6729.999999999996362
 31
0.0
  0
LINE
  5
1DE
100
AcDbEntity
100
AcDbLine
  8
Chairs
 62
256
370
-1
  6
ByLayer
 10
530.0000000000004547
 20
6729.999999999996362
 30
0.0
 11
530.0000000000004547
 21
6829.999999999996362
 31
0.0
  0
LINE
  5
1DF
100
AcDbEntity
100
AcDbLine
  8
Chairs
 62
256
370
-1
  6
ByLayer
 10
530.0000000000004547
 20
6829.999999999996362
 30
0.0
 11
19.9999999999995453
 21
6830.0
 31
0.0
  0
LINE
  5
1E0
100
AcDbEntity
100
AcDbLine
  8
Chairs
 62
256
370
-1
  6
ByLayer
 10
19.9999999999995453
 20
6830.0
 30
0.0
 11
20.0
 21
6730.0
 31
0.0
  0
LINE
  5
1E1
100
AcDbEntity
100
AcDbLine
  8
Chairs
 62
256
370
-1
  6
ByLayer
 10
500.0
 20
6829.999999999998181
 30
0.0
 11
500.0000000000004547
 21
7199.999999999998181
 31
0.0
  0
LINE
  5
1E2
100
AcDbEntity
100
AcDbLine
  8
Chairs
 62
256
370
-1
  6
ByLayer
 10
50.0000000000004547
 20
6829.999999999998181
 30
0.0
 11
50.0000000000009095
 21
7200.000000000001819
 31
0.0
  0
LINE
  5
1E3
100
AcDbEntity
100
AcDbLine
  8
Chairs
 62
256
370
-1
  6
ByLayer
 10
539.9999999999995453
 20
6729.999999999996362
 30
0.0
 11
1050.0
 21
6729.999999999998181
 31
0.0
  0
LINE
  5
1E4
100
AcDbEntity
100
AcDbLine
  8
Chairs
 62
256
370
-1
  6
ByLayer
 10
1050.0
 20
6729.999999999998181
 30
0.0
 11
1050.0000000000002274
 21
7199.999999999998181
 31
0.0
  0
LINE
  5
1E5
100
AcDbEntity
100
AcDbLine
  8
Chairs
 62
256
370
-1
  6
ByLayer
 10
1050.0000000000002274
 20
7199.999999999998181
 30
0.0
 11
540.0000000000004547
 21
7200.0
 31
0.0
  0
LINE
  5
1E6
100
AcDbEntity
100
AcDbLine
  8
Chairs
 62
256
370
-1
  6
ByLayer
 10
540.0000000000004547
 20
7200.0
 30
0.0
 11
539.9999999999995453
 21
6729.999999999996362
 31
0.0
  0
LINE
  5
1E7
100
AcDbEntity
100
AcDbLine
  8
Chairs
 62
256
370
-1
  6
ByLayer
 10
539.9999999999995453
 20
6729.999999999996362
 30
0.0
 11
1050.0
 21
6729.999999999998181
 31
0.0
  0
LINE
  5
1E8
100
AcDbEntity
100
AcDbLine
  8
Chairs
 62
256
370
-1
  6
ByLayer
 10
1050.0
 20
6729.999999999998181
 30
0.0
 11
1050.0000000000004547
 21
6829.999999999996362
 31
0.0
  0
LINE
  5
1E9
100
AcDbEntity
100
AcDbLine
  8
Chairs
 62
256
370
-1
  6
ByLayer
 10
1050.0000000000004547
 20
6829.999999999996362
 30
0.0
 11
540.0000000000004547
 21
6829.999999999998181
 31
0.0
  0
LINE
  5
1EA
100
AcDbEntity
100
AcDbLine
  8
Chairs
 62
256
370
-1
  6
ByLayer
 10
540.0000000000004547
 20
6829.999999999998181
 30
0.0
 11
539.9999999999995453
 21
6729.999999999996362
 31
0.0
  0
LINE
  5
1EB
100
AcDbEntity
100
AcDbLine
  8
Chairs
 62
256
370
-1
  6
ByLayer
 10
1020.0000000000004547
 20
6829.999999999996362
 30
0.0
 11
1020.0000000000004547
 21
7199.999999999996362
 31
0.0
  0
LINE
  5
1EC
100
AcDbEntity
100
AcDbLine
  8
Chairs
 62
256
370
-1
  6
ByLayer
 10
570.0000000000002274
 20
6829.999999999998181
 30
0.0
 11
570.0000000000002274
 21
7199.999999999996362
 31
0.0
  0
LINE
  5
1ED
100
AcDbEntity
100
AcDbLine
  8
Chairs
 62
256
370
-1
  6
ByLayer
 10
1060.0
 20
6729.999999999998181
 30
0.0
 11
1570.0
 21
6729.999999999996362
 31
0.0
  0
LINE
  5
1EE
100
AcDbEntity
100
AcDbLine
  8
Chairs
 62
256
370
-1
  6
ByLayer
 10
1570.0
 20
6729.999999999996362
 30
0.0
 11
1570.0000000000004547
 21
7199.999999999996362
 31
0.0
  0
LINE
  5
1EF
100
AcDbEntity
100
AcDbLine
  8
Chairs
 62
256
370
-1
  6
ByLayer
 10
1570.0000000000004547
 20
7199.999999999996362
 30
0.0
 11
1060.0000000000004547
 21
7199.999999999998181
 31
0.0
  0
LINE
  5
1F0
100
AcDbEntity
100
AcDbLine
  8
Chairs
 62
256
370
-1
  6
ByLayer
 10
1060.0000000000004547
 20
7199.999999999998181
 30
0.0
 11
1060.0
 21
6729.999999999998181
 31
0.0
  0
LINE
  5
1F1
100
AcDbEntity
100
AcDbLine
  8
Chairs
 62
256
370
-1
  6
ByLayer
 10
1060.0
 20
6729.999999999998181
 30
0.0
 11
1570.0
 21
6729.999999999996362
 31
0.0
  0
LINE
  5
1F2
100
AcDbEntity
100
AcDbLine
  8
Chairs
 62
256
370
-1
  6
ByLayer
 10
1570.0
 20
6729.999999999996362
 30
0.0
 11
1570.0000000000004547
 21
6829.999999999996362
 31
0.0
  0
LINE
  5
1F3
100
AcDbEntity
100
AcDbLine
  8
Chairs
 62
256
370
-1
  6
ByLayer
 10
1570.0000000000004547
 20
6829.999999999996362
 30
0.0
 11
1060.0000000000002274
 21
6829.999999999996362
 31
0.0
  0
LINE
  5
1F4
100
AcDbEntity
100
AcDbLine
  8
Chairs
 62
256
370
-1
  6
ByLayer
 10
1060.0000000000002274
 20
6829.999999999996362
 30
0.0
 11
1060.0
 21
6729.999999999998181
 31
0.0
  0
LINE
  5
1F5
100
AcDbEntity
100
AcDbLine
  8
Chairs
 62
256
370
-1
  6
ByLayer
 10
1540.0000000000002274
 20
6829.999999999996362
 30
0.0
 11
1540.0000000000006821
 21
7199.999999999996362
 31
0.0
  0
LINE
  5
1F6
100
AcDbEntity
100
AcDbLine
  8
Chairs
 62
256
370
-1
  6
ByLayer
 10
1090.0000000000006821
 20
6829.999999999996362
 30
0.0
 11
1090.0000000000009095
 21
7199.999999999996362
 31
0.0
  0
LINE
  5
1F7
100
AcDbEntity
100
AcDbLine
  8
Chairs
 62
256
370
-1
  6
ByLayer
 10
1580.0000000000002274
 20
6729.999999999996362
 30
0.0
 11
2090.0000000000004547
 21
6729.999999999996362
 31
0.0
  0
LINE
  5
1F8
100
AcDbEntity
100
AcDbLine
  8
Chairs
 62
256
370
-1
  6
ByLayer
 10
2090.0000000000004547
 20
6729.999999999996362
 30
0.0
 11
2090.0000000000009095
 21
7199.999999999996362
 31
0.0
  0
LINE
  5
1F9
100
AcDbEntity
100
AcDbLine
  8
Chairs
 62
256
370
-1
  6
ByLayer
 10
2090.0000000000009095
 20
7199.999999999996362
 30
0.0
 11
1580.0000000000009095
 21
7199.999999999996362
 31
0.0
  0
LINE
  5
1FA
100
AcDbEntity
100
AcDbLine
  8
Chairs
 62
256
370
-1
  6
ByLayer
 10
1580.0000000000009095
 20
7199.999999999996362
 30
0.0
 11
1580.0000000000002274
 21
6729.999999999996362
 31
0.0
  0
LINE
  5
1FB
100
AcDbEntity
100
AcDbLine
  8
Chairs
 62
256
370
-1
  6
ByLayer
 10
1580.0000000000002274
 20
6729.999999999996362
 30
0.0
 11
2090.0000000000004547
 21
6729.999999999996362
 31
0.0
  0
LINE
  5
1FC
100
AcDbEntity
100
AcDbLine
  8
Chairs
 62
256
370
-1
  6
ByLayer
 10
2090.0000000000004547
 20
6729.999999999996362
 30
0.0
 11
2090.0000000000004547
 21
6829.999999999996362
 31
0.0
  0
LINE
  5
1FD
100
AcDbEntity
100
AcDbLine
  8
Chairs
 62
256
370
-1
  6
ByLayer
 10
2090.0000000000004547
 20
6829.999999999996362
 30
0.0
 11
1580.0000000000002274
 21
6829.999999999996362
 31
0.0
  0
LINE
  5
1FE
100
AcDbEntity
100
AcDbLine
  8
Chairs
 62
256
370
-1
  6
ByLayer
 10
1580.0000000000002274
 20
6829.999999999996362
 30
0.0
 11
1580.0000000000002274
 21
6729.999999999996362
 31
0.0
  0
LINE
  5
1FF
100
AcDbEntity
100
AcDbLine
  8
Chairs
 62
256
370
-1
  6
ByLayer
 10
2060.0000000000009095
 20
6829.999999999996362
 30
0.0
 11
2060.0000000000004547
 21
7199.999999999996362
 31
0.0
  0
LINE
  5
200
100
AcDbEntity
100
AcDbLine
  8
Chairs
 62
256
370
-1
  6
ByLayer
 10
1610.0000000000004547
 20
6829.999999999996362
 30
0.0
 11
1610.0000000000009095
 21
7199.999999999998181
 31
0.0
  0
LINE
  5
201
100
AcDbEntity
100
AcDbLine
  8
Chairs
 62
256
370
-1
  6
ByLayer
 10
2100.0000000000004547
 20
6729.999999999996362
 30
0.0
 11
2610.0000000000004547
 21
6729.999999999996362
 31
0.0
  0
LINE
  5
202
100
AcDbEntity
100
AcDbLine
  8
Chairs
 62
256
370
-1
  6
ByLayer
 10
2610.0000000000004547
 20
6729.999999999996362
 30
0.0
 11
2610.0000000000009095
 21
7199.999999999994543
 31
0.0
  0
LINE
  5
203
100
AcDbEntity
100
AcDbLine
  8
Chairs
 62
256
370
-1
  6
ByLayer
 10
2610.0000000000009095
 20
7199.999999999994543
 30
0.0
 11
2100.0000000000009095
 21
7199.999999999996362
 31
0.0
  0
LINE
  5
204
100
AcDbEntity
100
AcDbLine
  8
Chairs
 62
256
370
-1
  6
ByLayer
 10
2100.0000000000009095
 20
7199.999999999996362
 30
0.0
 11
2100.0000000000004547
 21
6729.999999999996362
 31
0.0
  0
LINE
  5
205
100
AcDbEntity
100
AcDbLine
  8
Chairs
 62
256
370
-1
  6
ByLayer
 10
2100.0000000000004547
 20
6729.999999999996362
 30
0.0
 11
2610.0000000000004547
 21
6729.999999999996362
 31
0.0
  0
LINE
  5
206
100
AcDbEntity
100
AcDbLine
  8
Chairs
 62
256
370
-1
  6
ByLayer
 10
2610.0000000000004547
 20
6729.999999999996362
 30
0.0
 11
2610.0000000000004547
 21
6829.999999999996362
 31
0.0
  0
LINE
  5
207
100
AcDbEntity
100
AcDbLine
  8
Chairs
 62
256
370
-1
  6
ByLayer
 10
2610.0000000000004547
 20
6829.999999999996362
 30
0.0
 11
2100.0000000000009095
 21
6829.999999999994543
 31
0.0
  0
LINE
  5
208
100
AcDbEntity
100
AcDbLine
  8
Chairs
 62
256
370
-1
  6
ByLayer
 10
2100.0000000000009095
 20
6829.999999999994543
 30
0.0
 11
2100.0000000000004547
 21
6729.999999999996362
 31
0.0
  0
LINE
  5
209
100
AcDbEntity
100
AcDbLine
  8
Chairs
 62
256
370
-1
  6
ByLayer
 10
2580.0000000000009095
 20
6829.999999999998181
 30
0.0
 11
2580.0000000000009095
 21
7199.999999999996362
 31
0.0
  0
LINE
  5
20A
100
AcDbEntity
100
AcDbLine
  8
Chairs
 62
256
370
-1
  6
ByLayer
 10
2130.0000000000004547
 20
6829.999999999996362
 30
0.0
 11
2130.0000000000009095
 21
7199.999999999996362
 31
0.0
  0
LINE
  5
20B
100
AcDbEntity
100
AcDbLine
  8
Chairs
 62
256
370
-1
  6
ByLayer
 10
20.0
 20
7530.0
 30
0.0
 11
530.0
 21
7530.000000000001819
 31
0.0
  0
LINE
  5
20C
100
AcDbEntity
100
AcDbLine
  8
Chairs
 62
256
370
-1
  6
ByLayer
 10
530.0
 20
7530.000000000001819
 30
0.0
 11
530.0
 21
8000.0
 31
0.0
  0
LINE
  5
20D
100
AcDbEntity
100
AcDbLine
  8
Chairs
 62
256
370
-1
  6
ByLayer
 10
530.0
 20
8000.0
 30
0.0
 11
20.0
 21
8000.000000000003638
 31
0.0
  0
LINE
  5
20E
100
AcDbEntity
100
AcDbLine
  8
Chairs
 62
256
370
-1
  6
ByLayer
 10
20.0
 20
8000.000000000003638
 30
0.0
 11
20.0
 21
7530.0
 31
0.0
  0
LINE
  5
20F
100
AcDbEntity
100
AcDbLine
  8
Chairs
 62
256
370
-1
  6
ByLayer
 10
20.0
 20
7530.0
 30
0.0
 11
530.0
 21
7530.000000000001819
 31
0.0
  0
LINE
  5
210
100
AcDbEntity
100
AcDbLine
  8
Chairs
 62
256
370
-1
  6
ByLayer
 10
530.0
 20
7530.000000000001819
 30
0.0
 11
530.0
 21
7629.999999999998181
 31
0.0
  0
LINE
  5
211
100
AcDbEntity
100
AcDbLine
  8
Chairs
 62
256
370
-1
  6
ByLayer
 10
530.0
 20
7629.999999999998181
 30
0.0
 11
20.0000000000004547
 21
7630.000000000001819
 31
0.0
  0
LINE
  5
212
100
AcDbEntity
100
AcDbLine
  8
Chairs
 62
256
370
-1
  6
ByLayer
 10
20.0000000000004547
 20
7630.000000000001819
 30
0.0
 11
20.0
 21
7530.0
 31
0.0
  0
LINE
  5
213
100
AcDbEntity
100
AcDbLine
  8
Chairs
 62
256
370
-1
  6
ByLayer
 10
500.0
 20
7630.000000000003638
 30
0.0
 11
500.0
 21
8000.000000000001819
 31
0.0
  0
LINE
  5
214
100
AcDbEntity
100
AcDbLine
  8
Chairs
 62
256
370
-1
  6
ByLayer
 10
49.9999999999995453
 20
7630.000000000001819
 30
0.0
 11
50.0
 21
8000.0
 31
0.0
  0
LINE
  5
215
100
AcDbEntity
100
AcDbLine
  8
Chairs
 62
256
370
-1
  6
ByLayer
 10
540.0
 20
7529.999999999998181
 30
0.0
 11
1050.0
 21
7530.0
 31
0.0
  0
LINE
  5
216
100
AcDbEntity
100
AcDbLine
  8
Chairs
 62
256
370
-1
  6
ByLayer
 10
1050.0
 20
7530.0
 30
0.0
 11
1050.0000000000002274
 21
8000.000000000001819
 31
0.0
  0
LINE
  5
217
100
AcDbEntity
100
AcDbLine
  8
Chairs
 62
256
370
-1
  6
ByLayer
 10
1050.0000000000002274
 20
8000.000000000001819
 30
0.0
 11
540.0
 21
8000.000000000001819
 31
0.0
  0
LINE
  5
218
100
AcDbEntity
100
AcDbLine
  8
Chairs
 62
256
370
-1
  6
ByLayer
 10
540.0
 20
8000.000000000001819
 30
0.0
 11
540.0
 21
7529.999999999998181
 31
0.0
  0
LINE
  5
219
100
AcDbEntity
100
AcDbLine
  8
Chairs
 62
256
370
-1
  6
ByLayer
 10
540.0
 20
7529.999999999998181
 30
0.0
 11
1050.0
 21
7530.0
 31
0.0
  0
LINE
  5
21A
100
AcDbEntity
100
AcDbLine
  8
Chairs
 62
256
370
-1
  6
ByLayer
 10
1050.0
 20
7530.0
 30
0.0
 11
1050.0000000000002274
 21
7630.000000000003638
 31
0.0
  0
LINE
  5
21B
100
AcDbEntity
100
AcDbLine
  8
Chairs
 62
256
370
-1
  6
ByLayer
 10
1050.0000000000002274
 20
7630.000000000003638
 30
0.0
 11
540.0
 21
7630.0
 31
0.0
  0
LINE
  5
21C
100
AcDbEntity
100
AcDbLine
  8
Chairs
 62
256
370
-1
  6
ByLayer
 10
540.0
 20
7630.0
 30
0.0
 11
540.0
 21
7529.999999999998181
 31
0.0
  0
LINE
  5
21D
100
AcDbEntity
100
AcDbLine
  8
Chairs
 62
256
370
-1
  6
ByLayer
 10
1020.0000000000002274
 20
7630.000000000001819
 30
0.0
 11
1020.0
 21
8000.0
 31
0.0
  0
LINE
  5
21E
100
AcDbEntity
100
AcDbLine
  8
Chairs
 62
256
370
-1
  6
ByLayer
 10
570.0
 20
7630.000000000003638
 30
0.0
 11
570.0
 21
8000.000000000001819
 31
0.0
  0
LINE
  5
21F
100
AcDbEntity
100
AcDbLine
  8
Chairs
 62
256
370
-1
  6
ByLayer
 10
1060.0000000000002274
 20
7530.0
 30
0.0
 11
1570.0000000000004547
 21
7530.000000000001819
 31
0.0
  0
LINE
  5
220
100
AcDbEntity
100
AcDbLine
  8
Chairs
 62
256
370
-1
  6
ByLayer
 10
1570.0000000000004547
 20
7530.000000000001819
 30
0.0
 11
1570.0
 21
8000.0
 31
0.0
  0
LINE
  5
221
100
AcDbEntity
100
AcDbLine
  8
Chairs
 62
256
370
-1
  6
ByLayer
 10
1570.0
 20
8000.0
 30
0.0
 11
1060.0000000000004547
 21
8000.0
 31
0.0
  0
LINE
  5
222
100
AcDbEntity
100
AcDbLine
  8
Chairs
 62
256
370
-1
  6
ByLayer
 10
1060.0000000000004547
 20
8000.0
 30
0.0
 11
1060.0000000000002274
 21
7530.0
 31
0.0
  0
LINE
  5
223
100
AcDbEntity
100
AcDbLine
  8
Chairs
 62
256
370
-1
  6
ByLayer
 10
1060.0000000000002274
 20
7530.0
 30
0.0
 11
1570.0000000000004547
 21
7530.000000000001819
 31
0.0
  0
LINE
  5
224
100
AcDbEntity
100
AcDbLine
  8
Chairs
 62
256
370
-1
  6
ByLayer
 10
1570.0000000000004547
 20
7530.000000000001819
 30
0.0
 11
1570.0000000000004547
 21
7630.000000000001819
 31
0.0
  0
LINE
  5
225
100
AcDbEntity
100
AcDbLine
  8
Chairs
 62
256
370
-1
  6
ByLayer
 10
1570.0000000000004547
 20
7630.000000000001819
 30
0.0
 11
1060.0000000000002274
 21
7630.0
 31
0.0
  0
LINE
  5
226
100
AcDbEntity
100
AcDbLine
  8
Chairs
 62
256
370
-1
  6
ByLayer
 10
1060.0000000000002274
 20
7630.0
 30
0.0
 11
1060.0000000000002274
 21
7530.0
 31
0.0
  0
LINE
  5
227
100
AcDbEntity
100
AcDbLine
  8
Chairs
 62
256
370
-1
  6
ByLayer
 10
1540.0000000000004547
 20
7630.000000000001819
 30
0.0
 11
1540.0000000000004547
 21
8000.0
 31
0.0
  0
LINE
  5
228
100
AcDbEntity
100
AcDbLine
  8
Chairs
 62
256
370
-1
  6
ByLayer
 10
1090.0
 20
7630.0
 30
0.0
 11
1090.0
 21
8000.000000000001819
 31
0.0
  0
LINE
  5
229
100
AcDbEntity
100
AcDbLine
  8
Chairs
 62
256
370
-1
  6
ByLayer
 10
1580.0000000000002274
 20
7530.0
 30
0.0
 11
2090.0
 21
7530.0
 31
0.0
  0
LINE
  5
22A
100
AcDbEntity
100
AcDbLine
  8
Chairs
 62
256
370
-1
  6
ByLayer
 10
2090.0
 20
7530.0
 30
0.0
 11
2090.0000000000004547
 21
8000.0
 31
0.0
  0
LINE
  5
22B
100
AcDbEntity
100
AcDbLine
  8
Chairs
 62
256
370
-1
  6
ByLayer
 10
2090.0000000000004547
 20
8000.0
 30
0.0
 11
1580.0000000000006821
 21
8000.0
 31
0.0
  0
LINE
  5
22C
100
AcDbEntity
100
AcDbLine
  8
Chairs
 62
256
370
-1
  6
ByLayer
 10
1580.0000000000006821
 20
8000.0
 30
0.0
 11
1580.0000000000002274
 21
7530.0
 31
0.0
  0
LINE
  5
22D
100
AcDbEntity
100
AcDbLine
  8
Chairs
 62
256
370
-1
  6
ByLayer
 10
1580.0000000000002274
 20
7530.0
 30
0.0
 11
2090.0
 21
7530.0
 31
0.0
  0
LINE
  5
22E
100
AcDbEntity
100
AcDbLine
  8
Chairs
 62
256
370
-1
  6
ByLayer
 10
2090.0
 20
7530.0
 30
0.0
 11
2090.0000000000004547
 21
7630.000000000001819
 31
0.0
  0
LINE
  5
22F
100
AcDbEntity
100
AcDbLine
  8
Chairs
 62
256
370
-1
  6
ByLayer
 10
2090.0000000000004547
 20
7630.000000000001819
 30
0.0
 11
1580.0000000000002274
 21
7630.0
 31
0.0
  0
LINE
  5
230
100
AcDbEntity
100
AcDbLine
  8
Chairs
 62
256
370
-1
  6
ByLayer
 10
1580.0000000000002274
 20
7630.0
 30
0.0
 11
1580.0000000000002274
 21
7530.0
 31
0.0
  0
LINE
  5
231
100
AcDbEntity
100
AcDbLine
  8
Chairs
 62
256
370
-1
  6
ByLayer
 10
2060.0000000000004547
 20
7630.000000000001819
 30
0.0
 11
2060.0
 21
8000.0
 31
0.0
  0
LINE
  5
232
100
AcDbEntity
100
AcDbLine
  8
Chairs
 62
256
370
-1
  6
ByLayer
 10
1610.0000000000004547
 20
7630.000000000001819
 30
0.0
 11
1610.0000000000002274
 21
8000.0
 31
0.0
  0
LINE
  5
233
100
AcDbEntity
100
AcDbLine
  8
Chairs
 62
256
370
-1
  6
ByLayer
 10
2100.0
 20
7530.0
 30
0.0
 11
2610.0000000000004547
 21
7530.0
 31
0.0
  0
LINE
  5
234
100
AcDbEntity
100
AcDbLine
  8
Chairs
 62
256
370
-1
  6
ByLayer
 10
2610.0000000000004547
 20
7530.0
 30
0.0
 11
2610.0000000000004547
 21
8000.0
 31
0.0
  0
LINE
  5
235
100
AcDbEntity
100
AcDbLine
  8
Chairs
 62
256
370
-1
  6
ByLayer
 10
2610.0000000000004547
 20
8000.0
 30
0.0
 11
2100.0000000000004547
 21
8000.0
 31
0.0
  0
LINE
  5
236
100
AcDbEntity
100
AcDbLine
  8
Chairs
 62
256
370
-1
  6
ByLayer
 10
2100.0000000000004547
 20
8000.0
 30
0.0
 11
2100.0
 21
7530.0
 31
0.0
  0
LINE
  5
237
100
AcDbEntity
100
AcDbLine
  8
Chairs
 62
256
370
-1
  6
ByLayer
 10
2100.0
 20
7530.0
 30
0.0
 11
2610.0000000000004547
 21
7530.0
 31
0.0
  0
LINE
  5
238
100
AcDbEntity
100
AcDbLine
  8
Chairs
 62
256
370
-1
  6
ByLayer
 10
2610.0000000000004547
 20
7530.0
 30
0.0
 11
2610.0000000000004547
 21
7630.0
 31
0.0
  0
LINE
  5
239
100
AcDbEntity
100
AcDbLine
  8
Chairs
 62
256
370
-1
  6
ByLayer
 10
2610.0000000000004547
 20
7630.0
 30
0.0
 11
2100.0000000000004547
 21
7630.0
 31
0.0
  0
LINE
  5
23A
100
AcDbEntity
100
AcDbLine
  8
Chairs
 62
256
370
-1
  6
ByLayer
 10
2100.0000000000004547
 20
7630.0
 30
0.0
 11
2100.0
 21
7530.0
 31
0.0
  0
LINE
  5
23B
100
AcDbEntity
100
AcDbLine
  8
Chairs
 62
256
370
-1
  6
ByLayer
 10
2580.0000000000004547
 20
7630.0
 30
0.0
 11
2580.0000000000004547
 21
8000.0
 31
0.0
  0
LINE
  5
23C
100
AcDbEntity
100
AcDbLine
  8
Chairs
 62
256
370
-1
  6
ByLayer
 10
2130.0000000000004547
 20
7630.0
 30
0.0
 11
2130.0000000000004547
 21
8000.0
 31
0.0
  0
LINE
  5
23D
100
AcDbEntity
100
AcDbLine
  8
Chairs
 62
256
370
-1
  6
ByLayer
 10
3390.0000000000004547
 20
330.000000000000739
 30
0.0
 11
3900.0
 21
330.0000000000003411
 31
0.0
  0
LINE
  5
23E
100
AcDbEntity
100
AcDbLine
  8
Chairs
 62
256
370
-1
  6
ByLayer
 10
3900.0
 20
330.0000000000003411
 30
0.0
 11
3900.0000000000004547
 21
800.0000000000004547
 31
0.0
  0
LINE
  5
23F
100
AcDbEntity
100
AcDbLine
  8
Chairs
 62
256
370
-1
  6
ByLayer
 10
3900.0000000000004547
 20
800.0000000000004547
 30
0.0
 11
3390.0000000000004547
 21
800.0000000000003411
 31
0.0
  0
LINE
  5
240
100
AcDbEntity
100
AcDbLine
  8
Chairs
 62
256
370
-1
  6
ByLayer
 10
3390.0000000000004547
 20
800.0000000000003411
 30
0.0
 11
3390.0000000000004547
 21
330.000000000000739
 31
0.0
  0
LINE
  5
241
100
AcDbEntity
100
AcDbLine
  8
Chairs
 62
256
370
-1
  6
ByLayer
 10
3390.0000000000004547
 20
330.000000000000739
 30
0.0
 11
3900.0
 21
330.0000000000003411
 31
0.0
  0
LINE
  5
242
100
AcDbEntity
100
AcDbLine
  8
Chairs
 62
256
370
-1
  6
ByLayer
 10
3900.0
 20
330.0000000000003411
 30
0.0
 11
3900.0
 21
430.0000000000003979
 31
0.0
  0
LINE
  5
243
100
AcDbEntity
100
AcDbLine
  8
Chairs
 62
256
370
-1
  6
ByLayer
 10
3900.0
 20
430.0000000000003979
 30
0.0
 11
3390.0000000000004547
 21
430.0000000000005684
 31
0.0
  0
LINE
  5
244
100
AcDbEntity
100
AcDbLine
  8
Chairs
 62
256
370
-1
  6
ByLayer
 10
3390.0000000000004547
 20
430.0000000000005684
 30
0.0
 11
3390.0000000000004547
 21
330.000000000000739
 31
0.0
  0
LINE
  5
245
100
AcDbEntity
100
AcDbLine
  8
Chairs
 62
256
370
-1
  6
ByLayer
 10
3870.0000000000004547
 20
430.0000000000004547
 30
0.0
 11
3870.0000000000004547
 21
800.0000000000004547
 31
0.0
  0
LINE
  5
246
100
AcDbEntity
100
AcDbLine
  8
Chairs
 62
256
370
-1
  6
ByLayer
 10
3420.0000000000004547
 20
430.0000000000005684
 30
0.0
 11
3420.0000000000004547
 21
800.0000000000004547
 31
0.0
  0
LINE
  5
247
100
AcDbEntity
100
AcDbLine
  8
Chairs
 62
256
370
-1
  6
ByLayer
 10
3910.0000000000004547
 20
330.0000000000005684
 30
0.0
 11
4420.0
 21
330.0000000000003411
 31
0.0
  0
LINE
  5
248
100
AcDbEntity
100
AcDbLine
  8
Chairs
 62
256
370
-1
  6
ByLayer
 10
4420.0
 20
330.0000000000003411
 30
0.0
 11
4420.0
 21
800.0000000000003411
 31
0.0
  0
LINE
  5
249
100
AcDbEntity
100
AcDbLine
  8
Chairs
 62
256
370
-1
  6
ByLayer
 10
4420.0
 20
800.0000000000003411
 30
0.0
 11
3910.0000000000004547
 21
800.0000000000002274
 31
0.0
  0
LINE
  5
24A
100
AcDbEntity
100
AcDbLine
  8
Chairs
 62
256
370
-1
  6
ByLayer
 10
3910.0000000000004547
 20
800.0000000000002274
 30
0.0
 11
3910.0000000000004547
 21
330.0000000000005684
 31
0.0
  0
LINE
  5
24B
100
AcDbEntity
100
AcDbLine
  8
Chairs
 62
256
370
-1
  6
ByLayer
 10
3910.0000000000004547
 20
330.0000000000005684
 30
0.0
 11
4420.0
 21
330.0000000000003411
 31
0.0
  0
LINE
  5
24C
100
AcDbEntity
100
AcDbLine
  8
Chairs
 62
256
370
-1
  6
ByLayer
 10
4420.0
 20
330.0000000000003411
 30
0.0
 11
4420.0
 21
430.0000000000001705
 31
0.0
  0
LINE
  5
24D
100
AcDbEntity
100
AcDbLine
  8
Chairs
 62
256
370
-1
  6
ByLayer
 10
4420.0
 20
430.0000000000001705
 30
0.0
 11
3910.0000000000004547
 21
430.0000000000001137
 31
0.0
  0
LINE
  5
24E
100
AcDbEntity
100
AcDbLine
  8
Chairs
 62
256
370
-1
  6
ByLayer
 10
3910.0000000000004547
 20
430.0000000000001137
 30
0.0
 11
3910.0000000000004547
 21
330.0000000000005684
 31
0.0
  0
LINE
  5
24F
100
AcDbEntity
100
AcDbLine
  8
Chairs
 62
256
370
-1
  6
ByLayer
 10
4390.0
 20
430.0000000000004547
 30
0.0
 11
4390.0
 21
800.0000000000004547
 31
0.0
  0
LINE
  5
250
100
AcDbEntity
100
AcDbLine
  8
Chairs
 62
256
370
-1
  6
ByLayer
 10
3940.0000000000004547
 20
430.0000000000003411
 30
0.0
 11
3940.0000000000004547
 21
800.0000000000004547
 31
0.0
  0
LINE
  5
251
100
AcDbEntity
100
AcDbLine
  8
Chairs
 62
256
370
-1
  6
ByLayer
 10
4430.0
 20
330.0000000000002274
 30
0.0
 11
4940.0
 21
330.0
 31
0.0
  0
LINE
  5
252
100
AcDbEntity
100
AcDbLine
  8
Chairs
 62
256
370
-1
  6
ByLayer
 10
4940.0
 20
330.0
 30
0.0
 11
4940.0
 21
800.0
 31
0.0
  0
LINE
  5
253
100
AcDbEntity
100
AcDbLine
  8
Chairs
 62
256
370
-1
  6
ByLayer
 10
4940.0
 20
800.0
 30
0.0
 11
4430.0
 21
800.0000000000002274
 31
0.0
  0
LINE
  5
254
100
AcDbEntity
100
AcDbLine
  8
Chairs
 62
256
370
-1
  6
ByLayer
 10
4430.0
 20
800.0000000000002274
 30
0.0
 11
4430.0
 21
330.0000000000002274
 31
0.0
  0
LINE
  5
255
100
AcDbEntity
100
AcDbLine
  8
Chairs
 62
256
370
-1
  6
ByLayer
 10
4430.0
 20
330.0000000000002274
 30
0.0
 11
4940.0
 21
330.0
 31
0.0
  0
LINE
  5
256
100
AcDbEntity
100
AcDbLine
  8
Chairs
 62
256
370
-1
  6
ByLayer
 10
4940.0
 20
330.0
 30
0.0
 11
4940.0
 21
429.9999999999993747
 31
0.0
  0
LINE
  5
257
100
AcDbEntity
100
AcDbLine
  8
Chairs
 62
256
370
-1
  6
ByLayer
 10
4940.0
 20
429.9999999999993747
 30
0.0
 11
4430.0
 21
430.0000000000001137
 31
0.0
  0
LINE
  5
258
100
AcDbEntity
100
AcDbLine
  8
Chairs
 62
256
370
-1
  6
ByLayer
 10
4430.0
 20
430.0000000000001137
 30
0.0
 11
4430.0
 21
330.0000000000002274
 31
0.0
  0
LINE
  5
259
100
AcDbEntity
100
AcDbLine
  8
Chairs
 62
256
370
-1
  6
ByLayer
 10
4910.0
 20
430.0000000000001137
 30
0.0
 11
4910.0
 21
800.0000000000006821
 31
0.0
  0
LINE
  5
25A
100
AcDbEntity
100
AcDbLine
  8
Chairs
 62
256
370
-1
  6
ByLayer
 10
4460.0
 20
430.0000000000000568
 30
0.0
 11
4460.0
 21
800.0000000000002274
 31
0.0
  0
LINE
  5
25B
100
AcDbEntity
100
AcDbLine
  8
Chairs
 62
256
370
-1
  6
ByLayer
 10
4950.0
 20
330.0000000000006821
 30
0.0
 11
5460.0
 21
330.0000000000004547
 31
0.0
  0
LINE
  5
25C
100
AcDbEntity
100
AcDbLine
  8
Chairs
 62
256
370
-1
  6
ByLayer
 10
5460.0
 20
330.0000000000004547
 30
0.0
 11
5460.0000000000009095
 21
800.0000000000003411
 31
0.0
  0
LINE
  5
25D
100
AcDbEntity
100
AcDbLine
  8
Chairs
 62
256
370
-1
  6
ByLayer
 10
5460.0000000000009095
 20
800.0000000000003411
 30
0.0
 11
4950.0
 21
800.0000000000004547
 31
0.0
  0
LINE
  5
25E
100
AcDbEntity
100
AcDbLine
  8
Chairs
 62
256
370
-1
  6
ByLayer
 10
4950.0
 20
800.0000000000004547
 30
0.0
 11
4950.0
 21
330.0000000000006821
 31
0.0
  0
LINE
  5
25F
100
AcDbEntity
100
AcDbLine
  8
Chairs
 62
256
370
-1
  6
ByLayer
 10
4950.0
 20
330.0000000000006821
 30
0.0
 11
5460.0
 21
330.0000000000004547
 31
0.0
  0
LINE
  5
260
100
AcDbEntity
100
AcDbLine
  8
Chairs
 62
256
370
-1
  6
ByLayer
 10
5460.0
 20
330.0000000000004547
 30
0.0
 11
5460.0
 21
430.0000000000002274
 31
0.0
  0
LINE
  5
261
100
AcDbEntity
100
AcDbLine
  8
Chairs
 62
256
370
-1
  6
ByLayer
 10
5460.0
 20
430.0000000000002274
 30
0.0
 11
4950.0
 21
430.0000000000004547
 31
0.0
  0
LINE
  5
262
100
AcDbEntity
100
AcDbLine
  8
Chairs
 62
256
370
-1
  6
ByLayer
 10
4950.0
 20
430.0000000000004547
 30
0.0
 11
4950.0
 21
330.0000000000006821
 31
0.0
  0
LINE
  5
263
100
AcDbEntity
100
AcDbLine
  8
Chairs
 62
256
370
-1
  6
ByLayer
 10
5430.0000000000009095
 20
430.0000000000004547
 30
0.0
 11
5430.0000000000009095
 21
800.0000000000004547
 31
0.0
  0
LINE
  5
264
100
AcDbEntity
100
AcDbLine
  8
Chairs
 62
256
370
-1
  6
ByLayer
 10
4980.0
 20
430.0000000000004547
 30
0.0
 11
4980.0000000000009095
 21
800.0000000000005684
 31
0.0
  0
LINE
  5
265
100
AcDbEntity
100
AcDbLine
  8
Chairs
 62
256
370
-1
  6
ByLayer
 10
5470.0
 20
330.0000000000003411
 30
0.0
 11
5980.0
 21
330.0
 31
0.0
  0
LINE
  5
266
100
AcDbEntity
100
AcDbLine
  8
Chairs
 62
256
370
-1
  6
ByLayer
 10
5980.0
 20
330.0
 30
0.0
 11
5980.0
 21
799.9999999999998863
 31
0.0
  0
LINE
  5
267
100
AcDbEntity
100
AcDbLine
  8
Chairs
 62
256
370
-1
  6
ByLayer
 10
5980.0
 20
799.9999999999998863
 30
0.0
 11
5470.0
 21
800.0000000000002274
 31
0.0
  0
LINE
  5
268
100
AcDbEntity
100
AcDbLine
  8
Chairs
 62
256
370
-1
  6
ByLayer
 10
5470.0
 20
800.0000000000002274
 30
0.0
 11
5470.0
 21
330.0000000000003411
 31
0.0
  0
LINE
  5
269
100
AcDbEntity
100
AcDbLine
  8
Chairs
 62
256
370
-1
  6
ByLayer
 10
5470.0
 20
330.0000000000003411
 30
0.0
 11
5980.0
 21
330.0
 31
0.0
  0
LINE
  5
26A
100
AcDbEntity
100
AcDbLine
  8
Chairs
 62
256
370
-1
  6
ByLayer
 10
5980.0
 20
330.0
 30
0.0
 11
5980.0
 21
429.9999999999993747
 31
0.0
  0
LINE
  5
26B
100
AcDbEntity
100
AcDbLine
  8
Chairs
 62
256
370
-1
  6
ByLayer
 10
5980.0
 20
429.9999999999993747
 30
0.0
 11
5470.0000000000009095
 21
430.0000000000002274
 31
0.0
  0
LINE
  5
26C
100
AcDbEntity
100
AcDbLine
  8
Chairs
 62
256
370
-1
  6
ByLayer
 10
5470.0000000000009095
 20
430.0000000000002274
 30
0.0
 11
5470.0
 21
330.0000000000003411
 31
0.0
  0
LINE
  5
26D
100
AcDbEntity
100
AcDbLine
  8
Chairs
 62
256
370
-1
  6
ByLayer
 10
5950.0
 20
430.0000000000001705
 30
0.0
 11
5950.0
 21
800.0000000000007958
 31
0.0
  0
LINE
  5
26E
100
AcDbEntity
100
AcDbLine
  8
Chairs
 62
256
370
-1
  6
ByLayer
 10
5500.0000000000009095
 20
430.0000000000001137
 30
0.0
 11
5500.0
 21
800.0000000000002274
 31
0.0
  0
LINE
  5
26F
100
AcDbEntity
100
AcDbLine
  8
Chairs
 62
256
370
-1
  6
ByLayer
 10
3390.0000000000004547
 20
1130.0000000000031832
 30
0.0
 11
3900.0
 21
1130.0000000000027285
 31
0.0
  0
LINE
  5
270
100
AcDbEntity
100
AcDbLine
  8
Chairs
 62
256
370
-1
  6
ByLayer
 10
3900.0
 20
1130.0000000000027285
 30
0.0
 11
3900.0000000000004547
 21
1600.0000000000029559
 31
0.0
  0
LINE
  5
271
100
AcDbEntity
100
AcDbLine
  8
Chairs
 62
256
370
-1
  6
ByLayer
 10
3900.0000000000004547
 20
1600.0000000000029559
 30
0.0
 11
3390.0000000000004547
 21
1600.0000000000029559
 31
0.0
  0
LINE
  5
272
100
AcDbEntity
100
AcDbLine
  8
Chairs
 62
256
370
-1
  6
ByLayer
 10
3390.0000000000004547
 20
1600.0000000000029559
 30
0.0
 11
3390.0000000000004547
 21
1130.0000000000031832
 31
0.0
  0
LINE
  5
273
100
AcDbEntity
100
AcDbLine
  8
Chairs
 62
256
370
-1
  6
ByLayer
 10
3390.0000000000004547
 20
1130.0000000000031832
 30
0.0
 11
3900.0
 21
1130.0000000000027285
 31
0.0
  0
LINE
  5
274
100
AcDbEntity
100
AcDbLine
  8
Chairs
 62
256
370
-1
  6
ByLayer
 10
3900.0
 20
1130.0000000000027285
 30
0.0
 11
3900.0
 21
1230.0000000000029559
 31
0.0
  0
LINE
  5
275
100
AcDbEntity
100
AcDbLine
  8
Chairs
 62
256
370
-1
  6
ByLayer
 10
3900.0
 20
1230.0000000000029559
 30
0.0
 11
3390.0000000000004547
 21
1230.0000000000031832
 31
0.0
  0
LINE
  5
276
100
AcDbEntity
100
AcDbLine
  8
Chairs
 62
256
370
-1
  6
ByLayer
 10
3390.0000000000004547
 20
1230.0000000000031832
 30
0.0
 11
3390.0000000000004547
 21
1130.0000000000031832
 31
0.0
  0
LINE
  5
277
100
AcDbEntity
100
AcDbLine
  8
Chairs
 62
256
370
-1
  6
ByLayer
 10
3870.0000000000004547
 20
1230.0000000000029559
 30
0.0
 11
3870.0000000000004547
 21
1600.0000000000029559
 31
0.0
  0
LINE
  5
278
100
AcDbEntity
100
AcDbLine
  8
Chairs
 62
256
370
-1
  6
ByLayer
 10
3420.0000000000004547
 20
1230.0000000000031832
 30
0.0
 11
3420.0000000000004547
 21
1600.0000000000029559
 31
0.0
  0
LINE
  5
279
100
AcDbEntity
100
AcDbLine
  8
Chairs
 62
256
370
-1
  6
ByLayer
 10
3910.0000000000004547
 20
1130.0000000000027285
 30
0.0
 11
4420.0
 21
1130.0000000000025011
 31
0.0
  0
LINE
  5
27A
100
AcDbEntity
100
AcDbLine
  8
Chairs
 62
256
370
-1
  6
ByLayer
 10
4420.0
 20
1130.0000000000025011
 30
0.0
 11
4420.0
 21
1600.0000000000029559
 31
0.0
  0
LINE
  5
27B
100
AcDbEntity
100
AcDbLine
  8
Chairs
 62
256
370
-1
  6
ByLayer
 10
4420.0
 20
1600.0000000000029559
 30
0.0
 11
3910.0000000000004547
 21
1600.0000000000027285
 31
0.0
  0
LINE
  5
27C
100
AcDbEntity
100
AcDbLine
  8
Chairs
 62
256
370
-1
  6
ByLayer
 10
3910.0000000000004547
 20
1600.0000000000027285
 30
0.0
 11
3910.0000000000004547
 21
1130.0000000000027285
 31
0.0
  0
LINE
  5
27D
100
AcDbEntity
100
AcDbLine
  8
Chairs
 62
256
370
-1
  6
ByLayer
 10
3910.0000000000004547
 20
1130.0000000000027285
 30
0.0
 11
4420.0
 21
1130.0000000000025011
 31
0.0
  0
LINE
  5
27E
100
AcDbEntity
100
AcDbLine
  8
Chairs
 62
256
370
-1
  6
ByLayer
 10
4420.0
 20
1130.0000000000025011
 30
0.0
 11
4420.0
 21
1230.0000000000020464
 31
0.0
  0
LINE
  5
27F
100
AcDbEntity
100
AcDbLine
  8
Chairs
 62
256
370
-1
  6
ByLayer
 10
4420.0
 20
1230.0000000000020464
 30
0.0
 11
3910.0000000000004547
 21
1230.0000000000022737
 31
0.0
  0
LINE
  5
280
100
AcDbEntity
100
AcDbLine
  8
Chairs
 62
256
370
-1
  6
ByLayer
 10
3910.0000000000004547
 20
1230.0000000000022737
 30
0.0
 11
3910.0000000000004547
 21
1130.0000000000027285
 31
0.0
  0
LINE
  5
281
100
AcDbEntity
100
AcDbLine
  8
Chairs
 62
256
370
-1
  6
ByLayer
 10
4390.0
 20
1230.0000000000029559
 30
0.0
 11
4390.0
 21
1600.0000000000029559
 31
0.0
  0
LINE
  5
282
100
AcDbEntity
100
AcDbLine
  8
Chairs
 62
256
370
-1
  6
ByLayer
 10
3940.0000000000004547
 20
1230.0000000000022737
 30
0.0
 11
3940.0000000000004547
 21
1600.0000000000029559
 31
0.0
  0
LINE
  5
283
100
AcDbEntity
100
AcDbLine
  8
Chairs
 62
256
370
-1
  6
ByLayer
 10
4430.0
 20
1130.0000000000025011
 30
0.0
 11
4940.0
 21
1130.0000000000027285
 31
0.0
  0
LINE
  5
284
100
AcDbEntity
100
AcDbLine
  8
Chairs
 62
256
370
-1
  6
ByLayer
 10
4940.0
 20
1130.0000000000027285
 30
0.0
 11
4940.0
 21
1600.0000000000034106
 31
0.0
  0
LINE
  5
285
100
AcDbEntity
100
AcDbLine
  8
Chairs
 62
256
370
-1
  6
ByLayer
 10
4940.0
 20
1600.0000000000034106
 30
0.0
 11
4430.0
 21
1600.0000000000029559
 31
0.0
  0
LINE
  5
286
100
AcDbEntity
100
AcDbLine
  8
Chairs
 62
256
370
-1
  6
ByLayer
 10
4430.0
 20
1600.0000000000029559
 30
0.0
 11
4430.0
 21
1130.0000000000025011
 31
0.0
  0
LINE
  5
287
100
AcDbEntity
100
AcDbLine
  8
Chairs
 62
256
370
-1
  6
ByLayer
 10
4430.0
 20
1130.0000000000025011
 30
0.0
 11
4940.0
 21
1130.0000000000027285
 31
0.0
  0
LINE
  5
288
100
AcDbEntity
100
AcDbLine
  8
Chairs
 62
256
370
-1
  6
ByLayer
 10
4940.0
 20
1130.0000000000027285
 30
0.0
 11
4940.0
 21
1230.0000000000004547
 31
0.0
  0
LINE
  5
289
100
AcDbEntity
100
AcDbLine
  8
Chairs
 62
256
370
-1
  6
ByLayer
 10
4940.0
 20
1230.0000000000004547
 30
0.0
 11
4430.0
 21
1230.0000000000034106
 31
0.0
  0
LINE
  5
28A
100
AcDbEntity
100
AcDbLine
  8
Chairs
 62
256
370
-1
  6
ByLayer
 10
4430.0
 20
1230.0000000000034106
 30
0.0
 11
4430.0
 21
1130.0000000000025011
 31
0.0
  0
LINE
  5
28B
100
AcDbEntity
100
AcDbLine
  8
Chairs
 62
256
370
-1
  6
ByLayer
 10
4910.0
 20
1230.0000000000038654
 30
0.0
 11
4910.0
 21
1600.000000000003638
 31
0.0
  0
LINE
  5
28C
100
AcDbEntity
100
AcDbLine
  8
Chairs
 62
256
370
-1
  6
ByLayer
 10
4460.0
 20
1230.0000000000013642
 30
0.0
 11
4460.0
 21
1600.0000000000029559
 31
0.0
  0
LINE
  5
28D
100
AcDbEntity
100
AcDbLine
  8
Chairs
 62
256
370
-1
  6
ByLayer
 10
4950.0
 20
1130.0000000000025011
 30
0.0
 11
5460.0
 21
1129.9999999999995453
 31
0.0
  0
LINE
  5
28E
100
AcDbEntity
100
AcDbLine
  8
Chairs
 62
256
370
-1
  6
ByLayer
 10
5460.0
 20
1129.9999999999995453
 30
0.0
 11
5460.0000000000009095
 21
1600.0000000000034106
 31
0.0
  0
LINE
  5
28F
100
AcDbEntity
100
AcDbLine
  8
Chairs
 62
256
370
-1
  6
ByLayer
 10
5460.0000000000009095
 20
1600.0000000000034106
 30
0.0
 11
4950.0
 21
1600.000000000003638
 31
0.0
  0
LINE
  5
290
100
AcDbEntity
100
AcDbLine
  8
Chairs
 62
256
370
-1
  6
ByLayer
 10
4950.0
 20
1600.000000000003638
 30
0.0
 11
4950.0
 21
1130.0000000000025011
 31
0.0
  0
LINE
  5
291
100
AcDbEntity
100
AcDbLine
  8
Chairs
 62
256
370
-1
  6
ByLayer
 10
4950.0
 20
1130.0000000000025011
 30
0.0
 11
5460.0
 21
1129.9999999999995453
 31
0.0
  0
LINE
  5
292
100
AcDbEntity
100
AcDbLine
  8
Chairs
 62
256
370
-1
  6
ByLayer
 10
5460.0
 20
1129.9999999999995453
 30
0.0
 11
5460.0
 21
1230.0000000000020464
 31
0.0
  0
LINE
  5
293
100
AcDbEntity
100
AcDbLine
  8
Chairs
 62
256
370
-1
  6
ByLayer
 10
5460.0
 20
1230.0000000000020464
 30
0.0
 11
4950.0
 21
1230.0000000000040927
 31
0.0
  0
LINE
  5
294
100
AcDbEntity
100
AcDbLine
  8
Chairs
 62
256
370
-1
  6
ByLayer
 10
4950.0
 20
1230.0000000000040927
 30
0.0
 11
4950.0
 21
1130.0000000000025011
 31
0.0
  0
LINE
  5
295
100
AcDbEntity
100
AcDbLine
  8
Chairs
 62
256
370
-1
  6
ByLayer
 10
5430.0000000000009095
 20
1230.0000000000027285
 30
0.0
 11
5430.0000000000009095
 21
1600.0000000000040927
 31
0.0
  0
LINE
  5
296
100
AcDbEntity
100
AcDbLine
  8
Chairs
 62
256
370
-1
  6
ByLayer
 10
4980.0
 20
1230.0000000000025011
 30
0.0
 11
4980.0000000000009095
 21
1600.0000000000029559
 31
0.0
  0
LINE
  5
297
100
AcDbEntity
100
AcDbLine
  8
Chairs
 62
256
370
-1
  6
ByLayer
 10
5470.0
 20
1130.0000000000045475
 30
0.0
 11
5980.0
 21
1129.9999999999986358
 31
0.0
  0
LINE
  5
298
100
AcDbEntity
100
AcDbLine
  8
Chairs
 62
256
370
-1
  6
ByLayer
 10
5980.0
 20
1129.9999999999986358
 30
0.0
 11
5980.0
 21
1600.0000000000059117
 31
0.0
  0
LINE
  5
299
100
AcDbEntity
100
AcDbLine
  8
Chairs
 62
256
370
-1
  6
ByLayer
 10
5980.0
 20
1600.0000000000059117
 30
0.0
 11
5470.0
 21
1600.000000000001819
 31
0.0
  0
LINE
  5
29A
100
AcDbEntity
100
AcDbLine
  8
Chairs
 62
256
370
-1
  6
ByLayer
 10
5470.0
 20
1600.000000000001819
 30
0.0
 11
5470.0
 21
1130.0000000000045475
 31
0.0
  0
LINE
  5
29B
100
AcDbEntity
100
AcDbLine
  8
Chairs
 62
256
370
-1
  6
ByLayer
 10
5470.0
 20
1130.0000000000045475
 30
0.0
 11
5980.0
 21
1129.9999999999986358
 31
0.0
  0
LINE
  5
29C
100
AcDbEntity
100
AcDbLine
  8
Chairs
 62
256
370
-1
  6
ByLayer
 10
5980.0
 20
1129.9999999999986358
 30
0.0
 11
5980.0
 21
1230.0000000000015916
 31
0.0
  0
LINE
  5
29D
100
AcDbEntity
100
AcDbLine
  8
Chairs
 62
256
370
-1
  6
ByLayer
 10
5980.0
 20
1230.0000000000015916
 30
0.0
 11
5470.0000000000009095
 21
1229.9999999999984084
 31
0.0
  0
LINE
  5
29E
100
AcDbEntity
100
AcDbLine
  8
Chairs
 62
256
370
-1
  6
ByLayer
 10
5470.0000000000009095
 20
1229.9999999999984084
 30
0.0
 11
5470.0
 21
1130.0000000000045475
 31
0.0
  0
LINE
  5
29F
100
AcDbEntity
100
AcDbLine
  8
Chairs
 62
256
370
-1
  6
ByLayer
 10
5950.0
 20
1230.0000000000052296
 30
0.0
 11
5950.0
 21
1600.0000000000031832
 31
0.0
  0
LINE
  5
2A0
100
AcDbEntity
100
AcDbLine
  8
Chairs
 62
256
370
-1
  6
ByLayer
 10
5500.0000000000009095
 20
1230.000000000003638
 30
0.0
 11
5500.0
 21
1600.0000000000050022
 31
0.0
  0
LINE
  5
2A1
100
AcDbEntity
100
AcDbLine
  8
Chairs
 62
256
370
-1
  6
ByLayer
 10
3390.0000000000004547
 20
1929.9999999999997726
 30
0.0
 11
3900.0
 21
1929.9999999999993179
 31
0.0
  0
LINE
  5
2A2
100
AcDbEntity
100
AcDbLine
  8
Chairs
 62
256
370
-1
  6
ByLayer
 10
3900.0
 20
1929.9999999999993179
 30
0.0
 11
3900.0000000000004547
 21
2400.0
 31
0.0
  0
LINE
  5
2A3
100
AcDbEntity
100
AcDbLine
  8
Chairs
 62
256
370
-1
  6
ByLayer
 10
3900.0000000000004547
 20
2400.0
 30
0.0
 11
3390.0000000000004547
 21
2399.9999999999995453
 31
0.0
  0
LINE
  5
2A4
100
AcDbEntity
100
AcDbLine
  8
Chairs
 62
256
370
-1
  6
ByLayer
 10
3390.0000000000004547
 20
2399.9999999999995453
 30
0.0
 11
3390.0000000000004547
 21
1929.9999999999997726
 31
0.0
  0
LINE
  5
2A5
100
AcDbEntity
100
AcDbLine
  8
Chairs
 62
256
370
-1
  6
ByLayer
 10
3390.0000000000004547
 20
1929.9999999999997726
 30
0.0
 11
3900.0
 21
1929.9999999999993179
 31
0.0
  0
LINE
  5
2A6
100
AcDbEntity
100
AcDbLine
  8
Chairs
 62
256
370
-1
  6
ByLayer
 10
3900.0
 20
1929.9999999999993179
 30
0.0
 11
3900.0
 21
2029.9999999999993179
 31
0.0
  0
LINE
  5
2A7
100
AcDbEntity
100
AcDbLine
  8
Chairs
 62
256
370
-1
  6
ByLayer
 10
3900.0
 20
2029.9999999999993179
 30
0.0
 11
3390.0000000000004547
 21
2029.9999999999997726
 31
0.0
  0
LINE
  5
2A8
100
AcDbEntity
100
AcDbLine
  8
Chairs
 62
256
370
-1
  6
ByLayer
 10
3390.0000000000004547
 20
2029.9999999999997726
 30
0.0
 11
3390.0000000000004547
 21
1929.9999999999997726
 31
0.0
  0
LINE
  5
2A9
100
AcDbEntity
100
AcDbLine
  8
Chairs
 62
256
370
-1
  6
ByLayer
 10
3870.0
 20
2029.9999999999993179
 30
0.0
 11
3870.0000000000004547
 21
2399.9999999999995453
 31
0.0
  0
LINE
  5
2AA
100
AcDbEntity
100
AcDbLine
  8
Chairs
 62
256
370
-1
  6
ByLayer
 10
3420.0000000000004547
 20
2029.9999999999997726
 30
0.0
 11
3420.0000000000004547
 21
2399.9999999999995453
 31
0.0
  0
LINE
  5
2AB
100
AcDbEntity
100
AcDbLine
  8
Chairs
 62
256
370
-1
  6
ByLayer
 10
3910.0000000000004547
 20
1929.9999999999995453
 30
0.0
 11
4420.0
 21
1929.9999999999988631
 31
0.0
  0
LINE
  5
2AC
100
AcDbEntity
100
AcDbLine
  8
Chairs
 62
256
370
-1
  6
ByLayer
 10
4420.0
 20
1929.9999999999988631
 30
0.0
 11
4420.0
 21
2399.9999999999995453
 31
0.0
  0
LINE
  5
2AD
100
AcDbEntity
100
AcDbLine
  8
Chairs
 62
256
370
-1
  6
ByLayer
 10
4420.0
 20
2399.9999999999995453
 30
0.0
 11
3910.0000000000004547
 21
2399.9999999999995453
 31
0.0
  0
LINE
  5
2AE
100
AcDbEntity
100
AcDbLine
  8
Chairs
 62
256
370
-1
  6
ByLayer
 10
3910.0000000000004547
 20
2399.9999999999995453
 30
0.0
 11
3910.0000000000004547
 21
1929.9999999999995453
 31
0.0
  0
LINE
  5
2AF
100
AcDbEntity
100
AcDbLine
  8
Chairs
 62
256
370
-1
  6
ByLayer
 10
3910.0000000000004547
 20
1929.9999999999995453
 30
0.0
 11
4420.0
 21
1929.9999999999988631
 31
0.0
  0
LINE
  5
2B0
100
AcDbEntity
100
AcDbLine
  8
Chairs
 62
256
370
-1
  6
ByLayer
 10
4420.0
 20
1929.9999999999988631
 30
0.0
 11
4420.0
 21
2029.9999999999988631
 31
0.0
  0
LINE
  5
2B1
100
AcDbEntity
100
AcDbLine
  8
Chairs
 62
256
370
-1
  6
ByLayer
 10
4420.0
 20
2029.9999999999988631
 30
0.0
 11
3910.0
 21
2029.9999999999988631
 31
0.0
  0
LINE
  5
2B2
100
AcDbEntity
100
AcDbLine
  8
Chairs
 62
256
370
-1
  6
ByLayer
 10
3910.0
 20
2029.9999999999988631
 30
0.0
 11
3910.0000000000004547
 21
1929.9999999999995453
 31
0.0
  0
LINE
  5
2B3
100
AcDbEntity
100
AcDbLine
  8
Chairs
 62
256
370
-1
  6
ByLayer
 10
4390.0
 20
2029.9999999999993179
 30
0.0
 11
4390.0
 21
2399.9999999999995453
 31
0.0
  0
LINE
  5
2B4
100
AcDbEntity
100
AcDbLine
  8
Chairs
 62
256
370
-1
  6
ByLayer
 10
3940.0000000000004547
 20
2029.9999999999997726
 30
0.0
 11
3940.0000000000004547
 21
2399.9999999999990905
 31
0.0
  0
LINE
  5
2B5
100
AcDbEntity
100
AcDbLine
  8
Chairs
 62
256
370
-1
  6
ByLayer
 10
4430.0
 20
1929.9999999999993179
 30
0.0
 11
4940.0
 21
1929.9999999999993179
 31
0.0
  0
LINE
  5
2B6
100
AcDbEntity
100
AcDbLine
  8
Chairs
 62
256
370
-1
  6
ByLayer
 10
4940.0
 20
1929.9999999999993179
 30
0.0
 11
4940.0
 21
2400.0
 31
0.0
  0
LINE
  5
2B7
100
AcDbEntity
100
AcDbLine
  8
Chairs
 62
256
370
-1
  6
ByLayer
 10
4940.0
 20
2400.0
 30
0.0
 11
4430.0
 21
2399.9999999999995453
 31
0.0
  0
LINE
  5
2B8
100
AcDbEntity
100
AcDbLine
  8
Chairs
 62
256
370
-1
  6
ByLayer
 10
4430.0
 20
2399.9999999999995453
 30
0.0
 11
4430.0
 21
1929.9999999999993179
 31
0.0
  0
LINE
  5
2B9
100
AcDbEntity
100
AcDbLine
  8
Chairs
 62
256
370
-1
  6
ByLayer
 10
4430.0
 20
1929.9999999999993179
 30
0.0
 11
4940.0
 21
1929.9999999999993179
 31
0.0
  0
LINE
  5
2BA
100
AcDbEntity
100
AcDbLine
  8
Chairs
 62
256
370
-1
  6
ByLayer
 10
4940.0
 20
1929.9999999999993179
 30
0.0
 11
4940.0
 21
2029.9999999999979536
 31
0.0
  0
LINE
  5
2BB
100
AcDbEntity
100
AcDbLine
  8
Chairs
 62
256
370
-1
  6
ByLayer
 10
4940.0
 20
2029.9999999999979536
 30
0.0
 11
4430.0
 21
2029.9999999999988631
 31
0.0
  0
LINE
  5
2BC
100
AcDbEntity
100
AcDbLine
  8
Chairs
 62
256
370
-1
  6
ByLayer
 10
4430.0
 20
2029.9999999999988631
 30
0.0
 11
4430.0
 21
1929.9999999999993179
 31
0.0
  0
LINE
  5
2BD
100
AcDbEntity
100
AcDbLine
  8
Chairs
 62
256
370
-1
  6
ByLayer
 10
4910.0
 20
2029.9999999999988631
 30
0.0
 11
4910.0
 21
2399.9999999999990905
 31
0.0
  0
LINE
  5
2BE
100
AcDbEntity
100
AcDbLine
  8
Chairs
 62
256
370
-1
  6
ByLayer
 10
4460.0
 20
2029.9999999999988631
 30
0.0
 11
4460.0
 21
2399.9999999999995453
 31
0.0
  0
LINE
  5
2BF
100
AcDbEntity
100
AcDbLine
  8
Chairs
 62
256
370
-1
  6
ByLayer
 10
4950.0
 20
1930.0
 30
0.0
 11
5460.0
 21
1929.9999999999988631
 31
0.0
  0
LINE
  5
2C0
100
AcDbEntity
100
AcDbLine
  8
Chairs
 62
256
370
-1
  6
ByLayer
 10
5460.0
 20
1929.9999999999988631
 30
0.0
 11
5460.0000000000009095
 21
2400.0000000000009095
 31
0.0
  0
LINE
  5
2C1
100
AcDbEntity
100
AcDbLine
  8
Chairs
 62
256
370
-1
  6
ByLayer
 10
5460.0000000000009095
 20
2400.0000000000009095
 30
0.0
 11
4950.0
 21
2399.9999999999990905
 31
0.0
  0
LINE
  5
2C2
100
AcDbEntity
100
AcDbLine
  8
Chairs
 62
256
370
-1
  6
ByLayer
 10
4950.0
 20
2399.9999999999990905
 30
0.0
 11
4950.0
 21
1930.0
 31
0.0
  0
LINE
  5
2C3
100
AcDbEntity
100
AcDbLine
  8
Chairs
 62
256
370
-1
  6
ByLayer
 10
4950.0
 20
1930.0
 30
0.0
 11
5460.0
 21
1929.9999999999988631
 31
0.0
  0
LINE
  5
2C4
100
AcDbEntity
100
AcDbLine
  8
Chairs
 62
256
370
-1
  6
ByLayer
 10
5460.0
 20
1929.9999999999988631
 30
0.0
 11
5460.0
 21
2029.9999999999974989
 31
0.0
  0
LINE
  5
2C5
100
AcDbEntity
100
AcDbLine
  8
Chairs
 62
256
370
-1
  6
ByLayer
 10
5460.0
 20
2029.9999999999974989
 30
0.0
 11
4950.0
 21
2029.9999999999984084
 31
0.0
  0
LINE
  5
2C6
100
AcDbEntity
100
AcDbLine
  8
Chairs
 62
256
370
-1
  6
ByLayer
 10
4950.0
 20
2029.9999999999984084
 30
0.0
 11
4950.0
 21
1930.0
 31
0.0
  0
LINE
  5
2C7
100
AcDbEntity
100
AcDbLine
  8
Chairs
 62
256
370
-1
  6
ByLayer
 10
5430.0000000000009095
 20
2029.9999999999997726
 30
0.0
 11
5430.0000000000009095
 21
2399.9999999999977263
 31
0.0
  0
LINE
  5
2C8
100
AcDbEntity
100
AcDbLine
  8
Chairs
 62
256
370
-1
  6
ByLayer
 10
4980.0
 20
2029.9999999999988631
 30
0.0
 11
4980.0000000000009095
 21
2399.9999999999990905
 31
0.0
  0
LINE
  5
2C9
100
AcDbEntity
100
AcDbLine
  8
Chairs
 62
256
370
-1
  6
ByLayer
 10
5470.0
 20
1929.9999999999984084
 30
0.0
 11
5980.0
 21
1929.9999999999984084
 31
0.0
  0
LINE
  5
2CA
100
AcDbEntity
100
AcDbLine
  8
Chairs
 62
256
370
-1
  6
ByLayer
 10
5980.0
 20
1929.9999999999984084
 30
0.0
 11
5980.0
 21
2399.9999999999990905
 31
0.0
  0
LINE
  5
2CB
100
AcDbEntity
100
AcDbLine
  8
Chairs
 62
256
370
-1
  6
ByLayer
 10
5980.0
 20
2399.9999999999990905
 30
0.0
 11
5470.0
 21
2400.000000000001819
 31
0.0
  0
LINE
  5
2CC
100
AcDbEntity
100
AcDbLine
  8
Chairs
 62
256
370
-1
  6
ByLayer
 10
5470.0
 20
2400.000000000001819
 30
0.0
 11
5470.0
 21
1929.9999999999984084
 31
0.0
  0
LINE
  5
2CD
100
AcDbEntity
100
AcDbLine
  8
Chairs
 62
256
370
-1
  6
ByLayer
 10
5470.0
 20
1929.9999999999984084
 30
0.0
 11
5980.0
 21
1929.9999999999984084
 31
0.0
  0
LINE
  5
2CE
100
AcDbEntity
100
AcDbLine
  8
Chairs
 62
256
370
-1
  6
ByLayer
 10
5980.0
 20
1929.9999999999984084
 30
0.0
 11
5980.0
 21
2029.9999999999988631
 31
0.0
  0
LINE
  5
2CF
100
AcDbEntity
100
AcDbLine
  8
Chairs
 62
256
370
-1
  6
ByLayer
 10
5980.0
 20
2029.9999999999988631
 30
0.0
 11
5470.0
 21
2029.9999999999979536
 31
0.0
  0
LINE
  5
2D0
100
AcDbEntity
100
AcDbLine
  8
Chairs
 62
256
370
-1
  6
ByLayer
 10
5470.0
 20
2029.9999999999979536
 30
0.0
 11
5470.0
 21
1929.9999999999984084
 31
0.0
  0
LINE
  5
2D1
100
AcDbEntity
100
AcDbLine
  8
Chairs
 62
256
370
-1
  6
ByLayer
 10
5950.0
 20
2029.9999999999970441
 30
0.0
 11
5950.0
 21
2400.0000000000027285
 31
0.0
  0
LINE
  5
2D2
100
AcDbEntity
100
AcDbLine
  8
Chairs
 62
256
370
-1
  6
ByLayer
 10
5500.0000000000009095
 20
2029.9999999999984084
 30
0.0
 11
5500.0
 21
2400.0000000000009095
 31
0.0
  0
LINE
  5
2D3
100
AcDbEntity
100
AcDbLine
  8
Chairs
 62
256
370
-1
  6
ByLayer
 10
3390.0000000000004547
 20
2730.0000000000022737
 30
0.0
 11
3900.0
 21
2730.0000000000013642
 31
0.0
  0
LINE
  5
2D4
100
AcDbEntity
100
AcDbLine
  8
Chairs
 62
256
370
-1
  6
ByLayer
 10
3900.0
 20
2730.0000000000013642
 30
0.0
 11
3900.0000000000004547
 21
3200.000000000001819
 31
0.0
  0
LINE
  5
2D5
100
AcDbEntity
100
AcDbLine
  8
Chairs
 62
256
370
-1
  6
ByLayer
 10
3900.0000000000004547
 20
3200.000000000001819
 30
0.0
 11
3390.0000000000004547
 21
3200.000000000001819
 31
0.0
  0
LINE
  5
2D6
100
AcDbEntity
100
AcDbLine
  8
Chairs
 62
256
370
-1
  6
ByLayer
 10
3390.0000000000004547
 20
3200.000000000001819
 30
0.0
 11
3390.0000000000004547
 21
2730.0000000000022737
 31
0.0
  0
LINE
  5
2D7
100
AcDbEntity
100
AcDbLine
  8
Chairs
 62
256
370
-1
  6
ByLayer
 10
3390.0000000000004547
 20
2730.0000000000022737
 30
0.0
 11
3900.0
 21
2730.0000000000013642
 31
0.0
  0
LINE
  5
2D8
100
AcDbEntity
100
AcDbLine
  8
Chairs
 62
256
370
-1
  6
ByLayer
 10
3900.0
 20
2730.0000000000013642
 30
0.0
 11
3900.0
 21
2830.000000000001819
 31
0.0
  0
LINE
  5
2D9
100
AcDbEntity
100
AcDbLine
  8
Chairs
 62
256
370
-1
  6
ByLayer
 10
3900.0
 20
2830.000000000001819
 30
0.0
 11
3390.0000000000004547
 21
2830.0000000000022737
 31
0.0
  0
LINE
  5
2DA
100
AcDbEntity
100
AcDbLine
  8
Chairs
 62
256
370
-1
  6
ByLayer
 10
3390.0000000000004547
 20
2830.0000000000022737
 30
0.0
 11
3390.0000000000004547
 21
2730.0000000000022737
 31
0.0
  0
LINE
  5
2DB
100
AcDbEntity
100
AcDbLine
  8
Chairs
 62
256
370
-1
  6
ByLayer
 10
3870.0000000000004547
 20
2830.000000000001819
 30
0.0
 11
3870.0000000000004547
 21
3200.000000000001819
 31
0.0
  0
LINE
  5
2DC
100
AcDbEntity
100
AcDbLine
  8
Chairs
 62
256
370
-1
  6
ByLayer
 10
3420.0000000000004547
 20
2830.0000000000022737
 30
0.0
 11
3420.0000000000004547
 21
3200.000000000001819
 31
0.0
  0
LINE
  5
2DD
100
AcDbEntity
100
AcDbLine
  8
Chairs
 62
256
370
-1
  6
ByLayer
 10
3910.0000000000004547
 20
2730.000000000001819
 30
0.0
 11
4420.0
 21
2730.0000000000009095
 31
0.0
  0
LINE
  5
2DE
100
AcDbEntity
100
AcDbLine
  8
Chairs
 62
256
370
-1
  6
ByLayer
 10
4420.0
 20
2730.0000000000009095
 30
0.0
 11
4420.0
 21
3200.0000000000013642
 31
0.0
  0
LINE
  5
2DF
100
AcDbEntity
100
AcDbLine
  8
Chairs
 62
256
370
-1
  6
ByLayer
 10
4420.0
 20
3200.0000000000013642
 30
0.0
 11
3910.0000000000004547
 21
3200.0000000000013642
 31
0.0
  0
LINE
  5
2E0
100
AcDbEntity
100
AcDbLine
  8
Chairs
 62
256
370
-1
  6
ByLayer
 10
3910.0000000000004547
 20
3200.0000000000013642
 30
0.0
 11
3910.0000000000004547
 21
2730.000000000001819
 31
0.0
  0
LINE
  5
2E1
100
AcDbEntity
100
AcDbLine
  8
Chairs
 62
256
370
-1
  6
ByLayer
 10
3910.0000000000004547
 20
2730.000000000001819
 30
0.0
 11
4420.0
 21
2730.0000000000009095
 31
0.0
  0
LINE
  5
2E2
100
AcDbEntity
100
AcDbLine
  8
Chairs
 62
256
370
-1
  6
ByLayer
 10
4420.0
 20
2730.0000000000009095
 30
0.0
 11
4420.0
 21
2830.0000000000004547
 31
0.0
  0
LINE
  5
2E3
100
AcDbEntity
100
AcDbLine
  8
Chairs
 62
256
370
-1
  6
ByLayer
 10
4420.0
 20
2830.0000000000004547
 30
0.0
 11
3910.0000000000004547
 21
2830.0000000000013642
 31
0.0
  0
LINE
  5
2E4
100
AcDbEntity
100
AcDbLine
  8
Chairs
 62
256
370
-1
  6
ByLayer
 10
3910.0000000000004547
 20
2830.0000000000013642
 30
0.0
 11
3910.0000000000004547
 21
2730.000000000001819
 31
0.0
  0
LINE
  5
2E5
100
AcDbEntity
100
AcDbLine
  8
Chairs
 62
256
370
-1
  6
ByLayer
 10
4390.0
 20
2830.000000000001819
 30
0.0
 11
4390.0
 21
3200.000000000001819
 31
0.0
  0
LINE
  5
2E6
100
AcDbEntity
100
AcDbLine
  8
Chairs
 62
256
370
-1
  6
ByLayer
 10
3940.0000000000004547
 20
2830.0000000000013642
 30
0.0
 11
3940.0000000000004547
 21
3200.000000000001819
 31
0.0
  0
LINE
  5
2E7
100
AcDbEntity
100
AcDbLine
  8
Chairs
 62
256
370
-1
  6
ByLayer
 10
4430.0
 20
2730.000000000001819
 30
0.0
 11
4940.0
 21
2730.000000000001819
 31
0.0
  0
LINE
  5
2E8
100
AcDbEntity
100
AcDbLine
  8
Chairs
 62
256
370
-1
  6
ByLayer
 10
4940.0
 20
2730.000000000001819
 30
0.0
 11
4940.0
 21
3200.0000000000022737
 31
0.0
  0
LINE
  5
2E9
100
AcDbEntity
100
AcDbLine
  8
Chairs
 62
256
370
-1
  6
ByLayer
 10
4940.0
 20
3200.0000000000022737
 30
0.0
 11
4430.0
 21
3200.000000000001819
 31
0.0
  0
LINE
  5
2EA
100
AcDbEntity
100
AcDbLine
  8
Chairs
 62
256
370
-1
  6
ByLayer
 10
4430.0
 20
3200.000000000001819
 30
0.0
 11
4430.0
 21
2730.000000000001819
 31
0.0
  0
LINE
  5
2EB
100
AcDbEntity
100
AcDbLine
  8
Chairs
 62
256
370
-1
  6
ByLayer
 10
4430.0
 20
2730.000000000001819
 30
0.0
 11
4940.0
 21
2730.000000000001819
 31
0.0
  0
LINE
  5
2EC
100
AcDbEntity
100
AcDbLine
  8
Chairs
 62
256
370
-1
  6
ByLayer
 10
4940.0
 20
2730.000000000001819
 30
0.0
 11
4940.0
 21
2829.9999999999990905
 31
0.0
  0
LINE
  5
2ED
100
AcDbEntity
100
AcDbLine
  8
Chairs
 62
256
370
-1
  6
ByLayer
 10
4940.0
 20
2829.9999999999990905
 30
0.0
 11
4430.0
 21
2830.0000000000022737
 31
0.0
  0
LINE
  5
2EE
100
AcDbEntity
100
AcDbLine
  8
Chairs
 62
256
370
-1
  6
ByLayer
 10
4430.0
 20
2830.0000000000022737
 30
0.0
 11
4430.0
 21
2730.000000000001819
 31
0.0
  0
LINE
  5
2EF
100
AcDbEntity
100
AcDbLine
  8
Chairs
 62
256
370
-1
  6
ByLayer
 10
4910.0
 20
2830.0000000000031832
 30
0.0
 11
4910.0
 21
3200.0000000000022737
 31
0.0
  0
LINE
  5
2F0
100
AcDbEntity
100
AcDbLine
  8
Chairs
 62
256
370
-1
  6
ByLayer
 10
4460.0
 20
2830.0000000000004547
 30
0.0
 11
4460.0
 21
3200.000000000001819
 31
0.0
  0
LINE
  5
2F1
100
AcDbEntity
100
AcDbLine
  8
Chairs
 62
256
370
-1
  6
ByLayer
 10
4950.0
 20
2730.0000000000013642
 30
0.0
 11
5460.0
 21
2730.0000000000004547
 31
0.0
  0
LINE
  5
2F2
100
AcDbEntity
100
AcDbLine
  8
Chairs
 62
256
370
-1
  6
ByLayer
 10
5460.0
 20
2730.0000000000004547
 30
0.0
 11
5460.0000000000009095
 21
3200.000000000001819
 31
0.0
  0
LINE
  5
2F3
100
AcDbEntity
100
AcDbLine
  8
Chairs
 62
256
370
-1
  6
ByLayer
 10
5460.0000000000009095
 20
3200.000000000001819
 30
0.0
 11
4950.0
 21
3200.0000000000022737
 31
0.0
  0
LINE
  5
2F4
100
AcDbEntity
100
AcDbLine
  8
Chairs
 62
256
370
-1
  6
ByLayer
 10
4950.0
 20
3200.0000000000022737
 30
0.0
 11
4950.0
 21
2730.0000000000013642
 31
0.0
  0
LINE
  5
2F5
100
AcDbEntity
100
AcDbLine
  8
Chairs
 62
256
370
-1
  6
ByLayer
 10
4950.0
 20
2730.0000000000013642
 30
0.0
 11
5460.0
 21
2730.0000000000004547
 31
0.0
  0
LINE
  5
2F6
100
AcDbEntity
100
AcDbLine
  8
Chairs
 62
256
370
-1
  6
ByLayer
 10
5460.0
 20
2730.0000000000004547
 30
0.0
 11
5460.0
 21
2830.0000000000013642
 31
0.0
  0
LINE
  5
2F7
100
AcDbEntity
100
AcDbLine
  8
Chairs
 62
256
370
-1
  6
ByLayer
 10
5460.0
 20
2830.0000000000013642
 30
0.0
 11
4950.0
 21
2830.0000000000022737
 31
0.0
  0
LINE
  5
2F8
100
AcDbEntity
100
AcDbLine
  8
Chairs
 62
256
370
-1
  6
ByLayer
 10
4950.0
 20
2830.0000000000022737
 30
0.0
 11
4950.0
 21
2730.0000000000013642
 31
0.0
  0
LINE
  5
2F9
100
AcDbEntity
100
AcDbLine
  8
Chairs
 62
256
370
-1
  6
ByLayer
 10
5430.0000000000009095
 20
2830.0000000000013642
 30
0.0
 11
5430.0000000000009095
 21
3200.0000000000031832
 31
0.0
  0
LINE
  5
2FA
100
AcDbEntity
100
AcDbLine
  8
Chairs
 62
256
370
-1
  6
ByLayer
 10
4980.0
 20
2830.0000000000013642
 30
0.0
 11
4980.0000000000009095
 21
3200.000000000001819
 31
0.0
  0
LINE
  5
2FB
100
AcDbEntity
100
AcDbLine
  8
Chairs
 62
256
370
-1
  6
ByLayer
 10
5470.0
 20
2730.0000000000027285
 30
0.0
 11
5980.0
 21
2729.9999999999968168
 31
0.0
  0
LINE
  5
2FC
100
AcDbEntity
100
AcDbLine
  8
Chairs
 62
256
370
-1
  6
ByLayer
 10
5980.0
 20
2729.9999999999968168
 30
0.0
 11
5980.0
 21
3200.0000000000050022
 31
0.0
  0
LINE
  5
2FD
100
AcDbEntity
100
AcDbLine
  8
Chairs
 62
256
370
-1
  6
ByLayer
 10
5980.0
 20
3200.0000000000050022
 30
0.0
 11
5470.0
 21
3200.0000000000004547
 31
0.0
  0
LINE
  5
2FE
100
AcDbEntity
100
AcDbLine
  8
Chairs
 62
256
370
-1
  6
ByLayer
 10
5470.0
 20
3200.0000000000004547
 30
0.0
 11
5470.0
 21
2730.0000000000027285
 31
0.0
  0
LINE
  5
2FF
100
AcDbEntity
100
AcDbLine
  8
Chairs
 62
256
370
-1
  6
ByLayer
 10
5470.0
 20
2730.0000000000027285
 30
0.0
 11
5980.0
 21
2729.9999999999968168
 31
0.0
  0
LINE
  5
300
100
AcDbEntity
100
AcDbLine
  8
Chairs
 62
256
370
-1
  6
ByLayer
 10
5980.0
 20
2729.9999999999968168
 30
0.0
 11
5980.0
 21
2830.0000000000013642
 31
0.0
  0
LINE
  5
301
100
AcDbEntity
100
AcDbLine
  8
Chairs
 62
256
370
-1
  6
ByLayer
 10
5980.0
 20
2830.0000000000013642
 30
0.0
 11
5470.0000000000009095
 21
2829.9999999999972715
 31
0.0
  0
LINE
  5
302
100
AcDbEntity
100
AcDbLine
  8
Chairs
 62
256
370
-1
  6
ByLayer
 10
5470.0000000000009095
 20
2829.9999999999972715
 30
0.0
 11
5470.0
 21
2730.0000000000027285
 31
0.0
  0
LINE
  5
303
100
AcDbEntity
100
AcDbLine
  8
Chairs
 62
256
370
-1
  6
ByLayer
 10
5950.0
 20
2830.0000000000031832
 30
0.0
 11
5950.0
 21
3200.000000000001819
 31
0.0
  0
LINE
  5
304
100
AcDbEntity
100
AcDbLine
  8
Chairs
 62
256
370
-1
  6
ByLayer
 10
5500.0000000000009095
 20
2830.000000000001819
 30
0.0
 11
5500.0
 21
3200.0000000000045475
 31
0.0
  0
LINE
  5
305
100
AcDbEntity
100
AcDbLine
  8
Chairs
 62
256
370
-1
  6
ByLayer
 10
3389.9999999999995453
 20
3530.0000000000013642
 30
0.0
 11
3900.0000000000009095
 21
3530.0000000000013642
 31
0.0
  0
LINE
  5
306
100
AcDbEntity
100
AcDbLine
  8
Chairs
 62
256
370
-1
  6
ByLayer
 10
3900.0000000000009095
 20
3530.0000000000013642
 30
0.0
 11
3900.0000000000009095
 21
4000.0000000000013642
 31
0.0
  0
LINE
  5
307
100
AcDbEntity
100
AcDbLine
  8
Chairs
 62
256
370
-1
  6
ByLayer
 10
3900.0000000000009095
 20
4000.0000000000013642
 30
0.0
 11
3390.0000000000004547
 21
4000.0000000000013642
 31
0.0
  0
LINE
  5
308
100
AcDbEntity
100
AcDbLine
  8
Chairs
 62
256
370
-1
  6
ByLayer
 10
3390.0000000000004547
 20
4000.0000000000013642
 30
0.0
 11
3389.9999999999995453
 21
3530.0000000000013642
 31
0.0
  0
LINE
  5
309
100
AcDbEntity
100
AcDbLine
  8
Chairs
 62
256
370
-1
  6
ByLayer
 10
3389.9999999999995453
 20
3530.0000000000013642
 30
0.0
 11
3900.0000000000009095
 21
3530.0000000000013642
 31
0.0
  0
LINE
  5
30A
100
AcDbEntity
100
AcDbLine
  8
Chairs
 62
256
370
-1
  6
ByLayer
 10
3900.0000000000009095
 20
3530.0000000000013642
 30
0.0
 11
3899.9999999999990905
 21
3630.0000000000013642
 31
0.0
  0
LINE
  5
30B
100
AcDbEntity
100
AcDbLine
  8
Chairs
 62
256
370
-1
  6
ByLayer
 10
3899.9999999999990905
 20
3630.0000000000013642
 30
0.0
 11
3390.0000000000004547
 21
3630.0000000000013642
 31
0.0
  0
LINE
  5
30C
100
AcDbEntity
100
AcDbLine
  8
Chairs
 62
256
370
-1
  6
ByLayer
 10
3390.0000000000004547
 20
3630.0000000000013642
 30
0.0
 11
3389.9999999999995453
 21
3530.0000000000013642
 31
0.0
  0
LINE
  5
30D
100
AcDbEntity
100
AcDbLine
  8
Chairs
 62
256
370
-1
  6
ByLayer
 10
3870.0000000000004547
 20
3630.0000000000013642
 30
0.0
 11
3870.0000000000004547
 21
4000.0000000000013642
 31
0.0
  0
LINE
  5
30E
100
AcDbEntity
100
AcDbLine
  8
Chairs
 62
256
370
-1
  6
ByLayer
 10
3420.0000000000004547
 20
3630.0000000000013642
 30
0.0
 11
3420.0000000000004547
 21
4000.0000000000013642
 31
0.0
  0
LINE
  5
30F
100
AcDbEntity
100
AcDbLine
  8
Chairs
 62
256
370
-1
  6
ByLayer
 10
3910.0
 20
3530.0000000000013642
 30
0.0
 11
4420.0000000000009095
 21
3530.0000000000013642
 31
0.0
  0
LINE
  5
310
100
AcDbEntity
100
AcDbLine
  8
Chairs
 62
256
370
-1
  6
ByLayer
 10
4420.0000000000009095
 20
3530.0000000000013642
 30
0.0
 11
4420.0000000000009095
 21
4000.0000000000004547
 31
0.0
  0
LINE
  5
311
100
AcDbEntity
100
AcDbLine
  8
Chairs
 62
256
370
-1
  6
ByLayer
 10
4420.0000000000009095
 20
4000.0000000000004547
 30
0.0
 11
3910.0000000000004547
 21
4000.0000000000004547
 31
0.0
  0
LINE
  5
312
100
AcDbEntity
100
AcDbLine
  8
Chairs
 62
256
370
-1
  6
ByLayer
 10
3910.0000000000004547
 20
4000.0000000000004547
 30
0.0
 11
3910.0
 21
3530.0000000000013642
 31
0.0
  0
LINE
  5
313
100
AcDbEntity
100
AcDbLine
  8
Chairs
 62
256
370
-1
  6
ByLayer
 10
3910.0
 20
3530.0000000000013642
 30
0.0
 11
4420.0000000000009095
 21
3530.0000000000013642
 31
0.0
  0
LINE
  5
314
100
AcDbEntity
100
AcDbLine
  8
Chairs
 62
256
370
-1
  6
ByLayer
 10
4420.0000000000009095
 20
3530.0000000000013642
 30
0.0
 11
4420.0
 21
3630.0000000000004547
 31
0.0
  0
LINE
  5
315
100
AcDbEntity
100
AcDbLine
  8
Chairs
 62
256
370
-1
  6
ByLayer
 10
4420.0
 20
3630.0000000000004547
 30
0.0
 11
3910.0000000000009095
 21
3630.0000000000004547
 31
0.0
  0
LINE
  5
316
100
AcDbEntity
100
AcDbLine
  8
Chairs
 62
256
370
-1
  6
ByLayer
 10
3910.0000000000009095
 20
3630.0000000000004547
 30
0.0
 11
3910.0
 21
3530.0000000000013642
 31
0.0
  0
LINE
  5
317
100
AcDbEntity
100
AcDbLine
  8
Chairs
 62
256
370
-1
  6
ByLayer
 10
4390.0
 20
3630.0000000000004547
 30
0.0
 11
4390.0
 21
4000.0000000000004547
 31
0.0
  0
LINE
  5
318
100
AcDbEntity
100
AcDbLine
  8
Chairs
 62
256
370
-1
  6
ByLayer
 10
3940.0000000000009095
 20
3630.0000000000013642
 30
0.0
 11
3940.0000000000004547
 21
4000.0000000000013642
 31
0.0
  0
LINE
  5
319
100
AcDbEntity
100
AcDbLine
  8
Chairs
 62
256
370
-1
  6
ByLayer
 10
4430.0000000000009095
 20
3530.0000000000013642
 30
0.0
 11
4940.0
 21
3530.0000000000004547
 31
0.0
  0
LINE
  5
31A
100
AcDbEntity
100
AcDbLine
  8
Chairs
 62
256
370
-1
  6
ByLayer
 10
4940.0
 20
3530.0000000000004547
 30
0.0
 11
4940.0
 21
3999.9999999999995453
 31
0.0
  0
LINE
  5
31B
100
AcDbEntity
100
AcDbLine
  8
Chairs
 62
256
370
-1
  6
ByLayer
 10
4940.0
 20
3999.9999999999995453
 30
0.0
 11
4430.0000000000009095
 21
4000.0000000000013642
 31
0.0
  0
LINE
  5
31C
100
AcDbEntity
100
AcDbLine
  8
Chairs
 62
256
370
-1
  6
ByLayer
 10
4430.0000000000009095
 20
4000.0000000000013642
 30
0.0
 11
4430.0000000000009095
 21
3530.0000000000013642
 31
0.0
  0
LINE
  5
31D
100
AcDbEntity
100
AcDbLine
  8
Chairs
 62
256
370
-1
  6
ByLayer
 10
4430.0000000000009095
 20
3530.0000000000013642
 30
0.0
 11
4940.0
 21
3530.0000000000004547
 31
0.0
  0
LINE
  5
31E
100
AcDbEntity
100
AcDbLine
  8
Chairs
 62
256
370
-1
  6
ByLayer
 10
4940.0
 20
3530.0000000000004547
 30
0.0
 11
4940.0
 21
3629.9999999999995453
 31
0.0
  0
LINE
  5
31F
100
AcDbEntity
100
AcDbLine
  8
Chairs
 62
256
370
-1
  6
ByLayer
 10
4940.0
 20
3629.9999999999995453
 30
0.0
 11
4430.0000000000009095
 21
3630.0000000000013642
 31
0.0
  0
LINE
  5
320
100
AcDbEntity
100
AcDbLine
  8
Chairs
 62
256
370
-1
  6
ByLayer
 10
4430.0000000000009095
 20
3630.0000000000013642
 30
0.0
 11
4430.0000000000009095
 21
3530.0000000000013642
 31
0.0
  0
LINE
  5
321
100
AcDbEntity
100
AcDbLine
  8
Chairs
 62
256
370
-1
  6
ByLayer
 10
4910.0000000000009095
 20
3630.0000000000004547
 30
0.0
 11
4910.0000000000009095
 21
4000.0000000000013642
 31
0.0
  0
LINE
  5
322
100
AcDbEntity
100
AcDbLine
  8
Chairs
 62
256
370
-1
  6
ByLayer
 10
4460.0000000000009095
 20
3630.0000000000004547
 30
0.0
 11
4460.0000000000009095
 21
4000.0000000000004547
 31
0.0
  0
LINE
  5
323
100
AcDbEntity
100
AcDbLine
  8
Chairs
 62
256
370
-1
  6
ByLayer
 10
4950.0000000000009095
 20
3530.0000000000013642
 30
0.0
 11
5459.9999999999990905
 21
3529.9999999999995453
 31
0.0
  0
LINE
  5
324
100
AcDbEntity
100
AcDbLine
  8
Chairs
 62
256
370
-1
  6
ByLayer
 10
5459.9999999999990905
 20
3529.9999999999995453
 30
0.0
 11
5460.0000000000009095
 21
4000.0000000000013642
 31
0.0
  0
LINE
  5
325
100
AcDbEntity
100
AcDbLine
  8
Chairs
 62
256
370
-1
  6
ByLayer
 10
5460.0000000000009095
 20
4000.0000000000013642
 30
0.0
 11
4950.0000000000009095
 21
4000.0000000000013642
 31
0.0
  0
LINE
  5
326
100
AcDbEntity
100
AcDbLine
  8
Chairs
 62
256
370
-1
  6
ByLayer
 10
4950.0000000000009095
 20
4000.0000000000013642
 30
0.0
 11
4950.0000000000009095
 21
3530.0000000000013642
 31
0.0
  0
LINE
  5
327
100
AcDbEntity
100
AcDbLine
  8
Chairs
 62
256
370
-1
  6
ByLayer
 10
4950.0000000000009095
 20
3530.0000000000013642
 30
0.0
 11
5459.9999999999990905
 21
3529.9999999999995453
 31
0.0
  0
LINE
  5
328
100
AcDbEntity
100
AcDbLine
  8
Chairs
 62
256
370
-1
  6
ByLayer
 10
5459.9999999999990905
 20
3529.9999999999995453
 30
0.0
 11
5460.0000000000009095
 21
3630.0000000000013642
 31
0.0
  0
LINE
  5
329
100
AcDbEntity
100
AcDbLine
  8
Chairs
 62
256
370
-1
  6
ByLayer
 10
5460.0000000000009095
 20
3630.0000000000013642
 30
0.0
 11
4950.0000000000009095
 21
3630.0000000000013642
 31
0.0
  0
LINE
  5
32A
100
AcDbEntity
100
AcDbLine
  8
Chairs
 62
256
370
-1
  6
ByLayer
 10
4950.0000000000009095
 20
3630.0000000000013642
 30
0.0
 11
4950.0000000000009095
 21
3530.0000000000013642
 31
0.0
  0
LINE
  5
32B
100
AcDbEntity
100
AcDbLine
  8
Chairs
 62
256
370
-1
  6
ByLayer
 10
5430.0000000000009095
 20
3630.0000000000004547
 30
0.0
 11
5430.0000000000009095
 21
4000.0000000000013642
 31
0.0
  0
LINE
  5
32C
100
AcDbEntity
100
AcDbLine
  8
Chairs
 62
256
370
-1
  6
ByLayer
 10
4980.0000000000009095
 20
3630.0000000000013642
 30
0.0
 11
4980.0000000000009095
 21
4000.0000000000013642
 31
0.0
  0
LINE
  5
32D
100
AcDbEntity
100
AcDbLine
  8
Chairs
 62
256
370
-1
  6
ByLayer
 10
5470.0000000000009095
 20
3530.0000000000013642
 30
0.0
 11
5979.9999999999990905
 21
3529.9999999999986358
 31
0.0
  0
LINE
  5
32E
100
AcDbEntity
100
AcDbLine
  8
Chairs
 62
256
370
-1
  6
ByLayer
 10
5979.9999999999990905
 20
3529.9999999999986358
 30
0.0
 11
5980.0
 21
3999.9999999999995453
 31
0.0
  0
LINE
  5
32F
100
AcDbEntity
100
AcDbLine
  8
Chairs
 62
256
370
-1
  6
ByLayer
 10
5980.0
 20
3999.9999999999995453
 30
0.0
 11
5470.0
 21
3999.9999999999995453
 31
0.0
  0
LINE
  5
330
100
AcDbEntity
100
AcDbLine
  8
Chairs
 62
256
370
-1
  6
ByLayer
 10
5470.0
 20
3999.9999999999995453
 30
0.0
 11
5470.0000000000009095
 21
3530.0000000000013642
 31
0.0
  0
LINE
  5
331
100
AcDbEntity
100
AcDbLine
  8
Chairs
 62
256
370
-1
  6
ByLayer
 10
5470.0000000000009095
 20
3530.0000000000013642
 30
0.0
 11
5979.9999999999990905
 21
3529.9999999999986358
 31
0.0
  0
LINE
  5
332
100
AcDbEntity
100
AcDbLine
  8
Chairs
 62
256
370
-1
  6
ByLayer
 10
5979.9999999999990905
 20
3529.9999999999986358
 30
0.0
 11
5980.0000000000009095
 21
3629.9999999999995453
 31
0.0
  0
LINE
  5
333
100
AcDbEntity
100
AcDbLine
  8
Chairs
 62
256
370
-1
  6
ByLayer
 10
5980.0000000000009095
 20
3629.9999999999995453
 30
0.0
 11
5470.000000000001819
 21
3630.0000000000013642
 31
0.0
  0
LINE
  5
334
100
AcDbEntity
100
AcDbLine
  8
Chairs
 62
256
370
-1
  6
ByLayer
 10
5470.000000000001819
 20
3630.0000000000013642
 30
0.0
 11
5470.0000000000009095
 21
3530.0000000000013642
 31
0.0
  0
LINE
  5
335
100
AcDbEntity
100
AcDbLine
  8
Chairs
 62
256
370
-1
  6
ByLayer
 10
5949.9999999999990905
 20
3629.9999999999995453
 30
0.0
 11
5950.0
 21
3999.9999999999995453
 31
0.0
  0
LINE
  5
336
100
AcDbEntity
100
AcDbLine
  8
Chairs
 62
256
370
-1
  6
ByLayer
 10
5500.0000000000009095
 20
3630.0000000000004547
 30
0.0
 11
5500.0
 21
3999.9999999999995453
 31
0.0
  0
LINE
  5
337
100
AcDbEntity
100
AcDbLine
  8
Chairs
 62
256
370
-1
  6
ByLayer
 10
3390.0000000000004547
 20
4330.0000000000045475
 30
0.0
 11
3900.0
 21
4330.0000000000027285
 31
0.0
  0
LINE
  5
338
100
AcDbEntity
100
AcDbLine
  8
Chairs
 62
256
370
-1
  6
ByLayer
 10
3900.0
 20
4330.0000000000027285
 30
0.0
 11
3900.0000000000004547
 21
4800.0000000000027285
 31
0.0
  0
LINE
  5
339
100
AcDbEntity
100
AcDbLine
  8
Chairs
 62
256
370
-1
  6
ByLayer
 10
3900.0000000000004547
 20
4800.0000000000027285
 30
0.0
 11
3390.0000000000004547
 21
4800.0000000000045475
 31
0.0
  0
LINE
  5
33A
100
AcDbEntity
100
AcDbLine
  8
Chairs
 62
256
370
-1
  6
ByLayer
 10
3390.0000000000004547
 20
4800.0000000000045475
 30
0.0
 11
3390.0000000000004547
 21
4330.0000000000045475
 31
0.0
  0
LINE
  5
33B
100
AcDbEntity
100
AcDbLine
  8
Chairs
 62
256
370
-1
  6
ByLayer
 10
3390.0000000000004547
 20
4330.0000000000045475
 30
0.0
 11
3900.0
 21
4330.0000000000027285
 31
0.0
  0
LINE
  5
33C
100
AcDbEntity
100
AcDbLine
  8
Chairs
 62
256
370
-1
  6
ByLayer
 10
3900.0
 20
4330.0000000000027285
 30
0.0
 11
3899.9999999999995453
 21
4430.0000000000027285
 31
0.0
  0
LINE
  5
33D
100
AcDbEntity
100
AcDbLine
  8
Chairs
 62
256
370
-1
  6
ByLayer
 10
3899.9999999999995453
 20
4430.0000000000027285
 30
0.0
 11
3390.0000000000004547
 21
4430.0000000000045475
 31
0.0
  0
LINE
  5
33E
100
AcDbEntity
100
AcDbLine
  8
Chairs
 62
256
370
-1
  6
ByLayer
 10
3390.0000000000004547
 20
4430.0000000000045475
 30
0.0
 11
3390.0000000000004547
 21
4330.0000000000045475
 31
0.0
  0
LINE
  5
33F
100
AcDbEntity
100
AcDbLine
  8
Chairs
 62
256
370
-1
  6
ByLayer
 10
3870.0000000000004547
 20
4430.0000000000027285
 30
0.0
 11
3870.0000000000004547
 21
4800.0000000000027285
 31
0.0
  0
LINE
  5
340
100
AcDbEntity
100
AcDbLine
  8
Chairs
 62
256
370
-1
  6
ByLayer
 10
3420.0000000000004547
 20
4430.0000000000045475
 30
0.0
 11
3420.0000000000004547
 21
4800.0000000000027285
 31
0.0
  0
LINE
  5
341
100
AcDbEntity
100
AcDbLine
  8
Chairs
 62
256
370
-1
  6
ByLayer
 10
3910.0000000000004547
 20
4330.0000000000027285
 30
0.0
 11
4420.0
 21
4330.0000000000027285
 31
0.0
  0
LINE
  5
342
100
AcDbEntity
100
AcDbLine
  8
Chairs
 62
256
370
-1
  6
ByLayer
 10
4420.0
 20
4330.0000000000027285
 30
0.0
 11
4420.0
 21
4800.0000000000027285
 31
0.0
  0
LINE
  5
343
100
AcDbEntity
100
AcDbLine
  8
Chairs
 62
256
370
-1
  6
ByLayer
 10
4420.0
 20
4800.0000000000027285
 30
0.0
 11
3910.0000000000004547
 21
4800.0000000000027285
 31
0.0
  0
LINE
  5
344
100
AcDbEntity
100
AcDbLine
  8
Chairs
 62
256
370
-1
  6
ByLayer
 10
3910.0000000000004547
 20
4800.0000000000027285
 30
0.0
 11
3910.0000000000004547
 21
4330.0000000000027285
 31
0.0
  0
LINE
  5
345
100
AcDbEntity
100
AcDbLine
  8
Chairs
 62
256
370
-1
  6
ByLayer
 10
3910.0000000000004547
 20
4330.0000000000027285
 30
0.0
 11
4420.0
 21
4330.0000000000027285
 31
0.0
  0
LINE
  5
346
100
AcDbEntity
100
AcDbLine
  8
Chairs
 62
256
370
-1
  6
ByLayer
 10
4420.0
 20
4330.0000000000027285
 30
0.0
 11
4420.0
 21
4430.0000000000027285
 31
0.0
  0
LINE
  5
347
100
AcDbEntity
100
AcDbLine
  8
Chairs
 62
256
370
-1
  6
ByLayer
 10
4420.0
 20
4430.0000000000027285
 30
0.0
 11
3910.0000000000004547
 21
4430.0000000000027285
 31
0.0
  0
LINE
  5
348
100
AcDbEntity
100
AcDbLine
  8
Chairs
 62
256
370
-1
  6
ByLayer
 10
3910.0000000000004547
 20
4430.0000000000027285
 30
0.0
 11
3910.0000000000004547
 21
4330.0000000000027285
 31
0.0
  0
LINE
  5
349
100
AcDbEntity
100
AcDbLine
  8
Chairs
 62
256
370
-1
  6
ByLayer
 10
4390.0
 20
4430.0000000000027285
 30
0.0
 11
4390.0
 21
4800.0000000000027285
 31
0.0
  0
LINE
  5
34A
100
AcDbEntity
100
AcDbLine
  8
Chairs
 62
256
370
-1
  6
ByLayer
 10
3940.0000000000004547
 20
4430.0000000000027285
 30
0.0
 11
3940.0000000000004547
 21
4800.0000000000045475
 31
0.0
  0
LINE
  5
34B
100
AcDbEntity
100
AcDbLine
  8
Chairs
 62
256
370
-1
  6
ByLayer
 10
4430.0
 20
4330.0000000000027285
 30
0.0
 11
4940.0
 21
4330.0000000000027285
 31
0.0
  0
LINE
  5
34C
100
AcDbEntity
100
AcDbLine
  8
Chairs
 62
256
370
-1
  6
ByLayer
 10
4940.0
 20
4330.0000000000027285
 30
0.0
 11
4940.0
 21
4800.0000000000045475
 31
0.0
  0
LINE
  5
34D
100
AcDbEntity
100
AcDbLine
  8
Chairs
 62
256
370
-1
  6
ByLayer
 10
4940.0
 20
4800.0000000000045475
 30
0.0
 11
4430.0
 21
4800.0000000000027285
 31
0.0
  0
LINE
  5
34E
100
AcDbEntity
100
AcDbLine
  8
Chairs
 62
256
370
-1
  6
ByLayer
 10
4430.0
 20
4800.0000000000027285
 30
0.0
 11
4430.0
 21
4330.0000000000027285
 31
0.0
  0
LINE
  5
34F
100
AcDbEntity
100
AcDbLine
  8
Chairs
 62
256
370
-1
  6
ByLayer
 10
4430.0
 20
4330.0000000000027285
 30
0.0
 11
4940.0
 21
4330.0000000000027285
 31
0.0
  0
LINE
  5
350
100
AcDbEntity
100
AcDbLine
  8
Chairs
 62
256
370
-1
  6
ByLayer
 10
4940.0
 20
4330.0000000000027285
 30
0.0
 11
4940.0
 21
4430.0000000000009095
 31
0.0
  0
LINE
  5
351
100
AcDbEntity
100
AcDbLine
  8
Chairs
 62
256
370
-1
  6
ByLayer
 10
4940.0
 20
4430.0000000000009095
 30
0.0
 11
4430.0
 21
4430.0000000000045475
 31
0.0
  0
LINE
  5
352
100
AcDbEntity
100
AcDbLine
  8
Chairs
 62
256
370
-1
  6
ByLayer
 10
4430.0
 20
4430.0000000000045475
 30
0.0
 11
4430.0
 21
4330.0000000000027285
 31
0.0
  0
LINE
  5
353
100
AcDbEntity
100
AcDbLine
  8
Chairs
 62
256
370
-1
  6
ByLayer
 10
4910.0
 20
4430.0000000000027285
 30
0.0
 11
4910.0
 21
4800.0000000000045475
 31
0.0
  0
LINE
  5
354
100
AcDbEntity
100
AcDbLine
  8
Chairs
 62
256
370
-1
  6
ByLayer
 10
4460.0
 20
4430.0000000000009095
 30
0.0
 11
4460.0
 21
4800.0000000000027285
 31
0.0
  0
LINE
  5
355
100
AcDbEntity
100
AcDbLine
  8
Chairs
 62
256
370
-1
  6
ByLayer
 10
4950.0
 20
4330.0000000000027285
 30
0.0
 11
5460.0
 21
4329.9999999999972715
 31
0.0
  0
LINE
  5
356
100
AcDbEntity
100
AcDbLine
  8
Chairs
 62
256
370
-1
  6
ByLayer
 10
5460.0
 20
4329.9999999999972715
 30
0.0
 11
5460.0
 21
4800.0000000000063665
 31
0.0
  0
LINE
  5
357
100
AcDbEntity
100
AcDbLine
  8
Chairs
 62
256
370
-1
  6
ByLayer
 10
5460.0
 20
4800.0000000000063665
 30
0.0
 11
4950.0
 21
4800.0000000000045475
 31
0.0
  0
LINE
  5
358
100
AcDbEntity
100
AcDbLine
  8
Chairs
 62
256
370
-1
  6
ByLayer
 10
4950.0
 20
4800.0000000000045475
 30
0.0
 11
4950.0
 21
4330.0000000000027285
 31
0.0
  0
LINE
  5
359
100
AcDbEntity
100
AcDbLine
  8
Chairs
 62
256
370
-1
  6
ByLayer
 10
4950.0
 20
4330.0000000000027285
 30
0.0
 11
5460.0
 21
4329.9999999999972715
 31
0.0
  0
LINE
  5
35A
100
AcDbEntity
100
AcDbLine
  8
Chairs
 62
256
370
-1
  6
ByLayer
 10
5460.0
 20
4329.9999999999972715
 30
0.0
 11
5460.0
 21
4430.0000000000027285
 31
0.0
  0
LINE
  5
35B
100
AcDbEntity
100
AcDbLine
  8
Chairs
 62
256
370
-1
  6
ByLayer
 10
5460.0
 20
4430.0000000000027285
 30
0.0
 11
4950.0
 21
4430.0000000000045475
 31
0.0
  0
LINE
  5
35C
100
AcDbEntity
100
AcDbLine
  8
Chairs
 62
256
370
-1
  6
ByLayer
 10
4950.0
 20
4430.0000000000045475
 30
0.0
 11
4950.0
 21
4330.0000000000027285
 31
0.0
  0
LINE
  5
35D
100
AcDbEntity
100
AcDbLine
  8
Chairs
 62
256
370
-1
  6
ByLayer
 10
5430.0
 20
4430.0000000000027285
 30
0.0
 11
5430.0
 21
4800.0000000000063665
 31
0.0
  0
LINE
  5
35E
100
AcDbEntity
100
AcDbLine
  8
Chairs
 62
256
370
-1
  6
ByLayer
 10
4980.0
 20
4430.0000000000027285
 30
0.0
 11
4980.0
 21
4800.0000000000027285
 31
0.0
  0
LINE
  5
35F
100
AcDbEntity
100
AcDbLine
  8
Chairs
 62
256
370
-1
  6
ByLayer
 10
5470.0
 20
4330.0000000000045475
 30
0.0
 11
5980.0
 21
4329.9999999999990905
 31
0.0
  0
LINE
  5
360
100
AcDbEntity
100
AcDbLine
  8
Chairs
 62
256
370
-1
  6
ByLayer
 10
5980.0
 20
4329.9999999999990905
 30
0.0
 11
5980.0
 21
4800.0000000000063665
 31
0.0
  0
LINE
  5
361
100
AcDbEntity
100
AcDbLine
  8
Chairs
 62
256
370
-1
  6
ByLayer
 10
5980.0
 20
4800.0000000000063665
 30
0.0
 11
5470.0
 21
4800.0000000000027285
 31
0.0
  0
LINE
  5
362
100
AcDbEntity
100
AcDbLine
  8
Chairs
 62
256
370
-1
  6
ByLayer
 10
5470.0
 20
4800.0000000000027285
 30
0.0
 11
5470.0
 21
4330.0000000000045475
 31
0.0
  0
LINE
  5
363
100
AcDbEntity
100
AcDbLine
  8
Chairs
 62
256
370
-1
  6
ByLayer
 10
5470.0
 20
4330.0000000000045475
 30
0.0
 11
5980.0
 21
4329.9999999999990905
 31
0.0
  0
LINE
  5
364
100
AcDbEntity
100
AcDbLine
  8
Chairs
 62
256
370
-1
  6
ByLayer
 10
5980.0
 20
4329.9999999999990905
 30
0.0
 11
5980.0
 21
4430.0000000000027285
 31
0.0
  0
LINE
  5
365
100
AcDbEntity
100
AcDbLine
  8
Chairs
 62
256
370
-1
  6
ByLayer
 10
5980.0
 20
4430.0000000000027285
 30
0.0
 11
5470.0
 21
4429.9999999999990905
 31
0.0
  0
LINE
  5
366
100
AcDbEntity
100
AcDbLine
  8
Chairs
 62
256
370
-1
  6
ByLayer
 10
5470.0
 20
4429.9999999999990905
 30
0.0
 11
5470.0
 21
4330.0000000000045475
 31
0.0
  0
LINE
  5
367
100
AcDbEntity
100
AcDbLine
  8
Chairs
 62
256
370
-1
  6
ByLayer
 10
5950.0
 20
4430.0000000000045475
 30
0.0
 11
5950.0
 21
4800.0000000000045475
 31
0.0
  0
LINE
  5
368
100
AcDbEntity
100
AcDbLine
  8
Chairs
 62
256
370
-1
  6
ByLayer
 10
5500.0
 20
4430.0000000000027285
 30
0.0
 11
5500.0
 21
4800.0000000000063665
 31
0.0
  0
LINE
  5
369
100
AcDbEntity
100
AcDbLine
  8
Chairs
 62
256
370
-1
  6
ByLayer
 10
3390.0000000000004547
 20
5129.9999999999990905
 30
0.0
 11
3900.0
 21
5129.9999999999972715
 31
0.0
  0
LINE
  5
36A
100
AcDbEntity
100
AcDbLine
  8
Chairs
 62
256
370
-1
  6
ByLayer
 10
3900.0
 20
5129.9999999999972715
 30
0.0
 11
3900.0000000000004547
 21
5599.9999999999990905
 31
0.0
  0
LINE
  5
36B
100
AcDbEntity
100
AcDbLine
  8
Chairs
 62
256
370
-1
  6
ByLayer
 10
3900.0000000000004547
 20
5599.9999999999990905
 30
0.0
 11
3390.0000000000004547
 21
5599.9999999999972715
 31
0.0
  0
LINE
  5
36C
100
AcDbEntity
100
AcDbLine
  8
Chairs
 62
256
370
-1
  6
ByLayer
 10
3390.0000000000004547
 20
5599.9999999999972715
 30
0.0
 11
3390.0000000000004547
 21
5129.9999999999990905
 31
0.0
  0
LINE
  5
36D
100
AcDbEntity
100
AcDbLine
  8
Chairs
 62
256
370
-1
  6
ByLayer
 10
3390.0000000000004547
 20
5129.9999999999990905
 30
0.0
 11
3900.0
 21
5129.9999999999972715
 31
0.0
  0
LINE
  5
36E
100
AcDbEntity
100
AcDbLine
  8
Chairs
 62
256
370
-1
  6
ByLayer
 10
3900.0
 20
5129.9999999999972715
 30
0.0
 11
3900.0
 21
5229.9999999999990905
 31
0.0
  0
LINE
  5
36F
100
AcDbEntity
100
AcDbLine
  8
Chairs
 62
256
370
-1
  6
ByLayer
 10
3900.0
 20
5229.9999999999990905
 30
0.0
 11
3390.0000000000004547
 21
5229.9999999999990905
 31
0.0
  0
LINE
  5
370
100
AcDbEntity
100
AcDbLine
  8
Chairs
 62
256
370
-1
  6
ByLayer
 10
3390.0000000000004547
 20
5229.9999999999990905
 30
0.0
 11
3390.0000000000004547
 21
5129.9999999999990905
 31
0.0
  0
LINE
  5
371
100
AcDbEntity
100
AcDbLine
  8
Chairs
 62
256
370
-1
  6
ByLayer
 10
3870.0
 20
5229.9999999999972715
 30
0.0
 11
3870.0000000000004547
 21
5599.9999999999990905
 31
0.0
  0
LINE
  5
372
100
AcDbEntity
100
AcDbLine
  8
Chairs
 62
256
370
-1
  6
ByLayer
 10
3420.0000000000004547
 20
5229.9999999999990905
 30
0.0
 11
3420.0000000000004547
 21
5599.9999999999972715
 31
0.0
  0
LINE
  5
373
100
AcDbEntity
100
AcDbLine
  8
Chairs
 62
256
370
-1
  6
ByLayer
 10
3910.0000000000004547
 20
5129.9999999999990905
 30
0.0
 11
4420.0
 21
5129.9999999999972715
 31
0.0
  0
LINE
  5
374
100
AcDbEntity
100
AcDbLine
  8
Chairs
 62
256
370
-1
  6
ByLayer
 10
4420.0
 20
5129.9999999999972715
 30
0.0
 11
4420.0
 21
5599.9999999999972715
 31
0.0
  0
LINE
  5
375
100
AcDbEntity
100
AcDbLine
  8
Chairs
 62
256
370
-1
  6
ByLayer
 10
4420.0
 20
5599.9999999999972715
 30
0.0
 11
3910.0000000000004547
 21
5599.9999999999990905
 31
0.0
  0
LINE
  5
376
100
AcDbEntity
100
AcDbLine
  8
Chairs
 62
256
370
-1
  6
ByLayer
 10
3910.0000000000004547
 20
5599.9999999999990905
 30
0.0
 11
3910.0000000000004547
 21
5129.9999999999990905
 31
0.0
  0
LINE
  5
377
100
AcDbEntity
100
AcDbLine
  8
Chairs
 62
256
370
-1
  6
ByLayer
 10
3910.0000000000004547
 20
5129.9999999999990905
 30
0.0
 11
4420.0
 21
5129.9999999999972715
 31
0.0
  0
LINE
  5
378
100
AcDbEntity
100
AcDbLine
  8
Chairs
 62
256
370
-1
  6
ByLayer
 10
4420.0
 20
5129.9999999999972715
 30
0.0
 11
4420.0
 21
5229.9999999999972715
 31
0.0
  0
LINE
  5
379
100
AcDbEntity
100
AcDbLine
  8
Chairs
 62
256
370
-1
  6
ByLayer
 10
4420.0
 20
5229.9999999999972715
 30
0.0
 11
3910.0
 21
5229.9999999999972715
 31
0.0
  0
LINE
  5
37A
100
AcDbEntity
100
AcDbLine
  8
Chairs
 62
256
370
-1
  6
ByLayer
 10
3910.0
 20
5229.9999999999972715
 30
0.0
 11
3910.0000000000004547
 21
5129.9999999999990905
 31
0.0
  0
LINE
  5
37B
100
AcDbEntity
100
AcDbLine
  8
Chairs
 62
256
370
-1
  6
ByLayer
 10
4390.0
 20
5229.9999999999972715
 30
0.0
 11
4390.0
 21
5599.9999999999972715
 31
0.0
  0
LINE
  5
37C
100
AcDbEntity
100
AcDbLine
  8
Chairs
 62
256
370
-1
  6
ByLayer
 10
3940.0000000000004547
 20
5229.9999999999990905
 30
0.0
 11
3940.0000000000004547
 21
5599.9999999999972715
 31
0.0
  0
LINE
  5
37D
100
AcDbEntity
100
AcDbLine
  8
Chairs
 62
256
370
-1
  6
ByLayer
 10
4430.0
 20
5129.9999999999990905
 30
0.0
 11
4940.0
 21
5129.9999999999972715
 31
0.0
  0
LINE
  5
37E
100
AcDbEntity
100
AcDbLine
  8
Chairs
 62
256
370
-1
  6
ByLayer
 10
4940.0
 20
5129.9999999999972715
 30
0.0
 11
4940.0
 21
5599.9999999999990905
 31
0.0
  0
LINE
  5
37F
100
AcDbEntity
100
AcDbLine
  8
Chairs
 62
256
370
-1
  6
ByLayer
 10
4940.0
 20
5599.9999999999990905
 30
0.0
 11
4430.0
 21
5599.9999999999990905
 31
0.0
  0
LINE
  5
380
100
AcDbEntity
100
AcDbLine
  8
Chairs
 62
256
370
-1
  6
ByLayer
 10
4430.0
 20
5599.9999999999990905
 30
0.0
 11
4430.0
 21
5129.9999999999990905
 31
0.0
  0
LINE
  5
381
100
AcDbEntity
100
AcDbLine
  8
Chairs
 62
256
370
-1
  6
ByLayer
 10
4430.0
 20
5129.9999999999990905
 30
0.0
 11
4940.0
 21
5129.9999999999972715
 31
0.0
  0
LINE
  5
382
100
AcDbEntity
100
AcDbLine
  8
Chairs
 62
256
370
-1
  6
ByLayer
 10
4940.0
 20
5129.9999999999972715
 30
0.0
 11
4940.0
 21
5229.9999999999972715
 31
0.0
  0
LINE
  5
383
100
AcDbEntity
100
AcDbLine
  8
Chairs
 62
256
370
-1
  6
ByLayer
 10
4940.0
 20
5229.9999999999972715
 30
0.0
 11
4430.0
 21
5229.9999999999972715
 31
0.0
  0
LINE
  5
384
100
AcDbEntity
100
AcDbLine
  8
Chairs
 62
256
370
-1
  6
ByLayer
 10
4430.0
 20
5229.9999999999972715
 30
0.0
 11
4430.0
 21
5129.9999999999990905
 31
0.0
  0
LINE
  5
385
100
AcDbEntity
100
AcDbLine
  8
Chairs
 62
256
370
-1
  6
ByLayer
 10
4910.0
 20
5229.9999999999972715
 30
0.0
 11
4910.0
 21
5599.9999999999972715
 31
0.0
  0
LINE
  5
386
100
AcDbEntity
100
AcDbLine
  8
Chairs
 62
256
370
-1
  6
ByLayer
 10
4460.0
 20
5229.9999999999972715
 30
0.0
 11
4460.0
 21
5599.9999999999990905
 31
0.0
  0
LINE
  5
387
100
AcDbEntity
100
AcDbLine
  8
Chairs
 62
256
370
-1
  6
ByLayer
 10
4950.0
 20
5129.9999999999990905
 30
0.0
 11
5460.0
 21
5129.9999999999990905
 31
0.0
  0
LINE
  5
388
100
AcDbEntity
100
AcDbLine
  8
Chairs
 62
256
370
-1
  6
ByLayer
 10
5460.0
 20
5129.9999999999990905
 30
0.0
 11
5460.0
 21
5599.9999999999990905
 31
0.0
  0
LINE
  5
389
100
AcDbEntity
100
AcDbLine
  8
Chairs
 62
256
370
-1
  6
ByLayer
 10
5460.0
 20
5599.9999999999990905
 30
0.0
 11
4950.0
 21
5599.9999999999972715
 31
0.0
  0
LINE
  5
38A
100
AcDbEntity
100
AcDbLine
  8
Chairs
 62
256
370
-1
  6
ByLayer
 10
4950.0
 20
5599.9999999999972715
 30
0.0
 11
4950.0
 21
5129.9999999999990905
 31
0.0
  0
LINE
  5
38B
100
AcDbEntity
100
AcDbLine
  8
Chairs
 62
256
370
-1
  6
ByLayer
 10
4950.0
 20
5129.9999999999990905
 30
0.0
 11
5460.0
 21
5129.9999999999990905
 31
0.0
  0
LINE
  5
38C
100
AcDbEntity
100
AcDbLine
  8
Chairs
 62
256
370
-1
  6
ByLayer
 10
5460.0
 20
5129.9999999999990905
 30
0.0
 11
5460.0
 21
5229.9999999999972715
 31
0.0
  0
LINE
  5
38D
100
AcDbEntity
100
AcDbLine
  8
Chairs
 62
256
370
-1
  6
ByLayer
 10
5460.0
 20
5229.9999999999972715
 30
0.0
 11
4950.0
 21
5229.9999999999972715
 31
0.0
  0
LINE
  5
38E
100
AcDbEntity
100
AcDbLine
  8
Chairs
 62
256
370
-1
  6
ByLayer
 10
4950.0
 20
5229.9999999999972715
 30
0.0
 11
4950.0
 21
5129.9999999999990905
 31
0.0
  0
LINE
  5
38F
100
AcDbEntity
100
AcDbLine
  8
Chairs
 62
256
370
-1
  6
ByLayer
 10
5430.0
 20
5229.9999999999972715
 30
0.0
 11
5430.0
 21
5599.9999999999954525
 31
0.0
  0
LINE
  5
390
100
AcDbEntity
100
AcDbLine
  8
Chairs
 62
256
370
-1
  6
ByLayer
 10
4980.0
 20
5229.9999999999972715
 30
0.0
 11
4980.0
 21
5599.9999999999972715
 31
0.0
  0
LINE
  5
391
100
AcDbEntity
100
AcDbLine
  8
Chairs
 62
256
370
-1
  6
ByLayer
 10
5470.0
 20
5129.9999999999990905
 30
0.0
 11
5980.0
 21
5129.9999999999954525
 31
0.0
  0
LINE
  5
392
100
AcDbEntity
100
AcDbLine
  8
Chairs
 62
256
370
-1
  6
ByLayer
 10
5980.0
 20
5129.9999999999954525
 30
0.0
 11
5980.0
 21
5599.9999999999972715
 31
0.0
  0
LINE
  5
393
100
AcDbEntity
100
AcDbLine
  8
Chairs
 62
256
370
-1
  6
ByLayer
 10
5980.0
 20
5599.9999999999972715
 30
0.0
 11
5470.0
 21
5600.0000000000009095
 31
0.0
  0
LINE
  5
394
100
AcDbEntity
100
AcDbLine
  8
Chairs
 62
256
370
-1
  6
ByLayer
 10
5470.0
 20
5600.0000000000009095
 30
0.0
 11
5470.0
 21
5129.9999999999990905
 31
0.0
  0
LINE
  5
395
100
AcDbEntity
100
AcDbLine
  8
Chairs
 62
256
370
-1
  6
ByLayer
 10
5470.0
 20
5129.9999999999990905
 30
0.0
 11
5980.0
 21
5129.9999999999954525
 31
0.0
  0
LINE
  5
396
100
AcDbEntity
100
AcDbLine
  8
Chairs
 62
256
370
-1
  6
ByLayer
 10
5980.0
 20
5129.9999999999954525
 30
0.0
 11
5980.0
 21
5229.9999999999972715
 31
0.0
  0
LINE
  5
397
100
AcDbEntity
100
AcDbLine
  8
Chairs
 62
256
370
-1
  6
ByLayer
 10
5980.0
 20
5229.9999999999972715
 30
0.0
 11
5470.0
 21
5229.9999999999972715
 31
0.0
  0
LINE
  5
398
100
AcDbEntity
100
AcDbLine
  8
Chairs
 62
256
370
-1
  6
ByLayer
 10
5470.0
 20
5229.9999999999972715
 30
0.0
 11
5470.0
 21
5129.9999999999990905
 31
0.0
  0
LINE
  5
399
100
AcDbEntity
100
AcDbLine
  8
Chairs
 62
256
370
-1
  6
ByLayer
 10
5950.0
 20
5229.9999999999972715
 30
0.0
 11
5950.0
 21
5600.0000000000009095
 31
0.0
  0
LINE
  5
39A
100
AcDbEntity
100
AcDbLine
  8
Chairs
 62
256
370
-1
  6
ByLayer
 10
5500.0
 20
5229.9999999999954525
 30
0.0
 11
5500.0
 21
5600.0000000000009095
 31
0.0
  0
LINE
  5
39B
100
AcDbEntity
100
AcDbLine
  8
Chairs
 62
256
370
-1
  6
ByLayer
 10
3390.0000000000004547
 20
5930.0000000000009095
 30
0.0
 11
3900.0
 21
5930.0000000000009095
 31
0.0
  0
LINE
  5
39C
100
AcDbEntity
100
AcDbLine
  8
Chairs
 62
256
370
-1
  6
ByLayer
 10
3900.0
 20
5930.0000000000009095
 30
0.0
 11
3900.0000000000004547
 21
6400.0000000000009095
 31
0.0
  0
LINE
  5
39D
100
AcDbEntity
100
AcDbLine
  8
Chairs
 62
256
370
-1
  6
ByLayer
 10
3900.0000000000004547
 20
6400.0000000000009095
 30
0.0
 11
3390.0000000000004547
 21
6400.0000000000009095
 31
0.0
  0
LINE
  5
39E
100
AcDbEntity
100
AcDbLine
  8
Chairs
 62
256
370
-1
  6
ByLayer
 10
3390.0000000000004547
 20
6400.0000000000009095
 30
0.0
 11
3390.0000000000004547
 21
5930.0000000000009095
 31
0.0
  0
LINE
  5
39F
100
AcDbEntity
100
AcDbLine
  8
Chairs
 62
256
370
-1
  6
ByLayer
 10
3390.0000000000004547
 20
5930.0000000000009095
 30
0.0
 11
3900.0
 21
5930.0000000000009095
 31
0.0
  0
LINE
  5
3A0
100
AcDbEntity
100
AcDbLine
  8
Chairs
 62
256
370
-1
  6
ByLayer
 10
3900.0
 20
5930.0000000000009095
 30
0.0
 11
3900.0
 21
6030.0000000000009095
 31
0.0
  0
LINE
  5
3A1
100
AcDbEntity
100
AcDbLine
  8
Chairs
 62
256
370
-1
  6
ByLayer
 10
3900.0
 20
6030.0000000000009095
 30
0.0
 11
3390.0000000000004547
 21
6030.0000000000009095
 31
0.0
  0
LINE
  5
3A2
100
AcDbEntity
100
AcDbLine
  8
Chairs
 62
256
370
-1
  6
ByLayer
 10
3390.0000000000004547
 20
6030.0000000000009095
 30
0.0
 11
3390.0000000000004547
 21
5930.0000000000009095
 31
0.0
  0
LINE
  5
3A3
100
AcDbEntity
100
AcDbLine
  8
Chairs
 62
256
370
-1
  6
ByLayer
 10
3870.0000000000004547
 20
6030.0000000000009095
 30
0.0
 11
3870.0000000000004547
 21
6400.0000000000009095
 31
0.0
  0
LINE
  5
3A4
100
AcDbEntity
100
AcDbLine
  8
Chairs
 62
256
370
-1
  6
ByLayer
 10
3420.0000000000004547
 20
6030.0000000000009095
 30
0.0
 11
3420.0000000000004547
 21
6400.0000000000009095
 31
0.0
  0
LINE
  5
3A5
100
AcDbEntity
100
AcDbLine
  8
Chairs
 62
256
370
-1
  6
ByLayer
 10
3910.0000000000004547
 20
5930.0000000000009095
 30
0.0
 11
4420.0
 21
5929.9999999999990905
 31
0.0
  0
LINE
  5
3A6
100
AcDbEntity
100
AcDbLine
  8
Chairs
 62
256
370
-1
  6
ByLayer
 10
4420.0
 20
5929.9999999999990905
 30
0.0
 11
4420.0
 21
6400.0000000000009095
 31
0.0
  0
LINE
  5
3A7
100
AcDbEntity
100
AcDbLine
  8
Chairs
 62
256
370
-1
  6
ByLayer
 10
4420.0
 20
6400.0000000000009095
 30
0.0
 11
3910.0000000000004547
 21
6400.0000000000009095
 31
0.0
  0
LINE
  5
3A8
100
AcDbEntity
100
AcDbLine
  8
Chairs
 62
256
370
-1
  6
ByLayer
 10
3910.0000000000004547
 20
6400.0000000000009095
 30
0.0
 11
3910.0000000000004547
 21
5930.0000000000009095
 31
0.0
  0
LINE
  5
3A9
100
AcDbEntity
100
AcDbLine
  8
Chairs
 62
256
370
-1
  6
ByLayer
 10
3910.0000000000004547
 20
5930.0000000000009095
 30
0.0
 11
4420.0
 21
5929.9999999999990905
 31
0.0
  0
LINE
  5
3AA
100
AcDbEntity
100
AcDbLine
  8
Chairs
 62
256
370
-1
  6
ByLayer
 10
4420.0
 20
5929.9999999999990905
 30
0.0
 11
4420.0
 21
6029.9999999999990905
 31
0.0
  0
LINE
  5
3AB
100
AcDbEntity
100
AcDbLine
  8
Chairs
 62
256
370
-1
  6
ByLayer
 10
4420.0
 20
6029.9999999999990905
 30
0.0
 11
3910.0000000000004547
 21
6030.0000000000009095
 31
0.0
  0
LINE
  5
3AC
100
AcDbEntity
100
AcDbLine
  8
Chairs
 62
256
370
-1
  6
ByLayer
 10
3910.0000000000004547
 20
6030.0000000000009095
 30
0.0
 11
3910.0000000000004547
 21
5930.0000000000009095
 31
0.0
  0
LINE
  5
3AD
100
AcDbEntity
100
AcDbLine
  8
Chairs
 62
256
370
-1
  6
ByLayer
 10
4390.0
 20
6030.0000000000009095
 30
0.0
 11
4390.0
 21
6400.0000000000009095
 31
0.0
  0
LINE
  5
3AE
100
AcDbEntity
100
AcDbLine
  8
Chairs
 62
256
370
-1
  6
ByLayer
 10
3940.0000000000004547
 20
6030.0000000000009095
 30
0.0
 11
3940.0000000000004547
 21
6400.0000000000009095
 31
0.0
  0
LINE
  5
3AF
100
AcDbEntity
100
AcDbLine
  8
Chairs
 62
256
370
-1
  6
ByLayer
 10
4430.0
 20
5930.0000000000009095
 30
0.0
 11
4940.0
 21
5930.0000000000009095
 31
0.0
  0
LINE
  5
3B0
100
AcDbEntity
100
AcDbLine
  8
Chairs
 62
256
370
-1
  6
ByLayer
 10
4940.0
 20
5930.0000000000009095
 30
0.0
 11
4940.0
 21
6400.0000000000009095
 31
0.0
  0
LINE
  5
3B1
100
AcDbEntity
100
AcDbLine
  8
Chairs
 62
256
370
-1
  6
ByLayer
 10
4940.0
 20
6400.0000000000009095
 30
0.0
 11
4430.0
 21
6400.0000000000009095
 31
0.0
  0
LINE
  5
3B2
100
AcDbEntity
100
AcDbLine
  8
Chairs
 62
256
370
-1
  6
ByLayer
 10
4430.0
 20
6400.0000000000009095
 30
0.0
 11
4430.0
 21
5930.0000000000009095
 31
0.0
  0
LINE
  5
3B3
100
AcDbEntity
100
AcDbLine
  8
Chairs
 62
256
370
-1
  6
ByLayer
 10
4430.0
 20
5930.0000000000009095
 30
0.0
 11
4940.0
 21
5930.0000000000009095
 31
0.0
  0
LINE
  5
3B4
100
AcDbEntity
100
AcDbLine
  8
Chairs
 62
256
370
-1
  6
ByLayer
 10
4940.0
 20
5930.0000000000009095
 30
0.0
 11
4940.0
 21
6029.9999999999990905
 31
0.0
  0
LINE
  5
3B5
100
AcDbEntity
100
AcDbLine
  8
Chairs
 62
256
370
-1
  6
ByLayer
 10
4940.0
 20
6029.9999999999990905
 30
0.0
 11
4430.0
 21
6030.0000000000009095
 31
0.0
  0
LINE
  5
3B6
100
AcDbEntity
100
AcDbLine
  8
Chairs
 62
256
370
-1
  6
ByLayer
 10
4430.0
 20
6030.0000000000009095
 30
0.0
 11
4430.0
 21
5930.0000000000009095
 31
0.0
  0
LINE
  5
3B7
100
AcDbEntity
100
AcDbLine
  8
Chairs
 62
256
370
-1
  6
ByLayer
 10
4910.0
 20
6030.0000000000027285
 30
0.0
 11
4910.0
 21
6400.0000000000009095
 31
0.0
  0
LINE
  5
3B8
100
AcDbEntity
100
AcDbLine
  8
Chairs
 62
256
370
-1
  6
ByLayer
 10
4460.0
 20
6029.9999999999990905
 30
0.0
 11
4460.0
 21
6400.0000000000009095
 31
0.0
  0
LINE
  5
3B9
100
AcDbEntity
100
AcDbLine
  8
Chairs
 62
256
370
-1
  6
ByLayer
 10
4950.0
 20
5930.0000000000009095
 30
0.0
 11
5460.0
 21
5929.9999999999990905
 31
0.0
  0
LINE
  5
3BA
100
AcDbEntity
100
AcDbLine
  8
Chairs
 62
256
370
-1
  6
ByLayer
 10
5460.0
 20
5929.9999999999990905
 30
0.0
 11
5460.0
 21
6400.0000000000009095
 31
0.0
  0
LINE
  5
3BB
100
AcDbEntity
100
AcDbLine
  8
Chairs
 62
256
370
-1
  6
ByLayer
 10
5460.0
 20
6400.0000000000009095
 30
0.0
 11
4950.0
 21
6400.0000000000009095
 31
0.0
  0
LINE
  5
3BC
100
AcDbEntity
100
AcDbLine
  8
Chairs
 62
256
370
-1
  6
ByLayer
 10
4950.0
 20
6400.0000000000009095
 30
0.0
 11
4950.0
 21
5930.0000000000009095
 31
0.0
  0
LINE
  5
3BD
100
AcDbEntity
100
AcDbLine
  8
Chairs
 62
256
370
-1
  6
ByLayer
 10
4950.0
 20
5930.0000000000009095
 30
0.0
 11
5460.0
 21
5929.9999999999990905
 31
0.0
  0
LINE
  5
3BE
100
AcDbEntity
100
AcDbLine
  8
Chairs
 62
256
370
-1
  6
ByLayer
 10
5460.0
 20
5929.9999999999990905
 30
0.0
 11
5460.0
 21
6030.0000000000009095
 31
0.0
  0
LINE
  5
3BF
100
AcDbEntity
100
AcDbLine
  8
Chairs
 62
256
370
-1
  6
ByLayer
 10
5460.0
 20
6030.0000000000009095
 30
0.0
 11
4950.0
 21
6030.0000000000009095
 31
0.0
  0
LINE
  5
3C0
100
AcDbEntity
100
AcDbLine
  8
Chairs
 62
256
370
-1
  6
ByLayer
 10
4950.0
 20
6030.0000000000009095
 30
0.0
 11
4950.0
 21
5930.0000000000009095
 31
0.0
  0
LINE
  5
3C1
100
AcDbEntity
100
AcDbLine
  8
Chairs
 62
256
370
-1
  6
ByLayer
 10
5430.000000000001819
 20
6030.0000000000009095
 30
0.0
 11
5430.0
 21
6400.0000000000027285
 31
0.0
  0
LINE
  5
3C2
100
AcDbEntity
100
AcDbLine
  8
Chairs
 62
256
370
-1
  6
ByLayer
 10
4980.0
 20
6030.0000000000009095
 30
0.0
 11
4980.0
 21
6400.0000000000009095
 31
0.0
  0
LINE
  5
3C3
100
AcDbEntity
100
AcDbLine
  8
Chairs
 62
256
370
-1
  6
ByLayer
 10
5470.0
 20
5930.0000000000009095
 30
0.0
 11
5980.0
 21
5929.9999999999954525
 31
0.0
  0
LINE
  5
3C4
100
AcDbEntity
100
AcDbLine
  8
Chairs
 62
256
370
-1
  6
ByLayer
 10
5980.0
 20
5929.9999999999954525
 30
0.0
 11
5980.0
 21
6400.0000000000045475
 31
0.0
  0
LINE
  5
3C5
100
AcDbEntity
100
AcDbLine
  8
Chairs
 62
256
370
-1
  6
ByLayer
 10
5980.0
 20
6400.0000000000045475
 30
0.0
 11
5470.0
 21
6399.9999999999990905
 31
0.0
  0
LINE
  5
3C6
100
AcDbEntity
100
AcDbLine
  8
Chairs
 62
256
370
-1
  6
ByLayer
 10
5470.0
 20
6399.9999999999990905
 30
0.0
 11
5470.0
 21
5930.0000000000009095
 31
0.0
  0
LINE
  5
3C7
100
AcDbEntity
100
AcDbLine
  8
Chairs
 62
256
370
-1
  6
ByLayer
 10
5470.0
 20
5930.0000000000009095
 30
0.0
 11
5980.0
 21
5929.9999999999954525
 31
0.0
  0
LINE
  5
3C8
100
AcDbEntity
100
AcDbLine
  8
Chairs
 62
256
370
-1
  6
ByLayer
 10
5980.0
 20
5929.9999999999954525
 30
0.0
 11
5980.0
 21
6029.9999999999990905
 31
0.0
  0
LINE
  5
3C9
100
AcDbEntity
100
AcDbLine
  8
Chairs
 62
256
370
-1
  6
ByLayer
 10
5980.0
 20
6029.9999999999990905
 30
0.0
 11
5470.0
 21
6029.9999999999954525
 31
0.0
  0
LINE
  5
3CA
100
AcDbEntity
100
AcDbLine
  8
Chairs
 62
256
370
-1
  6
ByLayer
 10
5470.0
 20
6029.9999999999954525
 30
0.0
 11
5470.0
 21
5930.0000000000009095
 31
0.0
  0
LINE
  5
3CB
100
AcDbEntity
100
AcDbLine
  8
Chairs
 62
256
370
-1
  6
ByLayer
 10
5950.0
 20
6030.0000000000027285
 30
0.0
 11
5950.0
 21
6400.0000000000009095
 31
0.0
  0
LINE
  5
3CC
100
AcDbEntity
100
AcDbLine
  8
Chairs
 62
256
370
-1
  6
ByLayer
 10
5500.0
 20
6030.0000000000009095
 30
0.0
 11
5500.0
 21
6400.0000000000045475
 31
0.0
  0
LINE
  5
3CD
100
AcDbEntity
100
AcDbLine
  8
Chairs
 62
256
370
-1
  6
ByLayer
 10
3390.0000000000009095
 20
6729.9999999999972715
 30
0.0
 11
3900.0000000000004547
 21
6729.9999999999972715
 31
0.0
  0
LINE
  5
3CE
100
AcDbEntity
100
AcDbLine
  8
Chairs
 62
256
370
-1
  6
ByLayer
 10
3900.0000000000004547
 20
6729.9999999999972715
 30
0.0
 11
3900.0000000000009095
 21
7199.9999999999972715
 31
0.0
  0
LINE
  5
3CF
100
AcDbEntity
100
AcDbLine
  8
Chairs
 62
256
370
-1
  6
ByLayer
 10
3900.0000000000009095
 20
7199.9999999999972715
 30
0.0
 11
3390.0000000000009095
 21
7199.9999999999972715
 31
0.0
  0
LINE
  5
3D0
100
AcDbEntity
100
AcDbLine
  8
Chairs
 62
256
370
-1
  6
ByLayer
 10
3390.0000000000009095
 20
7199.9999999999972715
 30
0.0
 11
3390.0000000000009095
 21
6729.9999999999972715
 31
0.0
  0
LINE
  5
3D1
100
AcDbEntity
100
AcDbLine
  8
Chairs
 62
256
370
-1
  6
ByLayer
 10
3390.0000000000009095
 20
6729.9999999999972715
 30
0.0
 11
3900.0000000000004547
 21
6729.9999999999972715
 31
0.0
  0
LINE
  5
3D2
100
AcDbEntity
100
AcDbLine
  8
Chairs
 62
256
370
-1
  6
ByLayer
 10
3900.0000000000004547
 20
6729.9999999999972715
 30
0.0
 11
3900.0000000000004547
 21
6829.9999999999972715
 31
0.0
  0
LINE
  5
3D3
100
AcDbEntity
100
AcDbLine
  8
Chairs
 62
256
370
-1
  6
ByLayer
 10
3900.0000000000004547
 20
6829.9999999999972715
 30
0.0
 11
3390.0000000000009095
 21
6829.9999999999972715
 31
0.0
  0
LINE
  5
3D4
100
AcDbEntity
100
AcDbLine
  8
Chairs
 62
256
370
-1
  6
ByLayer
 10
3390.0000000000009095
 20
6829.9999999999972715
 30
0.0
 11
3390.0000000000009095
 21
6729.9999999999972715
 31
0.0
  0
LINE
  5
3D5
100
AcDbEntity
100
AcDbLine
  8
Chairs
 62
256
370
-1
  6
ByLayer
 10
3870.0
 20
6829.9999999999954525
 30
0.0
 11
3870.0000000000009095
 21
7199.9999999999972715
 31
0.0
  0
LINE
  5
3D6
100
AcDbEntity
100
AcDbLine
  8
Chairs
 62
256
370
-1
  6
ByLayer
 10
3420.0000000000009095
 20
6829.9999999999972715
 30
0.0
 11
3420.0000000000009095
 21
7199.9999999999954525
 31
0.0
  0
LINE
  5
3D7
100
AcDbEntity
100
AcDbLine
  8
Chairs
 62
256
370
-1
  6
ByLayer
 10
3910.0000000000004547
 20
6729.9999999999972715
 30
0.0
 11
4420.0
 21
6729.9999999999954525
 31
0.0
  0
LINE
  5
3D8
100
AcDbEntity
100
AcDbLine
  8
Chairs
 62
256
370
-1
  6
ByLayer
 10
4420.0
 20
6729.9999999999954525
 30
0.0
 11
4420.0000000000009095
 21
7199.9999999999972715
 31
0.0
  0
LINE
  5
3D9
100
AcDbEntity
100
AcDbLine
  8
Chairs
 62
256
370
-1
  6
ByLayer
 10
4420.0000000000009095
 20
7199.9999999999972715
 30
0.0
 11
3910.0000000000009095
 21
7199.9999999999972715
 31
0.0
  0
LINE
  5
3DA
100
AcDbEntity
100
AcDbLine
  8
Chairs
 62
256
370
-1
  6
ByLayer
 10
3910.0000000000009095
 20
7199.9999999999972715
 30
0.0
 11
3910.0000000000004547
 21
6729.9999999999972715
 31
0.0
  0
LINE
  5
3DB
100
AcDbEntity
100
AcDbLine
  8
Chairs
 62
256
370
-1
  6
ByLayer
 10
3910.0000000000004547
 20
6729.9999999999972715
 30
0.0
 11
4420.0
 21
6729.9999999999954525
 31
0.0
  0
LINE
  5
3DC
100
AcDbEntity
100
AcDbLine
  8
Chairs
 62
256
370
-1
  6
ByLayer
 10
4420.0
 20
6729.9999999999954525
 30
0.0
 11
4420.0
 21
6829.9999999999954525
 31
0.0
  0
LINE
  5
3DD
100
AcDbEntity
100
AcDbLine
  8
Chairs
 62
256
370
-1
  6
ByLayer
 10
4420.0
 20
6829.9999999999954525
 30
0.0
 11
3910.0000000000004547
 21
6829.9999999999954525
 31
0.0
  0
LINE
  5
3DE
100
AcDbEntity
100
AcDbLine
  8
Chairs
 62
256
370
-1
  6
ByLayer
 10
3910.0000000000004547
 20
6829.9999999999954525
 30
0.0
 11
3910.0000000000004547
 21
6729.9999999999972715
 31
0.0
  0
LINE
  5
3DF
100
AcDbEntity
100
AcDbLine
  8
Chairs
 62
256
370
-1
  6
ByLayer
 10
4390.0
 20
6829.9999999999954525
 30
0.0
 11
4390.0000000000009095
 21
7199.9999999999954525
 31
0.0
  0
LINE
  5
3E0
100
AcDbEntity
100
AcDbLine
  8
Chairs
 62
256
370
-1
  6
ByLayer
 10
3940.0000000000004547
 20
6829.9999999999972715
 30
0.0
 11
3940.0000000000009095
 21
7199.9999999999954525
 31
0.0
  0
LINE
  5
3E1
100
AcDbEntity
100
AcDbLine
  8
Chairs
 62
256
370
-1
  6
ByLayer
 10
4430.0
 20
6729.9999999999972715
 30
0.0
 11
4940.0
 21
6729.9999999999954525
 31
0.0
  0
LINE
  5
3E2
100
AcDbEntity
100
AcDbLine
  8
Chairs
 62
256
370
-1
  6
ByLayer
 10
4940.0
 20
6729.9999999999954525
 30
0.0
 11
4940.0
 21
7199.9999999999972715
 31
0.0
  0
LINE
  5
3E3
100
AcDbEntity
100
AcDbLine
  8
Chairs
 62
256
370
-1
  6
ByLayer
 10
4940.0
 20
7199.9999999999972715
 30
0.0
 11
4430.0000000000009095
 21
7199.9999999999972715
 31
0.0
  0
LINE
  5
3E4
100
AcDbEntity
100
AcDbLine
  8
Chairs
 62
256
370
-1
  6
ByLayer
 10
4430.0000000000009095
 20
7199.9999999999972715
 30
0.0
 11
4430.0
 21
6729.9999999999972715
 31
0.0
  0
LINE
  5
3E5
100
AcDbEntity
100
AcDbLine
  8
Chairs
 62
256
370
-1
  6
ByLayer
 10
4430.0
 20
6729.9999999999972715
 30
0.0
 11
4940.0
 21
6729.9999999999954525
 31
0.0
  0
LINE
  5
3E6
100
AcDbEntity
100
AcDbLine
  8
Chairs
 62
256
370
-1
  6
ByLayer
 10
4940.0
 20
6729.9999999999954525
 30
0.0
 11
4940.0
 21
6829.9999999999954525
 31
0.0
  0
LINE
  5
3E7
100
AcDbEntity
100
AcDbLine
  8
Chairs
 62
256
370
-1
  6
ByLayer
 10
4940.0
 20
6829.9999999999954525
 30
0.0
 11
4430.0
 21
6829.9999999999954525
 31
0.0
  0
LINE
  5
3E8
100
AcDbEntity
100
AcDbLine
  8
Chairs
 62
256
370
-1
  6
ByLayer
 10
4430.0
 20
6829.9999999999954525
 30
0.0
 11
4430.0
 21
6729.9999999999972715
 31
0.0
  0
LINE
  5
3E9
100
AcDbEntity
100
AcDbLine
  8
Chairs
 62
256
370
-1
  6
ByLayer
 10
4910.0
 20
6829.9999999999954525
 30
0.0
 11
4910.0
 21
7199.9999999999954525
 31
0.0
  0
LINE
  5
3EA
100
AcDbEntity
100
AcDbLine
  8
Chairs
 62
256
370
-1
  6
ByLayer
 10
4460.0
 20
6829.9999999999954525
 30
0.0
 11
4460.0000000000009095
 21
7199.9999999999972715
 31
0.0
  0
LINE
  5
3EB
100
AcDbEntity
100
AcDbLine
  8
Chairs
 62
256
370
-1
  6
ByLayer
 10
4950.0
 20
6729.9999999999972715
 30
0.0
 11
5460.0
 21
6729.9999999999972715
 31
0.0
  0
LINE
  5
3EC
100
AcDbEntity
100
AcDbLine
  8
Chairs
 62
256
370
-1
  6
ByLayer
 10
5460.0
 20
6729.9999999999972715
 30
0.0
 11
5460.0
 21
7199.9999999999972715
 31
0.0
  0
LINE
  5
3ED
100
AcDbEntity
100
AcDbLine
  8
Chairs
 62
256
370
-1
  6
ByLayer
 10
5460.0
 20
7199.9999999999972715
 30
0.0
 11
4950.0
 21
7199.9999999999954525
 31
0.0
  0
LINE
  5
3EE
100
AcDbEntity
100
AcDbLine
  8
Chairs
 62
256
370
-1
  6
ByLayer
 10
4950.0
 20
7199.9999999999954525
 30
0.0
 11
4950.0
 21
6729.9999999999972715
 31
0.0
  0
LINE
  5
3EF
100
AcDbEntity
100
AcDbLine
  8
Chairs
 62
256
370
-1
  6
ByLayer
 10
4950.0
 20
6729.9999999999972715
 30
0.0
 11
5460.0
 21
6729.9999999999972715
 31
0.0
  0
LINE
  5
3F0
100
AcDbEntity
100
AcDbLine
  8
Chairs
 62
256
370
-1
  6
ByLayer
 10
5460.0
 20
6729.9999999999972715
 30
0.0
 11
5460.0
 21
6829.9999999999936335
 31
0.0
  0
LINE
  5
3F1
100
AcDbEntity
100
AcDbLine
  8
Chairs
 62
256
370
-1
  6
ByLayer
 10
5460.0
 20
6829.9999999999936335
 30
0.0
 11
4950.0
 21
6829.9999999999954525
 31
0.0
  0
LINE
  5
3F2
100
AcDbEntity
100
AcDbLine
  8
Chairs
 62
256
370
-1
  6
ByLayer
 10
4950.0
 20
6829.9999999999954525
 30
0.0
 11
4950.0
 21
6729.9999999999972715
 31
0.0
  0
LINE
  5
3F3
100
AcDbEntity
100
AcDbLine
  8
Chairs
 62
256
370
-1
  6
ByLayer
 10
5430.0
 20
6829.9999999999954525
 30
0.0
 11
5430.0
 21
7199.9999999999936335
 31
0.0
  0
LINE
  5
3F4
100
AcDbEntity
100
AcDbLine
  8
Chairs
 62
256
370
-1
  6
ByLayer
 10
4980.0
 20
6829.9999999999954525
 30
0.0
 11
4980.0
 21
7199.9999999999954525
 31
0.0
  0
LINE
  5
3F5
100
AcDbEntity
100
AcDbLine
  8
Chairs
 62
256
370
-1
  6
ByLayer
 10
5470.0
 20
6729.9999999999972715
 30
0.0
 11
5980.0
 21
6729.9999999999936335
 31
0.0
  0
LINE
  5
3F6
100
AcDbEntity
100
AcDbLine
  8
Chairs
 62
256
370
-1
  6
ByLayer
 10
5980.0
 20
6729.9999999999936335
 30
0.0
 11
5980.0
 21
7199.9999999999954525
 31
0.0
  0
LINE
  5
3F7
100
AcDbEntity
100
AcDbLine
  8
Chairs
 62
256
370
-1
  6
ByLayer
 10
5980.0
 20
7199.9999999999954525
 30
0.0
 11
5470.0
 21
7199.9999999999990905
 31
0.0
  0
LINE
  5
3F8
100
AcDbEntity
100
AcDbLine
  8
Chairs
 62
256
370
-1
  6
ByLayer
 10
5470.0
 20
7199.9999999999990905
 30
0.0
 11
5470.0
 21
6729.9999999999972715
 31
0.0
  0
LINE
  5
3F9
100
AcDbEntity
100
AcDbLine
  8
Chairs
 62
256
370
-1
  6
ByLayer
 10
5470.0
 20
6729.9999999999972715
 30
0.0
 11
5980.0
 21
6729.9999999999936335
 31
0.0
  0
LINE
  5
3FA
100
AcDbEntity
100
AcDbLine
  8
Chairs
 62
256
370
-1
  6
ByLayer
 10
5980.0
 20
6729.9999999999936335
 30
0.0
 11
5980.0
 21
6829.9999999999954525
 31
0.0
  0
LINE
  5
3FB
100
AcDbEntity
100
AcDbLine
  8
Chairs
 62
256
370
-1
  6
ByLayer
 10
5980.0
 20
6829.9999999999954525
 30
0.0
 11
5470.0
 21
6829.9999999999954525
 31
0.0
  0
LINE
  5
3FC
100
AcDbEntity
100
AcDbLine
  8
Chairs
 62
256
370
-1
  6
ByLayer
 10
5470.0
 20
6829.9999999999954525
 30
0.0
 11
5470.0
 21
6729.9999999999972715
 31
0.0
  0
LINE
  5
3FD
100
AcDbEntity
100
AcDbLine
  8
Chairs
 62
256
370
-1
  6
ByLayer
 10
5950.0
 20
6829.9999999999936335
 30
0.0
 11
5950.0
 21
7199.9999999999990905
 31
0.0
  0
LINE
  5
3FE
100
AcDbEntity
100
AcDbLine
  8
Chairs
 62
256
370
-1
  6
ByLayer
 10
5500.0
 20
6829.9999999999936335
 30
0.0
 11
5500.0
 21
7199.9999999999972715
 31
0.0
  0
LINE
  5
3FF
100
AcDbEntity
100
AcDbLine
  8
Chairs
 62
256
370
-1
  6
ByLayer
 10
3390.0000000000004547
 20
7530.0000000000009095
 30
0.0
 11
3900.0
 21
7530.0000000000009095
 31
0.0
  0
LINE
  5
400
100
AcDbEntity
100
AcDbLine
  8
Chairs
 62
256
370
-1
  6
ByLayer
 10
3900.0
 20
7530.0000000000009095
 30
0.0
 11
3900.0000000000004547
 21
8000.0000000000009095
 31
0.0
  0
LINE
  5
401
100
AcDbEntity
100
AcDbLine
  8
Chairs
 62
256
370
-1
  6
ByLayer
 10
3900.0000000000004547
 20
8000.0000000000009095
 30
0.0
 11
3390.0000000000004547
 21
8000.0000000000009095
 31
0.0
  0
LINE
  5
402
100
AcDbEntity
100
AcDbLine
  8
Chairs
 62
256
370
-1
  6
ByLayer
 10
3390.0000000000004547
 20
8000.0000000000009095
 30
0.0
 11
3390.0000000000004547
 21
7530.0000000000009095
 31
0.0
  0
LINE
  5
403
100
AcDbEntity
100
AcDbLine
  8
Chairs
 62
256
370
-1
  6
ByLayer
 10
3390.0000000000004547
 20
7530.0000000000009095
 30
0.0
 11
3900.0
 21
7530.0000000000009095
 31
0.0
  0
LINE
  5
404
100
AcDbEntity
100
AcDbLine
  8
Chairs
 62
256
370
-1
  6
ByLayer
 10
3900.0
 20
7530.0000000000009095
 30
0.0
 11
3900.0
 21
7630.0000000000027285
 31
0.0
  0
LINE
  5
405
100
AcDbEntity
100
AcDbLine
  8
Chairs
 62
256
370
-1
  6
ByLayer
 10
3900.0
 20
7630.0000000000027285
 30
0.0
 11
3390.0000000000004547
 21
7630.0000000000009095
 31
0.0
  0
LINE
  5
406
100
AcDbEntity
100
AcDbLine
  8
Chairs
 62
256
370
-1
  6
ByLayer
 10
3390.0000000000004547
 20
7630.0000000000009095
 30
0.0
 11
3390.0000000000004547
 21
7530.0000000000009095
 31
0.0
  0
LINE
  5
407
100
AcDbEntity
100
AcDbLine
  8
Chairs
 62
256
370
-1
  6
ByLayer
 10
3870.0000000000004547
 20
7630.0000000000027285
 30
0.0
 11
3870.0000000000004547
 21
8000.0000000000009095
 31
0.0
  0
LINE
  5
408
100
AcDbEntity
100
AcDbLine
  8
Chairs
 62
256
370
-1
  6
ByLayer
 10
3420.0000000000004547
 20
7630.0000000000009095
 30
0.0
 11
3420.0000000000004547
 21
8000.0000000000009095
 31
0.0
  0
LINE
  5
409
100
AcDbEntity
100
AcDbLine
  8
Chairs
 62
256
370
-1
  6
ByLayer
 10
3910.0000000000004547
 20
7530.0000000000009095
 30
0.0
 11
4420.0
 21
7530.0000000000009095
 31
0.0
  0
LINE
  5
40A
100
AcDbEntity
100
AcDbLine
  8
Chairs
 62
256
370
-1
  6
ByLayer
 10
4420.0
 20
7530.0000000000009095
 30
0.0
 11
4420.0
 21
8000.0000000000009095
 31
0.0
  0
LINE
  5
40B
100
AcDbEntity
100
AcDbLine
  8
Chairs
 62
256
370
-1
  6
ByLayer
 10
4420.0
 20
8000.0000000000009095
 30
0.0
 11
3910.0000000000004547
 21
8000.0000000000009095
 31
0.0
  0
LINE
  5
40C
100
AcDbEntity
100
AcDbLine
  8
Chairs
 62
256
370
-1
  6
ByLayer
 10
3910.0000000000004547
 20
8000.0000000000009095
 30
0.0
 11
3910.0000000000004547
 21
7530.0000000000009095
 31
0.0
  0
LINE
  5
40D
100
AcDbEntity
100
AcDbLine
  8
Chairs
 62
256
370
-1
  6
ByLayer
 10
3910.0000000000004547
 20
7530.0000000000009095
 30
0.0
 11
4420.0
 21
7530.0000000000009095
 31
0.0
  0
LINE
  5
40E
100
AcDbEntity
100
AcDbLine
  8
Chairs
 62
256
370
-1
  6
ByLayer
 10
4420.0
 20
7530.0000000000009095
 30
0.0
 11
4420.0
 21
7629.9999999999990905
 31
0.0
  0
LINE
  5
40F
100
AcDbEntity
100
AcDbLine
  8
Chairs
 62
256
370
-1
  6
ByLayer
 10
4420.0
 20
7629.9999999999990905
 30
0.0
 11
3910.0000000000004547
 21
7630.0000000000009095
 31
0.0
  0
LINE
  5
410
100
AcDbEntity
100
AcDbLine
  8
Chairs
 62
256
370
-1
  6
ByLayer
 10
3910.0000000000004547
 20
7630.0000000000009095
 30
0.0
 11
3910.0000000000004547
 21
7530.0000000000009095
 31
0.0
  0
LINE
  5
411
100
AcDbEntity
100
AcDbLine
  8
Chairs
 62
256
370
-1
  6
ByLayer
 10
4390.0
 20
7630.0000000000009095
 30
0.0
 11
4390.0
 21
8000.0000000000009095
 31
0.0
  0
LINE
  5
412
100
AcDbEntity
100
AcDbLine
  8
Chairs
 62
256
370
-1
  6
ByLayer
 10
3940.0000000000004547
 20
7630.0000000000009095
 30
0.0
 11
3940.0000000000004547
 21
8000.0000000000009095
 31
0.0
  0
LINE
  5
413
100
AcDbEntity
100
AcDbLine
  8
Chairs
 62
256
370
-1
  6
ByLayer
 10
4430.0
 20
7530.0000000000027285
 30
0.0
 11
4940.0
 21
7530.0000000000027285
 31
0.0
  0
LINE
  5
414
100
AcDbEntity
100
AcDbLine
  8
Chairs
 62
256
370
-1
  6
ByLayer
 10
4940.0
 20
7530.0000000000027285
 30
0.0
 11
4940.0
 21
8000.0000000000009095
 31
0.0
  0
LINE
  5
415
100
AcDbEntity
100
AcDbLine
  8
Chairs
 62
256
370
-1
  6
ByLayer
 10
4940.0
 20
8000.0000000000009095
 30
0.0
 11
4430.0
 21
8000.0000000000009095
 31
0.0
  0
LINE
  5
416
100
AcDbEntity
100
AcDbLine
  8
Chairs
 62
256
370
-1
  6
ByLayer
 10
4430.0
 20
8000.0000000000009095
 30
0.0
 11
4430.0
 21
7530.0000000000027285
 31
0.0
  0
LINE
  5
417
100
AcDbEntity
100
AcDbLine
  8
Chairs
 62
256
370
-1
  6
ByLayer
 10
4430.0
 20
7530.0000000000027285
 30
0.0
 11
4940.0
 21
7530.0000000000027285
 31
0.0
  0
LINE
  5
418
100
AcDbEntity
100
AcDbLine
  8
Chairs
 62
256
370
-1
  6
ByLayer
 10
4940.0
 20
7530.0000000000027285
 30
0.0
 11
4940.0
 21
7629.9999999999990905
 31
0.0
  0
LINE
  5
419
100
AcDbEntity
100
AcDbLine
  8
Chairs
 62
256
370
-1
  6
ByLayer
 10
4940.0
 20
7629.9999999999990905
 30
0.0
 11
4430.0
 21
7630.0000000000009095
 31
0.0
  0
LINE
  5
41A
100
AcDbEntity
100
AcDbLine
  8
Chairs
 62
256
370
-1
  6
ByLayer
 10
4430.0
 20
7630.0000000000009095
 30
0.0
 11
4430.0
 21
7530.0000000000027285
 31
0.0
  0
LINE
  5
41B
100
AcDbEntity
100
AcDbLine
  8
Chairs
 62
256
370
-1
  6
ByLayer
 10
4910.0
 20
7630.0000000000027285
 30
0.0
 11
4910.0
 21
8000.0000000000027285
 31
0.0
  0
LINE
  5
41C
100
AcDbEntity
100
AcDbLine
  8
Chairs
 62
256
370
-1
  6
ByLayer
 10
4460.0
 20
7630.0000000000009095
 30
0.0
 11
4460.0
 21
8000.0000000000009095
 31
0.0
  0
LINE
  5
41D
100
AcDbEntity
100
AcDbLine
  8
Chairs
 62
256
370
-1
  6
ByLayer
 10
4950.0
 20
7530.0000000000009095
 30
0.0
 11
5460.0
 21
7529.9999999999972715
 31
0.0
  0
LINE
  5
41E
100
AcDbEntity
100
AcDbLine
  8
Chairs
 62
256
370
-1
  6
ByLayer
 10
5460.0
 20
7529.9999999999972715
 30
0.0
 11
5460.0
 21
8000.0000000000009095
 31
0.0
  0
LINE
  5
41F
100
AcDbEntity
100
AcDbLine
  8
Chairs
 62
256
370
-1
  6
ByLayer
 10
5460.0
 20
8000.0000000000009095
 30
0.0
 11
4950.0
 21
8000.0000000000009095
 31
0.0
  0
LINE
  5
420
100
AcDbEntity
100
AcDbLine
  8
Chairs
 62
256
370
-1
  6
ByLayer
 10
4950.0
 20
8000.0000000000009095
 30
0.0
 11
4950.0
 21
7530.0000000000009095
 31
0.0
  0
LINE
  5
421
100
AcDbEntity
100
AcDbLine
  8
Chairs
 62
256
370
-1
  6
ByLayer
 10
4950.0
 20
7530.0000000000009095
 30
0.0
 11
5460.0
 21
7529.9999999999972715
 31
0.0
  0
LINE
  5
422
100
AcDbEntity
100
AcDbLine
  8
Chairs
 62
256
370
-1
  6
ByLayer
 10
5460.0
 20
7529.9999999999972715
 30
0.0
 11
5460.0
 21
7630.0000000000009095
 31
0.0
  0
LINE
  5
423
100
AcDbEntity
100
AcDbLine
  8
Chairs
 62
256
370
-1
  6
ByLayer
 10
5460.0
 20
7630.0000000000009095
 30
0.0
 11
4950.0
 21
7630.0000000000009095
 31
0.0
  0
LINE
  5
424
100
AcDbEntity
100
AcDbLine
  8
Chairs
 62
256
370
-1
  6
ByLayer
 10
4950.0
 20
7630.0000000000009095
 30
0.0
 11
4950.0
 21
7530.0000000000009095
 31
0.0
  0
LINE
  5
425
100
AcDbEntity
100
AcDbLine
  8
Chairs
 62
256
370
-1
  6
ByLayer
 10
5430.000000000001819
 20
7630.0000000000009095
 30
0.0
 11
5430.0
 21
8000.0000000000027285
 31
0.0
  0
LINE
  5
426
100
AcDbEntity
100
AcDbLine
  8
Chairs
 62
256
370
-1
  6
ByLayer
 10
4980.0
 20
7630.0000000000009095
 30
0.0
 11
4980.0
 21
8000.0000000000009095
 31
0.0
  0
LINE
  5
427
100
AcDbEntity
100
AcDbLine
  8
Chairs
 62
256
370
-1
  6
ByLayer
 10
5470.0
 20
7530.0000000000009095
 30
0.0
 11
5980.0
 21
7529.9999999999954525
 31
0.0
  0
LINE
  5
428
100
AcDbEntity
100
AcDbLine
  8
Chairs
 62
256
370
-1
  6
ByLayer
 10
5980.0
 20
7529.9999999999954525
 30
0.0
 11
5980.0
 21
8000.0000000000045475
 31
0.0
  0
LINE
  5
429
100
AcDbEntity
100
AcDbLine
  8
Chairs
 62
256
370
-1
  6
ByLayer
 10
5980.0
 20
8000.0000000000045475
 30
0.0
 11
5470.0
 21
7999.9999999999990905
 31
0.0
  0
LINE
  5
42A
100
AcDbEntity
100
AcDbLine
  8
Chairs
 62
256
370
-1
  6
ByLayer
 10
5470.0
 20
7999.9999999999990905
 30
0.0
 11
5470.0
 21
7530.0000000000009095
 31
0.0
  0
LINE
  5
42B
100
AcDbEntity
100
AcDbLine
  8
Chairs
 62
256
370
-1
  6
ByLayer
 10
5470.0
 20
7530.0000000000009095
 30
0.0
 11
5980.0
 21
7529.9999999999954525
 31
0.0
  0
LINE
  5
42C
100
AcDbEntity
100
AcDbLine
  8
Chairs
 62
256
370
-1
  6
ByLayer
 10
5980.0
 20
7529.9999999999954525
 30
0.0
 11
5980.0
 21
7630.0000000000009095
 31
0.0
  0
LINE
  5
42D
100
AcDbEntity
100
AcDbLine
  8
Chairs
 62
256
370
-1
  6
ByLayer
 10
5980.0
 20
7630.0000000000009095
 30
0.0
 11
5470.0
 21
7629.9999999999954525
 31
0.0
  0
LINE
  5
42E
100
AcDbEntity
100
AcDbLine
  8
Chairs
 62
256
370
-1
  6
ByLayer
 10
5470.0
 20
7629.9999999999954525
 30
0.0
 11
5470.0
 21
7530.0000000000009095
 31
0.0
  0
LINE
  5
42F
100
AcDbEntity
100
AcDbLine
  8
Chairs
 62
256
370
-1
  6
ByLayer
 10
5950.0
 20
7630.0000000000027285
 30
0.0
 11
5950.0
 21
8000.0000000000027285
 31
0.0
  0
LINE
  5
430
100
AcDbEntity
100
AcDbLine
  8
Chairs
 62
256
370
-1
  6
ByLayer
 10
5500.0
 20
7630.0000000000009095
 30
0.0
 11
5500.0
 21
8000.0000000000045475
 31
0.0
  0
LINE
  5
431
100
AcDbEntity
100
AcDbLine
  8
Marquee
 62
256
370
-1
  6
ByLayer
 10
0.0
 20
0.0
 30
0.0
 11
2600.0
 21
0.0
 31
0.0
  0
LINE
  5
432
100
AcDbEntity
100
AcDbLine
  8
Marquee
 62
256
370
-1
  6
ByLayer
 10
3400.0
 20
0.0
 30
0.0
 11
6000.0
 21
0.0
 31
0.0
  0
LINE
  5
433
100
AcDbEntity
100
AcDbLine
  8
Stage
 62
256
370
-1
  6
ByLayer
 10
560.0000000000004547
 20
8890.0
 30
0.0
 11
1780.0000000000004547
 21
8890.0
 31
0.0
  0
LINE
  5
434
100
AcDbEntity
100
AcDbLine
  8
Stage
 62
256
370
-1
  6
ByLayer
 10
560.0000000000004547
 20
10710.0
 30
0.0
 11
560.0000000000004547
 21
8890.0
 31
0.0
  0
LINE
  5
435
100
AcDbEntity
100
AcDbLine
  8
Stage
 62
256
370
-1
  6
ByLayer
 10
1780.0000000000004547
 20
8890.0
 30
0.0
 11
1780.0000000000006821
 21
10710.0
 31
0.0
  0
LINE
  5
436
100
AcDbEntity
100
AcDbLine
  8
Stage
 62
256
370
-1
  6
ByLayer
 10
1780.0000000000006821
 20
10710.0
 30
0.0
 11
560.0000000000004547
 21
10710.0
 31
0.0
  0
LINE
  5
437
100
AcDbEntity
100
AcDbLine
  8
Stage
 62
256
370
-1
  6
ByLayer
 10
1780.0000000000004547
 20
8890.0
 30
0.0
 11
3000.0
 21
8890.0
 31
0.0
  0
LINE
  5
438
100
AcDbEntity
100
AcDbLine
  8
Stage
 62
256
370
-1
  6
ByLayer
 10
1780.0000000000006821
 20
10710.0
 30
0.0
 11
1780.0000000000004547
 21
8890.0
 31
0.0
  0
LINE
  5
439
100
AcDbEntity
100
AcDbLine
  8
Stage
 62
256
370
-1
  6
ByLayer
 10
3000.0
 20
8890.0
 30
0.0
 11
3000.0000000000004547
 21
10710.0
 31
0.0
  0
LINE
  5
43A
100
AcDbEntity
100
AcDbLine
  8
Stage
 62
256
370
-1
  6
ByLayer
 10
3000.0000000000004547
 20
10710.0
 30
0.0
 11
1780.0000000000006821
 21
10710.0
 31
0.0
  0
LINE
  5
43B
100
AcDbEntity
100
AcDbLine
  8
Stage
 62
256
370
-1
  6
ByLayer
 10
3000.0
 20
8890.0
 30
0.0
 11
4219.9999999999990905
 21
8890.0
 31
0.0
  0
LINE
  5
43C
100
AcDbEntity
100
AcDbLine
  8
Stage
 62
256
370
-1
  6
ByLayer
 10
3000.0
 20
10710.0
 30
0.0
 11
3000.0
 21
8890.0
 31
0.0
  0
LINE
  5
43D
100
AcDbEntity
100
AcDbLine
  8
Stage
 62
256
370
-1
  6
ByLayer
 10
4219.9999999999990905
 20
8890.0
 30
0.0
 11
4220.0
 21
10710.0
 31
0.0
  0
LINE
  5
43E
100
AcDbEntity
100
AcDbLine
  8
Stage
 62
256
370
-1
  6
ByLayer
 10
4220.0
 20
10710.0
 30
0.0
 11
3000.0
 21
10710.0
 31
0.0
  0
LINE
  5
43F
100
AcDbEntity
100
AcDbLine
  8
Stage
 62
256
370
-1
  6
ByLayer
 10
4219.9999999999990905
 20
8890.0
 30
0.0
 11
5439.9999999999990905
 21
8889.999999999998181
 31
0.0
  0
LINE
  5
440
100
AcDbEntity
100
AcDbLine
  8
Stage
 62
256
370
-1
  6
ByLayer
 10
4220.0
 20
10710.0
 30
0.0
 11
4219.9999999999990905
 21
8890.0
 31
0.0
  0
LINE
  5
441
100
AcDbEntity
100
AcDbLine
  8
Stage
 62
256
370
-1
  6
ByLayer
 10
5439.9999999999990905
 20
8889.999999999998181
 30
0.0
 11
5440.0
 21
10710.0
 31
0.0
  0
LINE
  5
442
100
AcDbEntity
100
AcDbLine
  8
Stage
 62
256
370
-1
  6
ByLayer
 10
5440.0
 20
10710.0
 30
0.0
 11
4220.0
 21
10710.0
 31
0.0
  0
LINE
  5
443
100
AcDbEntity
100
AcDbLine
  8
Stage
 62
256
370
-1
  6
ByLayer
 10
700.0
 20
9100.0
 30
0.0
 11
700.0
 21
10600.0
 31
0.0
  0
LINE
  5
444
100
AcDbEntity
100
AcDbLine
  8
Stage
 62
256
370
-1
  6
ByLayer
 10
700.0
 20
10600.0
 30
0.0
 11
800.0
 21
10500.0
 31
0.0
  0
LINE
  5
445
100
AcDbEntity
100
AcDbLine
  8
Stage
 62
256
370
-1
  6
ByLayer
 10
700.0
 20
10600.0
 30
0.0
 11
600.0
 21
10500.0
 31
0.0
  0
LINE
  5
446
100
AcDbEntity
100
AcDbLine
  8
Stage
 62
256
370
-1
  6
ByLayer
 10
700.0
 20
9100.0
 30
0.0
 11
800.0
 21
9200.0
 31
0.0
  0
LINE
  5
447
100
AcDbEntity
100
AcDbLine
  8
Stage
 62
256
370
-1
  6
ByLayer
 10
700.0
 20
9100.0
 30
0.0
 11
600.0
 21
9200.0
 31
0.0
  0
LINE
  5
448
100
AcDbEntity
100
AcDbLine
  8
Stage
 62
256
370
-1
  6
ByLayer
 10
800.0
 20
9000.0
 30
0.0
 11
1600.0
 21
9000.0
 31
0.0
  0
LINE
  5
449
100
AcDbEntity
100
AcDbLine
  8
Stage
 62
256
370
-1
  6
ByLayer
 10
1600.0
 20
9000.0
 30
0.0
 11
1500.0
 21
9100.0
 31
0.0
  0
LINE
  5
44A
100
AcDbEntity
100
AcDbLine
  8
Stage
 62
256
370
-1
  6
ByLayer
 10
1600.0
 20
9000.0
 30
0.0
 11
1500.0
 21
8900.0
 31
0.0
  0
LINE
  5
44B
100
AcDbEntity
100
AcDbLine
  8
Stage
 62
256
370
-1
  6
ByLayer
 10
800.0
 20
9000.0
 30
0.0
 11
900.0
 21
8900.0
 31
0.0
  0
LINE
  5
44C
100
AcDbEntity
100
AcDbLine
  8
Stage
 62
256
370
-1
  6
ByLayer
 10
800.0
 20
9000.0
 30
0.0
 11
900.0
 21
9100.0
 31
0.0
  0
MTEXT
  5
44D
100
AcDbEntity
100
AcDbMText
  8
Stage
 62
256
370
-1
  6
ByLayer
 10
800.0
 20
10000.0
 30
0.0
 40
200.0
 41
100.0
 71
1
 72
0
  1
6'
  7
standard
 50
0.0
 73
1
 44
1.0
  0
MTEXT
  5
44E
100
AcDbEntity
100
AcDbMText
  8
Stage
 62
256
370
-1
  6
ByLayer
 10
1200.0
 20
9300.0
 30
0.0
 40
200.0
 41
100.0
 71
1
 72
0
  1
4'
  7
standard
 50
0.0
 73
1
 44
1.0
  0
ENDSEC
  0
SECTION
  2
OBJECTS
  0
DICTIONARY
  5
C
100
AcDbDictionary
280
0
281
1
  3
ACAD_GROUP
350
D
  3
ACAD_LAYOUT
350
1A
  3
ACAD_MLINESTYLE
350
17
  3
ACAD_PLOTSETTINGS
350
19
  3
ACAD_PLOTSTYLENAME
350
E
  3
AcDbVariableDictionary
350
44F
  0
DICTIONARY
  5
D
100
AcDbDictionary
280
0
281
1
  0
ACDBDICTIONARYWDFLT
  5
E
100
AcDbDictionary
281
1
  3
Normal
350
F
100
AcDbDictionaryWithDefault
340
F
  0
ACDBPLACEHOLDER
  5
F
  0
DICTIONARY
  5
17
100
AcDbDictionary
280
0
281
1
  3
Standard
350
18
  0
MLINESTYLE
  5
18
100
AcDbMlineStyle
  2
STANDARD
 70
0
  3

 62
256
 51
90.0
 52
90.0
 71
2
 49
0.5
 62
256
  6
BYLAYER
 49
-0.5
 62
256
  6
BYLAYER
  0
DICTIONARY
  5
19
100
AcDbDictionary
280
0
281
1
  0
DICTIONARY
  5
1A
100
AcDbDictionary
281
1
  3
Layout1
350
1E
  3
Layout2
350
26
  3
Model
350
22
  0
LAYOUT
  5
1E
100
AcDbPlotSettings
  1

  2
C:\Program Files\AutoCAD 2002\plotters\DWF ePlot (optimized for plotting).pc3
  4

  6

 40
0.0
 41
0.0
 42
0.0
 43
0.0
 44
0.0
 45
0.0
 46
0.0
 47
0.0
 48
0.0
 49
0.0
140
0.0
141
0.0
142
1.0
143
1.0
 70
688
 72
0
 73
0
 74
5
  7

 75
16
147
1.0
148
0.0
149
0.0
100
AcDbLayout
  1
Layout1
 70
1
 71
1
 10
0.0
 20
0.0
 11
420.0
 21
297.0
 12
0.0
 22
0.0
 32
0.0
 14
100000000000000000000.0
 24
100000000000000000000.0
 34
100000000000000000000.0
 15
-100000000000000000000.0
 25
-100000000000000000000.0
 35
-100000000000000000000.0
146
0.0
 13
0.0
 23
0.0
 33
0.0
 16
1.0
 26
0.0
 36
0.0
 17
0.0
 27
1.0
 37
0.0
 76
0
330
1B
  0
LAYOUT
  5
22
100
AcDbPlotSettings
  1

  2
C:\Program Files\AutoCAD 2002\plotters\DWF ePlot (optimized for plotting).pc3
  4

  6

 40
0.0
 41
0.0
 42
0.0
 43
0.0
 44
0.0
 45
0.0
 46
0.0
 47
0.0
 48
0.0
 49
0.0
140
0.0
141
0.0
142
1.0
143
1.0
 70
1712
 72
0
 73
0
 74
0
  7

 75
0
147
1.0
148
0.0
149
0.0
100
AcDbLayout
  1
Model
 70
1
 71
0
 10
0.0
 20
0.0
 11
12.0
 21
9.0
 12
0.0
 22
0.0
 32
0.0
 14
0.0
 24
0.0
 34
0.0
 15
0.0
 25
0.0
 35
0.0
146
0.0
 13
0.0
 23
0.0
 33
0.0
 16
1.0
 26
0.0
 36
0.0
 17
0.0
 27
1.0
 37
0.0
 76
0
330
1F
  0
LAYOUT
  5
26
100
AcDbPlotSettings
  1

  2
C:\Program Files\AutoCAD 2002\plotters\DWF ePlot (optimized for plotting).pc3
  4

  6

 40
0.0
 41
0.0
 42
0.0
 43
0.0
 44
0.0
 45
0.0
 46
0.0
 47
0.0
 48
0.0
 49
0.0
140
0.0
141
0.0
142
1.0
143
1.0
 70
688
 72
0
 73
0
 74
5
  7

 75
16
147
1.0
148
0.0
149
0.0
100
AcDbLayout
  1
Layout2
 70
1
 71
2
 10
0.0
 20
0.0
 11
12.0
 21
9.0
 12
0.0
 22
0.0
 32
0.0
 14
0.0
 24
0.0
 34
0.0
 15
0.0
 25
0.0
 35
0.0
146
0.0
 13
0.0
 23
0.0
 33
0.0
 16
1.0
 26
0.0
 36
0.0
 17
0.0
 27
1.0
 37
0.0
 76
0
330
23
  0
DICTIONARY
  5
44F
100
AcDbDictionary
281
1
  3
DIMASSOC
350
451
  3
HIDETEXT
350
450
  0
DICTIONARYVAR
  5
450
100
DictionaryVariables
280
0
  1
2
  0
DICTIONARYVAR
  5
451
100
DictionaryVariables
280
0
  1
1
  0
ENDSEC
  0
EOF
