  0
SECTION
  2
HEADER
  9
$ACADVER
  1
AC1018
  9
$ACADMAINTVER
 70
     0
  9
$DWGCODEPAGE
  3
ANSI_1252
  9
$INSBASE
 10
0.0
 20
0.0
 30
0.0
  9
$EXTMIN
 10
30.0
 20
49.75
 30
0.0
  9
$EXTMAX
 10
130.5
 20
163.1318914119703
 30
0.0
  9
$LIMMIN
 10
0.0
 20
0.0
  9
$LIMMAX
 10
12.0
 20
9.0
  9
$ORTHOMODE
 70
     0
  9
$REGENMODE
 70
     1
  9
$FILLMODE
 70
     1
  9
$QTEXTMODE
 70
     0
  9
$MIRRTEXT
 70
     1
  9
$LTSCALE
 40
1.0
  9
$ATTMODE
 70
     1
  9
$TEXTSIZE
 40
0.2
  9
$TRACEWID
 40
0.05
  9
$TEXTSTYLE
  7
Standard
  9
$CLAYER
  8
0
  9
$CELTYPE
  6
ByLayer
  9
$CECOLOR
 62
   256
  9
$CELTSCALE
 40
1.0
  9
$DISPSILH
 70
     0
  9
$DIMSCALE
 40
1.0
  9
$DIMASZ
 40
0.18
  9
$DIMEXO
 40
0.0625
  9
$DIMDLI
 40
0.38
  9
$DIMRND
 40
0.0
  9
$DIMDLE
 40
0.0
  9
$DIMEXE
 40
0.18
  9
$DIMTP
 40
0.0
  9
$DIMTM
 40
0.0
  9
$DIMTXT
 40
0.18
  9
$DIMCEN
 40
0.09
  9
$DIMTSZ
 40
0.0
  9
$DIMTOL
 70
     0
  9
$DIMLIM
 70
     0
  9
$DIMTIH
 70
     1
  9
$DIMTOH
 70
     1
  9
$DIMSE1
 70
     0
  9
$DIMSE2
 70
     0
  9
$DIMTAD
 70
     0
  9
$DIMZIN
 70
     0
  9
$DIMBLK
  1

  9
$DIMASO
 70
     1
  9
$DIMSHO
 70
     1
  9
$DIMPOST
  1

  9
$DIMAPOST
  1

  9
$DIMALT
 70
     0
  9
$DIMALTD
 70
     2
  9
$DIMALTF
 40
25.4
  9
$DIMLFAC
 40
1.0
  9
$DIMTOFL
 70
     0
  9
$DIMTVP
 40
0.0
  9
$DIMTIX
 70
     0
  9
$DIMSOXD
 70
     0
  9
$DIMSAH
 70
     0
  9
$DIMBLK1
  1

  9
$DIMBLK2
  1

  9
$DIMSTYLE
  2
Standard
  9
$DIMCLRD
 70
     0
  9
$DIMCLRE
 70
     0
  9
$DIMCLRT
 70
     0
  9
$DIMTFAC
 40
1.0
  9
$DIMGAP
 40
0.09
  9
$DIMJUST
 70
     0
  9
$DIMSD1
 70
     0
  9
$DIMSD2
 70
     0
  9
$DIMTOLJ
 70
     1
  9
$DIMTZIN
 70
     0
  9
$DIMALTZ
 70
     0
  9
$DIMALTTZ
 70
     0
  9
$DIMUPT
 70
     0
  9
$DIMDEC
 70
     4
  9
$DIMTDEC
 70
     4
  9
$DIMALTU
 70
     2
  9
$DIMALTTD
 70
     2
  9
$DIMTXSTY
  7
Standard
  9
$DIMAUNIT
 70
     0
  9
$DIMADEC
 70
     0
  9
$DIMALTRND
 40
0.0
  9
$DIMAZIN
 70
     0
  9
$DIMDSEP
 70
    46
  9
$DIMATFIT
 70
     3
  9
$DIMFRAC
 70
     0
  9
$DIMLDRBLK
  1

  9
$DIMLUNIT
 70
     2
  9
$DIMLWD
 70
    -2
  9
$DIMLWE
 70
    -2
  9
$DIMTMOVE
 70
     0
  9
$LUNITS
 70
     2
  9
$LUPREC
 70
     4
  9
$SKETCHINC
 40
0.1
  9
$FILLETRAD
 40
0.5
  9
$AUNITS
 70
     0
  9
$AUPREC
 70
     0
  9
$MENU
  1
.
  9
$ELEVATION
 40
0.0
  9
$PELEVATION
 40
0.0
  9
$THICKNESS
 40
0.0
  9
$LIMCHECK
 70
     0
  9
$CHAMFERA
 40
0.5
  9
$CHAMFERB
 40
0.5
  9
$CHAMFERC
 40
1.0
  9
$CHAMFERD
 40
0.0
  9
$SKPOLY
 70
     0
  9
$TDCREATE
 40
2455343.56230316
  9
$TDUCREATE
 40
2455343.728969826
  9
$TDUPDATE
 40
2455343.562303171
  9
$TDUUPDATE
 40
2455343.728969838
  9
$TDINDWG
 40
0.0000000116
  9
$TDUSRTIMER
 40
0.0000000116
  9
$USRTIMER
 70
     1
  9
$ANGBASE
 50
0.0
  9
$ANGDIR
 70
     0
  9
$PDMODE
 70
     0
  9
$PDSIZE
 40
0.0
  9
$PLINEWID
 40
0.0
  9
$SPLFRAME
 70
     0
  9
$SPLINETYPE
 70
     6
  9
$SPLINESEGS
 70
     8
  9
$HANDSEED
  5
44
  9
$SURFTAB1
 70
     6
  9
$SURFTAB2
 70
     6
  9
$SURFTYPE
 70
     6
  9
$SURFU
 70
     6
  9
$SURFV
 70
     6
  9
$UCSBASE
  2

  9
$UCSNAME
  2

  9
$UCSORG
 10
0.0
 20
0.0
 30
0.0
  9
$UCSXDIR
 10
1.0
 20
0.0
 30
0.0
  9
$UCSYDIR
 10
0.0
 20
1.0
 30
0.0
  9
$UCSORTHOREF
  2

  9
$UCSORTHOVIEW
 70
     0
  9
$UCSORGTOP
 10
0.0
 20
0.0
 30
0.0
  9
$UCSORGBOTTOM
 10
0.0
 20
0.0
 30
0.0
  9
$UCSORGLEFT
 10
0.0
 20
0.0
 30
0.0
  9
$UCSORGRIGHT
 10
0.0
 20
0.0
 30
0.0
  9
$UCSORGFRONT
 10
0.0
 20
0.0
 30
0.0
  9
$UCSORGBACK
 10
0.0
 20
0.0
 30
0.0
  9
$PUCSBASE
  2

  9
$PUCSNAME
  2

  9
$PUCSORG
 10
0.0
 20
0.0
 30
0.0
  9
$PUCSXDIR
 10
1.0
 20
0.0
 30
0.0
  9
$PUCSYDIR
 10
0.0
 20
1.0
 30
0.0
  9
$PUCSORTHOREF
  2

  9
$PUCSORTHOVIEW
 70
     0
  9
$PUCSORGTOP
 10
0.0
 20
0.0
 30
0.0
  9
$PUCSORGBOTTOM
 10
0.0
 20
0.0
 30
0.0
  9
$PUCSORGLEFT
 10
0.0
 20
0.0
 30
0.0
  9
$PUCSORGRIGHT
 10
0.0
 20
0.0
 30
0.0
  9
$PUCSORGFRONT
 10
0.0
 20
0.0
 30
0.0
  9
$PUCSORGBACK
 10
0.0
 20
0.0
 30
0.0
  9
$USERI1
 70
     0
  9
$USERI2
 70
     0
  9
$USERI3
 70
     0
  9
$USERI4
 70
     0
  9
$USERI5
 70
     0
  9
$USERR1
 40
0.0
  9
$USERR2
 40
0.0
  9
$USERR3
 40
0.0
  9
$USERR4
 40
0.0
  9
$USERR5
 40
0.0
  9
$WORLDVIEW
 70
     1
  9
$SHADEDGE
 70
     3
  9
$SHADEDIF
 70
    70
  9
$TILEMODE
 70
     1
  9
$MAXACTVP
 70
    64
  9
$PINSBASE
 10
0.0
 20
0.0
 30
0.0
  9
$PLIMCHECK
 70
     0
  9
$PEXTMIN
 10
1.000000000000000E+20
 20
1.000000000000000E+20
 30
1.000000000000000E+20
  9
$PEXTMAX
 10
-1.000000000000000E+20
 20
-1.000000000000000E+20
 30
-1.000000000000000E+20
  9
$PLIMMIN
 10
0.0
 20
0.0
  9
$PLIMMAX
 10
12.0
 20
9.0
  9
$UNITMODE
 70
     0
  9
$VISRETAIN
 70
     1
  9
$PLINEGEN
 70
     0
  9
$PSLTSCALE
 70
     1
  9
$TREEDEPTH
 70
  3020
  9
$CMLSTYLE
  2
Standard
  9
$CMLJUST
 70
     0
  9
$CMLSCALE
 40
1.0
  9
$PROXYGRAPHICS
 70
     1
  9
$MEASUREMENT
 70
     0
  9
$CELWEIGHT
370
    -1
  9
$ENDCAPS
280
     0
  9
$JOINSTYLE
280
     0
  9
$LWDISPLAY
290
     0
  9
$INSUNITS
 70
     1
  9
$HYPERLINKBASE
  1

  9
$STYLESHEET
  1

  9
$XEDIT
290
     1
  9
$CEPSNTYPE
380
     0
  9
$PSTYLEMODE
290
     1
  9
$FINGERPRINTGUID
  2
{E7F7769E-AACA-40AB-9EF3-61BBAFBCBA26}
  9
$VERSIONGUID
  2
{FAEB1C32-E019-11D5-929B-00C0DF256EC4}
  9
$EXTNAMES
290
     1
  9
$PSVPSCALE
 40
0.0
  9
$OLESTARTUP
290
     0
  9
$SORTENTS
280
   127
  9
$INDEXCTL
280
     0
  9
$HIDETEXT
280
     1
  9
$XCLIPFRAME
290
     0
  9
$HALOGAP
280
     0
  9
$OBSCOLOR
 70
   257
  9
$OBSLTYPE
280
     0
  9
$INTERSECTIONDISPLAY
280
     0
  9
$INTERSECTIONCOLOR
 70
   257
  9
$DIMASSOC
280
     2
  9
$PROJECTNAME
  1

  0
ENDSEC
  0
SECTION
  2
CLASSES
  0
CLASS
  1
ACDBDICTIONARYWDFLT
  2
AcDbDictionaryWithDefault
  3
ObjectDBX Classes
 90
        0
 91
        4
280
     0
281
     0
  0
CLASS
  1
VISUALSTYLE
  2
AcDbVisualStyle
  3
ObjectDBX Classes
 90
     4095
 91
        4
280
     0
281
     0
  0
ENDSEC
  0
SECTION
  2
TABLES
  0
TABLE
  2
VPORT
  5
8
330
0
100
AcDbSymbolTable
 70
     1
  0
VPORT
  5
29
330
8
100
AcDbSymbolTableRecord
100
AcDbViewportTableRecord
  2
*Active
 70
     0
 10
0.0
 20
0.0
 11
1.0
 21
1.0
 12
80.25
 22
106.4409457059851
 13
0.0
 23
0.0
 14
0.5
 24
0.5
 15
0.5
 25
0.5
 16
0.0
 26
0.0
 36
1.0
 17
0.0
 27
0.0
 37
0.0
 40
113.3818914119703
 41
0.8863849310366128
 42
50.0
 43
0.0
 44
0.0
 50
0.0
 51
0.0
 71
     0
 72
  1000
 73
     1
 74
     3
 75
     0
 76
     0
 77
     0
 78
     0
281
     0
 65
     1
110
0.0
120
0.0
130
0.0
111
1.0
121
0.0
131
0.0
112
0.0
122
1.0
132
0.0
 79
     0
146
0.0
  0
ENDTAB
  0
TABLE
  2
LTYPE
  5
5
330
0
100
AcDbSymbolTable
 70
     1
  0
LTYPE
  5
14
330
5
100
AcDbSymbolTableRecord
100
AcDbLinetypeTableRecord
  2
ByBlock
 70
     0
  3

 72
    65
 73
     0
 40
0.0
  0
LTYPE
  5
15
330
5
100
AcDbSymbolTableRecord
100
AcDbLinetypeTableRecord
  2
ByLayer
 70
     0
  3

 72
    65
 73
     0
 40
0.0
  0
LTYPE
  5
16
330
5
100
AcDbSymbolTableRecord
100
AcDbLinetypeTableRecord
  2
Continuous
 70
     0
  3
Solid line
 72
    65
 73
     0
 40
0.0
  0
ENDTAB
  0
TABLE
  2
LAYER
  5
2
330
0
100
AcDbSymbolTable
 70
     1
  0
LAYER
  5
10
330
2
100
AcDbSymbolTableRecord
100
AcDbLayerTableRecord
  2
0
 70
     0
 62
     7
  6
Continuous
370
    -3
390
F
  0
ENDTAB
  0
TABLE
  2
STYLE
  5
3
330
0
100
AcDbSymbolTable
 70
     1
  0
STYLE
  5
11
330
3
100
AcDbSymbolTableRecord
100
AcDbTextStyleTableRecord
  2
Standard
 70
     0
 40
0.0
 41
1.0
 50
0.0
 71
     0
 42
0.2
  3
txt
  4

  0
ENDTAB
  0
TABLE
  2
VIEW
  5
6
330
0
100
AcDbSymbolTable
 70
     0
  0
ENDTAB
  0
TABLE
  2
UCS
  5
7
330
0
100
AcDbSymbolTable
 70
     0
  0
ENDTAB
  0
TABLE
  2
APPID
  5
9
330
0
100
AcDbSymbolTable
 70
     1
  0
APPID
  5
12
330
9
100
AcDbSymbolTableRecord
100
AcDbRegAppTableRecord
  2
ACAD
 70
     0
  0
ENDTAB
  0
TABLE
  2
DIMSTYLE
  5
A
330
0
100
AcDbSymbolTable
 70
     1
100
AcDbDimStyleTable
  0
DIMSTYLE
105
27
330
A
100
AcDbSymbolTableRecord
100
AcDbDimStyleTableRecord
  2
Standard
 70
     0
340
11
  0
ENDTAB
  0
TABLE
  2
BLOCK_RECORD
  5
1
330
0
100
AcDbSymbolTable
 70
     1
  0
BLOCK_RECORD
  5
1F
330
1
100
AcDbSymbolTableRecord
100
AcDbBlockTableRecord
  2
*Model_Space
340
22
  0
BLOCK_RECORD
  5
1B
330
1
100
AcDbSymbolTableRecord
100
AcDbBlockTableRecord
  2
*Paper_Space
340
1E
  0
BLOCK_RECORD
  5
23
330
1
100
AcDbSymbolTableRecord
100
AcDbBlockTableRecord
  2
*Paper_Space0
340
26
  0
ENDTAB
  0
ENDSEC
  0
SECTION
  2
BLOCKS
  0
BLOCK
  5
20
330
1F
100
AcDbEntity
  8
0
100
AcDbBlockBegin
  2
*Model_Space
 70
     0
 10
0.0
 20
0.0
 30
0.0
  3
*Model_Space
  1

  0
ENDBLK
  5
21
330
1F
100
AcDbEntity
  8
0
100
AcDbBlockEnd
  0
BLOCK
  5
1C
330
1B
100
AcDbEntity
 67
     1
  8
0
100
AcDbBlockBegin
  2
*Paper_Space
 70
     0
 10
0.0
 20
0.0
 30
0.0
  3
*Paper_Space
  1

  0
ENDBLK
  5
1D
330
1B
100
AcDbEntity
 67
     1
  8
0
100
AcDbBlockEnd
  0
BLOCK
  5
24
330
23
100
AcDbEntity
  8
0
100
AcDbBlockBegin
  2
*Paper_Space0
 70
     0
 10
0.0
 20
0.0
 30
0.0
  3
*Paper_Space0
  1

  0
ENDBLK
  5
25
330
23
100
AcDbEntity
  8
0
100
AcDbBlockEnd
  0
ENDSEC
  0
SECTION
  2 
ENTITIES
  0
LWPOLYLINE
  5
50
  8
0
100
AcDbEntity
100
AcDbPolyline
 70
0
 90
28
 10
488480.38327727
 20
241360.034958679
 10
488728.250906544
 20
241195.620515658
 10
488816.206799724
 20
241140.101178074
 10
488825.373523311
 20
241164.073186401
 10
488826.306169642
 20
241176.005286248
 10
488793.043450246
 20
241232.431371583
 10
488781.367344966
 20
241276.213951579
 10
488774.456221641
 20
241358.954134787
 10
488762.785447273
 20
241422.874131198
 10
488752.396189342
 20
241522.674681859
 10
488706.296212656
 20
241615.164383818
 10
488687.547758141
 20
241629.516577994
 10
488665.106382945
 20
241630.986505795
 10
488639.297245968
 20
241627.501406187
 10
488619.816079243
 20
241630.626251663
 10
488580.345118199
 20
241636.177346955
 10
488614.198566432
 20
241616.063165218
 10
488631.402091907
 20
241610.305547132
 10
488637.041660966
 20
241593.928847897
 10
488638.286671902
 20
241577.896792282
 10
488644.367573734
 20
241562.540373485
 10
488652.270455303
 20
241523.774792994
 10
488650.148247846
 20
241507.382476657
 10
488618.142145501
 20
241473.281028648
 10
488582.502696427
 20
241448.749979238
 10
488531.699936816
 20
241421.613552483
 10
488511.564849491
 20
241397.413994151
 10
488480.38327727
 20
241360.034958679
  0
LWPOLYLINE
  5
51
  8
0
100
AcDbEntity
100
AcDbPolyline
 70
0
 90
93
 10
488102.075716486
 20
240993.647613172
 10
488080.557760477
 20
240959.000878298
 10
487996.797182964
 20
241022.317057636
 10
487922.542502616
 20
241160.743642834
 10
487775.05290199
 20
241113.520740707
 10
487777.747247746
 20
241194.584083937
 10
487778.889165676
 20
241229.827532934
 10
487827.953860311
 20
241251.240353551
 10
487849.87104247
 20
241276.870245649
 10
487845.958021914
 20
241331.994958724
 10
487798.004984688
 20
241347.582695392
 10
487788.175712269
 20
241341.51310125
 10
487754.922687689
 20
241320.990817244
 10
487740.034955525
 20
241297.25399797
 10
487719.068263699
 20
241251.092522351
 10
487711.277991338
 20
241192.246212073
 10
487642.481250632
 20
241255.608872662
 10
487624.261596525
 20
241287.58596567
 10
487445.150909288
 20
241274.951474613
 10
487443.410014129
 20
241325.341640062
 10
487412.53297082
 20
241380.817030734
 10
487371.092271624
 20
241383.717575061
 10
487337.016690437
 20
241357.231573801
 10
487335.203072912
 20
241334.715213081
 10
487334.795909313
 20
241270.658704573
 10
487307.966277516
 20
241267.351841046
 10
487306.768074566
 20
241118.816905125
 10
487347.514861815
 20
241127.073588079
 10
487378.31164234
 20
241048.433145616
 10
487270.200667825
 20
240902.698697469
 10
487221.364950309
 20
240935.309676045
 10
487177.390749917
 20
240900.129665522
 10
487111.069881677
 20
240847.070433539
 10
486961.965589221
 20
240790.45401705
 10
486932.82898069
 20
240808.781390751
 10
486927.441308191
 20
240812.16973757
 10
486892.757197147
 20
240877.316631058
 10
486849.615056718
 20
240887.134246457
 10
486818.489407574
 20
240849.600175349
 10
486815.422068195
 20
240806.76947015
 10
486814.698984661
 20
240796.699487719
 10
486869.241827085
 20
240774.163497762
 10
486974.958693865
 20
240720.223162913
 10
487030.636691732
 20
240633.125474225
 10
487045.707264733
 20
240545.319456194
 10
487274.030707946
 20
240616.830169638
 10
487283.211737588
 20
240540.536672348
 10
487295.974688596
 20
240472.772363215
 10
487324.310568089
 20
240367.576535632
 10
487352.685941006
 20
240360.441359067
 10
487583.805369859
 20
240407.361041564
 10
487593.28851217
 20
240368.043262315
 10
487596.498815716
 20
240354.737946033
 10
487563.884414133
 20
240301.319240434
 10
487523.41139837
 20
240259.500236875
 10
487510.803353435
 20
240206.433028705
 10
487519.427048541
 20
240150.801236853
 10
487373.857779992
 20
240093.055744338
 10
487384.197917754
 20
240040.37982819
 10
487404.411981683
 20
240028.996632702
 10
487406.726373448
 20
239997.908153149
 10
487395.158543134
 20
239985.968106259
 10
487406.832646214
 20
239924.515368424
 10
487431.237316357
 20
239875.612776858
 10
487501.90905668
 20
239773.496414822
 10
487524.205488128
 20
239777.992856568
 10
487539.230148969
 20
239760.644883043
 10
487536.618002391
 20
239741.80813933
 10
487585.807563316
 20
239689.814454811
 10
487631.982123359
 20
239608.408163583
 10
487642.997979993
 20
239551.049644093
 10
487681.113773058
 20
239531.738061144
 10
487870.558121936
 20
239501.027249138
 10
488047.011676302
 20
239511.180721218
 10
488302.425253585
 20
239550.929458836
 10
488359.251124173
 20
239567.210935737
 10
488358.882776585
 20
239591.88079537
 10
488352.071879405
 20
239976.413702667
 10
488348.093347462
 20
240001.598159932
 10
488291.275056004
 20
240085.14604064
 10
488254.046193096
 20
240259.480422593
 10
488260.779198183
 20
240340.61558652
 10
488324.65563802
 20
240390.476165256
 10
488347.600969876
 20
240424.359272695
 10
488271.44251806
 20
240735.960626674
 10
488251.264709695
 20
241011.549973721
 10
488248.797435974
 20
241084.311782047
 10
488229.550109496
 20
241070.631666397
 10
488207.829793205
 20
241049.43152608
 10
488160.807026678
 20
241012.953746058
 10
488124.546938502
 20
241004.992203205
 10
488106.259437726
 20
241013.413705933
 10
488102.075716486
 20
240993.647613172
  0
LWPOLYLINE
  5
52
  8
0
100
AcDbEntity
100
AcDbPolyline
 70
0
 90
54
 10
487111.727825232
 20
241382.505842771
 10
487232.41045235
 20
241446.184186897
 10
487336.420990651
 20
241489.102582048
 10
487421.121197048
 20
241424.835394379
 10
487430.049429961
 20
241452.583155391
 10
487409.350000268
 20
241525.603922125
 10
487604.361445083
 20
241580.682397664
 10
487786.479168609
 20
241666.069984155
 10
487870.954706032
 20
241614.734241623
 10
487945.999928576
 20
241564.390580301
 10
488016.625169976
 20
241564.468737042
 10
488077.440988592
 20
241519.750090296
 10
488149.446944653
 20
241441.775517304
 10
488185.632623924
 20
241392.50627684
 10
488216.085908103
 20
241334.346683984
 10
488246.323507261
 20
241222.15785028
 10
488249.642071908
 20
241115.244583714
 10
488211.630068405
 20
241116.429936852
 10
488173.576453333
 20
241092.04838221
 10
488147.439727509
 20
241099.552148761
 10
488143.761595841
 20
241156.716832702
 10
488095.141993545
 20
241184.261059397
 10
488069.231176876
 20
241179.397631117
 10
488048.466978558
 20
241161.129961423
 10
488036.791397186
 20
241132.620482347
 10
488048.531616069
 20
241090.673186938
 10
488079.562944386
 20
241066.567080266
 10
488087.993842759
 20
241027.198161899
 10
488102.342603565
 20
240995.232152519
 10
488083.604247602
 20
240965.896885449
 10
488008.4316387
 20
241028.31878029
 10
487931.908091485
 20
241162.010221626
 10
487775.05290199
 20
241113.520740707
 10
487782.424324341
 20
241228.065186578
 10
487834.898983728
 20
241255.990905534
 10
487853.378763099
 20
241276.275644853
 10
487845.958021914
 20
241331.994958724
 10
487788.175712269
 20
241341.51310125
 10
487754.922687689
 20
241320.990817244
 10
487730.130165163
 20
241256.493878691
 10
487721.36049437
 20
241185.892913404
 10
487642.481250632
 20
241255.608872662
 10
487624.261596525
 20
241287.58596567
 10
487450.979425525
 20
241275.354085899
 10
487440.742682933
 20
241337.455016863
 10
487420.693315215
 20
241381.972523078
 10
487367.604266605
 20
241388.674045979
 10
487331.806862288
 20
241349.307980917
 10
487327.151963196
 20
241278.768799877
 10
487172.48417779
 20
241270.610841027
 10
487143.828617244
 20
241264.269066198
 10
487120.888779966
 20
241295.78714909
 10
487157.571762903
 20
241318.734802885
 10
487111.727825232
 20
241382.505842771
  0
LWPOLYLINE
  5
53
  8
0
100
AcDbEntity
100
AcDbPolyline
 70
0
 90
6
 10
488422.33744069
 20
241134.547321641
 10
488391.56941248
 20
241150.300716993
 10
488369.444827704
 20
241106.696961933
 10
488413.59734538
 20
241082.536185446
 10
488438.714727192
 20
241126.348981293
 10
488422.33744069
 20
241134.547321641
  0
LWPOLYLINE
  5
54
  8
0
100
AcDbEntity
100
AcDbPolyline
 70
0
 90
161
 10
488118.972403385
 20
240454.592247521
 10
488114.157303806
 20
240443.359411816
 10
488106.655463132
 20
240432.02348963
 10
488098.390423339
 20
240427.39390663
 10
488090.7158997
 20
240420.783301642
 10
488085.416683174
 20
240416.762401669
 10
488076.949726422
 20
240414.243136065
 10
488070.513008411
 20
240412.494019225
 10
488062.640384911
 20
240410.107654022
 10
488057.611102369
 20
240410.219114004
 10
488054.911771963
 20
240411.606645978
 10
488053.132347114
 20
240413.722452705
 10
488052.378061959
 20
240415.656099539
 10
488049.919824211
 20
240418.538708498
 10
488048.103255798
 20
240418.873780083
 10
488043.635091212
 20
240417.504342088
 10
488040.315416276
 20
240417.51249349
 10
488037.411958521
 20
240419.196820023
 10
488033.575429537
 20
240421.287447546
 10
488030.397792936
 20
240421.019974984
 10
488027.747355885
 20
240419.638133441
 10
488025.767765039
 20
240415.60913769
 10
488022.315741153
 20
240413.400989716
 10
488018.945375222
 20
240412.006447187
 10
488015.03328517
 20
240412.549310248
 10
488010.880961143
 20
240415.046025806
 10
488004.050904935
 20
240418.09627206
 10
487992.290776737
 20
240425.743381285
 10
487979.329270531
 20
240432.67954331
 10
487976.3516411
 20
240432.738272847
 10
487971.05760636
 20
240429.974769778
 10
487955.564753641
 20
240428.778104155
 10
487949.440084111
 20
240426.834388446
 10
487942.650098657
 20
240427.226429441
 10
487934.524681609
 20
240427.895322562
 10
487922.859934754
 20
240432.863028482
 10
487915.531993338
 20
240435.759985237
 10
487909.538488573
 20
240439.993282426
 10
487909.691429026
 20
240444.156914626
 10
487913.752284038
 20
240449.179341573
 10
487913.796880226
 20
240454.041970686
 10
487912.5546354
 20
240459.148928401
 10
487906.895994062
 20
240459.560959225
 10
487901.075715137
 20
240462.139619774
 10
487900.635114228
 20
240464.95773085
 10
487896.186477639
 20
240469.874675481
 10
487891.253086369
 20
240466.883977637
 10
487883.099947456
 20
240464.84896826
 10
487873.285000954
 20
240466.433855256
 10
487862.845160403
 20
240466.895202923
 10
487820.260924755
 20
240471.96380534
 10
487798.935061409
 20
240475.638010962
 10
487784.394242304
 20
240479.976878159
 10
487775.774940812
 20
240484.164114613
 10
487768.61527392
 20
240489.200338831
 10
487763.214727363
 20
240492.876842162
 10
487763.305547755
 20
240500.577279579
 10
487754.83721232
 20
240509.050521084
 10
487740.258148921
 20
240514.011867909
 10
487720.940354373
 20
240522.461186661
 10
487696.234658255
 20
240532.707167174
 10
487684.976277459
 20
240543.456689963
 10
487674.157745408
 20
240554.93712599
 10
487663.531503665
 20
240562.894185533
 10
487665.381490687
 20
240573.918683883
 10
487661.834464914
 20
240589.598896921
 10
487662.651297876
 20
240605.556075885
 10
487654.425089052
 20
240615.491174273
 10
487647.383383671
 20
240639.198202673
 10
487643.976303203
 20
240669.944794386
 10
487658.110193682
 20
240699.642372677
 10
487653.795964669
 20
240714.886337557
 10
487657.051169048
 20
240736.871890251
 10
487654.512886444
 20
240781.006587947
 10
487657.624826854
 20
240825.574369867
 10
487661.954070994
 20
240857.847639511
 10
487671.483989681
 20
240882.958526775
 10
487671.268015318
 20
240898.363535555
 10
487681.444075326
 20
240905.440257981
 10
487693.335895909
 20
240916.340967804
 10
487697.722215721
 20
240933.651496124
 10
487702.320841499
 20
240951.366281421
 10
487709.283126142
 20
240963.359640049
 10
487713.657233985
 20
240973.171387472
 10
487716.82426392
 20
240979.090233164
 10
487728.861741179
 20
240978.578838604
 10
487742.252579664
 20
240981.829453618
 10
487752.118716614
 20
240990.914590836
 10
487757.46126235
 20
240996.7382432
 10
487762.030127956
 20
241005.607797228
 10
487768.640505039
 20
241008.360887519
 10
487774.980398657
 20
241014.012981165
 10
487775.059600056
 20
241021.980233625
 10
487776.144390525
 20
241027.361820263
 10
487783.754077678
 20
241030.610919188
 10
487791.997234255
 20
241039.166921822
 10
487801.736619297
 20
241044.144621801
 10
487808.428590272
 20
241039.534120849
 10
487821.612177006
 20
241045.974325541
 10
487834.758717067
 20
241050.622707299
 10
487839.591636337
 20
241056.949249081
 10
487848.66440691
 20
241059.278555418
 10
487856.445978981
 20
241062.108027209
 10
487871.811890955
 20
241064.559386203
 10
487882.036358487
 20
241066.909049903
 10
487900.004629578
 20
241067.225762597
 10
487902.564646099
 20
241057.380313546
 10
487913.069853118
 20
241046.918402657
 10
487925.967313848
 20
241044.68707065
 10
487938.704341848
 20
241027.444627961
 10
487944.408236694
 20
241017.0427401
 10
487948.275188864
 20
241008.922565413
 10
487953.161664406
 20
241001.321024065
 10
487957.389994836
 20
240994.486663837
 10
487980.946762582
 20
240954.427625594
 10
487991.020690131
 20
240936.559794826
 10
487993.544920186
 20
240931.864868503
 10
487996.435017325
 20
240928.199946824
 10
488008.259447717
 20
240919.953231577
 10
488021.336473005
 20
240913.786873511
 10
488029.482778533
 20
240910.337133578
 10
488053.787984742
 20
240908.340893298
 10
488070.769137425
 20
240906.337793336
 10
488078.362807833
 20
240905.0589732
 10
488083.594439699
 20
240902.781646498
 10
488088.800153234
 20
240898.089629897
 10
488107.040358651
 20
240880.722300657
 10
488108.798663251
 20
240882.511199626
 10
488109.991587724
 20
240882.142884253
 10
488110.668432302
 20
240880.708526069
 10
488110.341522022
 20
240877.086956126
 10
488130.993568086
 20
240859.461937392
 10
488139.015136869
 20
240848.722951815
 10
488149.103598405
 20
240830.07689207
 10
488153.789862235
 20
240812.103011716
 10
488160.96898252
 20
240790.83554938
 10
488168.004133018
 20
240770.34433743
 10
488175.972524994
 20
240747.110506433
 10
488191.329198518
 20
240750.908851168
 10
488191.882198821
 20
240747.948116516
 10
488206.956093211
 20
240703.757130796
 10
488188.864070335
 20
240697.952277866
 10
488221.981882668
 20
240601.045091764
 10
488233.953874294
 20
240562.039427646
 10
488235.916878614
 20
240547.610980455
 10
488231.227084768
 20
240529.315531438
 10
488198.426675541
 20
240442.646098466
 10
488195.492786035
 20
240436.352800614
 10
488191.054594843
 20
240432.903287368
 10
488180.962108977
 20
240431.167261655
 10
488170.389859625
 20
240432.515668063
 10
488162.904019355
 20
240433.084241259
 10
488152.339811453
 20
240431.262056485
 10
488145.928921848
 20
240430.770480328
 10
488141.065712105
 20
240431.963965446
 10
488139.855382081
 20
240433.311013748
 10
488138.062228098
 20
240438.530566459
 10
488130.378187817
 20
240448.763755793
 10
488126.016602771
 20
240454.950348641
 10
488122.005093842
 20
240457.627468751
 10
488118.972403385
 20
240454.592247521
  0
LWPOLYLINE
  5
55
  8
0
100
AcDbEntity
100
AcDbPolyline
 70
0
 90
19
 10
488138.747867234
 20
241510.153018394
 10
488201.770059046
 20
241440.820662541
 10
488236.664110628
 20
241381.260058601
 10
488263.073845171
 20
241302.480311652
 10
488281.122624925
 20
241197.118376473
 10
488277.133878125
 20
241044.761446672
 10
488297.904732445
 20
241051.793404129
 10
488334.713802127
 20
241103.444809915
 10
488346.232415844
 20
241126.790001031
 10
488347.029760414
 20
241154.551222168
 10
488381.297848229
 20
241210.207692177
 10
488409.014196263
 20
241238.913435126
 10
488432.038858129
 20
241253.751576773
 10
488437.153668254
 20
241270.808754005
 10
488434.638200317
 20
241284.65994569
 10
488431.147135996
 20
241297.06976528
 10
488454.142471356
 20
241334.414485298
 10
488163.488254452
 20
241525.265031981
 10
488138.747867234
 20
241510.153018394
  0
LWPOLYLINE
  5
56
  8
0
100
AcDbEntity
100
AcDbPolyline
 70
0
 90
46
 10
489116.836952041
 20
240461.241930068
 10
489086.545370643
 20
240426.155842016
 10
489035.597120232
 20
240394.417083947
 10
489009.63686853
 20
240382.138352896
 10
488977.322937199
 20
240380.760714576
 10
488713.199240982
 20
240411.857669346
 10
488689.572007104
 20
240486.646159316
 10
488778.784550625
 20
240510.295419517
 10
488780.860466805
 20
240545.478002738
 10
488881.536300174
 20
240592.741413564
 10
488769.541668075
 20
241014.096452859
 10
488660.540511694
 20
241067.929590692
 10
488564.92362098
 20
241040.919742127
 10
488456.805009691
 20
241008.060443885
 10
488332.545007183
 20
240977.732333805
 10
488277.737933783
 20
240964.156536351
 10
488275.258664905
 20
241033.313452729
 10
488305.372521843
 20
241036.316523303
 10
488352.065122724
 20
241104.13049603
 10
488364.125726386
 20
241146.031609369
 10
488386.63661726
 20
241192.979857739
 10
488413.180591019
 20
241223.222415336
 10
488445.911387171
 20
241246.020620893
 10
488447.738383849
 20
241273.688889319
 10
488442.633187945
 20
241295.137389836
 10
488450.59605829
 20
241314.381210363
 10
488461.046954316
 20
241330.2091425
 10
488691.282067239
 20
241174.803272826
 10
488791.703958491
 20
241100.858807352
 10
488778.894636773
 20
241079.247388437
 10
488778.67046106
 20
241059.484393796
 10
488811.799543289
 20
240967.487387134
 10
488851.826582438
 20
240871.385767823
 10
488886.068593555
 20
240786.72966151
 10
488889.322348423
 20
240704.992496998
 10
488902.248701744
 20
240643.898802968
 10
488922.549889779
 20
240616.936359654
 10
488922.360129253
 20
240572.575346726
 10
488933.251909579
 20
240521.769972805
 10
488946.84693875
 20
240502.453678424
 10
488970.507020603
 20
240496.011236512
 10
489001.977041527
 20
240478.14880925
 10
489024.168694643
 20
240484.052045471
 10
489046.161599318
 20
240478.036346569
 10
489096.622135448
 20
240461.392532094
 10
489116.836952041
 20
240461.241930068
  0
LWPOLYLINE
  5
57
  8
0
100
AcDbEntity
100
AcDbPolyline
 70
0
 90
88
 10
487814.996299608
 20
240643.971380883
 10
487816.109953762
 20
240652.001348163
 10
487819.186011241
 20
240662.313222753
 10
487832.348082226
 20
240684.050604733
 10
487835.516544511
 20
240689.112883715
 10
487836.438382463
 20
240693.623821398
 10
487847.719030833
 20
240708.085411782
 10
487862.785686209
 20
240721.35655099
 10
487891.447696713
 20
240745.369804457
 10
487898.095520911
 20
240752.24015379
 10
487933.868125991
 20
240785.635419684
 10
487944.017221712
 20
240793.068221771
 10
487957.070082077
 20
240806.560035435
 10
487965.656065166
 20
240817.45872378
 10
487970.85955182
 20
240821.055050254
 10
487975.76090025
 20
240827.394052981
 10
487983.987421695
 20
240830.28719199
 10
487992.251038242
 20
240830.688885011
 10
488000.830144468
 20
240827.591623146
 10
488005.740588626
 20
240819.42315021
 10
488005.412248545
 20
240809.66028236
 10
488002.784163231
 20
240802.360070216
 10
487993.953860436
 20
240776.938214989
 10
487992.597837169
 20
240768.670285154
 10
487987.703349943
 20
240704.801383291
 10
487984.590235026
 20
240682.228430162
 10
487982.308021447
 20
240660.371046427
 10
487981.278872967
 20
240658.839821121
 10
487980.125680477
 20
240658.897355162
 10
487978.398921799
 20
240659.200657561
 10
487975.247759503
 20
240656.274686848
 10
487970.565191792
 20
240651.519372285
 10
487961.647371429
 20
240644.64226621
 10
487955.302168433
 20
240636.163973911
 10
487953.722799362
 20
240632.776216927
 10
487954.287651478
 20
240628.35822802
 10
487954.18037226
 20
240625.497081316
 10
487953.985728716
 20
240622.534264305
 10
487955.570901689
 20
240620.926772012
 10
487959.182702346
 20
240621.068351875
 10
487962.07521876
 20
240620.385085749
 10
487962.514049769
 20
240618.835255144
 10
487962.475130035
 20
240616.375832083
 10
487962.929851353
 20
240613.925115885
 10
487964.409607732
 20
240613.628576513
 10
487967.188270537
 20
240614.734511365
 10
487968.360585624
 20
240617.870331378
 10
487967.547733239
 20
240621.961304852
 10
487966.858931672
 20
240624.074126613
 10
487967.706467297
 20
240626.959456701
 10
487969.402424537
 20
240628.791704067
 10
487971.454940322
 20
240629.072670884
 10
487973.595822014
 20
240628.620913968
 10
487974.629404234
 20
240626.013527383
 10
487974.350929902
 20
240623.138234461
 10
487973.486339056
 20
240620.831128612
 10
487975.033771844
 20
240617.08687947
 10
487976.480501275
 20
240613.99725912
 10
487975.849638525
 20
240603.49477842
 10
487975.374764747
 20
240597.756766067
 10
487973.931505875
 20
240595.595209478
 10
487972.119705387
 20
240596.052771551
 10
487970.55650278
 20
240596.025197186
 10
487967.555324749
 20
240593.925165903
 10
487963.15117232
 20
240592.045151755
 10
487958.93754013
 20
240593.36152155
 10
487954.313914103
 20
240594.592785555
 10
487951.415499739
 20
240595.609717651
 10
487949.717750171
 20
240594.266967567
 10
487945.97040986
 20
240592.476430428
 10
487943.245173394
 20
240593.006899031
 10
487939.757499566
 20
240595.159373714
 10
487922.801808636
 20
240596.829631391
 10
487893.017681975
 20
240599.086003711
 10
487870.357338984
 20
240597.952407485
 10
487862.644566704
 20
240597.404875603
 10
487861.28196603
 20
240595.333778031
 10
487862.227342719
 20
240593.058580722
 10
487862.10041644
 20
240590.920248922
 10
487859.150116875
 20
240590.211867919
 10
487853.055380487
 20
240591.250426283
 10
487846.519303968
 20
240593.594026658
 10
487830.015380593
 20
240602.326121634
 10
487824.829016464
 20
240607.474894226
 10
487816.149201946
 20
240619.782602671
 10
487814.909441431
 20
240624.756119914
 10
487814.597622042
 20
240633.11700215
 10
487814.996299608
 20
240643.971380883
  0
LWPOLYLINE
  5
58
  8
0
100
AcDbEntity
100
AcDbPolyline
 70
0
 90
18
 10
488100.997689253
 20
241064.754023508
 10
488110.751945642
 20
241070.811776252
 10
488125.754760162
 20
241079.83269106
 10
488134.310187647
 20
241080.384420977
 10
488148.483663628
 20
241076.963536105
 10
488154.132032814
 20
241085.240652257
 10
488173.569231402
 20
241083.537226465
 10
488207.347909498
 20
241097.218273103
 10
488223.566026445
 20
241092.187193071
 10
488229.887282031
 20
241076.767799527
 10
488218.322732355
 20
241061.020821705
 10
488201.958808701
 20
241045.600621566
 10
488160.57992569
 20
241014.162413091
 10
488124.544508073
 20
241006.293846356
 10
488103.884741016
 20
241015.463345644
 10
488094.627036971
 20
241035.247841635
 10
488096.871744586
 20
241059.574512132
 10
488100.997689253
 20
241064.754023508
  0
LWPOLYLINE
  5
59
  8
0
100
AcDbEntity
100
AcDbPolyline
 70
0
 90
16
 10
488325.138059442
 20
240872.064319416
 10
488421.507663394
 20
240499.464668462
 10
488512.238899322
 20
240505.602206699
 10
488537.020070413
 20
240435.584041642
 10
488773.037434643
 20
240512.206842245
 10
488773.236332407
 20
240523.380439394
 10
488764.493223433
 20
240559.138107329
 10
488807.651239857
 20
240565.402475401
 10
488879.088077904
 20
240595.423543901
 10
488766.756739733
 20
241012.978821427
 10
488660.62205314
 20
241066.429090315
 10
488648.68395935
 20
241063.279689564
 10
488456.530788157
 20
241006.509128826
 10
488326.556259895
 20
240974.355343443
 10
488318.372365163
 20
240945.072615004
 10
488325.138059442
 20
240872.064319416
  0
LWPOLYLINE
  5
5A
  8
0
100
AcDbEntity
100
AcDbPolyline
 70
0
 90
14
 10
488054.505005126
 20
241157.053391033
 10
488079.177685214
 20
241172.61987112
 10
488099.586090449
 20
241172.980419295
 10
488114.57135031
 20
241166.291759044
 10
488128.932496718
 20
241152.23813965
 10
488135.448601793
 20
241125.774432538
 10
488126.776139967
 20
241103.136464087
 10
488113.181282215
 20
241088.177143221
 10
488093.924706735
 20
241079.65964007
 10
488075.009176006
 20
241080.560427505
 10
488055.537138697
 20
241098.607009945
 10
488043.516172489
 20
241115.672672001
 10
488046.731774123
 20
241140.561610964
 10
488054.505005126
 20
241157.053391033
  0
LWPOLYLINE
  5
5B
  8
0
100
AcDbEntity
100
AcDbPolyline
 70
0
 90
32
 10
488799.58862762
 20
241095.558815769
 10
488787.96768998
 20
241076.916811717
 10
488790.040699118
 20
241051.387175285
 10
488800.855506643
 20
241035.202929449
 10
488844.891992111
 20
240916.48763762
 10
488898.405814758
 20
240793.680548606
 10
488900.361253528
 20
240708.226552581
 10
488903.901984295
 20
240682.344853672
 10
488908.005836187
 20
240651.422189868
 10
488924.337979874
 20
240636.660495007
 10
488930.375406015
 20
240616.541873363
 10
488931.349883068
 20
240569.587111107
 10
488947.385755751
 20
240524.92580507
 10
488961.774120278
 20
240510.352064959
 10
488996.151618845
 20
240493.665150519
 10
489027.695638192
 20
240496.253001117
 10
489060.121887468
 20
240487.842490159
 10
489089.48000146
 20
240480.723573157
 10
489123.279322937
 20
240473.016655538
 10
489144.513725049
 20
240502.155782218
 10
489190.898230724
 20
240580.741794399
 10
489202.204455066
 20
240630.386105388
 10
489206.293746404
 20
240677.064326116
 10
489197.159459926
 20
240726.476546369
 10
489175.261011504
 20
240754.488524438
 10
489167.02392812
 20
240784.814208757
 10
489156.502686418
 20
240819.77181214
 10
489096.05546447
 20
240871.226444419
 10
489027.701445509
 20
240928.492791669
 10
488933.994777532
 20
241000.805727614
 10
488859.649068311
 20
241055.475298848
 10
488799.58862762
 20
241095.558815769
  0
ENDSEC
  0
SECTION
  2
OBJECTS
  0
DICTIONARY
  5
C
330
0
100
AcDbDictionary
281
     1
  3
ACAD_GROUP
350
D
  3
ACAD_LAYOUT
350
1A
  3
ACAD_MLEADERSTYLE
350
43
  3
ACAD_MLINESTYLE
350
17
  3
ACAD_PLOTSETTINGS
350
19
  3
ACAD_PLOTSTYLENAME
350
E
  3
ACAD_TABLESTYLE
350
42
  3
ACAD_VISUALSTYLE
350
2A
  0
DICTIONARY
  5
D
102
{ACAD_REACTORS
330
C
102
}
330
C
100
AcDbDictionary
281
     1
  0
DICTIONARY
  5
1A
102
{ACAD_REACTORS
330
C
102
}
330
C
100
AcDbDictionary
281
     1
  3
Layout1
350
1E
  3
Layout2
350
26
  3
Model
350
22
  0
DICTIONARY
  5
43
102
{ACAD_REACTORS
330
C
102
}
330
C
100
AcDbDictionary
281
     1
  0
DICTIONARY
  5
17
102
{ACAD_REACTORS
330
C
102
}
330
C
100
AcDbDictionary
281
     1
  3
Standard
350
18
  0
DICTIONARY
  5
19
102
{ACAD_REACTORS
330
C
102
}
330
C
100
AcDbDictionary
281
     1
  0
ACDBDICTIONARYWDFLT
  5
E
102
{ACAD_REACTORS
330
C
102
}
330
C
100
AcDbDictionary
281
     1
  3
Normal
350
F
100
AcDbDictionaryWithDefault
340
F
  0
DICTIONARY
  5
42
102
{ACAD_REACTORS
330
C
102
}
330
C
100
AcDbDictionary
281
     1
  0
DICTIONARY
  5
2A
102
{ACAD_REACTORS
330
C
102
}
330
C
100
AcDbDictionary
281
     1
  3
2dWireframe
350
2F
  3
3D Hidden
350
31
  3
3dWireframe
350
30
  3
Basic
350
32
  3
Brighten
350
36
  3
ColorChange
350
3A
  3
Conceptual
350
34
  3
Dim
350
35
  3
Facepattern
350
39
  3
Flat
350
2B
  3
FlatWithEdges
350
2C
  3
Gouraud
350
2D
  3
GouraudWithEdges
350
2E
  3
Linepattern
350
38
  3
Realistic
350
33
  3
Thicken
350
37
  0
LAYOUT
  5
1E
102
{ACAD_REACTORS
330
1A
102
}
330
1A
100
AcDbPlotSettings
  1

  2
none_device
  4

  6

 40
0.0
 41
0.0
 42
0.0
 43
0.0
 44
0.0
 45
0.0
 46
0.0
 47
0.0
 48
0.0
 49
0.0
140
0.0
141
0.0
142
1.0
143
1.0
 70
   688
 72
     0
 73
     0
 74
     5
  7

 75
    16
 76
     0
 77
     2
 78
   300
147
1.0
148
0.0
149
0.0
100
AcDbLayout
  1
Layout1
 70
     1
 71
     1
 10
0.0
 20
0.0
 11
12.0
 21
9.0
 12
0.0
 22
0.0
 32
0.0
 14
1.000000000000000E+20
 24
1.000000000000000E+20
 34
1.000000000000000E+20
 15
-1.000000000000000E+20
 25
-1.000000000000000E+20
 35
-1.000000000000000E+20
146
0.0
 13
0.0
 23
0.0
 33
0.0
 16
1.0
 26
0.0
 36
0.0
 17
0.0
 27
1.0
 37
0.0
 76
     0
330
1B
  0
LAYOUT
  5
26
102
{ACAD_REACTORS
330
1A
102
}
330
1A
100
AcDbPlotSettings
  1

  2
none_device
  4

  6

 40
0.0
 41
0.0
 42
0.0
 43
0.0
 44
0.0
 45
0.0
 46
0.0
 47
0.0
 48
0.0
 49
0.0
140
0.0
141
0.0
142
1.0
143
1.0
 70
   688
 72
     0
 73
     0
 74
     5
  7

 75
    16
 76
     0
 77
     2
 78
   300
147
1.0
148
0.0
149
0.0
100
AcDbLayout
  1
Layout2
 70
     1
 71
     2
 10
0.0
 20
0.0
 11
0.0
 21
0.0
 12
0.0
 22
0.0
 32
0.0
 14
0.0
 24
0.0
 34
0.0
 15
0.0
 25
0.0
 35
0.0
146
0.0
 13
0.0
 23
0.0
 33
0.0
 16
1.0
 26
0.0
 36
0.0
 17
0.0
 27
1.0
 37
0.0
 76
     0
330
23
  0
LAYOUT
  5
22
102
{ACAD_REACTORS
330
1A
102
}
330
1A
100
AcDbPlotSettings
  1

  2
none_device
  4

  6

 40
0.0
 41
0.0
 42
0.0
 43
0.0
 44
0.0
 45
0.0
 46
0.0
 47
0.0
 48
0.0
 49
0.0
140
0.0
141
0.0
142
1.0
143
1.0
 70
  1712
 72
     0
 73
     0
 74
     0
  7

 75
     0
 76
     0
 77
     2
 78
   300
147
1.0
148
0.0
149
0.0
100
AcDbLayout
  1
Model
 70
     1
 71
     0
 10
0.0
 20
0.0
 11
12.0
 21
9.0
 12
0.0
 22
0.0
 32
0.0
 14
30.0
 24
49.75
 34
0.0
 15
130.5
 25
163.1318914119703
 35
0.0
146
0.0
 13
0.0
 23
0.0
 33
0.0
 16
1.0
 26
0.0
 36
0.0
 17
0.0
 27
1.0
 37
0.0
 76
     0
330
1F
331
29
  0
MLINESTYLE
  5
18
102
{ACAD_REACTORS
330
17
102
}
330
17
100
AcDbMlineStyle
  2
Standard
 70
     0
  3

 62
   256
 51
90.0
 52
90.0
 71
     2
 49
0.5
 62
   256
  6
BYLAYER
 49
-0.5
 62
   256
  6
BYLAYER
  0
ACDBPLACEHOLDER
  5
F
102
{ACAD_REACTORS
330
E
102
}
330
E
  0
VISUALSTYLE
  5
2F
102
{ACAD_REACTORS
330
2A
102
}
330
2A
100
AcDbVisualStyle
  2
2dWireframe
 70
     4
 71
     0
 72
     2
 73
     0
 90
        0
 40
-0.6
 41
-30.0
 62
     5
 63
     7
421
 16777215
 74
     1
 91
        4
 64
     7
 65
   257
 75
     1
175
     1
 42
1.0
 92
        0
 66
   257
 43
1.0
 76
     1
 77
     6
 78
     2
 67
     7
 79
     5
170
     0
171
     0
290
     0
174
     0
 93
        1
 44
0.0
173
     0
291
     0
 45
0.0
1001
ACAD
1000
AcDbSavedByObjectVersion
1070
     0
  0
VISUALSTYLE
  5
31
102
{ACAD_REACTORS
330
2A
102
}
330
2A
100
AcDbVisualStyle
  2
3D Hidden
 70
     6
 71
     1
 72
     2
 73
     2
 90
        0
 40
-0.6
 41
-30.0
 62
     5
 63
     7
421
 16777215
 74
     2
 91
        2
 64
     7
 65
   257
 75
     2
175
     1
 42
40.0
 92
        0
 66
   257
 43
1.0
 76
     1
 77
     6
 78
     2
 67
     7
 79
     3
170
     0
171
     0
290
     0
174
     0
 93
        1
 44
0.0
173
     0
291
     0
 45
0.0
1001
ACAD
1000
AcDbSavedByObjectVersion
1070
     0
  0
VISUALSTYLE
  5
30
102
{ACAD_REACTORS
330
2A
102
}
330
2A
100
AcDbVisualStyle
  2
3dWireframe
 70
     5
 71
     0
 72
     2
 73
     0
 90
        0
 40
-0.6
 41
-30.0
 62
     5
 63
     7
421
 16777215
 74
     1
 91
        4
 64
     7
 65
   257
 75
     1
175
     1
 42
1.0
 92
        0
 66
   257
 43
1.0
 76
     1
 77
     6
 78
     2
 67
     7
 79
     5
170
     0
171
     0
290
     0
174
     0
 93
        1
 44
0.0
173
     0
291
     0
 45
0.0
1001
ACAD
1000
AcDbSavedByObjectVersion
1070
     0
  0
VISUALSTYLE
  5
32
102
{ACAD_REACTORS
330
2A
102
}
330
2A
100
AcDbVisualStyle
  2
Basic
 70
     7
 71
     1
 72
     0
 73
     1
 90
        0
 40
-0.6
 41
-30.0
 62
     5
 63
     7
421
 16777215
 74
     0
 91
        4
 64
     7
 65
   257
 75
     1
175
     1
 42
1.0
 92
        8
 66
     7
 43
1.0
 76
     1
 77
     6
 78
     2
 67
     7
 79
     5
170
     0
171
     0
290
     0
174
     0
 93
        1
 44
0.0
173
     0
291
     1
 45
0.0
1001
ACAD
1000
AcDbSavedByObjectVersion
1070
     0
  0
VISUALSTYLE
  5
36
102
{ACAD_REACTORS
330
2A
102
}
330
2A
100
AcDbVisualStyle
  2
Brighten
 70
    12
 71
     2
 72
     2
 73
     0
 90
        0
 40
-0.6
 41
-30.0
 62
     5
 63
     7
421
 16777215
 74
     1
 91
        4
 64
     7
 65
   257
 75
     1
175
     1
 42
1.0
 92
        8
 66
     7
 43
1.0
 76
     1
 77
     6
 78
     2
 67
     7
 79
     5
170
     0
171
     0
290
     0
174
     0
 93
        1
 44
50.0
173
     0
291
     1
 45
0.0
1001
ACAD
1000
AcDbSavedByObjectVersion
1070
     0
  0
VISUALSTYLE
  5
3A
102
{ACAD_REACTORS
330
2A
102
}
330
2A
100
AcDbVisualStyle
  2
ColorChange
 70
    16
 71
     2
 72
     2
 73
     3
 90
        0
 40
-0.6
 41
-30.0
 62
     5
 63
     8
421
  8421504
 74
     1
 91
        4
 64
     7
 65
   257
 75
     1
175
     1
 42
1.0
 92
        8
 66
     8
424
  8421504
 43
1.0
 76
     1
 77
     6
 78
     2
 67
     7
 79
     5
170
     0
171
     0
290
     0
174
     0
 93
        1
 44
0.0
173
     0
291
     1
 45
0.0
1001
ACAD
1000
AcDbSavedByObjectVersion
1070
     0
  0
VISUALSTYLE
  5
34
102
{ACAD_REACTORS
330
2A
102
}
330
2A
100
AcDbVisualStyle
  2
Conceptual
 70
     9
 71
     3
 72
     2
 73
     0
 90
        0
 40
-0.6
 41
-30.0
 62
     5
 63
     7
421
 16777215
 74
     2
 91
        2
 64
     7
 65
   257
 75
     1
175
     1
 42
40.0
 92
        8
 66
     7
 43
1.0
 76
     1
 77
     6
 78
     2
 67
     7
 79
     3
170
     0
171
     0
290
     0
174
     0
 93
        1
 44
0.0
173
     0
291
     0
 45
0.0
1001
ACAD
1000
AcDbSavedByObjectVersion
1070
     0
  0
VISUALSTYLE
  5
35
102
{ACAD_REACTORS
330
2A
102
}
330
2A
100
AcDbVisualStyle
  2
Dim
 70
    11
 71
     2
 72
     2
 73
     0
 90
        0
 40
-0.6
 41
-30.0
 62
     5
 63
     7
421
 16777215
 74
     1
 91
        4
 64
     7
 65
   257
 75
     1
175
     1
 42
1.0
 92
        8
 66
     7
 43
1.0
 76
     1
 77
     6
 78
     2
 67
     7
 79
     5
170
     0
171
     0
290
     0
174
     0
 93
        1
 44
-50.0
173
     0
291
     1
 45
0.0
1001
ACAD
1000
AcDbSavedByObjectVersion
1070
     0
  0
VISUALSTYLE
  5
39
102
{ACAD_REACTORS
330
2A
102
}
330
2A
100
AcDbVisualStyle
  2
Facepattern
 70
    15
 71
     2
 72
     2
 73
     0
 90
        0
 40
-0.6
 41
-30.0
 62
     5
 63
     7
421
 16777215
 74
     1
 91
        4
 64
     7
 65
   257
 75
     1
175
     1
 42
1.0
 92
        8
 66
     7
 43
1.0
 76
     1
 77
     6
 78
     2
 67
     7
 79
     5
170
     0
171
     0
290
     0
174
     0
 93
        1
 44
0.0
173
     0
291
     1
 45
0.0
1001
ACAD
1000
AcDbSavedByObjectVersion
1070
     0
  0
VISUALSTYLE
  5
2B
102
{ACAD_REACTORS
330
2A
102
}
330
2A
100
AcDbVisualStyle
  2
Flat
 70
     0
 71
     2
 72
     1
 73
     1
 90
        2
 40
-0.6
 41
30.0
 62
     5
 63
     7
421
 16777215
 74
     0
 91
        4
 64
     7
 65
   257
 75
     1
175
     1
 42
1.0
 92
        8
 66
     7
 43
1.0
 76
     1
 77
     6
 78
     2
 67
     7
 79
     5
170
     0
171
     0
290
     0
174
     0
 93
       13
 44
0.0
173
     0
291
     1
 45
0.0
1001
ACAD
1000
AcDbSavedByObjectVersion
1070
     0
  0
VISUALSTYLE
  5
2C
102
{ACAD_REACTORS
330
2A
102
}
330
2A
100
AcDbVisualStyle
  2
FlatWithEdges
 70
     1
 71
     2
 72
     1
 73
     1
 90
        2
 40
-0.6
 41
30.0
 62
     5
 63
     7
421
 16777215
 74
     1
 91
        4
 64
     7
 65
   257
 75
     1
175
     1
 42
1.0
 92
        0
 66
   257
 43
1.0
 76
     1
 77
     6
 78
     2
 67
     7
 79
     5
170
     0
171
     0
290
     0
174
     0
 93
       13
 44
0.0
173
     0
291
     1
 45
0.0
1001
ACAD
1000
AcDbSavedByObjectVersion
1070
     0
  0
VISUALSTYLE
  5
2D
102
{ACAD_REACTORS
330
2A
102
}
330
2A
100
AcDbVisualStyle
  2
Gouraud
 70
     2
 71
     2
 72
     2
 73
     1
 90
        2
 40
-0.6
 41
30.0
 62
     5
 63
     7
421
 16777215
 74
     0
 91
        4
 64
     7
 65
   257
 75
     1
175
     1
 42
1.0
 92
        0
 66
     7
 43
1.0
 76
     1
 77
     6
 78
     2
 67
     7
 79
     5
170
     0
171
     0
290
     0
174
     0
 93
       13
 44
0.0
173
     0
291
     1
 45
0.0
1001
ACAD
1000
AcDbSavedByObjectVersion
1070
     0
  0
VISUALSTYLE
  5
2E
102
{ACAD_REACTORS
330
2A
102
}
330
2A
100
AcDbVisualStyle
  2
GouraudWithEdges
 70
     3
 71
     2
 72
     2
 73
     1
 90
        2
 40
-0.6
 41
30.0
 62
     5
 63
     7
421
 16777215
 74
     1
 91
        4
 64
     7
 65
   257
 75
     1
175
     1
 42
1.0
 92
        0
 66
   257
 43
1.0
 76
     1
 77
     6
 78
     2
 67
     7
 79
     5
170
     0
171
     0
290
     0
174
     0
 93
       13
 44
0.0
173
     0
291
     1
 45
0.0
1001
ACAD
1000
AcDbSavedByObjectVersion
1070
     0
  0
VISUALSTYLE
  5
38
102
{ACAD_REACTORS
330
2A
102
}
330
2A
100
AcDbVisualStyle
  2
Linepattern
 70
    14
 71
     2
 72
     2
 73
     0
 90
        0
 40
-0.6
 41
-30.0
 62
     5
 63
     7
421
 16777215
 74
     1
 91
        4
 64
     7
 65
   257
 75
     7
175
     7
 42
1.0
 92
        8
 66
     7
 43
1.0
 76
     1
 77
     6
 78
     2
 67
     7
 79
     5
170
     0
171
     0
290
     0
174
     0
 93
        1
 44
0.0
173
     0
291
     1
 45
0.0
1001
ACAD
1000
AcDbSavedByObjectVersion
1070
     0
  0
VISUALSTYLE
  5
33
102
{ACAD_REACTORS
330
2A
102
}
330
2A
100
AcDbVisualStyle
  2
Realistic
 70
     8
 71
     2
 72
     2
 73
     0
 90
        0
 40
-0.6
 41
-30.0
 62
     5
 63
     7
421
 16777215
 74
     1
 91
        0
 64
     7
 65
   257
 75
     1
175
     1
 42
1.0
 92
        8
 66
     8
424
  7895160
 43
1.0
 76
     1
 77
     6
 78
     2
 67
     7
 79
     5
170
     0
171
     0
290
     0
174
     0
 93
       13
 44
0.0
173
     0
291
     0
 45
0.0
1001
ACAD
1000
AcDbSavedByObjectVersion
1070
     0
  0
VISUALSTYLE
  5
37
102
{ACAD_REACTORS
330
2A
102
}
330
2A
100
AcDbVisualStyle
  2
Thicken
 70
    13
 71
     2
 72
     2
 73
     0
 90
        0
 40
-0.6
 41
-30.0
 62
     5
 63
     7
421
 16777215
 74
     1
 91
        4
 64
     7
 65
   257
 75
     1
175
     1
 42
1.0
 92
       12
 66
     7
 43
1.0
 76
     1
 77
     6
 78
     2
 67
     7
 79
     5
170
     0
171
     0
290
     0
174
     0
 93
        1
 44
0.0
173
     0
291
     1
 45
0.0
1001
ACAD
1000
AcDbSavedByObjectVersion
1070
     0
  0
ENDSEC
  0
EOF
